<svg xmlns="http://www.w3.org/2000/svg" width="23.819" height="30.375" viewBox="0 0 23.819 30.375"><defs><style>.a{fill:#ca0027;}</style></defs><path class="a" d="M26.759,30.8l-2.611,1.879V29.523H18.29a1.761,1.761,0,0,1-1.942-1.942c0-5.413-.032-10.825-.032-16.27v-.318H14.31a1.75,1.75,0,0,1-1.879-1.719,27.16,27.16,0,0,1,.064-3.6A3.725,3.725,0,0,1,16.157,2.3H31.79a4.175,4.175,0,0,1,3.566,2.2,6.368,6.368,0,0,1,.86,3.311v19.9a1.719,1.719,0,0,1-1.783,1.815H29.4v3.152Zm3.12-8.151a3.121,3.121,0,1,0-3.168,3.073,3.121,3.121,0,0,0,3.168-3.073Zm-4.935,8.437,1.592-1.114a.318.318,0,0,1,.446,0l1.592,1.114V26.371a4.266,4.266,0,0,1-3.63,0Zm7.8-22.8H20.137v.987H32.745Zm0,3.279H20.137v.987H32.745ZM20.137,15.8H32.745v-.955H20.137ZM16.284,9.528c0-1.019.032-1.974-.032-2.9a8.661,8.661,0,0,0-.287-1.783.732.732,0,0,0-.637-.6.764.764,0,0,0-.86.318,2.324,2.324,0,0,0-.6,1.56v2.9c0,.255.064.509.382.509Z" transform="translate(-12.399 -2.3)"/></svg>