<svg xmlns="http://www.w3.org/2000/svg" width="35.026" height="39.376" viewBox="0 0 35.026 39.376"><defs><style>.a{fill:#fff;}</style></defs><g transform="translate(-492.441 -285.864)"><path class="a" d="M510.5,317.13a13.722,13.722,0,1,0-11.744-5.554c.061.084.131.162.19.247a1.874,1.874,0,0,1-.258,2.755,1.848,1.848,0,0,1-2.7-.6,16.965,16.965,0,0,1-3.465-8.873,17.5,17.5,0,1,1,21.4,15.292c-1.072.238-2.169.359-3.373.554a18.884,18.884,0,0,1-.033,2.644,2.242,2.242,0,0,1-.771,1.529,2.015,2.015,0,0,1-1.684-.2c-2.386-1.47-4.721-3.023-7.057-4.571-1.145-.758-1.171-1.835-.048-2.586q3.537-2.367,7.121-4.665c1.265-.813,2.354-.23,2.418,1.279C510.526,315.278,510.5,316.172,510.5,317.13Z" transform="translate(0 0)"/><path class="a" d="M1834.344,956.786c0-1.246-.017-2.491,0-3.736a1.9,1.9,0,0,1,1.859-2.065,1.956,1.956,0,0,1,1.87,2.077c.022,1.937.03,3.874-.007,5.812a1.025,1.025,0,0,0,.683,1.106c1.221.567,2.422,1.18,3.618,1.8a1.837,1.837,0,1,1-1.6,3.3c-1.746-.833-3.471-1.709-5.2-2.567a2.046,2.046,0,0,1-1.229-1.992C1834.351,959.276,1834.344,958.032,1834.344,956.786Z" transform="translate(-1326.246 -657.364)"/></g></svg>