<svg xmlns="http://www.w3.org/2000/svg" width="39.991" height="39.975" viewBox="0 0 39.991 39.975"><defs><style>.a{fill:#fff;}</style></defs><g transform="translate(-754.236 -546.5)"><path class="a" d="M2297.047,2058.807a4.5,4.5,0,0,1-1.417,2.18q-5.73,5.7-11.427,11.43a2.727,2.727,0,0,1-1.58.823c-1.476.235-2.945.511-4.418.765a1.245,1.245,0,0,1-1.488-1.482c.272-1.588.532-3.179.846-4.76a2.08,2.08,0,0,1,.526-1q6.025-6.068,12.087-12.1a5.051,5.051,0,0,1,1.105-.852,2.268,2.268,0,0,1,2.8.378,30.121,30.121,0,0,1,2.139,2.165,7.986,7.986,0,0,1,.824,1.514Z" transform="translate(-1502.82 -1487.553)"/><path class="a" d="M1278.02,546.5c.3.082.6.147.891.251a4.525,4.525,0,0,1,2.818,2.778.389.389,0,0,0,.443.313c.494-.018.988-.014,1.483,0a1.218,1.218,0,0,1,1.254,1.26c.012.858.021,1.717-.005,2.575a2.879,2.879,0,0,1-2.871,2.813q-4.6.023-9.21,0a2.907,2.907,0,0,1-2.9-2.879c-.03-.832-.021-1.665,0-2.5a1.238,1.238,0,0,1,1.291-1.273c.507-.01,1.015.012,1.522-.013a.447.447,0,0,0,.334-.214,4.575,4.575,0,0,1,3.679-3.06.348.348,0,0,0,.1-.054Z" transform="translate(-509.019)"/><path class="a" d="M777.571,934.76a4.548,4.548,0,0,1,4.987,4.489c.044,3.644.014,7.288.005,10.932a.635.635,0,0,1-.172.4q-2.821,2.84-5.66,5.66a.516.516,0,0,1-.33.137q-7.888.006-15.775,0a1.3,1.3,0,0,0-1.378,1.072,1.232,1.232,0,0,0,.829,1.347,2.287,2.287,0,0,0,.691.076q6.365.006,12.73,0h.424a16.4,16.4,0,0,0-2.008,2.621,16.658,16.658,0,0,0-.882,3.216h-.365q-5.837,0-11.676,0a4.582,4.582,0,0,1-4.753-4.744q0-10.326,0-20.653a4.576,4.576,0,0,1,5-4.564c0,.679,0,1.362,0,2.047a4.429,4.429,0,0,0,.948,2.791,4.307,4.307,0,0,0,3.45,1.78c3.176.028,6.353.041,9.527,0a4.535,4.535,0,0,0,4.4-4.567C777.581,936.128,777.571,935.453,777.571,934.76Zm-9.161,16.211c-2.587,0-5.176-.006-7.764.009a1.793,1.793,0,0,0-.814.2,1.186,1.186,0,0,0-.556,1.34,1.255,1.255,0,0,0,1.234.948c1.937.006,3.876,0,5.813,0q4.916,0,9.831,0a1.322,1.322,0,0,0,1.157-.52,1.148,1.148,0,0,0,.128-1.25,1.228,1.228,0,0,0-1.188-.733Zm-.038-5.407h-7.334c-.221,0-.442-.008-.663.01a1.183,1.183,0,0,0-1.04.769,1.149,1.149,0,0,0,.19,1.242,1.4,1.4,0,0,0,1.182.48q7.685-.006,15.371,0a2.166,2.166,0,0,0,.54-.054,1.187,1.187,0,0,0,.9-.883,1.236,1.236,0,0,0-1.3-1.557C773.6,945.56,770.986,945.563,768.373,945.563Z" transform="translate(0 -383.23)"/></g></svg>