<?xml version="1.0" encoding="utf-8"?>
<!-- Generator: Adobe Illustrator 25.2.3, SVG Export Plug-In . SVG Version: 6.00 Build 0)  -->
<svg version="1.1" id="Layer_1" xmlns="http://www.w3.org/2000/svg" xmlns:xlink="http://www.w3.org/1999/xlink" x="0px" y="0px"
	 viewBox="0 0 35 26" style="enable-background:new 0 0 35 26;" xml:space="preserve">
<style type="text/css">
	.st0{fill:#535353;}
	.st1{fill:#9D9D9D;}
	.st2{fill:#CA0027;}
</style>
<path id="id-card_1_" class="st2" d="M29.9,1.3H6.3c-1.9,0-3.5,1.6-3.5,3.5v15.9c0,1.9,1.6,3.5,3.5,3.5h23.5c1.9,0,3.5-1.6,3.5-3.5
	V4.8C33.4,2.9,31.8,1.3,29.9,1.3z M12.4,6.4c1.8,0,3.2,1.4,3.2,3.2s-1.4,3.2-3.2,3.2s-3.2-1.4-3.2-3.2C9.2,7.9,10.6,6.4,12.4,6.4z
	 M18.1,18.2c0,0.5-0.4,1-1,1H7.6c-0.5,0-1-0.4-1-1v-0.6c0-1.9,1.6-3.5,3.5-3.5h0h4.4c1.9,0,3.5,1.6,3.5,3.5L18.1,18.2z M28.6,19.2
	h-7c-0.5,0-1-0.4-1-1s0.4-1,1-1h7c0.5,0,1,0.4,1,1S29.1,19.2,28.6,19.2z M28.6,14.1h-7c-0.5,0-1-0.4-1-1s0.4-1,1-1h7
	c0.5,0,1,0.4,1,1S29.1,14.1,28.6,14.1z M28.6,9h-7c-0.5,0-1-0.4-1-1c0-0.5,0.4-1,1-1h7c0.5,0,1,0.4,1,1C29.6,8.6,29.1,9,28.6,9z"/>
</svg>
