<svg xmlns="http://www.w3.org/2000/svg" width="45.445" height="84.65" viewBox="0 0 45.445 84.65"><defs><style>.a{fill:#324b74;}</style></defs><path class="a" d="M40.2,87.068c-2.709-1.1-3.386-2.2-3.386-5.164V57.017a1.354,1.354,0,0,1,.593-1.354,6.687,6.687,0,0,0,2.709-5.841c-.085-6.941,0-13.8,0-20.739a5.755,5.755,0,0,0-4.063-5.926,1.439,1.439,0,0,0-1.862.677L30.38,30.775a1.185,1.185,0,0,0,0,.931c1.27,3.555,2.54,7.111,3.725,10.666a3.3,3.3,0,0,1-1.778,4.4A3.217,3.217,0,0,1,27.925,45c-1.608-4.4-3.132-8.888-4.656-13.29a3.217,3.217,0,0,1,.254-2.624L28.6,19.94a8.38,8.38,0,0,1,9.058-3.894A11.682,11.682,0,0,1,41.638,17.4c2.963,1.608,6.01,1.27,9.058-.339,4.571-2.286,9.481-1.693,12.19,2.624s3.555,6.349,5.333,9.565A3.386,3.386,0,0,1,68.3,31.96c-1.439,4.233-2.963,8.465-4.4,12.782a3.386,3.386,0,0,1-4.4,2.116,3.3,3.3,0,0,1-1.947-4.4c1.185-3.64,2.455-7.2,3.725-10.751a1.185,1.185,0,0,0-.169-1.27c-1.1-2.032-2.2-4.063-3.386-6.01s-1.27-1.439-2.539-.931a6.871,6.871,0,0,0-3.64,5.587V49.991a6.264,6.264,0,0,0,2.624,5.5,1.862,1.862,0,0,1,.677,1.608,23.706,23.706,0,0,0,0,2.455,4.063,4.063,0,1,1-8.126,0c-.085-2.455,0-4.91,0-7.28V51.261H44.94V81.989c0,3.047-.677,3.979-3.386,5.079Z" transform="translate(-23.1 -2.418)"/><path class="a" d="M29.8,88.8a2.793,2.793,0,0,1,.169-3.471c.169-.169.169-.593.169-.846V62.647c0-.931.085-1.862,0-2.793a1.185,1.185,0,0,0-.423-.931c-1.27-1.185-2.54-2.2-3.809-3.3A4.232,4.232,0,0,1,24.3,52.235v-9.9l.339.593c.423,1.354.931,2.709,1.354,4.063s.169.593.423.846a8.7,8.7,0,0,1,.847,3.809,2.37,2.37,0,0,0,.847,1.947l3.3,2.793,3.555-3.132a2.285,2.285,0,0,0,.508-1.016,10.239,10.239,0,0,0,0-1.608,5.5,5.5,0,0,1,.593-3.047,4.486,4.486,0,0,0,.085-4.148,12.444,12.444,0,0,1-.677-4.317c.085-2.709,0-5.418,0-8.211,0-.677,0-1.354-1.1-1.185l1.354-2.455c.085-.169.508-.254.762-.169a3.555,3.555,0,0,1,1.947,2.793,8.127,8.127,0,0,1,0,1.439c0,6.772,0,13.629.085,20.4a4.994,4.994,0,0,1-1.947,4.148c-1.185.931-2.286,1.947-3.386,2.963a1.693,1.693,0,0,0-.508,1.1C32.6,68.149,32.6,76.36,32.6,84.571c0,.339,0,.762.508.931l.254.254a4.232,4.232,0,0,1-.339,3.047Z" transform="translate(-23.284 -4.154)"/><path class="a" d="M64.4,88.784a2.624,2.624,0,0,1,.169-3.471,1.439,1.439,0,0,0,.085-.593c.085-8.38.085-16.676,0-24.972a1.354,1.354,0,0,0-.423-.931l-3.809-3.3A4.148,4.148,0,0,1,58.9,52.131V30.46a3.725,3.725,0,0,1,1.862-3.386c.423-.254.677-.169.931.254a21.331,21.331,0,0,0,1.27,2.286c-1.1,0-1.1.593-1.1,1.354v8.55a8.72,8.72,0,0,1-.593,3.555,5.5,5.5,0,0,0,.423,5.333,2.709,2.709,0,0,1,.169,1.185c0,1.1-.339,2.286.085,3.217s1.524,1.439,2.286,2.116l1.693,1.439,3.809-3.3a1.947,1.947,0,0,0,.339-.847V51.2a5.756,5.756,0,0,1,.762-3.3,36.655,36.655,0,0,0,1.778-4.571l.339-1.016a3.132,3.132,0,0,1,.085.677v9.058a4.486,4.486,0,0,1-1.693,3.64L67.618,58.9a1.354,1.354,0,0,0-.423.931V84.552a2.032,2.032,0,0,0,.423.847l.254.254a4.487,4.487,0,0,1-.339,3.132Z" transform="translate(-28.595 -4.134)"/><path class="a" d="M49.641,0l1.693.593a6.941,6.941,0,0,1,4.148,8.126A7.026,7.026,0,0,1,41.6,7.365a7.2,7.2,0,0,1,5.418-7.2L47.694,0Z" transform="translate(-25.939)"/></svg>