<?xml version="1.0" encoding="utf-8"?>
<!-- Generator: Adobe Illustrator 25.2.3, SVG Export Plug-In . SVG Version: 6.00 Build 0)  -->
<svg version="1.1" id="Layer_1" xmlns="http://www.w3.org/2000/svg" xmlns:xlink="http://www.w3.org/1999/xlink" x="0px" y="0px"
	 viewBox="0 0 27 28" style="enable-background:new 0 0 27 28;" xml:space="preserve">
<style type="text/css">
	.st0{fill:#CA0027;}
	.st1{fill:#AFAFAF;}
	.st2{fill:#FFFFFF;}
	.st3{fill:#7C7C7C;}
	.st4{fill:#434343;}
	.st5{fill:#E04F5F;}
	.st6{fill:#B2B2B2;}
</style>
<g id="Group_16" transform="translate(16.16 0)">
	<g id="Group_15">
		<path id="Path_222" class="st2" d="M2.8,2.3v6.3h6.3L2.8,2.3z"/>
	</g>
</g>
<g id="Group_18" transform="translate(0 10.283)">
	<g id="Group_17" transform="translate(0)">
		<path id="Path_223" class="st2" d="M9.6,14.5L8.4,9.7c1.6-1.5,1.6-4,0.1-5.5S4.5,2.5,3,4C1.4,5.5,1.3,8,2.8,9.5
			c0,0.1,0.1,0.1,0.1,0.1l-1.2,4.8c-0.1,0.4,0.1,0.8,0.6,1c0.2,0,0.4,0,0.5-0.1L5.7,14l2.8,1.4c0.1,0.1,0.2,0.1,0.4,0.1
			c0.4,0,0.8-0.3,0.8-0.8C9.6,14.6,9.6,14.5,9.6,14.5z M5.7,9.2c-1.3,0-2.3-1-2.3-2.3c0-1.3,1-2.3,2.3-2.3S8,5.6,8,6.9l0,0
			C8,8.1,7,9.2,5.7,9.2z"/>
	</g>
</g>
<g id="Group_20" transform="translate(4.408 0)">
	<g id="Group_19" transform="translate(0 0)">
		<path id="Path_224" class="st2" d="M14.6,10.1c-0.9,0-1.6-0.7-1.6-1.6V2.3H3.6C2.7,2.3,2,3,2,3.8v7.9c2.7,0.4,4.7,2.7,4.7,5.4
			c0,1.2-0.4,2.3-1.1,3.2l0.9,3.8h12.6c0.9,0,1.6-0.7,1.6-1.6c0,0,0,0,0,0V10.1H14.6z M6,8.5c-0.4,0-0.8-0.4-0.8-0.8
			C5.2,7.3,5.5,7,6,7h4.7c0.4,0,0.8,0.3,0.8,0.8c0,0.4-0.3,0.8-0.8,0.8c0,0,0,0-0.1,0H6z M16.9,17.9H9.1c-0.4,0-0.8-0.4-0.8-0.8
			c0-0.4,0.3-0.7,0.8-0.8h7.8c0.4,0,0.8,0.3,0.8,0.8C17.7,17.5,17.4,17.9,16.9,17.9C17,17.9,16.9,17.9,16.9,17.9z M16.9,13.2H7.5
			c-0.4,0-0.8-0.3-0.8-0.8c0-0.4,0.3-0.8,0.8-0.8c0,0,0,0,0.1,0h9.4c0.4,0,0.8,0.3,0.8,0.8C17.7,12.8,17.4,13.2,16.9,13.2
			C17,13.2,16.9,13.2,16.9,13.2z"/>
	</g>
</g>
</svg>
