<svg xmlns="http://www.w3.org/2000/svg" width="69.814" height="45.229" viewBox="0 0 69.814 45.229">
  <g id="Group_903" data-name="Group 903" transform="translate(-304.594 -1713.5)">
    <path id="Path_883" data-name="Path 883" d="M514.261,324.34a3.937,3.937,0,0,0-1.318.227,5.6,5.6,0,0,1,0,7.577,3.911,3.911,0,0,0,1.318.228,4.017,4.017,0,0,0,0-8.033Z" transform="translate(-152.73 1417.411)" fill="#324b74"/>
    <path id="Path_884" data-name="Path 884" d="M456.867,328.359a4.017,4.017,0,1,0-4.017,4.017A4.03,4.03,0,0,0,456.867,328.359Z" transform="translate(-96.77 1417.409)" fill="#324b74"/>
    <path id="Path_885" data-name="Path 885" d="M75.391,173.93H145.2v6.378H75.391Z" transform="translate(229.203 1548.702)" fill="#324b74"/>
    <path id="Path_886" data-name="Path 886" d="M75.391,234.97v24.344a4,4,0,0,0,3.995,3.995H141.2a4.006,4.006,0,0,0,4.006-3.995V234.97Zm8.066,15.011H94.536a.691.691,0,1,1,0,1.382H83.457a.691.691,0,1,1,0-1.382Zm16.768,5.867H83.457a.691.691,0,1,1,0-1.382h16.768a.691.691,0,1,1,0,1.382Zm32.1.109a5.5,5.5,0,0,1-2.72-.734,5.521,5.521,0,0,1-2.73.734,5.61,5.61,0,1,1,0-11.22,5.517,5.517,0,0,1,2.73.734,5.489,5.489,0,0,1,2.72-.734,5.61,5.61,0,0,1,0,11.22Z" transform="translate(229.203 1495.421)" fill="#324b74"/>
    <path id="Path_887" data-name="Path 887" d="M145.205,109.841v-3.754a4.006,4.006,0,0,0-4.006-3.995H79.387a4,4,0,0,0-3.995,3.995v3.754Z" transform="translate(229.202 1611.407)" fill="#324b74"/>
  </g>
</svg>
