<svg xmlns="http://www.w3.org/2000/svg" width="41.543" height="35.376" viewBox="0 0 41.543 35.376"><defs><style>.a{fill:#9d9d9d;}</style></defs><path class="a" d="M41.543,46.8V44.369H30.462v26.37H28.028V41.41L20.772,38l-7.257,3.41v29.33H11.081V44.369H0V46.8H1.1V70.739H0v2.637H41.543V70.739h-1.1V46.8ZM7.262,67.9H4.828V65.465H7.262Zm0-5.274H4.828V60.191H7.262Zm0-5.274H4.828V54.917H7.262Zm0-5.274H4.828V49.643H7.262Zm9.656-7.708h2.434V46.8H16.917Zm0,5.274h2.434v2.434H16.917Zm0,5.274h2.434v2.434H16.917Zm0,5.274h2.434v2.434H16.917Zm7.708,10.548H22.191V67.9h-2.84v2.84H16.917V65.465h7.708Zm0-8.114H22.191V60.191h2.434Zm0-5.274H22.191V54.917h2.434Zm0-5.274H22.191V49.643h2.434Zm0-5.274H22.191V44.369h2.434Zm12.09,21.1H34.281V65.465h2.434Zm0-5.274H34.281V60.191h2.434Zm0-5.274H34.281V54.917h2.434Zm0-5.274H34.281V49.643h2.434Z" transform="translate(0 -38)"/></svg>