<svg xmlns="http://www.w3.org/2000/svg" width="26.547" height="22.607" viewBox="0 0 26.547 22.607"><defs><style>.a{fill:#fff;}</style></defs><path class="a" d="M26.547,43.626V42.07H19.467V58.922H17.911V40.179L13.274,38,8.636,40.179V58.922H7.081V42.07H0v1.556H.7v15.3H0v1.685H26.547V58.922h-.7v-15.3ZM4.641,57.107H3.085V55.551H4.641Zm0-3.37H3.085V52.181H4.641Zm0-3.37H3.085V48.811H4.641Zm0-3.37H3.085V45.441H4.641Zm6.17-4.926h1.556v1.556H10.811Zm0,3.37h1.556V47H10.811Zm0,3.37h1.556v1.556H10.811Zm0,3.37h1.556v1.556H10.811Zm4.926,6.741H14.181V57.107H12.366v1.815H10.811v-3.37h4.926Zm0-5.185H14.181V52.181h1.556Zm0-3.37H14.181V48.811h1.556Zm0-3.37H14.181V45.441h1.556Zm0-3.37H14.181V42.07h1.556Zm7.726,13.481H21.907V55.551h1.556Zm0-3.37H21.907V52.181h1.556Zm0-3.37H21.907V48.811h1.556Zm0-3.37H21.907V45.441h1.556Z" transform="translate(0 -38)"/></svg>