<svg xmlns="http://www.w3.org/2000/svg" width="32.503" height="39.612" viewBox="0 0 32.503 39.612">
  <g id="Appeal-05" transform="translate(-37.282 -43.6)">
    <path id="Path_682" data-name="Path 682" d="M104.132,71.386V64.22A1.319,1.319,0,0,0,103.718,63a5.789,5.789,0,0,1-2-4.534c-.146-2.657-.171-5.338-.219-8.019a5.8,5.8,0,0,1,.171-1.438,1.194,1.194,0,0,1,1.219-.975,1.292,1.292,0,0,1,1.048,1.17c.049,1.146.024,2.291.024,3.412a6.434,6.434,0,0,0,.024.975c.049.146.244.39.366.39a.561.561,0,0,0,.414-.317,3.315,3.315,0,0,0,.1-.975c0-2.023-.024-4.046.024-6.093a2.608,2.608,0,0,1,.414-1.316.756.756,0,0,1,1.048-.317,2.389,2.389,0,0,1,.756.877,1.841,1.841,0,0,1,.049.829V53.5c.024.317.049.731.463.682s.414-.487.414-.731c.024-2.535.024-5.045.024-7.556a8.239,8.239,0,0,1,.024-1.1,1.207,1.207,0,0,1,2.413,0,3.153,3.153,0,0,1,.024.951c0,2.364-.024,4.728,0,7.068a4.653,4.653,0,0,0,.317,1.1c.609-.219.39-.731.414-1.121.024-1.8-.024-3.583.024-5.362a2.988,2.988,0,0,1,.244-1.414,1.657,1.657,0,0,1,1.048-.658,1.048,1.048,0,0,1,1.072.829,5.533,5.533,0,0,1,.073,1.1c.024,2.705,0,5.435.024,8.165a1.426,1.426,0,0,1-.926,1.584,3.789,3.789,0,0,0-1.926,2.779c0,.146.171.317.244.487s.341-.171.414-.317a3.826,3.826,0,0,0,.195-.707,2.632,2.632,0,0,1,1.8-1.828,2.142,2.142,0,0,0,1.438-1.341,15.452,15.452,0,0,1,1.146-2.291,1.706,1.706,0,0,1,1.024-.707,1.071,1.071,0,0,1,1.1,1.56c-1.17,2.705-2.413,5.387-3.656,8.068a2.389,2.389,0,0,1-.78.926,2.329,2.329,0,0,0-.877,2.121c.049,4.095.024,8.19.024,12.309v.853c0,.561-.268.78-.829.78h-7.19c-.731-.024-.8-.122-.8-1.024C104.108,76.261,104.132,73.823,104.132,71.386Z" transform="translate(-48.565)" fill="#89023e"/>
    <path id="Path_683" data-name="Path 683" d="M52.909,100.572c.219-.171.366-.219.39-.317a2.876,2.876,0,0,1,2.072-2.169c.244-.1.439-.463.585-.731.341-.634.634-1.316,1-1.95s.829-.8,1.292-.585a1.034,1.034,0,0,1,.39,1.438c-.536,1.194-1.1,2.364-1.657,3.534-.219.512-.39,1.072-.658,1.56A8.942,8.942,0,0,1,55.2,103.2a2.242,2.242,0,0,0-.682,1.828c.024,3.169,0,6.337,0,9.506v.853a.731.731,0,0,1-.756.78H48.156a.682.682,0,0,1-.756-.756V104.057a2.036,2.036,0,0,0-.609-1.633,5.007,5.007,0,0,1-1.316-3.559c-.049-2.267-.049-4.558-.024-6.825a1.316,1.316,0,0,1,.219-.9,1.243,1.243,0,0,1,.951-.268,1.072,1.072,0,0,1,.585.78,18.45,18.45,0,0,1,.049,2.315,4.924,4.924,0,0,0,.024.853c.049.2.244.341.39.512s.219-.317.244-.487V90.7a10.164,10.164,0,0,1,.024-1.219c.073-.731.561-1.292,1.1-1.243s.853.487.877,1.267c.024,1.609,0,3.242,0,4.875a6.215,6.215,0,0,0,.049.951c.024.122.219.219.341.244s.195-.146.219-.219a6.531,6.531,0,0,0,.049-.975V88.775c0-1.024.341-1.536.951-1.584s1.048.512,1.048,1.609c0,1.9-.024,3.827,0,5.728a3.673,3.673,0,0,0,.317.8A2.164,2.164,0,0,0,53.2,94.5c.049-1.414.024-2.827.024-4.265a1.889,1.889,0,0,1,.049-.829,1.682,1.682,0,0,1,.658-.756.78.78,0,0,1,1.024.439A2.535,2.535,0,0,1,55.2,90.14c.024,2.145,0,4.314.024,6.459a1.268,1.268,0,0,1-.829,1.316A2.718,2.718,0,0,0,52.909,100.572Z" transform="translate(-6.165 -32.964)" fill="#89023e"/>
    <path id="Path_685" data-name="Path 685" d="M64.548,62.813a12.843,12.843,0,0,1,.024-1.682c.024-.268.317-.487.487-.731.219.195.585.39.609.585.024,1.194,0,2.413-.049,3.607-.024.219-.317.39-.487.585-.195-.219-.512-.414-.561-.682A12.843,12.843,0,0,1,64.548,62.813Z" transform="translate(-20.608 -12.705)" fill="#89023e"/>
    <path id="Path_686" data-name="Path 686" d="M40.528,77.231a.487.487,0,0,1-.8.341c-.829-.78-1.633-1.584-2.389-2.413-.1-.1-.049-.463.049-.609a.561.561,0,0,1,.536-.122c.877.829,1.706,1.706,2.559,2.559C40.528,77.036,40.5,77.133,40.528,77.231Z" transform="translate(0 -23.296)" fill="#89023e"/>
    <path id="Path_687" data-name="Path 687" d="M86.7,75.058a1.609,1.609,0,0,1-.244.439c-.682.707-1.365,1.389-2.072,2.047-.171.146-.487.073-.756.1s-.122-.609,0-.756c.731-.8,1.511-1.584,2.316-2.316C86.239,74.3,86.7,74.571,86.7,75.058Z" transform="translate(-34.938 -23.342)" fill="#89023e"/>
  </g>
</svg>
