<svg xmlns="http://www.w3.org/2000/svg" width="65.141" height="85.886" viewBox="0 0 65.141 85.886">
  <g id="Group_987" data-name="Group 987" transform="translate(-1170.555 -1447.097)">
    <g id="Group_905" data-name="Group 905" transform="translate(621.488 1205.07)">
      <path id="Path_888" data-name="Path 888" d="M584.23,280.583a4.4,4.4,0,1,0-4.4-4.4A4.42,4.42,0,0,0,584.23,280.583Z" transform="translate(17.265 16.698)" fill="#324b74"/>
      <path id="Path_889" data-name="Path 889" d="M593.45,288.7h-8.372a1.245,1.245,0,0,0-1.24,1.24v5.147a1.244,1.244,0,0,0,1.24,1.24h8.373a1.244,1.244,0,0,0,1.24-1.24v-5.147a1.245,1.245,0,0,0-1.241-1.24Zm-3.535,3.969h-1.24a.62.62,0,1,1,0-1.24h1.24a.586.586,0,0,1,.62.62A.621.621,0,0,1,589.916,292.665Z" transform="translate(19.516 26.194)" fill="#324b74"/>
      <path id="Path_890" data-name="Path 890" d="M583.044,292.787V298.8a2.762,2.762,0,0,0,1.613.5,2.885,2.885,0,0,0,2.852-2.852v-1.24l-1.984,0a2.4,2.4,0,0,1-2.481-2.418Z" transform="translate(19.07 28.49)" fill="#324b74"/>
      <path id="Path_891" data-name="Path 891" d="M586.21,295.867a2.488,2.488,0,0,1,2.481-2.481h1.922v-.248a1.98,1.98,0,0,0,1.179.186,2.286,2.286,0,0,0,1.984-2.294V280.364a2.224,2.224,0,0,0-2.233-2.233H579.574a2.172,2.172,0,0,0-2.17,2.233v10.729a2.286,2.286,0,0,0,1.984,2.293,2.473,2.473,0,0,0,1.179-.186v11.6a2.885,2.885,0,0,0,2.852,2.852,2.772,2.772,0,0,0,1.613-.495l0-10.481c0-.248.311-.434.621-.434.372,0,.62.186.62.434v-.806Zm-1.24-12.588h1.24a.62.62,0,1,1,0,1.24h-1.24a.62.62,0,1,1,0-1.24Zm0,4.34a.62.62,0,0,1,0-1.24h1.24a.62.62,0,1,1,0,1.24Z" transform="translate(15.905 20.264)" fill="#324b74"/>
      <path id="Path_892" data-name="Path 892" d="M567.145,267.76l6.481-2.443v0a12.405,12.405,0,0,0,11.8,0l6.481,2.445v7.305l-1.652-2.2-2.2,1.652,4.128,5.5a1.377,1.377,0,0,0,2.2,0l4.128-5.5-2.2-1.652-1.652,2.2v-8.256a1.382,1.382,0,0,0-.893-1.293l-5.683-2.147-.042.03h0a12.383,12.383,0,1,0-17.03,0l-.042-.03-5.683,2.147a1.386,1.386,0,0,0-.895,1.293v8.256l-1.65-2.2-2.2,1.652,4.126,5.5a1.377,1.377,0,0,0,2.2,0l4.128-5.5-2.2-1.652-1.65,2.2ZM579.528,255.8a4.128,4.128,0,0,1-1.376-8.008v-1.624H580.9v1.624a4.126,4.126,0,0,1,2.751,3.88H580.9a1.376,1.376,0,1,0-1.377,1.377,4.128,4.128,0,0,1,1.377,8.008v1.622h-2.753v-1.622a4.126,4.126,0,0,1-2.751-3.881h2.751a1.376,1.376,0,1,0,1.376-1.376Z" transform="translate(6.44 0)" fill="#324b74"/>
      <path id="Path_893" data-name="Path 893" d="M554.571,279.12l-5.5,5.5v22.014h5.5Z" transform="translate(0 20.819)" fill="#324b74"/>
      <path id="Path_894" data-name="Path 894" d="M557.6,305.306a4.128,4.128,0,0,1,8.256,0v8.256h15.135v-2.751H569.985V277.789h-4.128v-5.5h-1.376v-2.753h-2.753v2.753h-2.753v-5.5h-2.751v5.5H554.85v5.5h-1.377v35.773H557.6Zm2.753-9.632H557.6v-2.751h2.753Zm0-5.5H557.6V287.42h2.753Zm0-5.5H557.6v-2.751h2.753Zm5.5,11.007H563.1v-2.751h2.753Zm0-5.5H563.1V287.42h2.753Zm0-5.5H563.1v-2.751h2.753Z" transform="translate(2.473 13.894)" fill="#324b74"/>
      <path id="Path_895" data-name="Path 895" d="M557.88,291.951v6.881h2.751v-6.881a1.375,1.375,0,0,0-2.751,0Z" transform="translate(4.946 27.249)" fill="#324b74"/>
      <circle id="Ellipse_154" data-name="Ellipse 154" cx="12.314" cy="12.314" r="12.314" transform="translate(573.654 242.027)" fill="#324b74"/>
      <g id="Group_904" data-name="Group 904" transform="translate(582.374 249.385)">
        <path id="Path_896" data-name="Path 896" d="M576.347,257.441a1.22,1.22,0,0,1-.748-.813,11.475,11.475,0,0,1-.529-1.789c-.106-.436-.206-.873-.337-1.3a1.554,1.554,0,0,0-.792-1.005,2.114,2.114,0,0,0-.923-.19c-.523,0-1.046,0-1.568,0a.539.539,0,0,1-.56-.559.531.531,0,0,1,.478-.509c.059,0,.119-.006.176-.006.621,0,1.241,0,1.861-.017a2.009,2.009,0,0,0,1.327-.51,1.445,1.445,0,0,0,.4-.592H571a.557.557,0,0,1-.565-.364.545.545,0,0,1,.443-.729,1.181,1.181,0,0,1,.167-.011h4.137a1.381,1.381,0,0,0-.484-.784,2.146,2.146,0,0,0-1.147-.429,4.276,4.276,0,0,0-.448-.02c-.707,0-1.415,0-2.122,0a.546.546,0,0,1-.546-.34.537.537,0,0,1,.451-.721.831.831,0,0,1,.125-.006h6.323a.564.564,0,0,1,.573.339.528.528,0,0,1-.471.726c-.379.011-.759,0-1.138,0h-.17a2.628,2.628,0,0,1,.467,1.233c.158,0,.309,0,.462,0a3.907,3.907,0,0,1,.406.011.547.547,0,0,1-.05,1.09c-.272.009-.543,0-.815,0-.058,0-.094.009-.116.073A2.53,2.53,0,0,1,575,251.794l-.084.041a.188.188,0,0,0,.039.034,2.08,2.08,0,0,1,1.076,1.3c.159.489.265.993.4,1.489s.272.977.415,1.464a1.492,1.492,0,0,0,.164.336.646.646,0,0,1-.356.951l-.1.034Z" transform="translate(-570.4 -246.74)" fill="#324b74"/>
      </g>
    </g>
    <g id="Group_906" data-name="Group 906" transform="translate(663.063 1289.107)">
      <path id="Path_897" data-name="Path 897" d="M545.721,175.726a1.163,1.163,0,0,1-.712-.776,10.948,10.948,0,0,1-.5-1.7c-.1-.415-.2-.832-.321-1.239a1.481,1.481,0,0,0-.753-.956,2,2,0,0,0-.878-.18c-.5,0-.995,0-1.492,0a.512.512,0,0,1-.533-.531.5.5,0,0,1,.455-.484c.056-.005.112-.007.169-.008.59,0,1.181.006,1.77-.015a1.911,1.911,0,0,0,1.262-.485,1.378,1.378,0,0,0,.377-.563h-3.929a.533.533,0,0,1-.539-.346.52.52,0,0,1,.423-.694,1.114,1.114,0,0,1,.158-.01h3.938a1.319,1.319,0,0,0-.461-.746,2.049,2.049,0,0,0-1.092-.409,3.813,3.813,0,0,0-.426-.019c-.673,0-1.346,0-2.019,0a.519.519,0,0,1-.52-.325.51.51,0,0,1,.429-.686.978.978,0,0,1,.119,0h6.017a.536.536,0,0,1,.544.322.5.5,0,0,1-.447.691c-.361.011-.722,0-1.084,0h-.163a2.5,2.5,0,0,1,.446,1.174c.149,0,.294,0,.439,0a3.524,3.524,0,0,1,.387.011.509.509,0,0,1,.456.534.514.514,0,0,1-.5.5c-.258.008-.517,0-.776,0-.055,0-.089.008-.109.07a2.409,2.409,0,0,1-1.41,1.5l-.08.038a.18.18,0,0,0,.036.033,1.975,1.975,0,0,1,1.024,1.235c.152.464.253.945.382,1.417s.257.931.4,1.394a1.4,1.4,0,0,0,.155.32.615.615,0,0,1-.338.906c-.031.01-.062.022-.093.033Z" fill="#fff"/>
    </g>
  </g>
</svg>
