<svg xmlns="http://www.w3.org/2000/svg" width="37" height="36.982" viewBox="0 0 37 36.982"><defs><style>.a{fill:#9d9d9d;}</style></defs><g transform="translate(0 -0.012)"><g transform="translate(0 0.012)"><path class="a" d="M35.3,42.718H1.681a1.681,1.681,0,0,0,0,3.363H35.3a1.681,1.681,0,0,0,0-3.363Z" transform="translate(0 -9.099)"/><path class="a" d="M4.35,32.621a1.682,1.682,0,0,0,0,3.364H33.769a1.682,1.682,0,0,0,0-3.364h-.42V17.491h.42a.84.84,0,0,0,0-1.68H4.35a.84.84,0,1,0,0,1.68h.42V32.62H4.35Zm25.636-15.13V32.62H24.943V17.491Zm-8.406,0V32.62H16.537V17.491Zm-13.448,0h5.043V32.62H8.132Z" transform="translate(-0.568 -3.373)"/><path class="a" d="M1.681,10.938H35.318a1.682,1.682,0,0,0,.546-3.272L19.183.159a1.685,1.685,0,0,0-1.379,0L.992,7.723a1.681,1.681,0,0,0,.69,3.214Z" transform="translate(0 -0.012)"/></g></g></svg>