<svg xmlns="http://www.w3.org/2000/svg" width="33.412" height="33.396" viewBox="0 0 33.412 33.396"><defs><style>.a{fill:#ca0027;}</style></defs><g transform="translate(0 0)"><g transform="translate(0 0)"><path class="a" d="M31.879,42.718H1.518a1.518,1.518,0,1,0,0,3.037h30.36a1.518,1.518,0,0,0,0-3.037Z" transform="translate(0 -12.359)"/><path class="a" d="M4.187,30.991a1.519,1.519,0,0,0,0,3.038H30.753a1.519,1.519,0,0,0,0-3.038h-.379V17.328h.379a.759.759,0,1,0,0-1.517H4.187a.759.759,0,1,0,0,1.517h.38V30.99h-.38Zm23.15-13.663V30.99H22.783V17.328Zm-7.591,0V30.99H15.192V17.328Zm-12.144,0h4.554V30.99H7.6Z" transform="translate(-0.772 -4.58)"/><path class="a" d="M1.518,9.878H31.893a1.519,1.519,0,0,0,.493-2.955L17.323.145a1.521,1.521,0,0,0-1.245,0L.9,6.976a1.518,1.518,0,0,0,.623,2.9Z" transform="translate(0 -0.012)"/></g></g></svg>