<svg xmlns="http://www.w3.org/2000/svg" width="23.644" height="23.633" viewBox="0 0 23.644 23.633"><defs><style>.a{fill:#fff;}</style></defs><g transform="translate(0 0)"><path class="a" d="M22.56,42.718H1.075a1.075,1.075,0,0,0,0,2.149H22.559a1.075,1.075,0,0,0,0-2.149Z" transform="translate(0 -21.234)"/><path class="a" d="M3.744,26.553a1.075,1.075,0,0,0,0,2.15h18.8a1.075,1.075,0,0,0,0-2.15h-.268V16.885h.268a.537.537,0,0,0,0-1.074H3.744a.537.537,0,1,0,0,1.074h.269v9.668H3.744Zm16.382-9.669v9.668H16.9V16.885Zm-5.372,0v9.668H11.531V16.885Zm-8.594,0H9.383v9.668H6.16Z" transform="translate(-1.326 -7.863)"/><path class="a" d="M1.075,6.994h21.5A1.075,1.075,0,0,0,22.918,4.9L12.259.106a1.077,1.077,0,0,0-.881,0L.634,4.94a1.074,1.074,0,0,0,.441,2.054Z" transform="translate(0 -0.012)"/></g></svg>