<svg xmlns="http://www.w3.org/2000/svg" width="26.474" height="35.298" viewBox="0 0 26.474 35.298"><defs><style>.a{fill:#ca0027;}</style></defs><g transform="translate(0 0)"><g transform="translate(0 0)"><path class="a" d="M89.456,0h-22.4A3.058,3.058,0,0,0,64,3.055V32.244A3.058,3.058,0,0,0,67.055,35.3h22.4a1.018,1.018,0,0,0,1.018-1.018V1.018A1.018,1.018,0,0,0,89.456,0ZM69.091,4.412H85.383a1.018,1.018,0,0,1,0,2.036H69.091a1.018,1.018,0,0,1,0-2.036Zm0,5.43h8.18a1.018,1.018,0,1,1,0,2.036h-8.18a1.018,1.018,0,0,1,0-2.036ZM88.437,33.262H67.055a1.019,1.019,0,0,1-1.018-1.018V30.886h22.4Z" transform="translate(-64 0)"/></g></g></svg>