<svg xmlns="http://www.w3.org/2000/svg" width="35.5" height="35.5" viewBox="0 0 35.5 35.5"><defs><style>.a{fill:#afafaf;}</style></defs><path class="a" d="M32,384H47.383v1.183H32Zm0,0" transform="translate(-29.633 -355.6)"/><path class="a" d="M113.775,411.55a1.775,1.775,0,1,1,1.775-1.775A1.775,1.775,0,0,1,113.775,411.55Zm0-2.367a.592.592,0,1,0,.592.592A.592.592,0,0,0,113.775,409.183Zm0,0" transform="translate(-103.717 -377.825)"/><path class="a" d="M18.933,32.541a1.775,1.775,0,0,1-1.775,1.775H2.958a1.775,1.775,0,0,1-1.775-1.775V2.958A1.775,1.775,0,0,1,2.958,1.183H4.142v.592A1.775,1.775,0,0,0,5.917,3.55H14.2a1.775,1.775,0,0,0,1.775-1.775V1.183h1.183a1.775,1.775,0,0,1,1.775,1.775V7.1h1.183V2.958A2.962,2.962,0,0,0,17.158,0H2.958A2.962,2.962,0,0,0,0,2.958V32.541A2.962,2.962,0,0,0,2.958,35.5h14.2a2.962,2.962,0,0,0,2.958-2.958V18.933H18.933ZM5.325,1.183h9.467v.592a.592.592,0,0,1-.592.592H5.917a.592.592,0,0,1-.592-.592Zm0,0"/><path class="a" d="M112,112v9.467h27.216V112Zm26.033,8.283h-24.85v-7.1h24.85Zm0,0" transform="translate(-103.717 -103.717)"/><path class="a" d="M144.881,148.063l1.162-.671v1.342h1.183v-1.342l1.162.671.592-1.025-1.162-.671,1.162-.671-.592-1.025-1.162.671V144h-1.183v1.342l-1.162-.671-.592,1.025,1.162.671-1.162.671Zm0,0" transform="translate(-133.618 -133.35)"/><path class="a" d="M224.881,148.063l1.162-.671v1.342h1.183v-1.342l1.162.671.592-1.025-1.162-.671,1.162-.671-.592-1.025-1.162.671V144h-1.183v1.342l-1.162-.671-.592,1.025,1.162.671-1.162.671Zm0,0" transform="translate(-207.701 -133.35)"/><path class="a" d="M304.881,148.063l1.162-.671v1.342h1.183v-1.342l1.162.671.592-1.025-1.162-.671,1.162-.671-.592-1.025-1.162.671V144h-1.183v1.342l-1.162-.671-.592,1.025,1.162.671-1.162.671Zm0,0" transform="translate(-281.784 -133.35)"/><path class="a" d="M384.881,148.063l1.162-.671v1.342h1.183v-1.342l1.162.671.592-1.025-1.162-.671,1.162-.671-.592-1.025-1.162.671V144h-1.183v1.342l-1.162-.671-.592,1.025,1.162.671-1.162.671Zm0,0" transform="translate(-355.868 -133.35)"/></svg>