<svg xmlns="http://www.w3.org/2000/svg" width="18.252" height="19.502" viewBox="0 0 18.252 19.502"><defs><style>.a{fill:#c8c8c8;}</style></defs><path class="a" d="M0,17.673A1.9,1.9,0,0,0,1.956,19.5H16.3a1.9,1.9,0,0,0,1.956-1.828V7.313H0Zm13.037-7.465a.475.475,0,0,1,.489-.457h1.63a.475.475,0,0,1,.489.457v1.524a.475.475,0,0,1-.489.457h-1.63a.475.475,0,0,1-.489-.457Zm0,4.875a.475.475,0,0,1,.489-.457h1.63a.475.475,0,0,1,.489.457v1.524a.475.475,0,0,1-.489.457h-1.63a.475.475,0,0,1-.489-.457ZM7.822,10.208a.475.475,0,0,1,.489-.457h1.63a.475.475,0,0,1,.489.457v1.524a.475.475,0,0,1-.489.457H8.311a.475.475,0,0,1-.489-.457Zm0,4.875a.475.475,0,0,1,.489-.457h1.63a.475.475,0,0,1,.489.457v1.524a.475.475,0,0,1-.489.457H8.311a.475.475,0,0,1-.489-.457ZM2.607,10.208A.475.475,0,0,1,3.1,9.751h1.63a.475.475,0,0,1,.489.457v1.524a.475.475,0,0,1-.489.457H3.1a.475.475,0,0,1-.489-.457Zm0,4.875a.475.475,0,0,1,.489-.457h1.63a.475.475,0,0,1,.489.457v1.524a.475.475,0,0,1-.489.457H3.1a.475.475,0,0,1-.489-.457ZM16.3,2.438H14.341V.609A.634.634,0,0,0,13.689,0h-1.3a.634.634,0,0,0-.652.609V2.438H6.519V.609A.634.634,0,0,0,5.867,0h-1.3a.634.634,0,0,0-.652.609V2.438H1.956A1.9,1.9,0,0,0,0,4.266V6.094H18.252V4.266A1.9,1.9,0,0,0,16.3,2.438Z"/></svg>