<?xml version="1.0" encoding="UTF-8"?>
<svg xmlns="http://www.w3.org/2000/svg" xmlns:xlink="http://www.w3.org/1999/xlink" width="70px" height="97px" viewBox="0 0 70 97" version="1.1">
<g id="surface1">
<path style=" stroke:none;fill-rule:nonzero;fill:rgb(79.215686%,0%,15.294118%);fill-opacity:1;" d="M 26.382812 97.039062 C 22.851562 94.207031 19.335938 91.355469 15.773438 88.550781 C 15.355469 88.351562 14.882812 88.285156 14.421875 88.367188 C 10.519531 88.574219 6.621094 88.804688 2.722656 89.027344 C 2.378906 89.046875 2.03125 89.027344 1.523438 89.027344 L 9.265625 64.925781 C 10.308594 65.003906 11.246094 65.589844 11.761719 66.496094 C 13.09375 68.832031 14.578125 71.078125 15.972656 73.378906 C 16.171875 73.847656 16.691406 74.101562 17.191406 73.964844 C 19.988281 73.582031 22.792969 73.246094 25.601562 72.960938 C 26.15625 72.921875 26.707031 73.050781 27.1875 73.324219 C 28.878906 74.328125 30.5 75.449219 32.183594 76.453125 C 32.445312 76.550781 32.648438 76.757812 32.742188 77.015625 C 32.839844 77.277344 32.820312 77.5625 32.6875 77.804688 C 30.699219 83.867188 28.757812 89.945312 26.808594 96.019531 C 26.703125 96.34375 26.660156 96.6875 26.585938 97.023438 Z M 26.382812 97.039062 "/>
<path style=" stroke:none;fill-rule:nonzero;fill:rgb(79.215686%,0%,15.294118%);fill-opacity:1;" d="M 43.351562 97.039062 C 42.621094 94.660156 41.910156 92.277344 41.152344 89.902344 C 39.871094 85.871094 38.589844 81.835938 37.253906 77.820312 C 37.121094 77.578125 37.101562 77.289062 37.199219 77.03125 C 37.296875 76.769531 37.5 76.566406 37.761719 76.46875 C 39.382812 75.488281 40.988281 74.46875 42.574219 73.410156 C 43.144531 73.007812 43.847656 72.839844 44.535156 72.945312 C 47.273438 73.300781 50.011719 73.597656 52.753906 73.976562 C 53.25 74.109375 53.769531 73.859375 53.96875 73.386719 C 55.363281 71.085938 56.847656 68.839844 58.179688 66.503906 C 58.707031 65.613281 59.632812 65.027344 60.667969 64.929688 L 68.421875 89.0625 C 66.671875 88.980469 65.042969 88.902344 63.410156 88.8125 C 60.652344 88.660156 57.894531 88.488281 55.136719 88.351562 C 54.796875 88.3125 54.453125 88.382812 54.160156 88.550781 C 50.609375 91.363281 47.082031 94.207031 43.550781 97.039062 Z M 43.351562 97.039062 "/>
<path style=" stroke:none;fill-rule:nonzero;fill:rgb(79.215686%,0%,15.294118%);fill-opacity:1;" d="M 19.644531 3.414062 C 22.261719 3.730469 24.625 4.042969 26.988281 4.289062 C 27.476562 4.335938 27.96875 4.226562 28.394531 3.984375 C 30.402344 2.773438 32.378906 1.503906 34.339844 0.21875 C 34.707031 -0.0859375 35.238281 -0.0859375 35.601562 0.21875 C 37.539062 1.484375 39.484375 2.738281 41.46875 3.933594 C 41.917969 4.191406 42.4375 4.304688 42.957031 4.265625 C 45.261719 4.039062 47.558594 3.746094 49.859375 3.445312 C 50.328125 3.34375 50.808594 3.585938 51 4.027344 C 52.191406 6.007812 53.398438 7.96875 54.652344 9.917969 C 54.925781 10.320312 55.320312 10.632812 55.773438 10.808594 C 57.976562 11.609375 60.203125 12.359375 62.429688 13.085938 C 62.871094 13.164062 63.191406 13.550781 63.183594 13.996094 C 63.402344 16.386719 63.660156 18.777344 63.949219 21.160156 C 64.011719 21.554688 64.195312 21.917969 64.476562 22.199219 C 66.128906 23.863281 67.800781 25.511719 69.507812 27.125 C 69.910156 27.429688 70.03125 27.984375 69.792969 28.433594 C 68.976562 30.589844 68.183594 32.753906 67.441406 34.941406 C 67.292969 35.40625 67.292969 35.90625 67.441406 36.371094 C 68.191406 38.585938 69.003906 40.78125 69.824219 42.96875 C 70.03125 43.363281 69.921875 43.847656 69.566406 44.117188 C 67.847656 45.757812 66.152344 47.425781 64.480469 49.121094 C 64.191406 49.433594 64 49.828125 63.941406 50.25 C 63.636719 52.601562 63.390625 54.960938 63.1875 57.320312 C 63.132812 57.925781 62.8125 58.109375 62.332031 58.269531 C 60.136719 59.003906 57.9375 59.726562 55.761719 60.519531 C 55.304688 60.695312 54.914062 61.007812 54.636719 61.414062 C 53.394531 63.324219 52.203125 65.265625 51.03125 67.222656 C 50.832031 67.722656 50.289062 67.992188 49.765625 67.859375 C 47.4375 67.523438 45.105469 67.265625 42.765625 67.035156 C 42.335938 67.011719 41.914062 67.117188 41.546875 67.339844 C 39.570312 68.550781 37.609375 69.765625 35.683594 71.054688 C 35.269531 71.410156 34.660156 71.410156 34.25 71.054688 C 32.371094 69.8125 30.472656 68.601562 28.542969 67.441406 C 28.0625 67.164062 27.511719 67.035156 26.960938 67.070312 C 24.683594 67.277344 22.414062 67.550781 20.152344 67.867188 C 19.660156 68.007812 19.140625 67.765625 18.933594 67.304688 C 17.78125 65.375 16.609375 63.453125 15.371094 61.578125 C 15.027344 61.074219 14.542969 60.683594 13.976562 60.453125 C 11.871094 59.664062 9.714844 58.960938 7.585938 58.277344 C 7.054688 58.15625 6.6875 57.671875 6.726562 57.128906 C 6.519531 54.769531 6.257812 52.410156 5.96875 50.058594 C 5.890625 49.699219 5.707031 49.371094 5.4375 49.117188 C 3.808594 47.476562 2.171875 45.839844 0.484375 44.269531 C 0.0351562 43.921875 -0.09375 43.300781 0.179688 42.804688 C 0.976562 40.707031 1.75 38.601562 2.457031 36.472656 C 2.617188 35.949219 2.617188 35.390625 2.457031 34.867188 C 1.726562 32.683594 0.933594 30.519531 0.113281 28.355469 C -0.09375 27.960938 0.0195312 27.472656 0.378906 27.207031 C 2.058594 25.613281 3.726562 24.007812 5.335938 22.359375 C 5.699219 21.953125 5.933594 21.445312 6.007812 20.902344 C 6.3125 18.613281 6.542969 16.320312 6.757812 14.019531 C 6.75 13.566406 7.082031 13.179688 7.53125 13.109375 C 9.726562 12.382812 11.921875 11.652344 14.09375 10.859375 C 14.585938 10.679688 15.011719 10.351562 15.3125 9.925781 C 16.574219 7.992188 17.746094 6 18.992188 4.050781 C 19.175781 3.808594 19.394531 3.59375 19.644531 3.414062 Z M 10.304688 35.679688 C 10.320312 49.238281 21.367188 60.214844 34.976562 60.203125 C 48.589844 60.191406 59.613281 49.195312 59.609375 35.640625 C 59.605469 22.085938 48.570312 11.097656 34.957031 11.097656 C 28.414062 11.097656 22.136719 13.6875 17.515625 18.300781 C 12.890625 22.914062 10.296875 29.167969 10.304688 35.683594 Z M 10.304688 35.679688 "/>
<path style=" stroke:none;fill-rule:nonzero;fill:rgb(79.215686%,0%,15.294118%);fill-opacity:1;" d="M 53.898438 35.636719 C 53.902344 46.054688 45.429688 54.503906 34.96875 54.503906 C 24.507812 54.507812 16.027344 46.0625 16.03125 35.644531 C 16.03125 25.226562 24.511719 16.785156 34.972656 16.789062 C 45.421875 16.789062 53.898438 25.226562 53.898438 35.636719 Z M 53.898438 35.636719 "/>
</g>
</svg>
