<svg xmlns="http://www.w3.org/2000/svg" width="22.976" height="32.013" viewBox="0 0 22.976 32.013"><defs><style>.a{fill:#ca0027;}</style></defs><g transform="translate(-300.561 -202.037)"><path class="a" d="M318.088,612.11c-1.16-.935-2.316-1.875-3.486-2.8a.728.728,0,0,0-.444-.061c-1.282.068-2.563.145-3.844.218-.114.006-.228,0-.394,0l2.544-7.951a1.028,1.028,0,0,1,.819.518c.438.77.926,1.511,1.384,2.27a.338.338,0,0,0,.4.194q1.379-.19,2.764-.331a.909.909,0,0,1,.521.12c.556.33,1.089.7,1.642,1.032a.316.316,0,0,1,.165.446c-.653,2-1.291,4.005-1.932,6.009-.034.107-.048.22-.072.331Z" transform="translate(-8.858 -378.06)"/><path class="a" d="M530.226,612.072c-.24-.785-.474-1.571-.722-2.354-.421-1.33-.843-2.661-1.282-3.986a.316.316,0,0,1,.167-.446q.8-.485,1.582-1.009a.878.878,0,0,1,.644-.153c.9.117,1.8.215,2.7.34a.339.339,0,0,0,.4-.195c.458-.759.946-1.5,1.383-2.27a1.065,1.065,0,0,1,.818-.52l2.548,7.962c-.575-.028-1.111-.053-1.647-.083-.906-.05-1.812-.107-2.719-.152a.516.516,0,0,0-.321.066c-1.166.927-2.325,1.865-3.485,2.8Z" transform="translate(-215.421 -378.022)"/><path class="a" d="M307.015,203.163c.861.105,1.637.208,2.414.289a.786.786,0,0,0,.462-.1c.659-.4,1.309-.819,1.953-1.243a.324.324,0,0,1,.415,0c.636.418,1.276.831,1.927,1.226a.848.848,0,0,0,.489.109c.758-.075,1.513-.171,2.268-.271a.333.333,0,0,1,.375.193c.391.653.788,1.3,1.2,1.943a.8.8,0,0,0,.369.294c.724.264,1.455.511,2.187.751a.3.3,0,0,1,.247.3q.109,1.184.252,2.364a.634.634,0,0,0,.173.343c.543.549,1.092,1.092,1.653,1.624a.341.341,0,0,1,.094.432c-.268.712-.529,1.426-.773,2.147a.787.787,0,0,0,0,.472c.247.73.514,1.454.783,2.176a.3.3,0,0,1-.085.379q-.847.812-1.67,1.651a.69.69,0,0,0-.178.372c-.1.776-.181,1.554-.248,2.333-.018.2-.123.26-.281.313-.721.242-1.444.481-2.158.742a.8.8,0,0,0-.37.295c-.408.631-.8,1.271-1.184,1.916a.353.353,0,0,1-.417.21c-.764-.11-1.531-.195-2.3-.271a.7.7,0,0,0-.4.1c-.649.4-1.293.8-1.927,1.226a.36.36,0,0,1-.471,0c-.617-.41-1.24-.81-1.875-1.192a.914.914,0,0,0-.52-.123c-.748.069-1.493.159-2.237.263a.336.336,0,0,1-.4-.186c-.379-.636-.763-1.27-1.17-1.888a1.018,1.018,0,0,0-.459-.372c-.692-.26-1.4-.492-2.1-.718a.362.362,0,0,1-.282-.378c-.068-.779-.154-1.557-.249-2.333a.593.593,0,0,0-.174-.31c-.536-.541-1.074-1.082-1.628-1.6a.379.379,0,0,1-.1-.483c.262-.692.516-1.387.748-2.089a.9.9,0,0,0,0-.529c-.24-.721-.5-1.435-.77-2.148a.3.3,0,0,1,.088-.379c.551-.526,1.1-1.056,1.628-1.6a.9.9,0,0,0,.221-.48c.1-.755.176-1.512.246-2.271a.3.3,0,0,1,.254-.3c.722-.24,1.443-.481,2.157-.743a.843.843,0,0,0,.4-.308c.415-.638.8-1.294,1.209-1.938A1.061,1.061,0,0,1,307.015,203.163Zm-3.068,10.645a8.1,8.1,0,1,0,8.1-8.11A8.1,8.1,0,0,0,303.947,213.809Z"/><path class="a" d="M411.231,311.537a6.221,6.221,0,1,1-6.218-6.217A6.217,6.217,0,0,1,411.231,311.537Z" transform="translate(-92.961 -97.744)"/></g></svg>