<svg xmlns="http://www.w3.org/2000/svg" width="34.484" height="34.483" viewBox="0 0 34.484 34.483"><defs><style>.a{fill:#9d9d9d;}</style></defs><g transform="translate(0 -0.007)"><g transform="translate(6.898 21.846)"><path class="a" d="M96.022,304.007Z" transform="translate(-96.022 -304.007)"/></g><g transform="translate(25.289 0.007)"><path class="a" d="M352.022.007V9.2h9.2Z" transform="translate(-352.022 -0.007)"/></g><g transform="translate(0 16.099)"><g transform="translate(0)"><path class="a" d="M11.464,240.97,9.7,233.906a5.747,5.747,0,1,0-7.908,0L.034,240.97a1.15,1.15,0,0,0,1.63,1.308l4.085-2.044,4.083,2.044a1.2,1.2,0,0,0,.515.12,1.148,1.148,0,0,0,1.117-1.428ZM5.749,233.2A3.448,3.448,0,1,1,9.2,229.754,3.452,3.452,0,0,1,5.749,233.2Z" transform="translate(0 -224.007)"/></g></g><g transform="translate(6.898 0.007)"><g transform="translate(0 0)"><path class="a" d="M114.412,11.5a2.3,2.3,0,0,1-2.3-2.3V.007H98.321a2.3,2.3,0,0,0-2.3,2.3V13.917a8.031,8.031,0,0,1,6.9,7.929,7.934,7.934,0,0,1-1.572,4.761l1.393,5.584h18.57a2.3,2.3,0,0,0,2.3-2.3V11.5ZM101.769,9.2a1.149,1.149,0,0,1,0-2.3h6.9a1.149,1.149,0,0,1,0,2.3Zm16.092,13.793H106.367a1.149,1.149,0,1,1,0-2.3h11.494a1.149,1.149,0,1,1,0,2.3Zm0-6.9H104.068a1.149,1.149,0,1,1,0-2.3h13.793a1.149,1.149,0,1,1,0,2.3Z" transform="translate(-96.022 -0.007)"/></g></g></g></svg>