<?xml version="1.0" encoding="UTF-8"?>
<svg xmlns="http://www.w3.org/2000/svg" xmlns:xlink="http://www.w3.org/1999/xlink" width="65px" height="66px" viewBox="0 0 65 66" version="1.1">
<g id="surface1">
<path style=" stroke:none;fill-rule:nonzero;fill:rgb(79.215686%,0%,15.294118%);fill-opacity:1;" d="M 24.5 66.027344 C 21.222656 64.097656 17.953125 62.160156 14.648438 60.25 C 14.257812 60.113281 13.820312 60.070312 13.394531 60.125 C 9.769531 60.265625 6.148438 60.425781 2.53125 60.574219 C 2.207031 60.589844 1.886719 60.574219 1.414062 60.574219 L 8.605469 44.175781 C 9.574219 44.226562 10.441406 44.628906 10.921875 45.246094 C 12.15625 46.832031 13.535156 48.363281 14.832031 49.925781 C 15.019531 50.246094 15.5 50.417969 15.960938 50.328125 C 18.558594 50.066406 21.164062 49.839844 23.773438 49.644531 C 24.285156 49.617188 24.800781 49.703125 25.246094 49.890625 C 26.816406 50.574219 28.324219 51.335938 29.886719 52.019531 C 30.125 52.085938 30.316406 52.226562 30.40625 52.402344 C 30.496094 52.578125 30.476562 52.773438 30.351562 52.941406 C 28.507812 57.066406 26.703125 61.199219 24.890625 65.332031 C 24.796875 65.554688 24.757812 65.789062 24.6875 66.015625 Z M 24.5 66.027344 "/>
<path style=" stroke:none;fill-rule:nonzero;fill:rgb(79.215686%,0%,15.294118%);fill-opacity:1;" d="M 40.253906 66.027344 C 39.578125 64.40625 38.914062 62.785156 38.214844 61.171875 C 37.023438 58.429688 35.832031 55.683594 34.589844 52.949219 C 34.46875 52.785156 34.449219 52.589844 34.539062 52.414062 C 34.632812 52.234375 34.820312 52.097656 35.0625 52.03125 C 36.570312 51.363281 38.0625 50.671875 39.535156 49.949219 C 40.0625 49.675781 40.714844 49.5625 41.355469 49.632812 C 43.898438 49.875 46.441406 50.078125 48.984375 50.335938 C 49.445312 50.425781 49.929688 50.253906 50.113281 49.933594 C 51.410156 48.367188 52.789062 46.839844 54.023438 45.25 C 54.511719 44.644531 55.375 44.246094 56.335938 44.179688 L 63.535156 60.601562 C 61.910156 60.542969 60.394531 60.492188 58.882812 60.429688 C 56.320312 60.324219 53.761719 60.207031 51.199219 60.117188 C 50.882812 60.089844 50.5625 60.136719 50.289062 60.25 C 46.996094 62.164062 43.71875 64.097656 40.441406 66.027344 Z M 40.253906 66.027344 "/>
<path style=" stroke:none;fill-rule:nonzero;fill:rgb(79.215686%,0%,15.294118%);fill-opacity:1;" d="M 18.238281 2.324219 C 20.671875 2.539062 22.867188 2.75 25.0625 2.917969 C 25.515625 2.949219 25.972656 2.878906 26.367188 2.710938 C 28.230469 1.886719 30.066406 1.023438 31.886719 0.148438 C 32.226562 -0.0585938 32.71875 -0.0585938 33.058594 0.148438 C 34.855469 1.011719 36.664062 1.863281 38.503906 2.675781 C 38.925781 2.851562 39.40625 2.929688 39.886719 2.902344 C 42.03125 2.746094 44.164062 2.550781 46.296875 2.34375 C 46.734375 2.273438 47.179688 2.441406 47.355469 2.742188 C 48.460938 4.085938 49.582031 5.421875 50.746094 6.75 C 51.003906 7.023438 51.367188 7.234375 51.789062 7.355469 C 53.835938 7.898438 55.902344 8.410156 57.972656 8.902344 C 58.378906 8.957031 58.675781 9.21875 58.667969 9.523438 C 58.875 11.152344 59.113281 12.777344 59.382812 14.398438 C 59.441406 14.664062 59.613281 14.914062 59.871094 15.105469 C 61.40625 16.238281 62.957031 17.359375 64.542969 18.457031 C 64.917969 18.664062 65.03125 19.042969 64.808594 19.347656 C 64.050781 20.816406 63.3125 22.289062 62.625 23.773438 C 62.488281 24.089844 62.488281 24.429688 62.625 24.746094 C 63.320312 26.253906 64.074219 27.746094 64.835938 29.234375 C 65.027344 29.503906 64.925781 29.835938 64.597656 30.019531 C 63 31.132812 61.425781 32.269531 59.875 33.421875 C 59.605469 33.636719 59.429688 33.902344 59.375 34.191406 C 59.089844 35.789062 58.863281 37.394531 58.671875 39 C 58.621094 39.414062 58.324219 39.539062 57.878906 39.648438 C 55.839844 40.148438 53.796875 40.640625 51.78125 41.179688 C 51.355469 41.300781 50.992188 41.511719 50.734375 41.785156 C 49.582031 43.085938 48.472656 44.40625 47.386719 45.738281 C 47.199219 46.078125 46.695312 46.265625 46.210938 46.171875 C 44.050781 45.945312 41.882812 45.769531 39.710938 45.613281 C 39.3125 45.597656 38.917969 45.667969 38.578125 45.820312 C 36.746094 46.644531 34.925781 47.46875 33.132812 48.347656 C 32.75 48.589844 32.183594 48.589844 31.800781 48.347656 C 30.058594 47.5 28.296875 46.675781 26.503906 45.886719 C 26.058594 45.699219 25.546875 45.609375 25.035156 45.636719 C 22.917969 45.777344 20.8125 45.960938 18.710938 46.175781 C 18.257812 46.273438 17.773438 46.109375 17.582031 45.792969 C 16.511719 44.480469 15.425781 43.175781 14.273438 41.898438 C 13.957031 41.554688 13.503906 41.289062 12.976562 41.132812 C 11.023438 40.597656 9.019531 40.117188 7.042969 39.652344 C 6.550781 39.570312 6.210938 39.238281 6.246094 38.871094 C 6.054688 37.265625 5.808594 35.660156 5.542969 34.058594 C 5.472656 33.816406 5.300781 33.59375 5.050781 33.421875 C 3.535156 32.304688 2.015625 31.1875 0.449219 30.121094 C 0.03125 29.886719 -0.0898438 29.460938 0.167969 29.125 C 0.90625 27.699219 1.625 26.265625 2.28125 24.816406 C 2.429688 24.460938 2.429688 24.082031 2.28125 23.726562 C 1.601562 22.238281 0.867188 20.765625 0.105469 19.292969 C -0.0859375 19.023438 0.0195312 18.695312 0.351562 18.511719 C 1.910156 17.429688 3.460938 16.335938 4.953125 15.214844 C 5.292969 14.9375 5.511719 14.589844 5.578125 14.222656 C 5.859375 12.664062 6.074219 11.105469 6.273438 9.539062 C 6.269531 9.230469 6.574219 8.96875 6.992188 8.921875 C 9.03125 8.425781 11.070312 7.929688 13.085938 7.386719 C 13.542969 7.265625 13.9375 7.042969 14.21875 6.753906 C 15.390625 5.4375 16.480469 4.082031 17.636719 2.753906 C 17.808594 2.589844 18.011719 2.445312 18.238281 2.324219 Z M 9.570312 24.277344 C 9.585938 33.5 19.839844 40.972656 32.480469 40.964844 C 45.117188 40.957031 55.355469 33.472656 55.351562 24.25 C 55.347656 15.027344 45.097656 7.550781 32.460938 7.550781 C 26.382812 7.550781 20.558594 9.3125 16.261719 12.453125 C 11.96875 15.589844 9.5625 19.84375 9.570312 24.28125 Z M 9.570312 24.277344 "/>
<path style=" stroke:none;fill-rule:nonzero;fill:rgb(79.215686%,0%,15.294118%);fill-opacity:1;" d="M 50.046875 24.246094 C 50.054688 31.335938 42.183594 37.082031 32.472656 37.085938 C 22.757812 37.085938 14.882812 31.339844 14.886719 24.253906 C 14.886719 17.164062 22.761719 11.421875 32.472656 11.425781 C 42.179688 11.421875 50.046875 17.164062 50.046875 24.246094 Z M 50.046875 24.246094 "/>
</g>
</svg>
