<svg xmlns="http://www.w3.org/2000/svg" width="20.073" height="20.059" viewBox="0 0 20.073 20.059"><defs><style>.a{fill:#04a152;}</style></defs><g transform="translate(0 -0.168)"><path class="a" d="M10.036,20.059a10.117,10.117,0,0,1-2.023-.2,9.984,9.984,0,0,1-3.589-1.509A10.06,10.06,0,0,1,.789,13.934,9.973,9.973,0,0,1,.2,12.051a10.121,10.121,0,0,1,0-4.043,9.971,9.971,0,0,1,1.51-3.586A10.065,10.065,0,0,1,6.13.788,9.99,9.99,0,0,1,8.014.2a10.141,10.141,0,0,1,4.045,0,9.985,9.985,0,0,1,3.589,1.509,10.059,10.059,0,0,1,3.636,4.413,9.973,9.973,0,0,1,.585,1.883,10.121,10.121,0,0,1,0,4.043,9.971,9.971,0,0,1-1.51,3.586,10.065,10.065,0,0,1-4.416,3.634,9.99,9.99,0,0,1-1.884.584A10.117,10.117,0,0,1,10.036,20.059ZM5.835,9.936h0L4.486,11.668l4.745,3.7,6.132-8.848-1.8-1.25-4.809,6.94Z" transform="translate(0 0.168)"/></g></svg>