<svg xmlns="http://www.w3.org/2000/svg" width="19.02" height="19.007" viewBox="0 0 19.02 19.007"><defs><style>.a{fill:#04a152;}</style></defs><g transform="translate(0 -0.168)"><path class="a" d="M9.51,19.007a9.586,9.586,0,0,1-1.917-.193,9.461,9.461,0,0,1-3.4-1.43A9.532,9.532,0,0,1,.747,13.2a9.45,9.45,0,0,1-.554-1.784,9.59,9.59,0,0,1,0-3.831,9.448,9.448,0,0,1,1.431-3.4A9.537,9.537,0,0,1,5.808.747,9.466,9.466,0,0,1,7.593.193a9.609,9.609,0,0,1,3.833,0,9.461,9.461,0,0,1,3.4,1.43A9.532,9.532,0,0,1,18.272,5.8a9.45,9.45,0,0,1,.554,1.784,9.59,9.59,0,0,1,0,3.831,9.448,9.448,0,0,1-1.431,3.4,9.537,9.537,0,0,1-4.184,3.443,9.466,9.466,0,0,1-1.785.554A9.586,9.586,0,0,1,9.51,19.007ZM5.529,9.415h0L4.251,11.056l4.5,3.5,5.81-8.384L12.848,4.99,8.29,11.566Z" transform="translate(0 0.168)"/></g></svg>