<svg xmlns="http://www.w3.org/2000/svg" width="65.359" height="62.981" viewBox="0 0 65.359 62.981"><defs><style>.a{fill:#a2a2a2;}</style></defs><g transform="translate(-13.885 -12.5)"><path class="a" d="M60,75.513h1.534V43.468h2.9V40.059H70.4v3.409h2.812V75.513h5.2a1.017,1.017,0,0,1,.767.426.934.934,0,0,1,0,.682,1.269,1.269,0,0,1-.767.341H14.835c-.682,0-1.023-.256-.937-.767,0-.426.341-.682.852-.682h6.221V45.087H28.3V75c0,.426.085.6.6.6h.852V38.951H26.426V34.178H40.147V75.513h1.364V23.525a.911.911,0,0,1,.426-.937c.341-.17.6,0,.937.17,3.068,2.216,6.136,4.432,9.29,6.648,2.472,1.79,5.028,3.579,7.5,5.369a1.382,1.382,0,0,1,.6,1.193V74.831A.778.778,0,0,0,60,75.513ZM36.312,73.638v-8.1H33.244v8.1ZM33.159,49.093h3.153V41.082H33.159Zm3.153,12.272V53.354H33.244v8.011ZM55.573,65.03v-2.3H45.687v2.3ZM45.687,51.905h9.886V49.6H45.687Q45.687,50.755,45.687,51.905Zm9.886,4.261H45.687v2.3h9.886Q55.573,57.317,55.573,56.167ZM45.687,45.343h9.886v-2.3H45.687Q45.687,44.192,45.687,45.343Zm9.886,23.863H45.687v2.3h9.886Q55.573,70.357,55.573,69.206Zm0-32.641H45.687v2.3h9.886C55.573,38.014,55.573,37.332,55.573,36.565Zm9.375,12.443a2.5,2.5,0,0,0,2.386,2.386,2.386,2.386,0,1,0-2.386-2.386Zm2.386,13.21a2.365,2.365,0,0,0,2.386-2.3,2.388,2.388,0,1,0-2.386,2.3ZM69.72,70.74a2.344,2.344,0,1,0-2.3,2.3A2.29,2.29,0,0,0,69.72,70.74Z" transform="translate(0 -1.48)"/><path class="a" d="M33.458,24.517V13.693c0-.937.17-1.193,1.108-1.193h18.92c.6.085.767.256.767.852V20.6H67.974c.937,0,1.108.17,1.108,1.108v8.352a.83.83,0,0,1-.6.937.705.705,0,0,1-.852-.767v-8.1H53.912c-.852,0-1.108-.256-1.108-1.108v-6.9h-17.9V25.284c0,.682-.256.852-.937.852H22.634V39.943c0,.852-.17,1.193-.767,1.278-.511,0-.767-.341-.767-1.193V25.539c0-.6.256-.852.852-.852h4.091C28.6,24.517,30.986,24.517,33.458,24.517Z" transform="translate(-1.066 0)"/></g></svg>