<svg xmlns="http://www.w3.org/2000/svg" width="39.318" height="39.265" viewBox="0 0 39.318 39.265"><defs><style>.a{fill:#fff;}</style></defs><g transform="translate(46 313.986)"><path class="a" d="M19.659,39.265a19.793,19.793,0,0,1-3.96-.4,19.566,19.566,0,0,1-3.693-1.144,19.783,19.783,0,0,1-3.338-1.81,20,20,0,0,1-2.91-2.4,19.654,19.654,0,0,1-4.211-6.24A19.355,19.355,0,0,1,.4,23.589a19.675,19.675,0,0,1,0-7.913,19.354,19.354,0,0,1,1.144-3.685A19.6,19.6,0,0,1,3.358,8.656a19.718,19.718,0,0,1,8.648-7.113A19.573,19.573,0,0,1,15.7.4,19.869,19.869,0,0,1,23.62.4,19.664,19.664,0,0,1,33.559,5.75a19.8,19.8,0,0,1,2.4,2.906,19.579,19.579,0,0,1,1.811,3.335,19.234,19.234,0,0,1,1.146,3.685,19.759,19.759,0,0,1,0,7.913,19.233,19.233,0,0,1-1.146,3.685,19.588,19.588,0,0,1-1.811,3.335,19.76,19.76,0,0,1-5.311,5.3,19.557,19.557,0,0,1-7.028,2.954A19.823,19.823,0,0,1,19.659,39.265Zm-6.233-28.9L10.384,13.4l6.24,6.234-6.24,6.233L13.428,28.9l6.235-6.233L25.9,28.9l3.042-3.038L22.7,19.633l6.236-6.23L25.9,10.365l-6.233,6.23-6.236-6.234Z" transform="translate(-46 -313.986)"/></g></svg>