<svg xmlns="http://www.w3.org/2000/svg" width="24.517" height="23.58" viewBox="0 0 24.517 23.58"><defs><style>.a{fill:#910000;}</style></defs><g transform="translate(0.001)"><path class="a" d="M12.259,23.58a12.428,12.428,0,0,1-8.668-3.453,11.474,11.474,0,0,1,0-16.674A12.428,12.428,0,0,1,12.259,0a12.427,12.427,0,0,1,8.667,3.453,11.474,11.474,0,0,1,0,16.674A12.427,12.427,0,0,1,12.259,23.58ZM8.373,6.218l-1.9,1.829,3.887,3.743L6.475,15.534l1.9,1.828,3.887-3.743,3.884,3.74,1.9-1.829-3.884-3.74,3.884-3.74-1.9-1.829L12.26,9.962Z" transform="translate(-0.001 0)"/></g></svg>