<svg xmlns="http://www.w3.org/2000/svg" width="36.355" height="36.38" viewBox="0 0 36.355 36.38"><defs><style>.a{fill:#fff;}</style></defs><g transform="translate(-23.1 -21.459)"><path class="a" d="M23.1,38.521c.12-.66.18-1.38.3-2.04a17.849,17.849,0,0,1,7.919-12.058,16.728,16.728,0,0,1,8.159-2.88A17.977,17.977,0,0,1,53.7,26.283l.54.54a1.448,1.448,0,0,1,0,2.1,1.5,1.5,0,0,1-2.1.06c-.66-.54-1.26-1.2-1.98-1.68-5.1-3.48-10.5-3.9-15.958-1.08a14.685,14.685,0,0,0-7.859,10.8,15.127,15.127,0,0,0,15.9,17.7A15.179,15.179,0,0,0,56.4,39.781a1.664,1.664,0,0,1,.9-1.62,1.532,1.532,0,0,1,2.16,1.44,16.382,16.382,0,0,1-.72,5.1c-2.34,7.019-7.079,11.338-14.4,12.838-.66.12-1.38.18-2.04.3h-2.16c-.12,0-.18-.06-.3-.06a16.88,16.88,0,0,1-7.919-2.52A18.257,18.257,0,0,1,23.4,42.721c-.12-.66-.18-1.38-.3-2.04Z" transform="translate(0 0)"/><path class="a" d="M47.3,47.543l-3.36-3.36a1.575,1.575,0,0,1,.3-2.58,1.476,1.476,0,0,1,1.56.18l.36.36c1.02.96,1.98,1.98,2.94,3,.12.12.12.24.24.36a1.319,1.319,0,0,1,.36-.3l3.12-3.12a1.615,1.615,0,0,1,1.8-.42,1.55,1.55,0,0,1,.36,2.52c-.72.72-1.44,1.44-2.16,2.22l-1.2,1.2.3.3,3.12,3.12a1.615,1.615,0,0,1,.42,1.8,1.55,1.55,0,0,1-2.52.36c-.72-.72-1.44-1.44-2.22-2.16l-1.2-1.2-.3.3-3.12,3.12a1.615,1.615,0,0,1-1.8.42,1.55,1.55,0,0,1-.36-2.52c.72-.72,1.44-1.44,2.16-2.22A13.184,13.184,0,0,1,47.3,47.543Z" transform="translate(-8.122 -8.002)"/></g></svg>