<svg id="Group_1004" data-name="Group 1004" xmlns="http://www.w3.org/2000/svg" width="83.35" height="64.969" viewBox="0 0 83.35 64.969">
  <g id="Group_998" data-name="Group 998" transform="translate(6.633 3.589)">
    <g id="Group_997" data-name="Group 997">
      <path id="Path_970" data-name="Path 970" d="M5.85,15v4.228l2.3.442a11.515,11.515,0,0,0,1.536,3.712L8.37,25.327l.983.983,1.02,1.02.983.983L13.3,27a11.515,11.515,0,0,0,3.712,1.536l.442,2.3h4.228l.442-2.3A11.515,11.515,0,0,0,25.835,27l1.942,1.315.983-.983,1.02-1.02.983-.983-1.315-1.942a11.515,11.515,0,0,0,1.536-3.712l2.3-.442V15l-2.3-.442a11.515,11.515,0,0,0-1.536-3.712l1.315-1.942-.983-.983L28.76,6.9l-.983-.983L25.835,7.235A11.515,11.515,0,0,0,22.123,5.7l-.442-2.3H17.453L17.01,5.7A11.515,11.515,0,0,0,13.3,7.235L11.356,5.92l-.983.983-1.02,1.02-.983.983,1.315,1.942A11.515,11.515,0,0,0,8.148,14.56L5.85,15Zm5.826,2.114a7.891,7.891,0,1,1,7.891,7.891,7.892,7.892,0,0,1-7.891-7.891Z" transform="translate(-5.285 -2.822)" fill="#324b74"/>
      <path id="Path_971" data-name="Path 971" d="M17,31.051l-.369-1.93a12.2,12.2,0,0,1-3.208-1.327L11.794,28.9a.56.56,0,0,1-.725-.074L8.082,25.84a.578.578,0,0,1-.074-.725L9.114,23.48a12.034,12.034,0,0,1-1.327-3.208L5.857,19.9a.579.579,0,0,1-.467-.565V15.11a.579.579,0,0,1,.467-.565l1.93-.369a12.2,12.2,0,0,1,1.327-3.208L8.008,9.334a.56.56,0,0,1,.074-.725l2.987-2.987a.578.578,0,0,1,.725-.074l1.635,1.106a12.034,12.034,0,0,1,3.208-1.327L17,3.4a.579.579,0,0,1,.565-.467H21.8a.579.579,0,0,1,.565.467l.369,1.93A12.2,12.2,0,0,1,25.94,6.654l1.635-1.106a.56.56,0,0,1,.725.074l2.987,2.987a.578.578,0,0,1,.074.725l-1.106,1.635a12.2,12.2,0,0,1,1.327,3.208l1.93.369a.579.579,0,0,1,.467.565v4.228a.579.579,0,0,1-.467.565l-1.93.369a12.2,12.2,0,0,1-1.327,3.208l1.106,1.635a.56.56,0,0,1-.074.725L28.3,28.827a.578.578,0,0,1-.725.074L25.94,27.794a12.034,12.034,0,0,1-3.208,1.327l-.369,1.93a.579.579,0,0,1-.565.467H17.57A.579.579,0,0,1,17,31.051Zm4.671-2.52a.6.6,0,0,1,.442-.455,11.115,11.115,0,0,0,3.527-1.463.579.579,0,0,1,.627,0l1.549,1.045,2.323-2.323L29.1,23.788a.556.556,0,0,1,0-.627,11.234,11.234,0,0,0,1.463-3.527.6.6,0,0,1,.455-.442l1.831-.356V15.553L31.016,15.2a.6.6,0,0,1-.455-.442A11.115,11.115,0,0,0,29.1,11.226a.579.579,0,0,1,0-.627l1.045-1.549L27.833,6.728,26.284,7.773a.556.556,0,0,1-.627,0A11.115,11.115,0,0,0,22.13,6.31a.6.6,0,0,1-.442-.455l-.356-1.831H18.05l-.356,1.831a.6.6,0,0,1-.442.455,11.115,11.115,0,0,0-3.527,1.463.579.579,0,0,1-.627,0L11.548,6.728,9.225,9.051,10.269,10.6a.535.535,0,0,1,0,.627,11.115,11.115,0,0,0-1.463,3.527.6.6,0,0,1-.455.442l-1.831.356v3.282l1.831.356a.6.6,0,0,1,.455.442,11.115,11.115,0,0,0,1.463,3.527.579.579,0,0,1,0,.627L9.225,25.336l2.323,2.323L13.1,26.614a.556.556,0,0,1,.627,0,11.115,11.115,0,0,0,3.527,1.463.6.6,0,0,1,.442.455l.356,1.831h3.282l.356-1.831ZM11.2,17.224a8.468,8.468,0,1,1,8.468,8.468A8.477,8.477,0,0,1,11.2,17.224Zm1.155,0a7.313,7.313,0,1,0,7.313-7.313,7.323,7.323,0,0,0-7.313,7.313Z" transform="translate(-5.39 -2.93)" fill="#324b74"/>
    </g>
    <path id="Path_972" data-name="Path 972" d="M17,31.051l-.369-1.93a12.2,12.2,0,0,1-3.208-1.327L11.794,28.9a.56.56,0,0,1-.725-.074L8.082,25.84a.578.578,0,0,1-.074-.725L9.114,23.48a12.034,12.034,0,0,1-1.327-3.208L5.857,19.9a.579.579,0,0,1-.467-.565V15.11a.579.579,0,0,1,.467-.565l1.93-.369a12.2,12.2,0,0,1,1.327-3.208L8.008,9.334a.56.56,0,0,1,.074-.725l2.987-2.987a.578.578,0,0,1,.725-.074l1.635,1.106a12.034,12.034,0,0,1,3.208-1.327L17,3.4a.579.579,0,0,1,.565-.467H21.8a.579.579,0,0,1,.565.467l.369,1.93A12.2,12.2,0,0,1,25.94,6.654l1.635-1.106a.56.56,0,0,1,.725.074l2.987,2.987a.578.578,0,0,1,.074.725l-1.106,1.635a12.2,12.2,0,0,1,1.327,3.208l1.93.369a.579.579,0,0,1,.467.565v4.228a.579.579,0,0,1-.467.565l-1.93.369a12.2,12.2,0,0,1-1.327,3.208l1.106,1.635a.56.56,0,0,1-.074.725L28.3,28.827a.578.578,0,0,1-.725.074L25.94,27.794a12.034,12.034,0,0,1-3.208,1.327l-.369,1.93a.579.579,0,0,1-.565.467H17.57A.579.579,0,0,1,17,31.051Zm4.671-2.52a.6.6,0,0,1,.442-.455,11.115,11.115,0,0,0,3.527-1.463.579.579,0,0,1,.627,0l1.549,1.045,2.323-2.323L29.1,23.788a.556.556,0,0,1,0-.627,11.234,11.234,0,0,0,1.463-3.527.6.6,0,0,1,.455-.442l1.831-.356V15.553L31.016,15.2a.6.6,0,0,1-.455-.442A11.115,11.115,0,0,0,29.1,11.226a.579.579,0,0,1,0-.627l1.045-1.549L27.833,6.728,26.284,7.773a.556.556,0,0,1-.627,0A11.115,11.115,0,0,0,22.13,6.31a.6.6,0,0,1-.442-.455l-.356-1.831H18.05l-.356,1.831a.6.6,0,0,1-.442.455,11.115,11.115,0,0,0-3.527,1.463.579.579,0,0,1-.627,0L11.548,6.728,9.225,9.051,10.269,10.6a.535.535,0,0,1,0,.627,11.115,11.115,0,0,0-1.463,3.527.6.6,0,0,1-.455.442l-1.831.356v3.282l1.831.356a.6.6,0,0,1,.455.442,11.115,11.115,0,0,0,1.463,3.527.579.579,0,0,1,0,.627L9.225,25.336l2.323,2.323L13.1,26.614a.556.556,0,0,1,.627,0,11.115,11.115,0,0,0,3.527,1.463.6.6,0,0,1,.442.455l.356,1.831h3.282l.356-1.831ZM11.2,17.224a8.468,8.468,0,1,1,8.468,8.468A8.477,8.477,0,0,1,11.2,17.224Zm1.155,0a7.313,7.313,0,1,0,7.313-7.313,7.323,7.323,0,0,0-7.313,7.313Z" transform="translate(-5.39 -2.93)" fill="#324b74"/>
  </g>
  <g id="Group_999" data-name="Group 999" transform="translate(0 37.547)">
    <path id="Path_973" data-name="Path 973" d="M6.006,38.717l6.649,6.49a4.058,4.058,0,0,0,5.322,5.248L15.4,47.935l2.249-2.3,2.581,2.52a4.071,4.071,0,0,0-5.383-5.211l-6.649-6.49A4.067,4.067,0,0,0,2.86,31.207l2.581,2.52-2.249,2.3L.61,33.506a4.068,4.068,0,0,0,5.383,5.2Z" transform="translate(0.086 -30.48)" fill="#324b74"/>
    <path id="Path_974" data-name="Path 974" d="M18.229,50.951a.428.428,0,0,0,.258-.32.421.421,0,0,0-.123-.393L16.09,48.026l1.635-1.672L20,48.566a.432.432,0,0,0,.393.111.472.472,0,0,0,.32-.27,4.5,4.5,0,0,0-5.678-5.875l-6.244-6.1a4.473,4.473,0,0,0-1.143-4.6,4.535,4.535,0,0,0-4.867-.946.428.428,0,0,0-.258.32.421.421,0,0,0,.123.393l2.262,2.212L3.271,35.489,1.009,33.277a.432.432,0,0,0-.393-.111.472.472,0,0,0-.32.27,4.508,4.508,0,0,0,5.691,5.875l6.244,6.1a4.5,4.5,0,0,0,4.339,5.875,4.36,4.36,0,0,0,1.659-.344ZM5.913,38.39a3.63,3.63,0,0,1-4.99-3.982l2.053,2a.427.427,0,0,0,.307.123h0A.44.44,0,0,0,3.59,36.4L5.84,34.1a.442.442,0,0,0,0-.615l-2.053-2A3.625,3.625,0,0,1,7.88,36.374a.439.439,0,0,0,.1.467l6.649,6.49a.429.429,0,0,0,.479.086A3.626,3.626,0,0,1,20.085,47.4l-2.053-2a.442.442,0,0,0-.615,0l-2.249,2.3a.427.427,0,0,0-.123.307.44.44,0,0,0,.135.307l2.053,2A3.625,3.625,0,0,1,13.14,45.42a.439.439,0,0,0-.1-.467l-6.649-6.49a.427.427,0,0,0-.307-.123.239.239,0,0,0-.16.037Z" transform="translate(0.007 -30.559)" fill="#324b74"/>
  </g>
  <g id="Group_1002" data-name="Group 1002" transform="translate(59.041 37.941)">
    <g id="Group_1000" data-name="Group 1000" transform="translate(11.706)">
      <path id="Path_975" data-name="Path 975" d="M69.6,40.145l-3.552,2.7-1.352-1.782a1.557,1.557,0,0,0-1.352-1.782l-2.262-2.962s.8-2.016-1.807-2.372L57.92,32.168s3.491-2.188,5.814.258l3.159,4.154s-.8,2.028,1.807,2.372l.9,1.18Z" transform="translate(-57.47 -30.79)" fill="#324b74"/>
      <path id="Path_976" data-name="Path 976" d="M65.747,43.22,64.4,41.438a.433.433,0,0,1-.086-.344,1.557,1.557,0,0,0-.074-.627.991.991,0,0,0-.873-.639.451.451,0,0,1-.307-.184l-2.262-2.962a.465.465,0,0,1-.061-.455,1.387,1.387,0,0,0-.049-1.057,1.754,1.754,0,0,0-1.377-.676A.451.451,0,0,1,59,34.309l-1.352-1.782a.478.478,0,0,1-.086-.369.455.455,0,0,1,.209-.307A7.4,7.4,0,0,1,59.958,31a4.322,4.322,0,0,1,4.216,1.18c0,.012.025.025.037.037l3.159,4.154a.465.465,0,0,1,.061.455,1.393,1.393,0,0,0,.049,1.057,1.792,1.792,0,0,0,1.377.676.451.451,0,0,1,.307.184l.9,1.18a.467.467,0,0,1-.086.651l-3.552,2.7a.519.519,0,0,1-.393.086.507.507,0,0,1-.258-.172Zm2.765-3.749a2.552,2.552,0,0,1-1.868-1.106,2.155,2.155,0,0,1-.2-1.6l-3-3.945a3.386,3.386,0,0,0-3.306-.9,6.808,6.808,0,0,0-1.45.492l.91,1.192a2.528,2.528,0,0,1,1.868,1.106,2.278,2.278,0,0,1,.2,1.6l2,2.63a1.879,1.879,0,0,1,1.45,1.241,2.488,2.488,0,0,1,.123.811l.971,1.266,2.815-2.139-.5-.664Z" transform="translate(-57.554 -30.879)" fill="#324b74"/>
    </g>
    <g id="Group_1001" data-name="Group 1001" transform="translate(0 5.977)">
      <path id="Path_977" data-name="Path 977" d="M64.325,39.092,62.064,36.13,48.433,46.516s-.418,3.134,2.778,3.036Z" transform="translate(-47.941 -35.654)" fill="#324b74"/>
      <path id="Path_978" data-name="Path 978" d="M48.792,49.186a3.572,3.572,0,0,1-.737-2.655.451.451,0,0,1,.184-.307L61.87,35.838a.467.467,0,0,1,.651.086l2.262,2.962a.458.458,0,0,1-.086.651L51.582,50a.43.43,0,0,1-.27.1,4.242,4.242,0,0,1-1.155-.111,2.563,2.563,0,0,1-1.352-.8ZM63.75,39.095l-1.7-2.225-13.09,9.98a2.61,2.61,0,0,0,.529,1.733,2.161,2.161,0,0,0,1.635.6L63.75,39.107Z" transform="translate(-48.03 -35.742)" fill="#324b74"/>
    </g>
  </g>
  <g id="Group_1003" data-name="Group 1003" transform="translate(9.641)">
    <path id="Path_979" data-name="Path 979" d="M56.7,35.752c1.512.43,2.938.823,4.351,1.229a11.324,11.324,0,0,1,8.333,10.976c.025,2.323,0,4.646,0,6.981,0,1.389-.442,1.856-1.782,1.856H9.746c-1.377,0-1.856-.442-1.819-1.807.086-3.122-.393-6.281.258-9.366a10.961,10.961,0,0,1,7.9-8.579c1.327-.43,2.741-1.18,4.007-1s.983,2.089,1.745,3.1c1.364,1.819,2.434,3.847,3.65,5.777a6.871,6.871,0,0,0,10.091,2.188c1.02-.676,2-1.794,3.073-1.868s2.04,1.192,3.048,1.856a6.845,6.845,0,0,0,10.017-2.065c1.413-2.2,2.765-4.449,4.154-6.662a6.418,6.418,0,0,0,.811-2.63Z" transform="translate(-7.837 8.175)" fill="#324b74"/>
    <path id="Path_980" data-name="Path 980" d="M34,5.123V1.829C34.009.514,34.439.071,35.717.035c3.355-.1,3.392-.061,3.392,3.294,0,1.733.012,3.466,0,5.2,0,.971.307,1.745,1.352,1.782,1.131.025,1.463-.762,1.438-1.794-.025-2.114.025-4.228-.025-6.342-.025-.885.2-.959.983-.664A17.071,17.071,0,0,1,53.539,16.283c.037.922.184,1.377,1.241,1.278A1.2,1.2,0,0,1,56.1,18.815a1.334,1.334,0,0,1-1.254,1.475c-.123.025-.258,0-.381.012-.787.074-1.856-.356-2.286.184-.393.5-.111,1.524-.16,2.323a18.426,18.426,0,0,1-4.437,10.423,36.985,36.985,0,0,1-5.42,5.322,7.921,7.921,0,0,1-4.437,1.6,10.494,10.494,0,0,1-8.874-3.368c-3.355-3.319-6.305-6.821-7.362-11.566a14.767,14.767,0,0,1-.393-4.154c.037-.627-.16-.811-.774-.774a12.322,12.322,0,0,1-1.905,0,1.333,1.333,0,0,1-1.4-1.463,1.215,1.215,0,0,1,1.413-1.278c1.082.123,1.094-.43,1.131-1.241A17.135,17.135,0,0,1,30.223,1.522c.959-.369,1.02-.061,1.008.75-.037,2.028-.012,4.056,0,6.084,0,1.315.5,2.053,1.413,1.967,1.217-.111,1.413-1,1.377-2.028-.037-1.057,0-2.114,0-3.171Z" transform="translate(-5.736 -0.01)" fill="#324b74"/>
    <path id="Path_981" data-name="Path 981" d="M42.915,46.532a3.974,3.974,0,0,1-2.483-.8c-1.291-.873-2.593-1.733-3.847-2.655a1.18,1.18,0,0,0-1.659-.025c-1.241.934-2.544,1.794-3.847,2.655a4.039,4.039,0,0,1-6.023-1.229c-1.389-2.163-2.729-4.351-4.068-6.551-.688-1.143-.553-1.684.578-2.409,1.745-1.106,3.527-2.151,5.26-3.282a1.66,1.66,0,0,1,2.36.307c1.893,1.868,3.847,3.675,5.715,5.568.627.639,1,.75,1.684.037,1.856-1.905,3.822-3.7,5.7-5.58a1.711,1.711,0,0,1,2.458-.295c1.7,1.106,3.441,2.126,5.15,3.208,1.192.75,1.315,1.291.565,2.507-1.315,2.151-2.667,4.3-3.995,6.44a4.084,4.084,0,0,1-3.527,2.089Z" transform="translate(-4.92 7.29)" fill="#324b74"/>
  </g>
</svg>
