<svg width="68" height="46" viewBox="0 0 68 46" fill="none" xmlns="http://www.w3.org/2000/svg">
<g clip-path="url(#clip0_1046_1598)">
<path d="M44.9247 22.3747C44.3887 23.5807 43.8527 24.7197 43.3837 25.8587C43.1841 26.3566 42.8324 26.7786 42.3787 27.0647C41.9484 27.3065 41.4543 27.4104 40.9631 27.3625C40.4719 27.3146 40.0072 27.1171 39.6317 26.7967C39.2482 26.4652 38.9825 26.0184 38.8743 25.5231C38.7662 25.0279 38.8214 24.511 39.0317 24.0497L42.5157 16.2097L44.9277 10.7147L45.3967 9.84375C46.0385 10.7259 46.873 11.4499 47.8369 11.9608C48.8007 12.4716 49.8684 12.7558 50.9587 12.7917C52.051 12.7918 53.1283 12.5376 54.1054 12.0492C55.0824 11.5607 55.9323 10.8515 56.5877 9.97775L56.9227 10.4467C59.6027 14.6007 62.2837 18.7557 65.0307 22.8467C65.3647 23.3623 65.5063 23.9791 65.4307 24.5887C65.3637 24.6557 65.4307 24.7888 65.5647 24.8568C66.0714 25.2657 66.4749 25.788 66.7425 26.3815C67.0102 26.9751 67.1346 27.6233 67.1057 28.2738V35.9127C67.1057 38.3917 67.1727 40.8717 67.1727 43.3507V43.8198C67.1315 43.9429 67.0509 44.049 66.9433 44.1217C66.8357 44.1945 66.7072 44.2298 66.5776 44.2221C66.4479 44.2145 66.3244 44.1644 66.2261 44.0796C66.1278 43.9947 66.0602 43.8799 66.0337 43.7528V43.4178C66.0337 40.4028 66.0337 37.4537 65.9667 34.4387V27.9387C65.9538 27.518 65.8444 27.1058 65.6469 26.7341C65.4494 26.3623 65.1691 26.041 64.8277 25.7948C64.4712 26.187 63.9923 26.447 63.4691 26.5321C62.9459 26.6173 62.4092 26.5227 61.9467 26.2637C61.6143 26.6645 61.4058 27.1534 61.3467 27.6707V28.0707C61.3207 28.2204 61.2491 28.3584 61.1417 28.4658C61.0343 28.5732 60.8963 28.6448 60.7467 28.6707C60.5814 28.6534 60.4285 28.5752 60.3176 28.4514C60.2067 28.3276 60.1458 28.167 60.1467 28.0007C60.1453 27.1519 60.4268 26.3268 60.9467 25.6558C61.0807 25.5218 61.0807 25.3877 60.9467 25.1867L57.0607 19.1558H56.9267V41.6737C56.9727 42.2848 56.813 42.8938 56.4731 43.4037C56.1332 43.9136 55.6325 44.2952 55.0507 44.4878C54.6389 44.656 54.1916 44.7191 53.7493 44.6714C53.3069 44.6236 52.8835 44.4665 52.517 44.2142C52.1506 43.9618 51.8528 43.6223 51.6504 43.2261C51.448 42.8299 51.3474 42.3895 51.3577 41.9448V28.0707C51.3577 27.3337 51.3577 27.3337 50.4867 27.4707V41.9448C50.4838 42.4289 50.3529 42.9037 50.1074 43.321C49.8619 43.7383 49.5104 44.0833 49.0886 44.3211C48.6668 44.5588 48.1897 44.6809 47.7055 44.6748C47.2214 44.6688 46.7474 44.5349 46.3317 44.2867C45.8946 44.0114 45.5395 43.6235 45.3038 43.1638C45.068 42.7041 44.9603 42.1894 44.9917 41.6737V22.4447L44.9247 22.3747Z" fill="#848484"/>
<path d="M35.5451 13.5938V44.6187C35.5451 45.1547 35.5451 45.1548 35.0761 45.1548H20.2001C19.6641 45.1548 19.6641 45.1547 19.6641 44.6857V13.5938H35.5451Z" fill="#848484"/>
<path d="M16.4474 18.8906V44.6906C16.4474 45.0256 16.3804 45.1596 15.9784 45.1596C11.0194 45.0926 5.99441 45.0926 1.03541 45.1596C0.700406 45.1576 0.566406 45.0236 0.566406 44.6906V18.8906H16.4474Z" fill="#848484"/>
<path d="M45.1957 5.95598C45.1829 4.77489 45.5249 3.61715 46.1775 2.63262C46.83 1.64808 47.7631 0.882075 48.8558 0.433738C49.9486 -0.014599 51.1508 -0.124625 52.3068 0.117902C53.4628 0.36043 54.5193 0.944343 55.3398 1.79407C56.1602 2.64379 56.7067 3.72021 56.9085 4.884C57.1104 6.04779 56.9583 7.24536 56.4719 8.32173C55.9855 9.3981 55.1872 10.3037 54.1804 10.9213C53.1736 11.5389 52.0046 11.8402 50.8247 11.786C49.3246 11.7019 47.9115 11.0548 46.8679 9.9739C45.8243 8.89303 45.2271 7.4581 45.1957 5.95598Z" fill="#848484"/>
<path d="M36.7504 6.42112L35.5454 4.67812L33.7354 5.81813C29.087 8.69702 24.0567 10.9077 18.7924 12.3851C14.6045 13.6192 10.2871 14.3612 5.92743 14.5961C4.11843 14.7281 2.30843 14.7281 0.49943 14.7281C-0.0365699 14.7281 -0.0365699 14.6611 0.0304301 14.1281C0.0974301 13.5951 0.0974301 13.9941 0.0974301 13.9281C12.3949 13.9655 24.4026 10.1961 34.4724 3.13712L33.1994 1.32812H38.5604L36.9524 6.42112H36.7504Z" fill="#848484"/>
</g>
<defs>
<clipPath id="clip0_1046_1598">
<rect width="67.172" height="45.158" fill="white"/>
</clipPath>
</defs>
</svg>
