<svg xmlns="http://www.w3.org/2000/svg" width="64.798" height="64.805" viewBox="0 0 64.798 64.805"><defs><style>.a{fill:#324b74;}</style></defs><g transform="translate(-1.721 -2.6)"><path class="a" d="M49.662,16v8.117a1.275,1.275,0,0,1-.335.671c-1.275,1.208-2.482,2.482-3.69,3.69a5.012,5.012,0,0,0-.134,6.507c.067,0,.067.067.134.134a.537.537,0,0,1-.268.268,11.069,11.069,0,0,0-3.556,5.5,19.118,19.118,0,0,1-.805,2.08,2.818,2.818,0,0,0,.6,3.354,2.952,2.952,0,0,0,3.421.671l4.159-1.677.47-.134v4.226H26.652c-.134-1.006-.2-2.147-.268-3.22a3.824,3.824,0,0,0-3.421-3.421,3.69,3.69,0,0,0-3.891,2.818c-.2.671-.4,1.409-.671,2.147V16ZM21.754,23.715H46.241V19.354H21.754Zm5.568,5.568H41.813V27.136H27.322Zm0,8.989H41.813V36.126H27.322Zm.067,2.281V42.7H39.6V40.553Zm-.067,6.641H39.6V45.048H27.322Zm10-15.564H27.389v2.147h9.929Zm4.495,0H39.666v2.147h2.147Z" transform="translate(-5.49 -4.411)"/><path class="a" d="M49.671,17.761v-5.9a2.271,2.271,0,0,0-2.549-2.549H16.53a2.313,2.313,0,0,0-2.616,2.616v32.6a2.616,2.616,0,0,0,1.342,2.616c-.537,1.342-1.14,2.751-1.811,4.092a1.208,1.208,0,0,1-1.006.47c-.47,0-.738-.4-.738-.939V6.424c0-2.482,1.275-3.824,3.824-3.824h32.6c2.482,0,3.824,1.342,3.824,3.824V15.95a.738.738,0,0,1-.537.805,16.3,16.3,0,0,0-1.744,1.006ZM27.4,7.028h8.855V4.881H27.4ZM45.243,5.954a1.14,1.14,0,1,0-2.281,0,1.14,1.14,0,1,0,2.281,0ZM48.6,4.814a1.208,1.208,0,0,0-1.14,1.14,1.14,1.14,0,0,0,1.073,1.14,1.208,1.208,0,0,0,1.14-1.14A1.14,1.14,0,0,0,48.6,4.814Z" transform="translate(-3.284)"/><path class="a" d="M58.3,53.2V71.38a3.4,3.4,0,0,1-3.757,3.757H31.134c.738-3.757,0-7.379-.134-11.2H53.407c1.811,0,2.616-.805,2.616-2.616s0-3.556.067-5.3a1.409,1.409,0,0,1,.335-.872ZM38.178,67.288H33.952c-1.073.067-1.476.6-1.342,1.61a3.421,3.421,0,0,0,3.22,2.885h4.7a3.421,3.421,0,0,0,3.22-2.952c.134-.939-.335-1.476-1.342-1.543Z" transform="translate(-9.637 -16.655)"/><path class="a" d="M6.2,51.867V66.76a3.12,3.12,0,0,0,2.482,3.354,3.227,3.227,0,0,0,3.69-1.945,46.692,46.692,0,0,0,3.153-9.526l.2-.671a1.409,1.409,0,0,1,1.476-1.14,1.342,1.342,0,0,1,1.409,1.342c.2,1.543.268,3.086.4,4.629s.335,4.428.537,6.641a18.784,18.784,0,0,1-1.744,9.392,1.208,1.208,0,0,1-.47.335H6.2c-.2,0-.47-.268-.6-.47A33.073,33.073,0,0,1,2.982,68.84c-.335-2.415-.805-4.763-1.14-7.178a9.526,9.526,0,0,1,2.013-7.514A24.083,24.083,0,0,1,6,51.8Z" transform="translate(0 -16.194)"/><path class="a" d="M82.251,39.243V37.029H79.769L84.331,32.4l3.556,2.616v6.507c-2.348.671-4.629,1.476-7.044,2.013a7.715,7.715,0,0,1-5.7-1.006l-7.514-4.495a1.61,1.61,0,0,1-.872-2.013,1.811,1.811,0,0,1,1.878-1.275A6.574,6.574,0,0,1,72.39,36.09l3.556,2.818a1.275,1.275,0,0,0,.671.335Z" transform="translate(-21.375 -9.808)"/><path class="a" d="M74.8,27.784c0-.067.134-.2.268-.335l10.6-10.667a2.885,2.885,0,0,1,3.22-.6,2.683,2.683,0,0,1,1.677,2.683,3.153,3.153,0,0,1-.738,1.744L79.295,31.138Z" transform="translate(-24.053 -4.387)"/><path class="a" d="M63.492,43.1l4.7,2.818-5.031,5.031L59.4,47.192Z" transform="translate(-18.985 -13.33)"/><path class="a" d="M8.4,98.147V96H19.536v2.147Z" transform="translate(-2.198 -30.742)"/><path class="a" d="M71.807,25.978,67.513,30.2a1.409,1.409,0,0,1-.939.2,4.025,4.025,0,0,0-4.293,3.287,1.812,1.812,0,0,0,0,.6c.335,1.275-.6,1.744-1.275,2.415a1.913,1.913,0,0,1-.335-3.153L64.226,30l2.281-2.281A6.029,6.029,0,0,1,71.807,25.978Z" transform="translate(-19.182 -7.68)"/><path class="a" d="M59.649,55.486l-3.556,1.409a.738.738,0,0,1-1.006-.872c.4-1.208.939-2.415,1.409-3.623Z" transform="translate(-17.556 -16.391)"/></g></svg>