<svg xmlns="http://www.w3.org/2000/svg" width="48.048" height="64.305" viewBox="0 0 48.048 64.305"><defs><style>.a{fill:#324b74;}</style></defs><g transform="translate(-10.796 -1)"><path class="a" d="M62.993,60.646a2.5,2.5,0,0,1-1.512.394A3.877,3.877,0,0,1,58.13,59L51.558,46.976H34.208a4.863,4.863,0,0,1-4.995-4.535L28.1,25.42a4.863,4.863,0,0,1,4.535-5.126h.986a4.863,4.863,0,0,1,5.192,4.535l.263,4.666H49.389a2.695,2.695,0,0,1,0,5.323H39.4l.263,3.812H52.018a5,5,0,0,1,1.38.2A4.075,4.075,0,0,1,56.093,40.8l8.149,14.853a3.615,3.615,0,0,1-1.249,4.995Z" transform="translate(-5.927 -6.61)"/><circle class="a" cx="5.652" cy="5.652" r="5.652" transform="translate(21.643 1)"/><line y2="0.131" transform="translate(30.778 32.086)"/><path class="a" d="M-11955.28-2696.122h0a20.074,20.074,0,0,1-2.405-.146,19.823,19.823,0,0,1-10.9-4.942,19.819,19.819,0,0,1-6.1-10.294,19.817,19.817,0,0,1,.9-11.932,19.81,19.81,0,0,1,7.578-9.258l.722,11.04a4.954,4.954,0,0,0,4.913,4.536h17.431l5.588,10.12a19.9,19.9,0,0,1-7.373,7.961A19.9,19.9,0,0,1-11955.28-2696.122Zm-1.193-10.48a3.122,3.122,0,0,1,1.252.262,2.17,2.17,0,0,1,1.118,1.38c.194.655.327,1.248.456,1.821l0,.019a16.444,16.444,0,0,0,.722,2.564c.27.535.534.988,1.052,1.118v-.066h.46a.979.979,0,0,0,.574-.571.979.979,0,0,0-.048-.809,1.062,1.062,0,0,1-.265-.46l-.59-2.1c-.108-.361-.194-.725-.295-1.162-.077-.334-.148-.636-.23-.942a3.047,3.047,0,0,0-1.512-1.84h.065a3.62,3.62,0,0,0,2.038-2.233l.2-.132c.185.016.373.025.56.025s.373-.008.559-.025l.066,0a.717.717,0,0,0,.486-.189.734.734,0,0,0,.235-.538.784.784,0,0,0-.722-.655h-1.185a4.183,4.183,0,0,0-.655-1.776h1.856a.728.728,0,0,0,.608-.337.722.722,0,0,0,.03-.712.845.845,0,0,0-.756-.46h-9.166a.791.791,0,0,0-.586.364.791.791,0,0,0-.072.685.853.853,0,0,0,.759.46h3.645a2.965,2.965,0,0,1,1.644.592,1.774,1.774,0,0,1,.658,1.118h-6.047a.806.806,0,0,0-.586.367.788.788,0,0,0-.072.685.724.724,0,0,0,.676.469.741.741,0,0,0,.114-.009h5.847a1.57,1.57,0,0,1-.523.854,2.544,2.544,0,0,1-1.788.727c-.04,0-.08,0-.12,0h-2.892a.714.714,0,0,0-.655.721.79.79,0,0,0,.787.791h2.3Z" transform="translate(11986 2761.428)"/></g></svg>