<svg xmlns="http://www.w3.org/2000/svg" width="67.172" height="45.158" viewBox="0 0 67.172 45.158"><defs><style>.a{fill:#324b74;}</style></defs><g transform="translate(0.245 -29.509)"><path class="a" d="M63.793,56.73c-.536,1.206-1.072,2.345-1.541,3.484a2.546,2.546,0,0,1-1.005,1.206,2.412,2.412,0,0,1-2.747-.268,2.345,2.345,0,0,1-.6-2.747l3.484-7.84,2.412-5.495.469-.871a7.17,7.17,0,0,0,5.562,2.948,7.036,7.036,0,0,0,5.629-2.814l.335.469c2.68,4.154,5.361,8.309,8.108,12.4a2.613,2.613,0,0,1,.4,1.742c-.067.067,0,.2.134.268a4.154,4.154,0,0,1,1.541,3.417v7.639c0,2.479.067,4.959.067,7.438v.469a.591.591,0,0,1-1.139-.067v-.335c0-3.015,0-5.964-.067-8.979v-6.5a2.747,2.747,0,0,0-1.139-2.144,2.345,2.345,0,0,1-2.881.469,2.68,2.68,0,0,0-.6,1.407v.4a.737.737,0,0,1-.6.6.67.67,0,0,1-.6-.67,3.819,3.819,0,0,1,.8-2.345c.134-.134.134-.268,0-.469l-3.886-6.031h-.134V76.029a2.747,2.747,0,0,1-1.876,2.814A2.68,2.68,0,0,1,70.226,76.3V62.426c0-.737,0-.737-.871-.6V76.3A2.747,2.747,0,0,1,65.2,78.642a2.881,2.881,0,0,1-1.34-2.613V56.8Z" transform="translate(-19.113 -4.847)"/><path class="a" d="M44.981,49.8V80.825c0,.536,0,.536-.469.536H29.636c-.536,0-.536,0-.536-.469V49.8Z" transform="translate(-9.682 -6.694)"/><path class="a" d="M16.481,57.7V83.5c0,.335-.067.469-.469.469-4.959-.067-9.984-.067-14.943,0C.734,83.967.6,83.833.6,83.5V57.7Z" transform="translate(-0.279 -9.301)"/><path class="a" d="M67.2,35.467a5.9,5.9,0,1,1,5.629,5.83A5.964,5.964,0,0,1,67.2,35.467Z" transform="translate(-22.251 0)"/><path class="a" d="M36.505,36.593,35.3,34.85,33.49,35.99a58.3,58.3,0,0,1-14.943,6.567A56.22,56.22,0,0,1,5.682,44.768C3.873,44.9,2.063,44.9.254,44.9c-.536,0-.536-.067-.469-.6s.067-.134.067-.2A59.57,59.57,0,0,0,34.227,33.309L32.954,31.5h5.361l-1.608,5.093Z" transform="translate(0 -0.657)"/></g></svg>