<svg xmlns="http://www.w3.org/2000/svg" width="55.883" height="37.255" viewBox="0 0 55.883 37.255"><defs><style>.a{fill:#afafaf;}</style></defs><g transform="translate(0 -85.333)"><g transform="translate(0 85.333)"><g transform="translate(0 0)"><path class="a" d="M50.062,85.333H5.821A5.829,5.829,0,0,0,0,91.154v25.613a5.829,5.829,0,0,0,5.821,5.821h44.24a5.829,5.829,0,0,0,5.821-5.821V91.154A5.829,5.829,0,0,0,50.062,85.333Zm3.493,31.434a3.5,3.5,0,0,1-3.493,3.493H5.821a3.5,3.5,0,0,1-3.493-3.493V91.154a3.5,3.5,0,0,1,3.493-3.493h44.24a3.5,3.5,0,0,1,3.493,3.493v25.613Z" transform="translate(0 -85.333)"/></g></g><g transform="translate(0 92.318)"><g transform="translate(0 0)"><path class="a" d="M54.718,149.333H1.164A1.165,1.165,0,0,0,0,150.5v6.985a1.165,1.165,0,0,0,1.164,1.164H54.719a1.165,1.165,0,0,0,1.164-1.164V150.5A1.165,1.165,0,0,0,54.718,149.333Zm-1.164,6.985H2.328v-4.657H53.554v4.657Z" transform="translate(0 -149.333)"/></g></g><g transform="translate(6.985 108.618)"><path class="a" d="M79.135,298.667H65.164a1.164,1.164,0,1,0,0,2.328H79.135a1.164,1.164,0,1,0,0-2.328Z" transform="translate(-64 -298.667)"/></g><g transform="translate(6.985 113.274)"><g transform="translate(0 0)"><path class="a" d="M79.135,341.333H65.164a1.164,1.164,0,0,0,0,2.329H79.135a1.164,1.164,0,0,0,0-2.329Z" transform="translate(-64 -341.333)"/></g></g><g transform="translate(39.584 106.289)"><path class="a" d="M368.488,277.333H366.16a3.5,3.5,0,0,0-3.493,3.493v2.328a3.5,3.5,0,0,0,3.493,3.493h2.328a3.5,3.5,0,0,0,3.493-3.493v-2.328A3.5,3.5,0,0,0,368.488,277.333Zm1.164,5.821a1.165,1.165,0,0,1-1.164,1.164H366.16A1.165,1.165,0,0,1,365,283.154v-2.328a1.165,1.165,0,0,1,1.164-1.164h2.328a1.165,1.165,0,0,1,1.164,1.164Z" transform="translate(-362.667 -277.333)"/></g></g></svg>