<svg xmlns="http://www.w3.org/2000/svg" width="28.743" height="28.743" viewBox="0 0 28.743 28.743"><defs><style>.a{fill:#37474f;}</style></defs><path class="a" d="M100.263,120a9.263,9.263,0,1,0,9.263,9.263A9.273,9.273,0,0,0,100.263,120Zm.842,14.315H99.421v-1.684H101.1Zm.422-5.391a.848.848,0,0,0-.422.73v1.293H99.421v-1.293a2.535,2.535,0,0,1,1.262-2.187.842.842,0,1,0-1.262-.73H97.737a2.526,2.526,0,1,1,3.79,2.187Z" transform="translate(-85.891 -113.263)"/><path class="a" d="M3.424,214.21A10.883,10.883,0,0,1,4.269,210H2.526A2.529,2.529,0,0,0,0,212.526v3.368a2.529,2.529,0,0,0,2.526,2.526H4.269A10.883,10.883,0,0,1,3.424,214.21Z" transform="translate(0 -198.211)"/><path class="a" d="M437.7,210h-1.743a10.917,10.917,0,0,1,0,8.421H437.7a2.529,2.529,0,0,0,2.526-2.526v-3.368A2.529,2.529,0,0,0,437.7,210Z" transform="translate(-411.482 -198.211)"/><path class="a" d="M58.4,10.1h1.148a4.151,4.151,0,0,1,.6.06,12.628,12.628,0,0,0-24.772,0,4.15,4.15,0,0,1,.6-.06h1.148a10.934,10.934,0,0,1,21.282,0Z" transform="translate(-33.385)"/><path class="a" d="M253.631,388.7H252.7a5.986,5.986,0,0,1-5.809,5.165H241v1.684h5.895a7.661,7.661,0,0,0,7.5-6.926A4.192,4.192,0,0,1,253.631,388.7Z" transform="translate(-227.471 -366.804)"/></svg>