<svg xmlns="http://www.w3.org/2000/svg" width="50" height="60.08" viewBox="0 0 50 60.08"><defs><style>.a{fill:#324b74;}</style></defs><g transform="translate(-2.874 -1.292)"><path class="a" d="M16.085,35.537a42.681,42.681,0,0,1,2.344-7.71,13.569,13.569,0,0,1,2.1-3.392c3.146-3.7,7.586-3.577,10.362.432,1.665,2.467,3.146,5.058,4.564,7.586a4.071,4.071,0,0,0,2.9,2.22c2.467.555,4.872,1.3,7.34,1.974s2.96,1.727,2.652,3.454-1.3,2.159-3.454,1.912c-3.577-.308-7.093-.74-10.608-1.172a4.009,4.009,0,0,1-3.022-1.789,9.252,9.252,0,0,0-2.405-2.529c-.123,1.665-.308,3.269-.37,4.934s.8,1.049,1.542,1.11l9.375.678a3.947,3.947,0,0,1,3.577,2.344c2.22,4.626,4.132,9.375,6.044,14.124a3.022,3.022,0,0,1-1.3,4.071,3.146,3.146,0,0,1-4.441-1.049c-1.85-2.96-3.7-5.921-5.489-8.943a2.673,2.673,0,0,0-3.022-1.665,3.431,3.431,0,0,1-4.009-2.344c-2.1-5.428-8.2-8.018-13.816-6.414-2.344.678-3.947-.555-4.009-3.022s-.062-5.551,0-8.326A2.286,2.286,0,0,0,11.4,29.37c-1.3-.493-2.035-1.11-1.357-2.467s1.789-.74,2.837-.37c2.529.863,3.639,2.467,3.269,5.181a19.737,19.737,0,0,0-.062,3.824Z" transform="translate(-2.648 -7.843)"/><path class="a" d="M17.508,82.58A14.556,14.556,0,0,1,3.939,73.452,14.8,14.8,0,0,1,7.269,57.416c.8-.8,1.419-1.172,2.344-.185s.8,1.357,0,2.1a11.1,11.1,0,0,0-3.577,6.908A11.747,11.747,0,0,0,15.842,79.5c6.229.8,12.582-3.577,13.384-10.053.123-.863,0-1.85,1.357-1.85s1.85.185,1.727,1.665a14.617,14.617,0,0,1-14.8,13.322Z" transform="translate(0 -21.21)"/><path class="a" d="M41.875,1.3A6.476,6.476,0,0,1,48.29,7.773a6.6,6.6,0,0,1-6.538,6.414A6.414,6.414,0,0,1,35.4,7.65,6.229,6.229,0,0,1,41.875,1.3Z" transform="translate(-12.464 0)"/><path class="a" d="M29.573,67.024a12.027,12.027,0,0,1-5.366-1.049,6.661,6.661,0,0,1-3.639-4.009c-.493-1.172-.123-1.727,1.11-2.1a9.437,9.437,0,0,1,11.1,4.934c.925,1.912.74,2.159-1.48,2.22Z" transform="translate(-6.7 -22.306)"/><path class="a" d="M70.933,43.939a2.467,2.467,0,0,1-1.542-1.665,19.614,19.614,0,0,1-1.11-3.7c-.247-.925-.432-1.789-.74-2.714a3.207,3.207,0,0,0-1.6-2.1,5,5,0,0,0-1.912-.37H60.756a1.11,1.11,0,0,1-1.172-1.172,1.172,1.172,0,0,1,.987-1.049h4.256a3.762,3.762,0,0,0,2.714-1.049A2.961,2.961,0,0,0,68.4,28.89H59.831a1.172,1.172,0,0,1-1.172-.8,1.11,1.11,0,0,1,.925-1.48h8.943a2.837,2.837,0,0,0-1.049-1.665,4.626,4.626,0,0,0-2.344-.925H59.769a1.172,1.172,0,0,1-1.11-.74,1.11,1.11,0,0,1,.925-1.48H72.968a1.172,1.172,0,0,1,1.172.678,1.11,1.11,0,0,1-.987,1.542H70.439a5.3,5.3,0,0,1,.987,2.529h1.789a1.049,1.049,0,0,1,.987,1.11,1.11,1.11,0,0,1-1.049,1.11H71.426c-.123,0-.185.062-.247.185A5.243,5.243,0,0,1,68.1,32.22h-.123c0,.062,0,.062.062.062A4.256,4.256,0,0,1,70.254,35c.308.987.555,2.035.863,3.084l.8,3.022.37.678a1.357,1.357,0,0,1-.74,1.974h-.617Z" transform="translate(-21.353 -7.856)"/></g></svg>