<svg xmlns="http://www.w3.org/2000/svg" width="68.2" height="68.283" viewBox="0 0 68.2 68.283"><defs><style>.a{fill:#a2a2a2;}</style></defs><g transform="translate(-8.9 -7)"><path class="a" d="M8.9,75.283h0c.083-.166.083-.249.166-.332,3.9-8.214,7.8-16.345,11.7-24.559a.455.455,0,0,1,.5-.332h15.6c-.083-.166-.083-.249-.166-.332-2.9-5.974-5.808-12.03-8.712-18-.332-.747-.747-1.41-1-2.157a17.286,17.286,0,0,1-.5-9.624A17.067,17.067,0,0,1,40.345,7.249C40.926,7.166,41.424,7.083,42,7h2.074a.3.3,0,0,1,.249.083,16.386,16.386,0,0,1,9.624,3.982,16.627,16.627,0,0,1,5.891,15.1,15.443,15.443,0,0,1-1.327,4.729c-3.07,6.306-6.057,12.611-9.127,18.834-.083.083-.083.249-.166.332h15.6c.166,0,.332,0,.415.249,3.9,8.214,7.8,16.511,11.782,24.725,0,.083.083.166.083.249H8.9ZM43,62.838a.081.081,0,0,0,.083.083,17.084,17.084,0,0,0,8.878,5.227,33.911,33.911,0,0,0,12.611.166,9.291,9.291,0,0,0,3.4-1.245,3.285,3.285,0,0,0,1.493-1.825.549.549,0,0,0-.083-.5c-.83-1.742-1.659-3.568-2.489-5.31a.456.456,0,0,0-.415-.249C64.655,59.1,62.829,59.1,61,59.021a14.52,14.52,0,0,1-4.563-1,6.04,6.04,0,0,1-3.9-4.646c-.083-.249-.083-.5-.166-.83H48.393a.455.455,0,0,0-.5.332C46.236,56.117,44.659,59.519,43,62.838ZM33.376,72.877H73.283c-1-2.157-2.074-4.231-3.07-6.472-.083.083-.083.083-.083.166a5.07,5.07,0,0,1-1.991,1.742,11.712,11.712,0,0,1-3.651,1.162,32.222,32.222,0,0,1-11.284.083,21.093,21.093,0,0,1-6.637-2.323,22.565,22.565,0,0,1-5.393-4.729c-1.079-1.245-2.24-2.572-3.319-3.817A7.593,7.593,0,0,0,35.035,56.7c-.5-.166-1.079-.332-1.576-.5C33.376,61.842,33.376,67.318,33.376,72.877Zm-1.245,0V56.283h-.166a5.478,5.478,0,0,0-1.162.083,12.366,12.366,0,0,0-5.642,1.659c-.913.581-1.742,1.245-2.572,1.825a7.874,7.874,0,0,1-4.231,1.659.383.383,0,0,0-.415.249c-1.742,3.568-3.4,7.218-5.144,10.786-.083.083-.083.166-.166.332ZM43,30.148a6.057,6.057,0,1,0-6.057-6.057A6.091,6.091,0,0,0,43,30.148ZM66.148,57.943c-.083-.166-.083-.249-.166-.332-.747-1.659-1.576-3.236-2.323-4.9a.383.383,0,0,0-.415-.249H53.537v.166a5.325,5.325,0,0,0,1.079,2.655A6.9,6.9,0,0,0,57.768,57.2,18.711,18.711,0,0,0,62,57.86C63.41,57.86,64.738,57.943,66.148,57.943ZM32.131,52.467H22.673c-.166,0-.249.083-.332.249l-3.485,7.218c0,.083-.083.166-.083.249a8.751,8.751,0,0,0,1.576-.415,16.969,16.969,0,0,0,2.572-1.659A13.8,13.8,0,0,1,30.8,55.122c.415,0,.83-.083,1.327-.083ZM42.917,62.755h0v-.249c-1.659-3.236-3.236-6.554-4.812-9.79-.083-.166-.166-.249-.332-.249H33.459v2.406c0,.083.166.166.249.166a8.245,8.245,0,0,1,4.48,2.24,34.658,34.658,0,0,1,3.319,3.651A15.261,15.261,0,0,0,42.917,62.755Z"/></g></svg>