<svg xmlns="http://www.w3.org/2000/svg" width="65.216" height="65.875" viewBox="0 0 65.216 65.875">
  <g id="Group_890" data-name="Group 890" transform="translate(-647.138 -199.307)">
    <path id="Path_874" data-name="Path 874" d="M672.65,199.309q9.734,0,19.468,0c3.991,0,6.126,2.146,6.129,6.147,0,5.082-.013,10.164.015,15.246.005.942-.134,1.3-1.272,1.475a21.684,21.684,0,0,0-4.515,1.65,19.145,19.145,0,0,1-3.185,1.328c-3.956.781-6,2.9-6.6,6.888a7.006,7.006,0,0,1-1.143,2.844c-2.429,3.5-2.4,6.3.129,9.738a6.386,6.386,0,0,1,1.081,2.569c.552,3.072,1.863,5.467,5.028,6.511a1.26,1.26,0,0,1,.621.959c.063,1.768-.032,3.542.057,5.307.054,1.082-.295,1.367-1.363,1.362-7.85-.044-15.7-.025-23.552-.025-3.494,0-6.988.009-10.482,0-3.72-.013-5.921-2.209-5.923-5.938q-.011-25.048,0-50.1c0-3.791,2.2-5.957,6.04-5.961Q662.917,199.3,672.65,199.309Zm-8.177,6.432a10.947,10.947,0,1,0,10.995,10.965A10.936,10.936,0,0,0,664.474,205.742Zm1.684,37.151q6.059,0,12.117,0c.812,0,1.513-.2,1.508-1.149s-.711-1.158-1.52-1.138c-.182,0-.363,0-.545,0q-11.641,0-23.281,0c-.362,0-.81-.1-1.065.078-.364.248-.809.705-.807,1.071s.451.817.818,1.061c.258.172.7.072,1.067.072Q660.3,242.9,666.158,242.893Zm-.055,6.542q5.718,0,11.436,0a2.812,2.812,0,0,0,1.207-.056c.418-.224,1.033-.732.985-1.025-.071-.44-.6-.859-1.02-1.166-.21-.153-.616-.042-.934-.042q-11.641,0-23.281,0c-.362,0-.8-.1-1.069.066-.375.234-.891.7-.859,1.018a1.987,1.987,0,0,0,.9,1.138c.25.174.7.064,1.067.065Q660.316,249.436,666.1,249.435Zm.05,4.248q-6.058,0-12.116,0c-.813,0-1.515.2-1.514,1.145s.7,1.167,1.514,1.144c.136,0,.273,0,.408,0q11.708,0,23.415,0c.362,0,.809.1,1.066-.077.367-.247.818-.7.818-1.065s-.451-.818-.818-1.065c-.257-.173-.7-.077-1.065-.077Q672.006,253.678,666.153,253.683Zm2.044-17.327h7.624a15.968,15.968,0,0,0,2.849-.061c.431-.079,1.055-.7,1.055-1.081s-.635-.8-1.059-1.113c-.178-.131-.529-.032-.8-.032q-9.462,0-18.924,0a2.59,2.59,0,0,0-1.2.083c-.372.221-.816.7-.816,1.06s.448.82.813,1.067c.256.173.7.077,1.066.077Q663.5,236.359,668.2,236.356Zm18.252-29.525c-1.724,0-3.448.008-5.171,0-.814-.006-1.518.2-1.513,1.144s.7,1.15,1.518,1.148q5.035-.013,10.07,0c.814,0,1.513-.2,1.511-1.148s-.7-1.149-1.517-1.144C689.715,206.837,688.082,206.829,686.449,206.831Zm-.153,8.821c1.678,0,3.357-.009,5.035,0,.809.006,1.519-.185,1.533-1.128s-.679-1.167-1.5-1.166q-5.036.01-10.072,0c-.808,0-1.519.181-1.532,1.127s.674,1.168,1.495,1.163C682.939,215.642,684.617,215.65,686.3,215.652Zm-.113,6.538c1.724,0,3.447-.008,5.171,0,.816.006,1.509-.207,1.506-1.151s-.712-1.141-1.519-1.14q-5.034.01-10.069,0c-.814,0-1.512.206-1.507,1.151s.708,1.147,1.52,1.141C682.917,222.183,684.55,222.19,686.183,222.189ZM655.253,235.2c-.772-.525-1.234-1.084-1.629-1.04a1.048,1.048,0,0,0,.016,2.1C654.03,236.3,654.486,235.736,655.253,235.2Z" transform="translate(0 0)" fill="#324b74"/>
    <path id="Path_875" data-name="Path 875" d="M721.417,279.812c0-1.633-.022-3.266.009-4.9.014-.706-.2-1.005-.955-1.151-3.125-.6-4.183-1.685-4.66-4.808a8.249,8.249,0,0,0-1.722-3.92c-1.762-2.272-1.771-4.267-.058-6.579a8.556,8.556,0,0,0,1.7-4.222c.327-2.808,1.676-4.218,4.49-4.653a9.5,9.5,0,0,0,4.429-1.9c2.21-1.679,3.985-1.687,6.229-.062a9.681,9.681,0,0,0,4.6,1.844c2.67.338,4.014,1.694,4.438,4.388a9.3,9.3,0,0,0,1.882,4.432,4.742,4.742,0,0,1,.054,6.358,9.2,9.2,0,0,0-1.8,4.469c-.338,2.691-1.653,4.032-4.341,4.483-1.07.179-1.378.6-1.351,1.67.077,3.083.007,6.168.031,9.252.009,1.134-.24,2.117-1.384,2.551a2.389,2.389,0,0,1-2.667-.859c-.787-.793-1.612-2.034-2.492-2.1-.731-.053-1.6,1.287-2.348,2.063a2.384,2.384,0,0,1-2.779.861c-1.148-.472-1.33-1.484-1.309-2.6C721.44,282.9,721.419,281.354,721.417,279.812Zm6.424-31.483a11.36,11.36,0,0,0-1.947.988,10.457,10.457,0,0,1-5.3,2.248c-1.882.227-2.577,1.006-2.824,2.927a10.552,10.552,0,0,1-2.117,5.216c-1.172,1.527-1.161,2.531.045,4.057a9.9,9.9,0,0,1,2.147,5.049c.244,1.96,1,2.669,2.982,2.928a10.373,10.373,0,0,1,5.1,2.054c1.6,1.224,2.6,1.225,4.17-.01a9.9,9.9,0,0,1,5.056-2.129c1.938-.24,2.64-1.013,2.9-3.013a10.366,10.366,0,0,1,2.069-5.094c1.216-1.594,1.205-2.576-.052-4.165a9.889,9.889,0,0,1-2.113-5.063c-.234-1.876-1.019-2.614-2.907-2.849a10.523,10.523,0,0,1-5.232-2.09A13.819,13.819,0,0,0,727.841,248.329Z" transform="translate(-30.69 -22.032)" fill="#324b74"/>
    <path id="Path_876" data-name="Path 876" d="M735.557,275.735a6.475,6.475,0,1,1,6.434-6.551A6.508,6.508,0,0,1,735.557,275.735Z" transform="translate(-38.305 -29.689)" fill="#324b74"/>
    <path id="Path_829" data-name="Path 829" d="M666.438,226.667v-1.92a.893.893,0,0,1,.9-.888h4.354v-4.347a.893.893,0,0,1,.881-.9H674.5a.9.9,0,0,1,.9.889v4.363h4.348a.9.9,0,0,1,.9.888v1.92a.909.909,0,0,1-.9.9H675.4v4.346a.909.909,0,0,1-.9.9h-1.92a.905.905,0,0,1-.888-.9v-4.345h-4.348a.9.9,0,0,1-.9-.889v-.016Z" transform="translate(-9.027 -9.027)" fill="#324b74" fill-rule="evenodd"/>
  </g>
</svg>
