<svg xmlns="http://www.w3.org/2000/svg" width="64.707" height="62.96" viewBox="0 0 64.707 62.96">
  <g id="Group_891" data-name="Group 891" transform="translate(-763.233 -1160)">
    <path id="Path_877" data-name="Path 877" d="M154.51,317.85h3.5v3.5h-3.5Z" transform="translate(613.97 878.877)" fill="#324b74"/>
    <path id="Path_878" data-name="Path 878" d="M158.639,91.445v1.747h-2.168l-3.32,3.32H148.2v-3.32H128.913V91.445h19.412l8.742-8.742H128.913V80.956h29.727v.175l3.5-3.5V52.971H116.67v62.96h45.47V87.524l-3.921,3.921Zm0-19.237H128.912V70.46h29.727ZM120.171,58.219h19.237v1.747H120.171Zm0,3.5h19.237v1.747H120.171Zm0,5.248h6.995v6.989h-6.995Zm0,10.5h6.995v6.988h-6.995Zm0,10.5h6.995v6.988h-6.995Zm24.485,24.485H120.171V110.7H144.65Zm0-5.248H120.171v-1.747H144.65Zm13.984-5.273H120.172v-1.747H158.64Z" transform="translate(646.563 1107.029)" fill="#324b74"/>
    <path id="Path_879" data-name="Path 879" d="M154.51,166.51h3.5v3.5h-3.5Z" transform="translate(613.97 1009.233)" fill="#324b74"/>
    <path id="Path_880" data-name="Path 880" d="M154.51,242.15h3.5v3.5h-3.5Z" transform="translate(613.97 944.081)" fill="#324b74"/>
    <path id="Path_881" data-name="Path 881" d="M357.56,268.4v2.465h2.465l11.084-11.084-2.465-2.465Z" transform="translate(439.074 931.016)" fill="#324b74"/>
    <path id="Path_882" data-name="Path 882" d="M464.892,129.77a1.74,1.74,0,0,0-2.465,0l-16.008,16.015,2.459,2.433,16.015-15.983a1.742,1.742,0,0,0,0-2.465Z" transform="translate(362.536 1041.319)" fill="#324b74"/>
  </g>
</svg>
