<svg xmlns="http://www.w3.org/2000/svg" width="54.364" height="68.172" viewBox="0 0 54.364 68.172">
  <path id="Path_870" data-name="Path 870" d="M227.289,87.421H235.3l-15.08-15.079v8.014a7.077,7.077,0,0,0,7.073,7.066Zm0,2.732a9.813,9.813,0,0,1-9.806-9.8V70.409H189.934a7.076,7.076,0,0,0-7.07,7.066v54.042a7.074,7.074,0,0,0,7.07,7.064l40.221,0a7.077,7.077,0,0,0,7.073-7.064V90.152Zm-34-4.973h5.764V79.414h5.763V85.18h5.766v5.76h-5.766v5.768h-5.763V90.94h-5.764ZM226.8,127.96H193.293v-2.732h33.5Zm0-10.475H193.293v-2.732h33.5Zm0-10.475H193.293v-2.732h33.5Z" transform="translate(-182.864 -70.409)" fill="#324b74"/>
</svg>
