<svg xmlns="http://www.w3.org/2000/svg" width="47.468" height="35.649" viewBox="0 0 47.468 35.649"><defs><style>.a{fill:#324b74;}</style></defs><path class="a" d="M.4,43.411V17.237c0-.1.048-.144.1-.239a5.407,5.407,0,0,1,5.359-4.5H42.46a5.455,5.455,0,0,1,5.407,5.455V42.693a5.407,5.407,0,0,1-5.407,5.455H5.807A5.407,5.407,0,0,1,1.453,46,6.986,6.986,0,0,1,.4,43.411Zm14.834-3.206h6.938c1.483,0,1.962-.479,1.962-1.914v-.479a5.407,5.407,0,0,0-5.407-5.5c-2.345-.048-4.641-.048-6.986,0a5.264,5.264,0,0,0-4.689,2.775,5.981,5.981,0,0,0-.718,3.4A1.538,1.538,0,0,0,8.1,40.205ZM10.3,25.372a4.881,4.881,0,1,0,1.429-3.5,4.929,4.929,0,0,0-1.429,3.5Zm24.739-1h5.264a1.465,1.465,0,0,0,1.627-1.436A1.531,1.531,0,0,0,40.307,21.4H29.732a1.531,1.531,0,0,0-1.627,1.531,1.465,1.465,0,0,0,1.627,1.436Zm0,7.943H40.5a1.483,1.483,0,0,0,1.388-1.148,1.435,1.435,0,0,0-.718-1.627,1.818,1.818,0,0,0-.909-.191h-11.1a1.483,1.483,0,0,0,.431,2.919Zm0,4.929H29.78a2.153,2.153,0,0,0-.766.144,1.435,1.435,0,0,0-.909,1.627,1.483,1.483,0,0,0,1.483,1.2H40.451a1.77,1.77,0,0,0,.718-.191,1.436,1.436,0,0,0-.67-2.727Z" transform="translate(-0.4 -12.5)"/></svg>