<svg xmlns="http://www.w3.org/2000/svg" width="97.241" height="56.885" viewBox="0 0 97.241 56.885"><defs><style>.a{fill:#645e9d;}</style></defs><g transform="translate(-131.2 -118.2)"><g transform="translate(131.2 118.2)"><path class="a" d="M219.81,118.2H139.831a8.625,8.625,0,0,0-8.631,8.631v39.623a8.625,8.625,0,0,0,8.631,8.631H219.81a8.625,8.625,0,0,0,8.631-8.631V126.831A8.625,8.625,0,0,0,219.81,118.2Zm-69.979,10.862a10.732,10.732,0,0,1,6.042-3.615c.407-.081.831-.147,1.254-.228h2.036c.586.114,1.173.212,1.759.358a10.962,10.962,0,0,1,7.964,8.843,10.506,10.506,0,0,1-1.563,7.508,10.616,10.616,0,0,1-8.5,5.032,10.918,10.918,0,0,1-10.651-6.4A11.061,11.061,0,0,1,149.831,129.062ZM170.5,170.314a14.414,14.414,0,0,1-1.449.081H147.7a8.387,8.387,0,0,1-5.081-1.449,6.694,6.694,0,0,1-2.915-5.016,23.431,23.431,0,0,1,1.515-10.9,9.193,9.193,0,0,1,4.153-4.983,8.268,8.268,0,0,1,4.1-.993,3.177,3.177,0,0,1,1.352.456c.684.375,1.319.831,1.971,1.238a10.044,10.044,0,0,0,11.3-.016c.521-.326,1.059-.635,1.547-1.01a3.822,3.822,0,0,1,2.964-.619,8.37,8.37,0,0,1,6.4,4.593,18.935,18.935,0,0,1,2.068,7.328,35,35,0,0,1,.179,3.925A7.2,7.2,0,0,1,170.5,170.314Zm14.95-1.091h-1.466v-43.6h1.466Zm4.544,0h-3.5v-43.6h3.5Zm5.8,0H191.18v-43.6h4.609Zm2.524,0h-1.466v-43.6h1.466Zm2.931,0h-1.971v-43.6h1.971Zm5.358,0h-4.609v-43.6H206.6Zm2.182,0h-1.466v-43.6h1.466Zm2.622,0h-1.971v-43.6h1.971Zm5.586,0h-4.609v-43.6h4.609Z" transform="translate(-131.2 -118.2)"/></g></g></svg>