<?xml version="1.0" encoding="utf-8"?>
<!-- Generator: Adobe Illustrator 25.2.3, SVG Export Plug-In . SVG Version: 6.00 Build 0)  -->
<svg version="1.1" id="Layer_1" xmlns="http://www.w3.org/2000/svg" xmlns:xlink="http://www.w3.org/1999/xlink" x="0px" y="0px"
	 viewBox="0 0 28 28" style="enable-background:new 0 0 28 28;" xml:space="preserve">
<style type="text/css">
	.st0{fill:#CA0027;}
	.st1{fill:#AFAFAF;}
	.st2{fill:#FFFFFF;}
	.st3{fill:#7C7C7C;}
	.st4{fill:#434343;}
	.st5{fill:#E04F5F;}
	.st6{fill:#B2B2B2;}
	.st7{fill:#303030;}
</style>
<path id="Icon_awesome-edit" class="st2" d="M19.1,5.9l4.1,4.1c0.2,0.2,0.2,0.5,0,0.6c0,0,0,0,0,0l-9.8,9.8l-4.2,0.5
	c-0.5,0.1-0.9-0.3-1-0.8c0-0.1,0-0.1,0-0.2l0.5-4.2l9.8-9.8C18.7,5.7,19,5.7,19.1,5.9z M26.4,4.9l-2.2-2.2c-0.7-0.7-1.8-0.7-2.5,0
	l-1.6,1.6c-0.2,0.2-0.2,0.5,0,0.6c0,0,0,0,0,0L24.2,9c0.2,0.2,0.5,0.2,0.6,0c0,0,0,0,0,0l1.6-1.6C27.1,6.7,27.1,5.6,26.4,4.9
	C26.4,4.9,26.4,4.9,26.4,4.9L26.4,4.9z M18.3,17.7v4.6H3.9V7.9h10.3c0.1,0,0.3-0.1,0.4-0.2L16.4,6c0.2-0.2,0.2-0.6,0-0.8
	C16.3,5.1,16.2,5,16.1,5H3.2C2,5,1,6,1,7.2V23c0,1.2,1,2.2,2.2,2.2H19c1.2,0,2.2-1,2.2-2.2v-7.1c0-0.3-0.2-0.5-0.5-0.5
	c-0.1,0-0.3,0.1-0.4,0.2l-1.8,1.8C18.4,17.5,18.3,17.6,18.3,17.7L18.3,17.7z"/>
</svg>
