<svg xmlns="http://www.w3.org/2000/svg" width="40" height="40" viewBox="0 0 63.738 64.837"><defs><style>.a{fill:#324b74;}</style></defs><g transform="translate(-3.598 -4.997)"><path class="a" d="M10.207,30.643l-.829-.553a7.172,7.172,0,0,1-4.285-7.465,7.189,7.189,0,0,1,4.977-6.359,1.037,1.037,0,0,0,.829-1.175V10.252A5.115,5.115,0,0,1,16.151,5h42.3c3.456,0,5.668,2.143,5.668,5.6V37.9a5.093,5.093,0,0,1-3.456,5.184,5.53,5.53,0,0,1-1.866.276H18.985c-1.452,0-1.452,0-1.659,1.452s-.346.9-.968.9c-2.627,0-5.322-.069-7.949,0-.622,0-.9-.276-.9-.829,0-3.594,0-7.189.069-10.783C7.58,32.786,8.409,31.749,10.207,30.643Zm7.949,8.64v.346H57.831c2.074,0,2.488-.484,2.488-2.419V10.944c0-1.8-.415-2.212-2.281-2.212H16.289a1.521,1.521,0,0,0-1.59,1.59c0,1.59.069,3.11,0,4.7a1.521,1.521,0,0,0,1.037,1.659,7.05,7.05,0,0,1,4.078,5.668c.484,3.456-1.244,6.221-4.355,7.811-.276.069-.484.346-.691.484l.622-.415,2.281,2.7,3.871-2.143a3.525,3.525,0,0,1,2.488-.691,1.728,1.728,0,0,0,1.175-.553c2-2.212,3.94-4.493,5.875-6.7.829-.9,1.59-1.866,2.35-2.765s.76-.76,1.313-.276.276.9-.069,1.313l-.138.138L26.45,30.435a1.659,1.659,0,0,0-.415,1.59,2.832,2.832,0,0,1-1.521,3.594l-1.935,1.106Z" transform="translate(-0.456 0)"/><path class="a" d="M76.914,88.319H68.343c-1.175,0-1.244-.069-1.244-1.244V78.159a5.046,5.046,0,0,1,1.935-4.147,1.452,1.452,0,0,0,.484-1.175,7.342,7.342,0,0,1,4.631-7.4c5.322-2.143,10.437,2,10.23,6.566A2.557,2.557,0,0,0,85.416,74.5a4.147,4.147,0,0,1,1.521,3.456v8.986c0,1.244-.138,1.382-1.382,1.382Z" transform="translate(-19.608 -18.485)"/><path class="a" d="M45.471,88.3h-8.5c-1.313,0-1.382-.138-1.382-1.382,0-2.972-.069-6.013,0-8.986a4.285,4.285,0,0,1,1.59-3.594,2.212,2.212,0,0,0,.9-1.935,7.4,7.4,0,0,1,10.783-6.774,6.981,6.981,0,0,1,4.009,6.774,2.212,2.212,0,0,0,.9,1.935,4.216,4.216,0,0,1,1.659,3.594c.069,3.041,0,6.152,0,9.193.069.9-.346,1.175-1.175,1.175Z" transform="translate(-9.868 -18.47)"/><path class="a" d="M13.414,88.308h-8.5c-1.175,0-1.244-.138-1.244-1.313,0-3.041,0-6.083-.069-9.124a4.355,4.355,0,0,1,1.728-3.594,1.866,1.866,0,0,0,.76-1.8,6.912,6.912,0,0,1,4.631-7.05,7.258,7.258,0,0,1,10.161,6.5,2.769,2.769,0,0,0,1.106,2.627,3.525,3.525,0,0,1,1.382,2.972V87.34c0,.76-.415.968-1.106.968Z" transform="translate(0 -18.474)"/><path class="a" d="M65,28.924c0-2.972.069-6.013,0-8.986,0-.968.346-1.244,1.244-1.244h3.525a.829.829,0,0,1,.968.968V37.978c0,.691-.276,1.037-1.037.968H65.968c-.76,0-.968-.346-.968-1.037C65.069,34.937,65,31.965,65,28.924Z" transform="translate(-18.961 -4.225)"/><path class="a" d="M53.3,34.616c0-2,.069-4.009,0-6.013,0-.76.207-1.175,1.106-1.106s2.419,0,3.663,0,.968.276.968.9V40.768c0,.691-.346.9-.968.9H54.2c-.691,0-.9-.346-.9-.968C53.369,38.694,53.3,36.69,53.3,34.616Z" transform="translate(-15.348 -6.945)"/><path class="a" d="M47.362,40.141V43.39c0,.622-.276.9-.9.9h-3.8c-.691,0-.968-.276-.968-.9q.069-3.249,0-6.428a.829.829,0,0,1,.968-.968h3.8c.622,0,.9.276.9.968Z" transform="translate(-11.76 -9.567)"/></g></svg>
