<svg xmlns="http://www.w3.org/2000/svg" width="55.699" height="52.404" viewBox="0 0 55.699 52.404"><defs><style>.a{fill:#324b74;}</style></defs><g transform="translate(-1.499 -5.296)"><path class="a" d="M73.979,53.645H68.715a1.215,1.215,0,0,1-.578-.231L64.2,50.464v.521c0,1.33,0,2.718-.058,4.049,0,.4.174.521.521.636a6.536,6.536,0,0,1-2.545,12.724A6.651,6.651,0,0,1,56.049,62.9a6.478,6.478,0,0,1,4.28-7.172c.463-.174.636-.347.578-.868s0-1.793,0-2.834h-9.2c-.521,0-.752-.116-.81-.694a17.814,17.814,0,0,0-6.941-11.973l-.347-.289v-.116H60.965a4.743,4.743,0,0,0-1.909-3.875,4.8,4.8,0,0,0-3.181-1.041H41.3V30.8H55.933A8.1,8.1,0,0,1,64.2,38.954c0,2.2,0,4.4-.058,6.594a1.388,1.388,0,0,0,.636,1.215l4.454,3.355a2.2,2.2,0,0,0,.868.289h3.875Z" transform="translate(-16.781 -10.752)"/><path class="a" d="M31,59.649A14.749,14.749,0,1,1,16.306,44.9,14.749,14.749,0,0,1,31,59.649ZM16.306,53.055a6.594,6.594,0,1,0,6.536,6.536A6.594,6.594,0,0,0,16.306,53.055Z" transform="translate(0 -16.698)"/><path class="a" d="M24.849,25.542c-3.123-.578-4.28-1.041-9.833,0v-17H10.1V5.3h8.271a6.3,6.3,0,0,1,6.478,6.42Z" transform="translate(-3.626 0)"/></g></svg>