<svg xmlns="http://www.w3.org/2000/svg" width="19.85" height="11.832" viewBox="0 0 19.85 11.832"><defs><style>.a{fill:#5a5353;}</style></defs><g transform="translate(0 -98.725)"><path class="a" d="M9.925,98.725c-3.793,0-7.232,2.075-9.77,5.445a.786.786,0,0,0,0,.938c2.538,3.374,5.977,5.449,9.77,5.449s7.232-2.075,9.77-5.445a.786.786,0,0,0,0-.938C17.157,100.8,13.718,98.725,9.925,98.725Zm.272,10.082a4.175,4.175,0,1,1,3.894-3.894A4.178,4.178,0,0,1,10.2,108.807Zm-.126-1.925a2.248,2.248,0,1,1,2.1-2.1A2.244,2.244,0,0,1,10.071,106.883Z" transform="translate(0)"/></g></svg>