<?xml version="1.0" encoding="utf-8"?>
<!-- Generator: Adobe Illustrator 25.2.3, SVG Export Plug-In . SVG Version: 6.00 Build 0)  -->
<svg version="1.1" id="Layer_1" xmlns="http://www.w3.org/2000/svg" xmlns:xlink="http://www.w3.org/1999/xlink" x="0px" y="0px"
	 viewBox="0 0 33 45" style="enable-background:new 0 0 33 45;" xml:space="preserve">
<style type="text/css">
	.st0{fill:#CA0027;}
	.st1{fill:#AFAFAF;}
	.st2{fill:#FFFFFF;}
	.st3{fill:#7C7C7C;}
	.st4{fill:#434343;}
	.st5{fill:#E04F5F;}
	.st6{fill:#B2B2B2;}
	.st7{fill:#303030;}
</style>
<path id="Icon_awesome-user-check" class="st7" d="M12.9,22.1c3.2,0,5.8-2.6,5.8-5.8s-2.6-5.8-5.8-5.8c-3.2,0-5.8,2.6-5.8,5.8
	C7.2,19.5,9.7,22.1,12.9,22.1C12.9,22.1,12.9,22.1,12.9,22.1z M16.9,23.6h-0.8c-2.1,1-4.5,1-6.6,0H8.9c-3.3,0-6,2.7-6,6v1.9
	c0,1.2,1,2.2,2.2,2.2h15.8c1.2,0,2.2-1,2.2-2.2v-1.9C23,26.3,20.3,23.6,16.9,23.6z M31.5,17.8l-1.2-1.3c-0.2-0.2-0.5-0.2-0.8,0
	c0,0,0,0,0,0l-4.7,4.7l-2-2.1c-0.2-0.2-0.5-0.2-0.8,0c0,0,0,0,0,0l-1.3,1.3c-0.2,0.2-0.2,0.5,0,0.8c0,0,0,0,0,0l3.7,3.7
	c0.2,0.2,0.5,0.2,0.8,0c0,0,0,0,0,0l6.4-6.3C31.7,18.3,31.7,18,31.5,17.8L31.5,17.8z"/>
</svg>
