<?xml version="1.0" encoding="utf-8"?>
<!-- Generator: Adobe Illustrator 25.2.3, SVG Export Plug-In . SVG Version: 6.00 Build 0)  -->
<svg version="1.1" id="Layer_1" xmlns="http://www.w3.org/2000/svg" xmlns:xlink="http://www.w3.org/1999/xlink" x="0px" y="0px"
	 viewBox="0 0 33 45" style="enable-background:new 0 0 33 45;" xml:space="preserve">
<style type="text/css">
	.st0{fill:#CA0027;}
	.st1{fill:#AFAFAF;}
	.st2{fill:#FFFFFF;}
	.st3{fill:#7C7C7C;}
	.st4{fill:#434343;}
	.st5{fill:#E04F5F;}
	.st6{fill:#B2B2B2;}
	.st7{fill:#303030;}
</style>
<path id="apartment" class="st7" d="M31,16.9v-1.7h-7.8v18.4h-1.7V13.1l-5.1-2.4l-5.1,2.4v20.5H9.7V15.2H2v1.7h0.8v16.7H2v1.8H31
	v-1.8h-0.8V16.9H31z M7,31.7H5.3V30h1.7L7,31.7z M7,28H5.3v-1.7h1.7L7,28z M7,24.3H5.3v-1.7h1.7L7,24.3z M7,20.6H5.3v-1.7h1.7
	L7,20.6z M13.8,15.2h1.7v1.7h-1.7V15.2z M13.8,18.9h1.7v1.7h-1.7V18.9z M13.8,22.6h1.7v1.7h-1.7V22.6z M13.8,26.3h1.7V28h-1.7V26.3z
	 M19.2,33.6h-1.7v-2h-2v2h-1.7V30h5.4L19.2,33.6z M19.2,28h-1.7v-1.7h1.7V28z M19.2,24.3h-1.7v-1.7h1.7V24.3z M19.2,20.6h-1.7v-1.7
	h1.7V20.6z M19.2,16.9h-1.7v-1.7h1.7V16.9z M27.6,31.7h-1.7V30h1.7V31.7z M27.6,28h-1.7v-1.7h1.7V28z M27.6,24.3h-1.7v-1.7h1.7V24.3
	z M27.6,20.6h-1.7v-1.7h1.7V20.6z"/>
</svg>
