<?xml version="1.0" encoding="utf-8"?>
<!-- Generator: Adobe Illustrator 25.2.3, SVG Export Plug-In . SVG Version: 6.00 Build 0)  -->
<svg version="1.1" id="Layer_1" xmlns="http://www.w3.org/2000/svg" xmlns:xlink="http://www.w3.org/1999/xlink" x="0px" y="0px"
	 viewBox="0 0 33 45" style="enable-background:new 0 0 33 45;" xml:space="preserve">
<style type="text/css">
	.st0{fill:#CA0027;}
	.st1{fill:#AFAFAF;}
	.st2{fill:#FFFFFF;}
	.st3{fill:#7C7C7C;}
	.st4{fill:#434343;}
	.st5{fill:#E04F5F;}
	.st6{fill:#B2B2B2;}
	.st7{fill:#303030;}
</style>
<g id="Group_11" transform="translate(0 0)">
	<circle id="Ellipse_56" class="st7" cx="16.5" cy="24" r="3.2"/>
	<path id="Path_214" class="st7" d="M17.9,27.4h-2.7c-2.3,0-4.1,1.9-4.1,4.1v3.4l0,0.1l0.2,0.1c1.8,0.6,3.7,0.9,5.6,0.9
		c1.7,0.1,3.4-0.3,4.9-0.9l0.2-0.1h0v-3.4C22,29.3,20.1,27.4,17.9,27.4z"/>
	<circle id="Ellipse_57" class="st7" cx="9.9" cy="14.6" r="5.2"/>
	<path id="Path_215" class="st7" d="M23.1,19.8c2.9,0,5.2-2.3,5.2-5.2S26,9.4,23.1,9.4c-2.9,0-5.2,2.3-5.2,5.2
		C17.9,17.5,20.2,19.8,23.1,19.8z"/>
	<path id="Path_216" class="st7" d="M14,26.9c-1.6-1.4-1.8-3.8-0.4-5.5c0.3-0.3,0.6-0.6,1-0.8c-0.8-0.3-1.6-0.5-2.5-0.5H7.7
		c-3.7,0-6.7,3-6.7,6.7v5.4l0,0.1l0.4,0.1c2.9,0.9,5.9,1.4,8.9,1.5v-2.3C10.3,29.4,11.8,27.4,14,26.9z"/>
	<path id="Path_217" class="st7" d="M25.3,20.1h-4.4c-0.8,0-1.7,0.2-2.5,0.5c1.9,1.1,2.5,3.4,1.5,5.3c-0.2,0.4-0.5,0.7-0.8,1
		c2.1,0.5,3.6,2.4,3.6,4.6v2.3c3,0,6-0.5,8.9-1.5l0.4-0.1l0-0.1v-5.4C32,23.1,29,20.1,25.3,20.1z"/>
</g>
</svg>
