<?xml version="1.0" encoding="utf-8"?>
<!-- Generator: Adobe Illustrator 25.2.3, SVG Export Plug-In . SVG Version: 6.00 Build 0)  -->
<svg version="1.1" id="Layer_1" xmlns="http://www.w3.org/2000/svg" xmlns:xlink="http://www.w3.org/1999/xlink" x="0px" y="0px"
	 viewBox="0 0 33 45" style="enable-background:new 0 0 33 45;" xml:space="preserve">
<style type="text/css">
	.st0{fill:#CA0027;}
	.st1{fill:#AFAFAF;}
	.st2{fill:#FFFFFF;}
	.st3{fill:#7C7C7C;}
	.st4{fill:#434343;}
	.st5{fill:#E04F5F;}
	.st6{fill:#B2B2B2;}
	.st7{fill:#303030;}
</style>
<g id="Layer_1_78_" transform="translate(0 0)">
	<g id="Group_12">
		<path id="Path_218" class="st7" d="M30.5,34.7H2.4c-0.8,0-1.4,0.6-1.4,1.4c0,0.8,0.6,1.4,1.4,1.4h28.1c0.8,0,1.4-0.6,1.4-1.4
			C31.9,35.3,31.3,34.7,30.5,34.7L30.5,34.7z"/>
		<path id="Path_219" class="st7" d="M4.2,31c-0.8,0-1.4,0.7-1.4,1.4c0,0.7,0.6,1.3,1.4,1.4h24.6c0.8,0,1.4-0.7,1.4-1.4
			c0-0.7-0.6-1.3-1.4-1.4h-0.4V18.4h0.4c0.4,0,0.7-0.3,0.7-0.7c0-0.4-0.3-0.7-0.7-0.7H4.2c-0.4,0-0.7,0.3-0.7,0.7
			c0,0.4,0.3,0.7,0.7,0.7h0.4V31L4.2,31L4.2,31z M25.6,18.4V31h-4.2V18.4H25.6z M18.6,18.4V31h-4.2V18.4H18.6z M7.4,18.4h4.2V31H7.4
			V18.4z"/>
		<path id="Path_220" class="st7" d="M2.4,15.7h28.1c0.8,0,1.4-0.6,1.4-1.4c0-0.6-0.4-1.1-1-1.3L17.1,6.7c-0.4-0.2-0.8-0.2-1.2,0
			L1.9,13c-0.7,0.3-1,1.1-0.7,1.9C1.4,15.4,1.9,15.7,2.4,15.7L2.4,15.7z"/>
	</g>
</g>
</svg>
