<?xml version="1.0" encoding="utf-8"?>
<!-- Generator: Adobe Illustrator 25.2.3, SVG Export Plug-In . SVG Version: 6.00 Build 0)  -->
<svg version="1.1" id="Layer_1" xmlns="http://www.w3.org/2000/svg" xmlns:xlink="http://www.w3.org/1999/xlink" x="0px" y="0px"
	 viewBox="0 0 33 45" style="enable-background:new 0 0 33 45;" xml:space="preserve">
<style type="text/css">
	.st0{fill:#CA0027;}
	.st1{fill:#AFAFAF;}
	.st2{fill:#FFFFFF;}
	.st3{fill:#7C7C7C;}
	.st4{fill:#434343;}
	.st5{fill:#E04F5F;}
	.st6{fill:#B2B2B2;}
	.st7{fill:#303030;}
</style>
<g id="Group_16_1_" transform="translate(23.351 0)">
	<g id="Group_15_1_">
		<path id="Path_222_1_" class="st7" d="M-0.4,8.7v7.8h7.8L-0.4,8.7z"/>
	</g>
</g>
<g id="Group_18_1_" transform="translate(0 14.859)">
	<g id="Group_17_1_" transform="translate(0)">
		<path id="Path_223_1_" class="st7" d="M11.2,21.9l-1.5-6c2-1.9,2-4.9,0.2-6.9C8,7.1,4.9,7,3,8.8s-2,4.9-0.2,6.9
			c0.1,0.1,0.1,0.1,0.2,0.2l-1.5,6c-0.1,0.5,0.2,1.1,0.7,1.2c0.2,0.1,0.5,0,0.7-0.1l3.5-1.7L9.8,23c0.1,0.1,0.3,0.1,0.4,0.1
			c0.5,0,1-0.4,1-1C11.2,22.1,11.2,22,11.2,21.9L11.2,21.9z M6.3,15.3c-1.6,0-2.9-1.3-2.9-2.9c0-1.6,1.3-2.9,2.9-2.9
			c1.6,0,2.9,1.3,2.9,2.9C9.3,14,8,15.3,6.3,15.3z"/>
	</g>
</g>
<g id="Group_20_1_" transform="translate(6.369 0)">
	<g id="Group_19_1_" transform="translate(0 0)">
		<path id="Path_224_1_" class="st7" d="M16.6,18.5c-1.1,0-1.9-0.9-2-2V8.7H2.9c-1.1,0-2,0.9-2,2v9.9c3.4,0.5,5.9,3.3,5.9,6.7
			c0,1.5-0.5,2.9-1.3,4l1.2,4.7h15.8c1.1,0,2-0.9,2-2l0,0V18.5H16.6z M5.8,16.5c-0.5,0-1-0.4-1-1c0-0.5,0.4-1,1-1h5.9
			c0.5,0,1,0.4,1,1c0,0.5-0.4,1-1,1H5.8z M19.5,28.2H9.7c-0.5,0-1-0.4-1-1c0-0.5,0.4-1,1-1h9.8c0.5,0,1,0.4,1,1
			C20.5,27.8,20,28.2,19.5,28.2L19.5,28.2L19.5,28.2z M19.5,22.4H7.8c-0.5,0-1-0.4-1-1c0-0.5,0.4-1,1-1h11.7c0.5,0,1,0.4,1,1
			C20.5,21.9,20,22.4,19.5,22.4L19.5,22.4z"/>
	</g>
</g>
</svg>
