<svg width="62" height="62" viewBox="0 0 62 62" fill="none" xmlns="http://www.w3.org/2000/svg">
<path d="M61 4.00068H38.986C38.9904 3.7509 38.9723 3.50123 38.932 3.25468C38.8035 2.5718 38.4991 1.93427 38.0487 1.4051C37.5984 0.875933 37.0177 0.473443 36.3642 0.237416C35.7106 0.00138757 35.0068 -0.0600078 34.3223 0.0592975C33.6377 0.178603 32.9962 0.474479 32.461 0.917681C32.2899 1.06831 32.0827 1.17193 31.8595 1.21839C31.6364 1.26484 31.405 1.25254 31.188 1.18268C30.8036 1.06194 30.403 1.00057 30 1.00068C28.9793 1.00075 27.9973 1.39098 27.255 2.09148C26.5127 2.79197 26.0662 3.74974 26.007 4.76868C25.5991 5.13029 25.2976 5.59645 25.1352 6.11685C24.9728 6.63724 24.9557 7.19211 25.0856 7.72155C25.2155 8.25099 25.4875 8.7349 25.8723 9.12105C26.2571 9.5072 26.74 9.78093 27.269 9.91268C27.5083 9.97095 27.7537 10.0005 28 10.0007C28.4227 10.0013 28.8407 9.91181 29.2261 9.73817C29.6115 9.56453 29.9554 9.31072 30.235 8.99368C31.1548 8.9299 32.0317 8.58027 32.743 7.99368C32.9283 7.87678 33.1379 7.80369 33.3557 7.77995C33.5735 7.75621 33.7939 7.78245 34 7.85668V22.0007H32.905L31.995 12.9007C31.9702 12.654 31.8547 12.4254 31.6708 12.2591C31.487 12.0928 31.2479 12.0007 31 12.0007H25C24.7512 11.9994 24.5109 12.091 24.326 12.2574C24.1411 12.4238 24.0249 12.6532 24 12.9007L23.1 22.0007H17.91L17 12.9007C16.9751 12.6532 16.8589 12.4238 16.674 12.2574C16.4891 12.091 16.2488 11.9994 16 12.0007H10C9.75209 12.0007 9.51303 12.0928 9.32917 12.2591C9.14532 12.4254 9.02979 12.654 9.005 12.9007L8.1 22.0007H1C0.734784 22.0007 0.48043 22.106 0.292893 22.2936C0.105357 22.4811 2.41093e-09 22.7355 2.41093e-09 23.0007V27.0007C2.41093e-09 27.2659 0.105357 27.5203 0.292893 27.7078C0.48043 27.8953 0.734784 28.0007 1 28.0007H2V39.6567L0.713 40.0427C0.506917 40.1044 0.32624 40.231 0.197795 40.4036C0.0693496 40.5761 -1.49316e-05 40.7855 2.41093e-09 41.0007V44.0007C2.41093e-09 44.2659 0.105357 44.5203 0.292893 44.7078C0.48043 44.8953 0.734784 45.0007 1 45.0007C1.26522 45.0007 1.51957 44.8953 1.70711 44.7078C1.89464 44.5203 2 44.2659 2 44.0007V41.7447L20 36.3447V38.0007C20 38.1591 20.0376 38.3153 20.1097 38.4564C20.1819 38.5975 20.2866 38.7193 20.4151 38.812C20.5436 38.9047 20.6923 38.9655 20.849 38.9894C21.0056 39.0134 21.1657 38.9998 21.316 38.9497L38 33.3877V60.0007H34V53.0007C34 52.7355 33.8946 52.4811 33.7071 52.2936C33.5196 52.106 33.2652 52.0007 33 52.0007H27C26.7348 52.0007 26.4804 52.106 26.2929 52.2936C26.1054 52.4811 26 52.7355 26 53.0007V60.0007H24V53.0007C24 52.7355 23.8946 52.4811 23.7071 52.2936C23.5196 52.106 23.2652 52.0007 23 52.0007H17C16.7348 52.0007 16.4804 52.106 16.2929 52.2936C16.1054 52.4811 16 52.7355 16 53.0007V60.0007H14V53.0007C14 52.7355 13.8946 52.4811 13.7071 52.2936C13.5196 52.106 13.2652 52.0007 13 52.0007H7C6.73478 52.0007 6.48043 52.106 6.29289 52.2936C6.10536 52.4811 6 52.7355 6 53.0007V60.0007H2V48.0007C2 47.7355 1.89464 47.4811 1.70711 47.2936C1.51957 47.106 1.26522 47.0007 1 47.0007C0.734784 47.0007 0.48043 47.106 0.292893 47.2936C0.105357 47.4811 2.41093e-09 47.7355 2.41093e-09 48.0007V61.0007C2.41093e-09 61.2659 0.105357 61.5203 0.292893 61.7078C0.48043 61.8953 0.734784 62.0007 1 62.0007H61C61.2652 62.0007 61.5196 61.8953 61.7071 61.7078C61.8946 61.5203 62 61.2659 62 61.0007V16.0007C62 15.7355 61.8946 15.4811 61.7071 15.2936C61.5196 15.106 61.2652 15.0007 61 15.0007C60.7348 15.0007 60.4804 15.106 60.2929 15.2936C60.1054 15.4811 60 15.7355 60 16.0007V18.0007H51V10.0007H60V12.0007C60 12.2659 60.1054 12.5203 60.2929 12.7078C60.4804 12.8953 60.7348 13.0007 61 13.0007C61.2652 13.0007 61.5196 12.8953 61.7071 12.7078C61.8946 12.5203 62 12.2659 62 12.0007V5.00068C62 4.73546 61.8946 4.48111 61.7071 4.29357C61.5196 4.10604 61.2652 4.00068 61 4.00068ZM31.47 6.45168C31.0456 6.79674 30.5169 6.98811 29.97 6.99468L29.828 6.97868C29.6362 6.96043 29.4433 6.99848 29.2728 7.08817C29.1023 7.17786 28.9616 7.3153 28.868 7.48368C28.7941 7.61939 28.6896 7.73599 28.5627 7.82424C28.4359 7.91248 28.2902 7.96994 28.1372 7.99204C27.9843 8.01414 27.8283 8.00029 27.6817 7.95157C27.535 7.90285 27.4018 7.82061 27.2925 7.71139C27.1832 7.60216 27.1008 7.46896 27.052 7.32235C27.0032 7.17574 26.9892 7.01976 27.0112 6.86681C27.0332 6.71386 27.0905 6.56814 27.1787 6.44122C27.2668 6.31431 27.3833 6.20969 27.519 6.13568C27.6857 6.04052 27.8215 5.89941 27.9101 5.72918C27.9988 5.55895 28.0366 5.36681 28.019 5.17568C28.019 5.16068 27.999 5.01568 27.997 5.00068C27.997 4.47025 28.2077 3.96154 28.5828 3.58647C28.9579 3.21139 29.4666 3.00068 29.997 3.00068C30.1961 3.0003 30.3941 3.03066 30.584 3.09068C31.1205 3.25766 31.6904 3.28702 32.2412 3.17605C32.792 3.06509 33.306 2.81736 33.736 2.45568C33.9659 2.26343 34.2367 2.12627 34.5277 2.05469C34.8187 1.98311 35.1222 1.97901 35.415 2.04268C35.9002 2.1437 36.3306 2.42125 36.6228 2.82155C36.915 3.22184 37.0481 3.71637 36.9964 4.20925C36.9448 4.70214 36.7119 5.15829 36.3431 5.48927C35.9742 5.82026 35.4956 6.0025 35 6.00068C34.8647 6.00254 34.7299 5.98435 34.6 5.94668C34.0771 5.76595 33.5177 5.71748 32.9715 5.8056C32.4253 5.89371 31.9095 6.11568 31.47 6.45168ZM30.1 14.0007L30.3 16.0007H25.71L25.91 14.0007H30.1ZM25.51 18.0007H30.5L30.9 22.0007H25.11L25.51 18.0007ZM15.1 14.0007L15.3 16.0007H10.71L10.91 14.0007H15.1ZM10.51 18.0007H15.5L15.9 22.0007H10.11L10.51 18.0007ZM2 24.0007H34V26.0007H2V24.0007ZM21.6 34.2007C21.475 34.1076 21.33 34.045 21.1765 34.0179C21.023 33.9908 20.8653 34 20.716 34.0447L4 39.0567V28.0007H34V32.6137L22 36.6137V35.0007C22 34.8454 21.9639 34.6923 21.8944 34.5535C21.825 34.4146 21.7242 34.2938 21.6 34.2007ZM60 38.0007V46.0007H51V38.0007H60ZM60 24.0007V32.0007H51V24.0007H60ZM49 46.0007H40V38.0007H49V46.0007ZM40 48.0007H60V50.0007H58C57.7348 50.0007 57.4804 50.106 57.2929 50.2936C57.1054 50.4811 57 50.7355 57 51.0007C57 51.2659 57.1054 51.5203 57.2929 51.7078C57.4804 51.8953 57.7348 52.0007 58 52.0007H60V54.0007H46V52.0007H54C54.2652 52.0007 54.5196 51.8953 54.7071 51.7078C54.8946 51.5203 55 51.2659 55 51.0007C55 50.7355 54.8946 50.4811 54.7071 50.2936C54.5196 50.106 54.2652 50.0007 54 50.0007H45C44.7348 50.0007 44.4804 50.106 44.2929 50.2936C44.1054 50.4811 44 50.7355 44 51.0007V55.0007C44 55.2659 44.1054 55.5203 44.2929 55.7078C44.4804 55.8953 44.7348 56.0007 45 56.0007H46V60.0007H40V48.0007ZM53 56.0007V60.0007H48V56.0007H53ZM28 54.0007H32V60.0007H28V54.0007ZM18 54.0007H22V60.0007H18V54.0007ZM8 54.0007H12V60.0007H8V54.0007ZM55 60.0007V56.0007H60V60.0007H55ZM49 18.0007H40V10.0007H49V18.0007ZM39 8.00068C38.7348 8.00068 38.4804 8.10604 38.2929 8.29357C38.1054 8.48111 38 8.73546 38 9.00068V19.0007C38 19.2659 38.1054 19.5203 38.2929 19.7078C38.4804 19.8953 38.7348 20.0007 39 20.0007H60V22.0007H39C38.7348 22.0007 38.4804 22.106 38.2929 22.2936C38.1054 22.4811 38 22.7355 38 23.0007V29.0007C38 29.2659 38.1054 29.5203 38.2929 29.7078C38.4804 29.8953 38.7348 30.0007 39 30.0007C39.2652 30.0007 39.5196 29.8953 39.7071 29.7078C39.8946 29.5203 40 29.2659 40 29.0007V24.0007H49V32.0007H42C41.7348 32.0007 41.4804 32.106 41.2929 32.2936C41.1054 32.4811 41 32.7355 41 33.0007C41 33.2659 41.1054 33.5203 41.2929 33.7078C41.4804 33.8953 41.7348 34.0007 42 34.0007H60V36.0007H40V32.0007C40 31.8422 39.9624 31.686 39.8903 31.545C39.8181 31.4039 39.7134 31.282 39.5849 31.1893C39.4564 31.0967 39.3077 31.0358 39.151 31.0119C38.9944 30.988 38.8343 31.0016 38.684 31.0517L36 31.9467V7.86168C36.81 7.65646 37.5348 7.20167 38.072 6.56168C38.2116 6.38574 38.3358 6.19804 38.443 6.00068H60V8.00068H39Z" fill="#324B74"/>
<path d="M12.2687 9.91199C12.508 9.97026 12.7534 9.9998 12.9997 9.99999C13.4224 10.0006 13.8403 9.91112 14.2257 9.73748C14.6111 9.56384 14.9551 9.31003 15.2347 8.99299C16.1545 8.92921 17.0313 8.57958 17.7427 7.99299C17.9341 7.87438 18.1501 7.80101 18.3741 7.77848C18.5982 7.75596 18.8245 7.78486 19.0357 7.86299C19.3488 7.95457 19.6734 8.00071 19.9997 7.99999C20.6419 8.00152 21.275 7.8484 21.8455 7.55358C22.416 7.25876 22.9072 6.8309 23.2775 6.30618C23.6477 5.78145 23.8862 5.1753 23.9727 4.53895C24.0593 3.9026 23.9913 3.25478 23.7746 2.65024C23.5579 2.04571 23.1988 1.50224 22.7277 1.06578C22.2566 0.629318 21.6874 0.312702 21.0681 0.142699C20.4488 -0.027305 19.7977 -0.0456986 19.1698 0.0890732C18.5419 0.223845 17.9556 0.50782 17.4607 0.916989C17.2895 1.06754 17.0823 1.1711 16.8591 1.21755C16.636 1.264 16.4046 1.25174 16.1877 1.18199C15.8032 1.06125 15.4026 0.999875 14.9997 0.999989C13.979 1.00006 12.997 1.39029 12.2547 2.09078C11.5123 2.79128 11.0659 3.74905 11.0067 4.76799C10.5987 5.1296 10.2973 5.59576 10.1349 6.11616C9.97251 6.63655 9.95533 7.19141 10.0852 7.72085C10.2151 8.2503 10.4871 8.73421 10.8719 9.12036C11.2567 9.50651 11.7397 9.78024 12.2687 9.91199ZM12.5167 6.13499C12.6843 6.04051 12.8211 5.89969 12.9106 5.72941C13.0002 5.55913 13.0388 5.36663 13.0217 5.17499C13.0217 5.15999 13.0017 5.01499 12.9997 4.99999C12.9997 4.46956 13.2104 3.96085 13.5854 3.58578C13.9605 3.2107 14.4692 2.99999 14.9997 2.99999C15.1988 2.99961 15.3968 3.02996 15.5867 3.08999C16.1231 3.25697 16.693 3.28633 17.2438 3.17536C17.7946 3.0644 18.3087 2.81667 18.7387 2.45499C18.9686 2.2628 19.2394 2.12569 19.5303 2.05411C19.8213 1.98254 20.1248 1.97839 20.4177 2.04199C20.9031 2.14304 21.3337 2.42083 21.6259 2.82145C21.9181 3.22207 22.0511 3.71695 21.999 4.21007C21.9469 4.70318 21.7135 5.15937 21.3441 5.49012C20.9746 5.82086 20.4955 6.00257 19.9997 5.99999C19.8644 6.00185 19.7296 5.98365 19.5997 5.94599C19.0766 5.76386 18.5166 5.7142 17.9697 5.80145C17.4228 5.88871 16.906 6.11016 16.4657 6.44599C16.0414 6.79125 15.5126 6.98265 14.9657 6.98899L14.8237 6.97299C14.6318 6.95435 14.4387 6.99223 14.2682 7.08196C14.0976 7.17169 13.957 7.30935 13.8637 7.47799C13.7898 7.61369 13.6852 7.7303 13.5584 7.81854C13.4315 7.90679 13.2858 7.96424 13.1329 7.98635C12.98 8.00845 12.824 7.99459 12.6773 7.94587C12.5307 7.89716 12.3974 7.81492 12.2881 7.70569C12.1788 7.59647 12.0965 7.46326 12.0477 7.31665C11.9988 7.17004 11.9849 7.01407 12.0068 6.86112C12.0288 6.70816 12.0862 6.56244 12.1743 6.43553C12.2625 6.30861 12.379 6.204 12.5147 6.12999L12.5167 6.13499Z" fill="#324B74"/>
<path d="M7 49H13C13.2652 49 13.5196 48.8946 13.7071 48.7071C13.8946 48.5196 14 48.2652 14 48V44C14 43.7348 13.8946 43.4804 13.7071 43.2929C13.5196 43.1054 13.2652 43 13 43H7C6.73478 43 6.48043 43.1054 6.29289 43.2929C6.10536 43.4804 6 43.7348 6 44V48C6 48.2652 6.10536 48.5196 6.29289 48.7071C6.48043 48.8946 6.73478 49 7 49ZM8 45H12V47H8V45Z" fill="#324B74"/>
<path d="M17 49H23C23.2652 49 23.5196 48.8946 23.7071 48.7071C23.8946 48.5196 24 48.2652 24 48V44C24 43.7348 23.8946 43.4804 23.7071 43.2929C23.5196 43.1054 23.2652 43 23 43H17C16.7348 43 16.4804 43.1054 16.2929 43.2929C16.1054 43.4804 16 43.7348 16 44V48C16 48.2652 16.1054 48.5196 16.2929 48.7071C16.4804 48.8946 16.7348 49 17 49ZM18 45H22V47H18V45Z" fill="#324B74"/>
<path d="M27 49H33C33.2652 49 33.5196 48.8946 33.7071 48.7071C33.8946 48.5196 34 48.2652 34 48V44C34 43.7348 33.8946 43.4804 33.7071 43.2929C33.5196 43.1054 33.2652 43 33 43H27C26.7348 43 26.4804 43.1054 26.2929 43.2929C26.1054 43.4804 26 43.7348 26 44V48C26 48.2652 26.1054 48.5196 26.2929 48.7071C26.4804 48.8946 26.7348 49 27 49ZM28 45H32V47H28V45Z" fill="#324B74"/>
</svg>
