<svg xmlns="http://www.w3.org/2000/svg" width="36.349" height="36.579" viewBox="0 0 36.349 36.579"><defs><style>.a{fill:#ef0f0f;}</style></defs><g transform="translate(0 0)"><path class="a" d="M416.674,256.579H399.49c.074-.06.145-.122.221-.179a11.646,11.646,0,0,0,4.334-6.324c.187-.67.288-1.364.434-2.07h.843q3.975,0,7.95,0a1.09,1.09,0,0,0,1.1-.644,1.069,1.069,0,0,0-1.064-1.5q-4.224-.005-8.449,0h-.424a12.259,12.259,0,0,0-1.226-4.287h4.835q2.637,0,5.276,0a1.074,1.074,0,1,0-.021-2.143q-5.507,0-11.016.006a.985.985,0,0,1-.817-.363,11.417,11.417,0,0,0-7.667-3.862c-.7-.063-1.413-.009-2.126-.009-.012-.1-.022-.145-.022-.191,0-3.965-.009-7.93.008-11.895a2.852,2.852,0,0,1,1.238-2.417,9.106,9.106,0,0,1,1.534-.7h15.759v8c0,.887.4,1.29,1.277,1.29h7.993v12.427q0,5.784,0,11.568a3.208,3.208,0,0,1-2.135,3.107C417.107,256.465,416.889,256.517,416.674,256.579ZM405.591,233q-3.919,0-7.837,0a1.068,1.068,0,0,0-.275,2.111,2.082,2.082,0,0,0,.46.03h15.389a1.055,1.055,0,0,0,1.047-.66A1.067,1.067,0,0,0,413.323,233Q409.456,233,405.591,233Z" transform="translate(-383.108 -220)"/><path class="a" d="M281.912,479.216a17.822,17.822,0,0,1-2.447-.582,9.27,9.27,0,0,1-6.314-8.037,9.612,9.612,0,1,1,10.887,8.529c-.186.028-.372.061-.557.091Zm2.289-9.652,2.394-2.382a1.078,1.078,0,0,0,.347-1.066,1.063,1.063,0,0,0-1.822-.486c-.682.662-1.351,1.339-2.014,2.021a3.185,3.185,0,0,0-.328.5c-.9-.912-1.678-1.7-2.46-2.481a1.075,1.075,0,1,0-1.511,1.515q.989,1,1.993,1.992a3.074,3.074,0,0,0,.448.307c-.181.192-.261.279-.344.363q-1.02,1.024-2.04,2.046a1.086,1.086,0,1,0,1.524,1.506c.463-.462.927-.922,1.385-1.389.3-.3.585-.616.891-.94.145.137.24.223.331.314.714.715,1.421,1.437,2.145,2.143a1.057,1.057,0,0,0,1.508.027,1.074,1.074,0,0,0,0-1.538c-.145-.158-.3-.305-.451-.457Z" transform="translate(-273.089 -442.637)"/><path class="a" d="M679.01,237.194V230.86l6.326,6.334Z" transform="translate(-649.781 -230.078)"/></g></svg>