<svg xmlns="http://www.w3.org/2000/svg" width="21.252" height="18.257" viewBox="0 0 21.252 18.257"><defs><style>.a{fill:#fff;}</style></defs><g transform="translate(0 0)"><circle class="a" cx="2.218" cy="2.218" r="2.218" transform="translate(8.408 7.82)"/><path class="a" d="M36.5,64.556H34.619A2.843,2.843,0,0,0,31.78,67.4v2.3l.006.036.158.049a12.925,12.925,0,0,0,3.861.623,7.936,7.936,0,0,0,3.371-.633l.148-.076h.015V67.4A2.841,2.841,0,0,0,36.5,64.556Z" transform="translate(-24.935 -52.149)"/><circle class="a" cx="3.578" cy="3.578" r="3.578" transform="translate(2.52 0)"/><path class="a" d="M57.318,14.108a3.578,3.578,0,1,0-3.578-3.578A3.578,3.578,0,0,0,57.318,14.108Z" transform="translate(-42.165 -6.952)"/><path class="a" d="M8.887,45.963A2.662,2.662,0,0,1,9.3,41.629,4.547,4.547,0,0,0,7.616,41.3H4.58A4.586,4.586,0,0,0,0,45.885V49.6l.009.058.256.079a20.888,20.888,0,0,0,6.13,1V49.152A3.293,3.293,0,0,1,8.887,45.963Z" transform="translate(0 -33.905)"/><path class="a" d="M60.2,41.3H57.166a4.546,4.546,0,0,0-1.685.325,2.661,2.661,0,0,1,.416,4.333,3.287,3.287,0,0,1,2.491,3.189v1.586a20.892,20.892,0,0,0,6.129-1l.256-.079.009-.058V45.884A4.588,4.588,0,0,0,60.2,41.3Z" transform="translate(-43.531 -33.904)"/></g></svg>