<svg xmlns="http://www.w3.org/2000/svg" width="33.256" height="28.57" viewBox="0 0 33.256 28.57"><defs><style>.a{fill:#9d9d9d;}</style></defs><g transform="translate(0 -6.952)"><g transform="translate(0 6.952)"><circle class="a" cx="3.471" cy="3.471" r="3.471" transform="translate(13.157 12.238)"/><path class="a" d="M39.168,64.556H36.223A4.449,4.449,0,0,0,31.78,69v3.6l.009.056.248.077a20.226,20.226,0,0,0,6.042.975,12.419,12.419,0,0,0,5.275-.99l.232-.118h.024V69A4.446,4.446,0,0,0,39.168,64.556Z" transform="translate(-21.068 -45.14)"/><circle class="a" cx="5.599" cy="5.599" r="5.599" transform="translate(3.944 0)"/><path class="a" d="M59.338,18.15a5.6,5.6,0,1,0-5.6-5.6A5.6,5.6,0,0,0,59.338,18.15Z" transform="translate(-35.627 -6.952)"/><path class="a" d="M13.906,48.6a4.165,4.165,0,0,1,.65-6.782,7.116,7.116,0,0,0-2.638-.509H7.168A7.176,7.176,0,0,0,0,48.472v5.811l.014.091.4.124a32.686,32.686,0,0,0,9.592,1.569V53.585A5.153,5.153,0,0,1,13.906,48.6Z" transform="translate(0 -29.726)"/><path class="a" d="M62.868,41.3h-4.75a7.114,7.114,0,0,0-2.637.509,4.165,4.165,0,0,1,.652,6.781,5.144,5.144,0,0,1,3.9,4.991v2.482A32.692,32.692,0,0,0,69.622,54.5l.4-.124.015-.091V48.471A7.179,7.179,0,0,0,62.868,41.3Z" transform="translate(-36.781 -29.725)"/></g></g></svg>