<svg xmlns="http://www.w3.org/2000/svg" width="27.944" height="21.669" viewBox="0 0 27.944 21.669"><defs><style>.a{fill:#fff;}</style></defs><path class="a" d="M27.618,9.851a2.335,2.335,0,0,0-2.007-1.094H23.532V4.944A1.7,1.7,0,0,0,21.8,3.275H11.626a.057.057,0,0,1-.029-.007L9.776.721A1.75,1.75,0,0,0,8.351,0H1.731A1.7,1.7,0,0,0,0,1.669V19.96a1.743,1.743,0,0,0,1.773,1.708h20.6a.818.818,0,0,0,.732-.454h0l4.615-9.269a2.141,2.141,0,0,0-.1-2.095ZM1.731,1.637H8.351a.119.119,0,0,1,.093.036l1.824,2.551a1.668,1.668,0,0,0,1.358.688H21.8a.117.117,0,0,1,.093.036V8.757H7.079A2.342,2.342,0,0,0,4.95,10.076L1.637,17.164V1.674a.117.117,0,0,1,.093-.036Zm24.52,9.578-4.389,8.816H2.1l4.328-9.262a.71.71,0,0,1,.646-.375H25.611a.71.71,0,0,1,.615.319.5.5,0,0,1,.025.5Zm0,0" transform="translate(0 0)"/></svg>