<?xml version="1.0" encoding="utf-8"?>
<!-- Generator: Adobe Illustrator 25.2.3, SVG Export Plug-In . SVG Version: 6.00 Build 0)  -->
<svg version="1.1" id="Layer_1" xmlns="http://www.w3.org/2000/svg" xmlns:xlink="http://www.w3.org/1999/xlink" x="0px" y="0px"
	 viewBox="0 0 40 25" style="enable-background:new 0 0 40 25;" xml:space="preserve">
<style type="text/css">
	.st0{fill:#CA0027;}
	.st1{fill:#AFAFAF;}
	.st2{fill:#FFFFFF;}
</style>
<g>
	<path class="st2" d="M14,9.7c-0.1,0-0.2,0.1-0.2,0.2l-5.2,13v0.5c0,0.3,0,0.5,0.3,0.5h20.3c0.5,0,1-0.4,1.1-0.8l4.6-12.8
		c0,0,0-0.3,0-0.5H14z"/>
	<path class="st2" d="M13.4,8.8h18.3h0.5V6c0-0.7-0.6-1.2-1.2-1.2H19.6l-2.3-3.2H8.8c-0.7,0-1.2,0.6-1.2,1.2v19l4.7-12.1
		C12.4,9.2,12.9,8.8,13.4,8.8z"/>
</g>
</svg>
