<svg xmlns="http://www.w3.org/2000/svg" width="57.434" height="62.759" viewBox="0 0 57.434 62.759"><defs><style>.a{fill:#324b74;}</style></defs><g transform="translate(-10880.283 -3419.325)"><path class="a" d="M16.271,78.812c1.812-5.571,3.558-11.008,5.37-16.512l3.289.268,17.251,1.678,9.464.873a.738.738,0,0,1,.738.6c.805,5.1,1.678,10.136,2.484,15.17l.134.4,1.074-.268,5.706-2.014a1.927,1.927,0,0,1,2.685.805,1.879,1.879,0,0,1-1.074,2.618,37.858,37.858,0,0,1-10.4,3.088,78.67,78.67,0,0,1-21.748.537,62.9,62.9,0,0,1-15.3-3.289A26.178,26.178,0,0,1,8.015,78.41a1.913,1.913,0,1,1,2.416-2.953,20.943,20.943,0,0,0,5.437,3.155Zm7.249-9.934L19.9,80.088a80.884,80.884,0,0,0,31.347,1.947C50.572,78.343,49.9,74.785,49.3,71.16Z" transform="translate(10873.054 3395.511)"/><path class="a" d="M58.652,46.4l-5.773-.537L41.4,44.788,28.581,43.58l-1.208-.134a1.89,1.89,0,1,1,.4-3.759l6.31.6L45.63,41.365l8.927.873H55.3l.4-3.826c.537-4.7,1.007-9.33,1.477-14.029l.6-5.571c.134-1.208.738-1.947,1.812-2.014a1.879,1.879,0,0,1,2.014,2.014c-.134,1.544-.336,3.088-.47,4.632-.47,4.229-.873,8.458-1.342,12.754-.336,3.289-.671,6.645-1.074,9.934C58.72,46.265,58.72,46.332,58.652,46.4Z" transform="translate(10866.986 3410.472)"/><path class="a" d="M14.048,28.1A14.048,14.048,0,0,1,4.114,4.114,14.048,14.048,0,0,1,23.981,23.981,13.955,13.955,0,0,1,14.048,28.1Zm-1.92-13.247a3.586,3.586,0,0,1,1.518.339A2.9,2.9,0,0,1,15.055,17c.186.56.306,1.079.433,1.628.054.234.11.476.171.721a25.618,25.618,0,0,0,.94,3.222l.044.088c.319.642.6,1.2,1.365,1.389v-.2h.537a1.073,1.073,0,0,0,.6-1.678l-.268-.6c-.114-.4-.216-.787-.315-1.164-.138-.524-.268-1.018-.423-1.521-.135-.436-.254-.9-.369-1.342s-.235-.907-.37-1.343a3.986,3.986,0,0,0-1.947-2.35H15.44c.039,0,.085-.013.085-.067a4.309,4.309,0,0,0,2.685-2.82c.068-.134.133-.134.2-.134h1.477a1.007,1.007,0,0,0,.134-1.947H18.411a4.437,4.437,0,0,0-.806-2.215h2.349a.872.872,0,0,0,.806-1.208.939.939,0,0,0-1.006-.6H8.141a.942.942,0,0,0,.066,1.883l.068,0h4.631a3.666,3.666,0,0,1,2.081.806,2.631,2.631,0,0,1,.873,1.409H8.141a.94.94,0,0,0-.806,1.275,1.008,1.008,0,0,0,.95.673l.057,0h7.45a2.418,2.418,0,0,1-.738,1.074,3.842,3.842,0,0,1-2.349.94H9.014a.976.976,0,0,0,.135,1.947h2.819C12.021,14.849,12.075,14.848,12.128,14.848Z" transform="translate(10893.67 3419.325)"/></g></svg>