<svg xmlns="http://www.w3.org/2000/svg" width="23.829" height="23.033" viewBox="0 0 23.829 23.033"><defs><style>.a{fill:#afafaf;}</style></defs><path class="a" d="M38.62,35.906q0-.025,0-.05a1.59,1.59,0,0,0-1.589-1.588V26.921l1.43-1.072a.4.4,0,0,0,0-.638l-3.411-2.493V18.383a.4.4,0,0,0,.4-.4V16.4a.4.4,0,0,0-.4-.4H31.076a.4.4,0,0,0-.4.4v1.589a.4.4,0,0,0,.4.4v1.433l-2.943-2.15a.4.4,0,0,0-.469,0L17.339,25.21a.4.4,0,0,0,0,.638l1.43,1.072v7.347a1.59,1.59,0,0,0-1.589,1.588q0,.025,0,.05a1.588,1.588,0,0,0,.4,3.127H38.224a1.588,1.588,0,0,0,.4-3.127ZM31.473,16.794H34.65v.794H31.473Zm.4,3.574V18.383h2.383v3.754l-2.42-1.769ZM27.9,18.477l9.658,7.058-.925.694-8.5-6.182a.4.4,0,0,0-.467,0l-8.5,6.182-.925-.694ZM16.779,37.445a.8.8,0,0,1,.782-.794h0l.061.007a.4.4,0,0,0,.4-.532.781.781,0,0,1-.051-.269.8.8,0,0,1,.794-.794v3.177H17.573A.8.8,0,0,1,16.779,37.445Zm17.076.794H29.09V29.5h4.766Zm.794,0V29.105a.4.4,0,0,0-.4-.4h-5.56a.4.4,0,0,0-.4.4v9.134H19.559V26.925l8.34-6.065,8.34,6.065V38.239Zm3.574,0H37.032V35.062a.8.8,0,0,1,.794.794.781.781,0,0,1-.051.269.4.4,0,0,0,.4.532l.061-.007h0a.794.794,0,1,1-.012,1.589Z" transform="translate(-15.984 -16)"/><path class="a" d="M125.163,272H120.4a.4.4,0,0,0-.4.4v5.56a.4.4,0,0,0,.4.4h4.766a.4.4,0,0,0,.4-.4V272.4A.4.4,0,0,0,125.163,272Zm-.4,2.78h-1.588v-1.986h1.588Zm-2.383-1.986v1.986h-1.589v-1.986Zm-1.589,2.78h1.589v1.986h-1.589Zm2.383,1.986v-1.986h1.588v1.986Z" transform="translate(-114.837 -259.292)"/><ellipse class="a" cx="0.397" cy="0.397" rx="0.397" ry="0.397" transform="translate(13.778 17.688) rotate(-67.5)"/></svg>