<svg xmlns="http://www.w3.org/2000/svg" width="16.717" height="15.431" viewBox="0 0 16.717 15.431"><defs><style>.a{fill:#574848;}</style></defs><g transform="translate(-3.375 -4.5)"><path class="a" d="M18.485,6.75H16.877v.964a.322.322,0,0,1-.321.321h-.643a.322.322,0,0,1-.321-.321V6.75H7.876v.964a.322.322,0,0,1-.321.321H6.911a.322.322,0,0,1-.321-.321V6.75H4.982A1.612,1.612,0,0,0,3.375,8.357v10.93A1.612,1.612,0,0,0,4.982,20.9h13.5a1.612,1.612,0,0,0,1.607-1.607V8.357A1.612,1.612,0,0,0,18.485,6.75Zm.321,12.056a.806.806,0,0,1-.8.8H5.465a.806.806,0,0,1-.8-.8V11.572a.322.322,0,0,1,.321-.321h13.5a.322.322,0,0,1,.321.321Z" transform="translate(0 -0.964)"/><path class="a" d="M10.286,4.821A.322.322,0,0,0,9.964,4.5H9.321A.322.322,0,0,0,9,4.821v.964h1.286Z" transform="translate(-2.41)"/><path class="a" d="M26.036,4.821a.322.322,0,0,0-.321-.321h-.643a.322.322,0,0,0-.321.321v.964h1.286Z" transform="translate(-9.159)"/></g></svg>