<svg xmlns="http://www.w3.org/2000/svg" width="17.996" height="17.996" viewBox="0 0 17.996 17.996"><defs><style>.a{fill:#fff;}</style></defs><path class="a" d="M11.48,6.516a5.34,5.34,0,0,1,.013,7.543l-.013.013L9.118,16.434A5.343,5.343,0,0,1,1.562,8.878l1.3-1.3a.562.562,0,0,1,.959.373A6.477,6.477,0,0,0,4.167,9.8a.566.566,0,0,1-.133.584l-.46.46a2.531,2.531,0,1,0,3.556,3.6l2.362-2.362a2.53,2.53,0,0,0,0-3.579,2.633,2.633,0,0,0-.363-.3.564.564,0,0,1-.244-.443A1.4,1.4,0,0,1,9.3,6.713l.74-.74a.565.565,0,0,1,.723-.061,5.359,5.359,0,0,1,.721.6Zm4.954-4.954a5.349,5.349,0,0,0-7.556,0L6.516,3.924,6.5,3.937a5.344,5.344,0,0,0,.734,8.147.565.565,0,0,0,.723-.061l.74-.74a1.4,1.4,0,0,0,.411-1.048.564.564,0,0,0-.244-.443,2.633,2.633,0,0,1-.363-.3,2.53,2.53,0,0,1,0-3.579l2.362-2.362a2.531,2.531,0,1,1,3.556,3.6l-.46.46a.566.566,0,0,0-.133.584,6.477,6.477,0,0,1,.341,1.853.562.562,0,0,0,.959.373l1.3-1.3a5.348,5.348,0,0,0,0-7.556Z" transform="translate(0 0)"/></svg>