<svg xmlns="http://www.w3.org/2000/svg" width="22.996" height="18.398" viewBox="0 0 22.996 18.398"><defs><style>.a{fill:#6b6b6b;}</style></defs><path class="a" d="M8.049,9.2a4.6,4.6,0,1,0-4.6-4.6A4.6,4.6,0,0,0,8.049,9.2Zm3.22,1.15h-.6a6.255,6.255,0,0,1-5.239,0h-.6A4.831,4.831,0,0,0,0,15.178v1.495A1.725,1.725,0,0,0,1.725,18.4H11.6a1.726,1.726,0,0,1-.093-.765l.244-2.188.043-.4.284-.284,2.778-2.778a4.78,4.78,0,0,0-3.59-1.635ZM12.9,15.57l-.244,2.192a.572.572,0,0,0,.632.632l2.188-.244,4.955-4.955-2.576-2.576L12.9,15.57Zm9.849-5.907L21.384,8.3a.861.861,0,0,0-1.215,0L18.811,9.659l-.147.147,2.58,2.576,1.5-1.5a.865.865,0,0,0,0-1.218Z"/></svg>