<svg xmlns="http://www.w3.org/2000/svg" width="29.123" height="29.123" viewBox="0 0 29.123 29.123"><defs><style>.a{fill:#5b5b5b;}</style></defs><path class="a" d="M14.561.563A14.561,14.561,0,1,0,29.123,15.124,14.559,14.559,0,0,0,14.561.563Zm0,5.637a5.167,5.167,0,1,1-5.167,5.167A5.167,5.167,0,0,1,14.561,6.2Zm0,20.2a11.251,11.251,0,0,1-8.6-4,6.546,6.546,0,0,1,5.783-3.511,1.437,1.437,0,0,1,.417.065,7.774,7.774,0,0,0,2.4.405,7.744,7.744,0,0,0,2.4-.405,1.437,1.437,0,0,1,.417-.065,6.546,6.546,0,0,1,5.783,3.511A11.251,11.251,0,0,1,14.561,26.4Z" transform="translate(0 -0.563)"/></svg>