<svg xmlns="http://www.w3.org/2000/svg" xmlns:xlink="http://www.w3.org/1999/xlink" width="49.781" height="49.781" viewBox="0 0 49.781 49.781"><defs><style>.a{fill:#7d7d7d;}.b{filter:url(#a);}</style><filter id="a" x="0" y="0" width="49.781" height="49.781" filterUnits="userSpaceOnUse"><feOffset dy="3" input="SourceAlpha"/><feGaussianBlur stdDeviation="3" result="b"/><feFlood flood-color="#4a4545" flood-opacity="0.161"/><feComposite operator="in" in2="b"/><feComposite in="SourceGraphic"/></filter></defs><g class="b" transform="matrix(1, 0, 0, 1, 0, 0)"><path class="a" d="M16.453,32.344A15.891,15.891,0,1,1,32.344,16.453,15.888,15.888,0,0,1,16.453,32.344Zm1.852-9.2L13.467,18.5h11.7a1.534,1.534,0,0,0,1.538-1.538V15.941A1.534,1.534,0,0,0,25.167,14.4h-11.7L18.3,9.764a1.54,1.54,0,0,0,.026-2.2l-.7-.7a1.531,1.531,0,0,0-2.172,0l-8.5,8.5a1.531,1.531,0,0,0,0,2.172l8.5,8.5a1.531,1.531,0,0,0,2.172,0l.7-.7A1.54,1.54,0,0,0,18.3,23.143Z" transform="translate(8.44 5.44)"/></g></svg>