<svg xmlns="http://www.w3.org/2000/svg" width="19.996" height="19.997" viewBox="0 0 19.996 19.997"><defs><style>.a{fill:#fff;}</style></defs><path class="a" d="M19.568,15.453,14.995,10.88a2.9,2.9,0,0,0-3.335-.543L7.5,6.174V3.749L2.5,0,0,2.5l3.749,5H6.173l4.163,4.163A2.906,2.906,0,0,0,10.879,15l4.573,4.573a1.452,1.452,0,0,0,2.058,0l2.058-2.058a1.459,1.459,0,0,0,0-2.058ZM12.952,8.787A4.109,4.109,0,0,1,15.877,10l.758.758A5.528,5.528,0,0,0,18.345,9.6a5.616,5.616,0,0,0,1.48-5.339.467.467,0,0,0-.785-.215L16.135,6.955l-2.652-.441-.441-2.652L15.948.957a.471.471,0,0,0-.223-.789,5.626,5.626,0,0,0-5.335,1.48A5.534,5.534,0,0,0,8.781,5.694L11.988,8.9a4.254,4.254,0,0,1,.965-.113Zm-4.058,3.2L6.68,9.775.729,15.73a2.5,2.5,0,0,0,3.534,3.534L9.09,14.438a4.194,4.194,0,0,1-.2-2.449ZM2.5,18.433a.937.937,0,1,1,.937-.937A.94.94,0,0,1,2.5,18.433Z" transform="translate(0.004)"/></svg>