<svg xmlns="http://www.w3.org/2000/svg" width="20.252" height="19.805" viewBox="0 0 20.252 19.805"><path d="M8.682,5.355,7.23,3.9a10.588,10.588,0,0,0-4.185,7.973H5.076A8.578,8.578,0,0,1,8.682,5.355Zm12.584,6.521H23.3A10.653,10.653,0,0,0,19.113,3.9L17.67,5.355a8.628,8.628,0,0,1,3.6,6.521Zm-2,.508c0-3.118-1.666-5.728-4.57-6.419V5.273a1.523,1.523,0,1,0-3.047,0v.691c-2.915.691-4.57,3.291-4.57,6.419v5.078L5.046,19.493v1.016H21.3V19.493l-2.031-2.031ZM13.171,23.555a1.779,1.779,0,0,0,.406-.041,2.061,2.061,0,0,0,1.463-1.2,2.039,2.039,0,0,0,.152-.792H11.13A2.046,2.046,0,0,0,13.171,23.555Z" transform="translate(-3.045 -3.75)"/></svg>