<svg xmlns="http://www.w3.org/2000/svg" width="56.423" height="56.423" viewBox="0 0 56.423 56.423"><defs><style>.a{fill:#cbcbcb;}</style></defs><g transform="translate(0 0)"><path class="a" d="M31.586,7.173a24.418,24.418,0,0,1,17.266,41.68A24.418,24.418,0,0,1,14.32,14.32,24.252,24.252,0,0,1,31.586,7.173m0-3.8A28.211,28.211,0,1,0,59.8,31.586,28.207,28.207,0,0,0,31.586,3.375Z" transform="translate(-3.375 -3.375)"/><path class="a" d="M42.509,13.348a20.629,20.629,0,1,0,6.036,14.58A20.488,20.488,0,0,0,42.509,13.348Z" transform="translate(0.283 0.283)"/></g></svg>