<svg xmlns="http://www.w3.org/2000/svg" width="21.545" height="17.236" viewBox="0 0 21.545 17.236"><defs><style>.a{fill:#6b6b6b;}</style></defs><path class="a" d="M7,11.85a.77.77,0,0,0-.238.037,4.441,4.441,0,0,1-1.378.233,4.445,4.445,0,0,1-1.379-.233.768.768,0,0,0-.237-.037A3.771,3.771,0,0,0,0,15.641a1.612,1.612,0,0,0,1.616,1.595H9.156a1.612,1.612,0,0,0,1.616-1.595A3.771,3.771,0,0,0,7,11.85ZM5.386,10.772A3.232,3.232,0,1,0,2.154,7.541,3.232,3.232,0,0,0,5.386,10.772ZM19.929,0H7A1.645,1.645,0,0,0,5.386,1.669V3.232a4.26,4.26,0,0,1,2.154.6V2.154H19.39v9.7H17.236V9.7H12.927V11.85H10.36A4.29,4.29,0,0,1,11.7,14h8.232a1.645,1.645,0,0,0,1.616-1.669V1.669A1.645,1.645,0,0,0,19.929,0Z" transform="translate(0)"/></svg>