<svg xmlns="http://www.w3.org/2000/svg" width="21.741" height="33.344" viewBox="0 0 21.741 33.344"><defs><style>.a{fill:#ca0027;}</style></defs><g transform="translate(-351.715 -203.996)"><path class="a" d="M370.792,237.34H354.377a6.429,6.429,0,0,1-.918-.3,3,3,0,0,1-1.742-2.921q0-8.431,0-16.863,0-2.783,0-5.567a3.027,3.027,0,0,1,3.2-3.21q1.335,0,2.67,0h.842a4.272,4.272,0,0,1,1.032-3.055,4.061,4.061,0,0,1,2.864-1.423,3.926,3.926,0,0,1,2.581.722,4.165,4.165,0,0,1,1.8,3.756c1.229,0,2.411-.007,3.594,0a3.054,3.054,0,0,1,3.151,3.144q.013,11.3,0,22.592a2.855,2.855,0,0,1-1.245,2.516A7.919,7.919,0,0,1,370.792,237.34Zm-8.239-8.4h3.192c.847,0,1.694,0,2.54,0,.371,0,.464-.094.47-.459,0-.239,0-.478,0-.717a2.708,2.708,0,0,0-1.605-2.612c-.709-.352-1.416-.708-2.112-1.082a.634.634,0,0,1-.325-.361,1.246,1.246,0,0,1,.155-1.055,3.063,3.063,0,0,0,.333-.558,2.63,2.63,0,0,1,.684-1.08.664.664,0,0,0,.243-.445,8.079,8.079,0,0,0-.028-1.867,6.036,6.036,0,0,1-.134-1.14,2.454,2.454,0,0,0-1.6-2.419,4.77,4.77,0,0,0-3.375-.093,2.416,2.416,0,0,0-1.762,1.982c-.118.684-.129,1.38-.262,2.073a2.236,2.236,0,0,0,.4,2.123c.02.02.016.063.03.092.232.487.448.983.7,1.458a1.041,1.041,0,0,1-.357,1.359l-1.918,1.034a2.658,2.658,0,0,0-1.485,2.486c0,.239,0,.478,0,.717,0,.477.091.564.575.564Zm6.034,2.36H356.554v1.715h12.033Zm-3.673-21.243c0-.748.042-1.465-.01-2.175a2.314,2.314,0,0,0-1.841-2.059,2.349,2.349,0,0,0-2.6,1.225c-.478.961-.194,1.994-.281,3.01Z" transform="translate(0 0)"/></g></svg>