<svg xmlns="http://www.w3.org/2000/svg" width="33.411" height="25.058" viewBox="0 0 33.411 25.058"><defs><style>.a{fill:#ca0027;}</style></defs><path class="a" d="M29.582,3H3.828A3.831,3.831,0,0,0,0,6.828v17.4a3.831,3.831,0,0,0,3.828,3.828H29.582a3.831,3.831,0,0,0,3.828-3.828V6.828A3.831,3.831,0,0,0,29.582,3ZM10.441,8.568a3.48,3.48,0,1,1-3.48,3.48A3.485,3.485,0,0,1,10.441,8.568Zm6.265,12.877a1.044,1.044,0,0,1-1.044,1.044H5.22a1.044,1.044,0,0,1-1.044-1.044v-.7A3.831,3.831,0,0,1,8,16.921h4.872a3.831,3.831,0,0,1,3.828,3.828ZM28.19,22.49H20.534a1.044,1.044,0,0,1,0-2.088H28.19a1.044,1.044,0,0,1,0,2.088Zm0-5.568H20.534a1.044,1.044,0,0,1,0-2.088H28.19a1.044,1.044,0,0,1,0,2.088Zm0-5.568H20.534a1.044,1.044,0,0,1,0-2.088H28.19a1.044,1.044,0,0,1,0,2.088Z" transform="translate(0 -3)"/></svg>