<svg xmlns="http://www.w3.org/2000/svg" width="55.313" height="41.485" viewBox="0 0 55.313 41.485"><defs><style>.a{fill:#afafaf;}</style></defs><g transform="translate(0 -3)"><g transform="translate(0 3)"><path class="a" d="M49.552,44.485H5.762A5.77,5.77,0,0,1,0,38.723V8.762A5.77,5.77,0,0,1,5.762,3h43.79a5.77,5.77,0,0,1,5.762,5.762V38.723A5.77,5.77,0,0,1,49.552,44.485ZM5.762,5.3A3.461,3.461,0,0,0,2.3,8.762V38.723A3.461,3.461,0,0,0,5.762,42.18h43.79a3.461,3.461,0,0,0,3.457-3.457V8.762A3.461,3.461,0,0,0,49.552,5.3Z" transform="translate(0 -3)"/></g><g transform="translate(11.524 12.219)"><path class="a" d="M10.762,18.524a5.762,5.762,0,1,1,5.762-5.762A5.77,5.77,0,0,1,10.762,18.524Zm0-9.219a3.457,3.457,0,1,0,3.457,3.457A3.461,3.461,0,0,0,10.762,9.3Z" transform="translate(-5 -7)"/></g><g transform="translate(6.914 26.047)"><path class="a" d="M22.59,22.219a1.153,1.153,0,0,1-1.152-1.152v-2.3A3.461,3.461,0,0,0,17.981,15.3H8.762A3.461,3.461,0,0,0,5.3,18.762v2.3a1.152,1.152,0,1,1-2.3,0v-2.3A5.77,5.77,0,0,1,8.762,13h9.219a5.77,5.77,0,0,1,5.762,5.762v2.3A1.153,1.153,0,0,1,22.59,22.219Z" transform="translate(-3 -13)"/></g><g transform="translate(32.266 14.524)"><path class="a" d="M28.981,10.3H15.152a1.152,1.152,0,1,1,0-2.3H28.981a1.152,1.152,0,0,1,0,2.3Z" transform="translate(-14 -8)"/></g><g transform="translate(32.266 23.742)"><path class="a" d="M28.981,14.3H15.152a1.152,1.152,0,1,1,0-2.3H28.981a1.152,1.152,0,0,1,0,2.3Z" transform="translate(-14 -12)"/></g><g transform="translate(32.266 32.961)"><path class="a" d="M28.981,18.3H15.152a1.152,1.152,0,1,1,0-2.3H28.981a1.152,1.152,0,0,1,0,2.3Z" transform="translate(-14 -16)"/></g></g></svg>