<svg xmlns="http://www.w3.org/2000/svg" width="48.572" height="69.883" viewBox="0 0 48.572 69.883"><defs><style>.a{fill:#324b74;}</style></defs><g transform="translate(-137.329 -37.286)"><path class="a" d="M154.532,211.7a22.53,22.53,0,0,0,11.779,11.967,24.646,24.646,0,0,0-4.532,13.7c-.752.1-1.525.23-2.3.313a12.054,12.054,0,0,1-3.968-.063,8.765,8.765,0,0,1-5.6-3.864,10.663,10.663,0,0,1-1.483-4.177c-.146-.835-.313-1.692-.5-2.527-.1-.48-.376-.668-.773-.606-.355.063-.543.334-.459.794a49.757,49.757,0,0,0,1.086,4.95,9.464,9.464,0,0,0,4.72,5.618,10.393,10.393,0,0,0,5.973,1.19,60.484,60.484,0,0,0,9.67-1.713c1.629-.418,3.258-.835,4.845-1.378a12.986,12.986,0,0,0,5.827-4.01.2.2,0,0,1,.146-.042c-.23.522-.439,1.044-.71,1.545a15.634,15.634,0,0,1-7.038,6.808,39.221,39.221,0,0,1-10.025,3.3,54.548,54.548,0,0,1-8.02.94c-1.357.063-2.715.125-4.072.084a8.789,8.789,0,0,1-7.644-4.762,14.6,14.6,0,0,1-1.42-4.323c-.668-3.237-1.337-6.474-1.942-9.711-.313-1.629-.543-3.279-.731-4.908a4.058,4.058,0,0,1,1.044-3.383,5.313,5.313,0,0,1,2.8-1.483c1.9-.439,3.8-.794,5.7-1.232,1.545-.355,3.112-.752,4.636-1.19A7.046,7.046,0,0,0,154.532,211.7Z" transform="translate(0 -137.988)"/><path class="a" d="M223.063,154.008c.418.668.794,1.253,1.19,1.838a16.32,16.32,0,0,0,6.955,5.952,40.283,40.283,0,0,0,5.3,2.151,6.933,6.933,0,0,0,4.365.042,5.557,5.557,0,0,0,2.193-1.4.654.654,0,0,0,.209-.752.713.713,0,0,0-.647-.418,6.673,6.673,0,0,1-4.7-2.736,10.837,10.837,0,0,1-1.8-9.607,8.74,8.74,0,0,1,3.007-4.845,6.048,6.048,0,0,1,6.641-.877,8.2,8.2,0,0,1,4.3,5.075,10.737,10.737,0,0,1,.209,6.725,12.229,12.229,0,0,1-1.065,2.527,12.075,12.075,0,0,0-1.525,5.994c.042,2.088.1,4.177.084,6.265a10.774,10.774,0,0,1-.522,3.905,9.847,9.847,0,0,1-3.154,4.26,14.746,14.746,0,0,1-5.994,2.778c-2.276.543-4.574,1.086-6.85,1.608-.1.021-.23.042-.439.084.063-.835.1-1.608.209-2.381a22.959,22.959,0,0,1,1.692-6.119c.585-1.253,1.316-2.444,2-3.676.188-.355.439-.689.606-1.065a.868.868,0,0,0-.522-1.295,21.015,21.015,0,0,1-8-5.931,25.314,25.314,0,0,1-3.717-6.37,3.8,3.8,0,0,1-.042-1.295A3.04,3.04,0,0,1,223.063,154.008Z" transform="translate(-67.801 -83.429)"/><path class="a" d="M213.616,69.3a8.356,8.356,0,0,1,2.214,2.4,19.568,19.568,0,0,1,2.778,8.229,2.057,2.057,0,0,1,.042.355c.084.71.355.877,1.023.668a.341.341,0,0,1,.48.209,1.574,1.574,0,0,1,.146.689c-.063.606-.167,1.232-.271,1.838a.418.418,0,0,1-.209.251,9.248,9.248,0,0,0-5.033,5.3,11.3,11.3,0,0,0-.877,4.073.744.744,0,0,1-.376.689A8.235,8.235,0,0,1,208,95.615a8.925,8.925,0,0,1-3.885-1.42,9.255,9.255,0,0,1-3.885-4.532,16,16,0,0,1-.48-1.713.878.878,0,0,0-.606-.71,1.578,1.578,0,0,1-.773-.606,8.081,8.081,0,0,1-1.378-4.511,1.829,1.829,0,0,1,.146-.668c.146-.4.334-.48.731-.376.418.084.835-.23.731-.627a3.222,3.222,0,0,1,.188-1.671,8.31,8.31,0,0,1,4.219-5.012,21.515,21.515,0,0,1,5.138-1.942A14.231,14.231,0,0,0,213.616,69.3Z" transform="translate(-47.201 -25.328)"/><path class="a" d="M241.5,259.452c.313-.063.585-.125.877-.188a47.63,47.63,0,0,0,7.017-1.671,28.638,28.638,0,0,0,6.412-2.778,16.51,16.51,0,0,0,6.077-6.6,16.16,16.16,0,0,0,1.733-7.769c-.042-2.068,0-4.135,0-6.2,0-1.044-.021-2.068.021-3.112.021-.4.125-.794.188-1.232a7.279,7.279,0,0,1,4.2,4.26,8.348,8.348,0,0,1,.292,2.694,35.653,35.653,0,0,1-1.17,8.521,29.658,29.658,0,0,1-3.634,8.437,8.069,8.069,0,0,1-3.446,2.924,24.6,24.6,0,0,1-7.08,2.047,68.637,68.637,0,0,1-11.132.773c-.1,0-.188-.021-.292-.021C241.563,259.556,241.542,259.514,241.5,259.452Z" transform="translate(-82.416 -152.387)"/><path class="a" d="M195.234,54.5c-.1-.627-.251-1.253-.334-1.9a19.113,19.113,0,0,1,.042-6.265,10.718,10.718,0,0,1,5.848-7.811,15,15,0,0,1,9.732-.752,4.857,4.857,0,0,1,2.318,1.358.837.837,0,0,1,.188.564,4.9,4.9,0,0,1-1.483,2.819,9.345,9.345,0,0,1-3.822,2.256c-1.545.5-3.133.919-4.678,1.462a12.81,12.81,0,0,0-5.033,3.07,9.078,9.078,0,0,0-2.485,4.762,4.212,4.212,0,0,1-.146.48A.2.2,0,0,0,195.234,54.5Z" transform="translate(-45.36 0)"/><path class="a" d="M246.1,202.685a4.875,4.875,0,0,1-2.443.606,10.2,10.2,0,0,1-3.446-.856c-1.671-.731-3.342-1.441-4.971-2.276a12.672,12.672,0,0,1-4.114-3.55c-.647-.814-1.19-1.692-1.775-2.548-.042-.063-.063-.125-.146-.292a9.105,9.105,0,0,0,10.213-.167C240.039,197.8,241.856,201.118,246.1,202.685Z" transform="translate(-72.684 -123.668)"/><path class="a" d="M280.9,54.182a6.491,6.491,0,0,0,1.5-2.882,8.8,8.8,0,0,1,2.109,1.9,9.673,9.673,0,0,1,1.859,4.511,19.236,19.236,0,0,1-.167,7.644c-.042-.271-.1-.543-.146-.835s-.084-.585-.146-.877a19.238,19.238,0,0,0-2.778-7.08A9.639,9.639,0,0,0,280.9,54.182Z" transform="translate(-113.587 -11.087)"/><path class="a" d="M197.5,178.92a29.16,29.16,0,0,0,1.921-9.92,12.29,12.29,0,0,0,.71,1.378c.376.585.814,1.107,1.211,1.671a.928.928,0,0,1,.188.5c.021,1.065-.021,2.13.021,3.2a2.036,2.036,0,0,1-.919,1.859A10.175,10.175,0,0,1,197.5,178.92Z" transform="translate(-47.605 -104.206)"/></g></svg>