<svg xmlns="http://www.w3.org/2000/svg" width="40.844" height="59.778" viewBox="0 0 40.844 59.778"><defs><style>.a{fill:#324b74;}</style></defs><g transform="translate(-18.084 -3.85)"><path class="a" d="M57.55,63.628h-.689l-4.384-3.069-.939.689-3.319,2.38h-.689l-1.253-.752-2.63-2a.626.626,0,0,0-.939,0l-3.82,2.756H38.2L37.2,63l-2.818-2.067c-.376-.376-.626-.313-1.065,0l-3.758,2.693H28.8l-1.19-.814-2.63-1.941c-.376-.313-.564-.251-.939,0l-3.82,2.756h-.877a2.129,2.129,0,0,1-1.253-2.067V5.885a1.816,1.816,0,0,1,1-1.816,1.691,1.691,0,0,1,2,.313L24.169,6.7a.5.5,0,0,0,.689,0c1-.814,2-1.5,3.006-2.255a1.89,1.89,0,0,1,2.693,0L33.876,6.95,37.07,4.508c1.127-.877,1.754-.877,2.818,0L43.208,6.95,46.4,4.508c1.19-.877,1.691-.877,2.881,0L52.539,6.95l3.57-2.693A1.754,1.754,0,0,1,58.927,5.7V61.374A2.1,2.1,0,0,1,57.55,63.628ZM46.089,35.383h1.628A1.754,1.754,0,0,0,49.6,33.442V18.536a4.071,4.071,0,0,0-4.2-4.2H31.622a4.133,4.133,0,0,0-4.2,4.2V33.442a1.754,1.754,0,0,0,1.941,1.941h1.566v1.566a1.754,1.754,0,1,0,3.507,0V35.383h8.142v1.691a1.879,1.879,0,0,0,1.754,1.816,1.754,1.754,0,0,0,1.754-1.816A15.221,15.221,0,0,0,46.089,35.383ZM38.511,45.9H50.16a1.691,1.691,0,0,0,1.566-2.568,1.816,1.816,0,0,0-1.754-1H26.925A1.754,1.754,0,0,0,25.234,43.4,1.811,1.811,0,0,0,26.987,45.9Zm.063,3.445H27.05a1.879,1.879,0,0,0-1.816,1.065,1.764,1.764,0,0,0,1.816,2.442H50.1a1.691,1.691,0,0,0,1.691-1A1.754,1.754,0,0,0,50.1,49.349Z" transform="translate(0 0)"/><path class="a" d="M53.756,33.214H38.6V27.077c0-.689.188-.877.814-.877H52.942c.438,0,.814.125.814.626Z" transform="translate(-7.667 -8.353)"/><path class="a" d="M38.6,46.482V43.1H53.756v3.382Z" transform="translate(-7.667 -14.669)"/></g></svg>