<svg width="64" height="64" viewBox="0 0 64 64" fill="none" xmlns="http://www.w3.org/2000/svg">
<path d="M27.81 27.6995C27.09 28.9595 25.75 29.7395 24.3 29.7395C22.85 29.7395 21.51 28.9595 20.79 27.6995C20.65 27.4595 20.74 27.1595 20.98 27.0195C21.22 26.8795 21.52 26.9695 21.66 27.2095C22.2 28.1495 23.21 28.7395 24.3 28.7395C25.39 28.7395 26.4 28.1495 26.94 27.2095C27.08 26.9695 27.38 26.8795 27.62 27.0195C27.86 27.1595 27.95 27.4595 27.81 27.6995Z" fill="#324B74"/>
<path d="M20.5303 21.4395C20.1303 21.4395 19.8203 21.1295 19.8203 20.7195C19.8203 20.3395 20.1403 20.0195 20.5303 20.0195C20.9203 20.0195 21.2403 20.3395 21.2403 20.7195C21.2403 21.1295 20.9203 21.4395 20.5303 21.4395Z" fill="#324B74"/>
<path d="M28.7903 20.7195C28.7903 21.1196 28.4703 21.4395 28.0804 21.4395C27.6704 21.4395 27.3604 21.1295 27.3604 20.7195C27.3604 20.3395 27.6804 20.0195 28.0804 20.0195C28.4703 20.0195 28.7903 20.3395 28.7903 20.7195Z" fill="#324B74"/>
<path d="M48.1199 53.371V62.791C48.1199 63.061 47.8999 63.291 47.6199 63.291H41.6299V49.1009L41.7399 49.2109C42.0399 49.5209 42.4499 49.6909 42.8799 49.6909C43.3199 49.6909 43.7199 49.5209 44.0298 49.2109L45.2798 47.9609C45.5499 47.6909 45.7099 47.3409 45.7399 46.9609C47.1199 48.681 48.1199 50.8209 48.1199 53.371Z" fill="#324B74"/>
<path d="M34.6904 25.43L34.9004 25.42C36.7403 25.42 38.2303 23.92 38.2303 22.08C38.2303 20.25 36.7404 18.75 34.8603 18.75L34.7203 18.76V17.08H35.0604C36.2504 17.08 37.2104 16.11 37.2104 14.92C37.2104 13.91 36.5004 13.06 35.5604 12.84C35.5104 7.96002 32.3404 3.73003 27.8104 2.26V12.0763C27.8104 12.3463 27.5804 12.5763 27.3104 12.5763C27.0303 12.5763 26.8104 12.3463 26.8104 12.0763V1.71002C26.8104 0.77002 26.0504 0 25.1104 0H23.5004C22.5604 0 21.7903 0.77002 21.7903 1.71002V12.0763C21.7903 12.3463 21.5704 12.5763 21.2903 12.5763C21.0104 12.5763 20.7903 12.3463 20.7903 12.0763V2.26001C16.2604 3.73004 13.1003 7.96002 13.0403 12.84C12.1003 13.0601 11.4004 13.91 11.4004 14.92C11.4004 16.11 12.3604 17.08 13.5403 17.08H13.8804V18.79L13.7404 18.8C11.9004 18.8 10.4004 20.29 10.4004 22.13C10.4004 23.97 11.9004 25.46 13.7704 25.46H13.7803L13.9204 25.45C14.1504 28.89 16.0604 31.8701 18.8304 33.59C18.8104 37.7 14.9803 38.76 14.5104 39.15C14.5004 39.15 14.5004 39.15 14.4904 39.15C13.5804 39.8 12.4004 40.39 11.1003 41V50.0601C11.1003 50.94 11.7604 51.7 12.6304 51.82C21.8204 53.16 26.3104 53.16 35.4904 51.82C36.3704 51.7 37.0303 50.94 37.0303 50.0601V40.9L33.6904 39.17C33.6804 39.17 33.6804 39.16 33.6804 39.16C33.1904 38.77 29.5504 37.81 29.3304 33.85C32.3503 32.18 34.4404 29.0601 34.6904 25.43ZM32.6603 39.76C30.4103 42.51 27.2404 43.89 23.8904 43.8601C20.6904 43.79 17.7704 42.49 15.5004 39.76C15.5004 39.76 19.4404 38.3101 19.8004 34.13C22.2504 35.36 25.4504 35.5601 28.3604 34.33C28.8304 38.3001 32.4604 39.59 32.6603 39.76ZM28.6103 33.1C28.6003 33.1 28.5904 33.1 28.5804 33.11C25.7704 34.55 22.2803 34.45 19.6003 32.89C16.7903 31.26 14.8804 28.22 14.8804 24.73V17.08H33.7203V24.73C33.7203 28.37 31.6404 31.53 28.6103 33.1Z" fill="#324B74"/>
<path d="M11.1641 55.7344C10.6724 55.7344 10.2725 56.1392 10.2725 56.6362C10.2725 57.1279 10.6724 57.5278 11.1641 57.5278C11.6616 57.5278 12.0664 57.1279 12.0664 56.6362C12.0664 56.1304 11.6699 55.7344 11.1641 55.7344Z" fill="#324B74"/>
<path d="M0 53.3809V62.7909C0 63.0609 0.22998 63.2909 0.5 63.2909H6.48383V43.3145C3.03277 45.3226 0 48.1697 0 53.3809Z" fill="#324B74"/>
<path d="M36.959 55.7344C36.4673 55.7344 36.0674 56.1392 36.0674 56.6362C36.0674 57.1279 36.4673 57.5278 36.959 57.5278C37.4561 57.5278 37.8608 57.1279 37.8608 56.6362C37.8608 56.1304 37.4648 55.7344 36.959 55.7344Z" fill="#324B74"/>
<path d="M40.3795 43.0706C40.4595 42.9907 40.5395 42.9207 40.6295 42.8707V42.7006C39.4995 42.0407 38.5495 41.6006 38.0295 41.3906V50.0607C38.0295 51.4307 36.9995 52.6207 35.6295 52.8107C26.4395 54.1506 21.6795 54.1506 12.4895 52.8107C11.1295 52.6207 10.0995 51.4307 10.0995 50.0607V41.4706C9.24951 41.8707 8.3595 42.2906 7.47949 42.7606V63.2906H40.6295V48.1006L39.1395 46.6107C38.8295 46.3107 38.6595 45.9006 38.6595 45.4706C38.6595 45.0306 38.8295 44.6306 39.1395 44.3206L40.3795 43.0706ZM11.1595 58.5306C10.1195 58.5306 9.26953 57.6807 9.26953 56.6406C9.26953 55.5906 10.1195 54.7307 11.1595 54.7307C12.2095 54.7307 13.0695 55.5907 13.0695 56.6406C13.0695 57.6807 12.2095 58.5306 11.1595 58.5306ZM38.8613 56.636C38.8613 57.679 38.0082 58.5276 36.9594 58.5276C35.9164 58.5276 35.0678 57.679 35.0678 56.636C35.0678 55.5872 35.9164 54.7341 36.9594 54.7341C38.0082 54.7341 38.8613 55.5872 38.8613 56.636Z" fill="#324B74"/>
<path d="M61.9004 46.2901C61.5204 46.6701 61.0104 46.8701 60.5004 46.8701C60.0004 46.8701 59.4904 46.6701 59.1004 46.2901L51.7204 38.9101L49.4404 36.6301L47.1504 34.3401C45.4504 34.9801 43.4604 34.6101 42.0904 33.2401C40.6304 31.7801 40.3004 29.6101 41.1304 27.8501L43.5704 30.2801L45.7504 30.1301L45.8904 27.9601L43.4504 25.5201C45.2204 24.6901 47.3904 25.0101 48.8604 26.4701C50.2204 27.8401 50.5904 29.8301 49.9504 31.5301L52.2404 33.8301L61.9004 43.4901C62.6804 44.2601 62.6804 45.5101 61.9004 46.2901Z" fill="#324B74"/>
<path d="M51.0096 39.6199C48.8596 41.7498 46.7196 43.8998 45.1196 45.5098L42.8496 43.2399C44.4396 41.6498 46.5897 39.4899 48.7296 37.3398L51.0096 39.6199Z" fill="#324B74"/>
<path d="M39.8428 45.026L41.0914 43.7774C41.3337 43.5351 41.7264 43.5351 41.9687 43.7774L44.5701 46.3788C44.8124 46.6211 44.8124 47.0138 44.5701 47.2561L43.3215 48.5047C43.0793 48.7469 42.6865 48.7469 42.4442 48.5047L39.8428 45.9033C39.6006 45.661 39.6006 45.2682 39.8428 45.026Z" fill="#324B74"/>
<path d="M62.3801 34.67L60.6101 36.44L59.1201 34.94L59.8601 34.2L58.1301 32.48C57.3701 33.24 56.3601 34.25 55.2201 35.39L52.9502 33.12C54.1201 31.95 55.1301 30.94 55.8601 30.21L54.9502 29.3L55.5702 28.67L54.4301 27.53L53.8001 28.15L52.9301 27.27C52.5702 26.92 52.5702 26.34 52.9301 25.98L55.3801 23.52C55.7501 23.16 56.3302 23.16 56.6801 23.52L57.5601 24.39L56.9301 25.02L58.0802 26.17L58.7002 25.54L62.3801 29.21C63.8801 30.72 63.8801 33.16 62.3801 34.67Z" fill="#324B74"/>
</svg>
