<svg xmlns="http://www.w3.org/2000/svg" width="32.175" height="25.801" viewBox="0 0 32.175 25.801">
  <g id="Logout" transform="translate(-14.7 -13)">
    <path id="Path_802" data-name="Path 802" d="M27.3,13a13.147,13.147,0,0,1,8.241,2.747,6.977,6.977,0,0,1,1.131,1.05,1.469,1.469,0,0,1,0,2.181,1.536,1.536,0,0,1-2.181,0,10.015,10.015,0,0,0-6.867-2.908A9.55,9.55,0,0,0,21,18.575a9.247,9.247,0,0,0-2.908,4.686,9.23,9.23,0,0,0,.889,7.433,9.474,9.474,0,0,0,6.706,4.847,9.7,9.7,0,0,0,7.271-1.454,11.257,11.257,0,0,0,1.535-1.212,1.761,1.761,0,0,1,1.777-.323,1.479,1.479,0,0,1,.889,1.454,1.3,1.3,0,0,1-.485,1.05,12.892,12.892,0,0,1-5.251,3.151,12.64,12.64,0,0,1-5.494.485A13.106,13.106,0,0,1,18.5,35.137a12.416,12.416,0,0,1-3.555-6.625,12.647,12.647,0,0,1,0-4.928,12.805,12.805,0,0,1,3.393-6.544,12.484,12.484,0,0,1,7.433-3.8C26.334,13.081,26.98,13.081,27.3,13Z" transform="translate(0)" fill="#212529"/>
    <path id="Path_803" data-name="Path 803" d="M43.134,23.685V21.342c0-.081.081-.162.081-.242a.3.3,0,0,1,.242.081c.727.727,1.535,1.454,2.262,2.262,1.293,1.293,2.585,2.5,3.8,3.8.242.162.242.242,0,.485L44.912,32.33l-1.454,1.454a.3.3,0,0,1-.242.081c-.081,0-.081-.162-.081-.242V31.28H29.966c-.4,0-.566-.162-.566-.566V24.332c0-.4.162-.566.566-.566H42.892C42.892,23.685,42.973,23.685,43.134,23.685Z" transform="translate(-2.824 -1.556)" fill="#212529"/>
  </g>
</svg>
