<svg xmlns="http://www.w3.org/2000/svg" width="41.217" height="63.875" viewBox="0 0 41.217 63.875"><defs><style>.a{fill:#324b74;}</style></defs><g transform="translate(-23.45 -4.5)"><path class="a" d="M61.35,4.5l.337.2a1.819,1.819,0,0,1-.809,3.5H58.991v7.681H55.218V8.273H36.555v7.614H32.781V8.206H31.164a1.882,1.882,0,0,1-.876-3.638H61.35Z" transform="translate(-1.819)"/><path class="a" d="M23.5,69.25V45.6H64.6V69.25Zm20.55-3.706a5.66,5.66,0,0,0,5.255-7.951c-1.078-2.493-2.358-4.851-3.571-7.209a1.954,1.954,0,0,0-1.684-1.078,1.752,1.752,0,0,0-1.617,1.078c-1.213,2.358-2.493,4.716-3.571,7.142a5.66,5.66,0,0,0,5.188,8.018Z" transform="translate(-0.016 -13.408)"/><path class="a" d="M42.148,23.446V19.673H40.4a1.888,1.888,0,1,1,0-3.773H47.74a1.887,1.887,0,0,1,1.954,1.819,1.954,1.954,0,0,1-1.954,1.887H45.921v3.773h.674c3.3,0,6.6-.067,9.9,0A8.085,8.085,0,0,1,64.584,32h-41.1a7.209,7.209,0,0,1,.4-3.167,8.085,8.085,0,0,1,7.681-5.458c3.234-.067,6.536,0,9.837,0Z" transform="translate(0 -3.718)"/><path class="a" d="M23.491,86.4H64.659a8.153,8.153,0,0,1-1.819,5.66,7.951,7.951,0,0,1-6.334,3.032H31.577A8.153,8.153,0,0,1,23.491,86.4Z" transform="translate(-0.008 -26.717)"/><path class="a" d="M53.04,60.1c.674,1.415,1.348,2.56,1.887,3.841a1.819,1.819,0,0,1-.741,2.223,1.954,1.954,0,0,1-2.358-.067,1.887,1.887,0,0,1-.606-2.291Z" transform="translate(-9.006 -18.138)"/></g></svg>