<svg xmlns="http://www.w3.org/2000/svg" width="40.032" height="64.738" viewBox="0 0 40.032 64.738"><defs><style>.a{fill:#324b74;}</style></defs><g transform="translate(-325.014 -196)"><path class="a" d="M448.748,196a11.469,11.469,0,0,1,3.624,1.37,9.249,9.249,0,0,1,3.961,9.56,8.921,8.921,0,0,1-7.176,7.1,8.809,8.809,0,0,1-9.989-6.967,9.115,9.115,0,0,1,5.809-10.581c.568-.2,1.165-.321,1.747-.478Z" transform="translate(-102.077)"/><path class="a" d="M363.09,437.047H327.848l4.971-15.162c-1.245-.735-2.472-1.386-3.62-2.158a30.61,30.61,0,0,1-2.718-2.152,4.534,4.534,0,0,1-1.394-4.415,79.29,79.29,0,0,1,2.41-10.77c.343-1.236.736-2.459,1.062-3.7a7.448,7.448,0,0,1,5.791-5.477,13.537,13.537,0,0,1,3.311-.391c4.552-.046,9.1-.025,13.656-.031a11.826,11.826,0,0,1,7.225,2.05,7.225,7.225,0,0,1,2.929,4.068c1.064,4.112,2.167,8.214,3.192,12.337a21.581,21.581,0,0,1,.366,3.067,3.642,3.642,0,0,1-1.07,2.867A17.539,17.539,0,0,1,359,420.833c-.622.333-.722.641-.51,1.313,1.51,4.774,2.969,9.563,4.444,14.347C362.985,436.653,363.025,436.814,363.09,437.047Zm-5.473-24.962c-.015-.1-.028-.2-.043-.3-3.373-1.227-6.74-2.476-10.123-3.673a4.937,4.937,0,0,0-4.241.571c-.132.076-.275.133-.425.205-.7-3.446-2.947-5.251-5.871-4.756a5.03,5.03,0,0,0-4.087,5.641,5,5,0,0,0,6.9,3.991,3.022,3.022,0,0,0,2.632,2.539,15.273,15.273,0,0,0,12.41-1.96C355.781,413.684,356.671,412.842,357.617,412.086Z" transform="translate(0 -176.31)"/></g></svg>