<svg xmlns="http://www.w3.org/2000/svg" width="56.168" height="75.128" viewBox="0 0 56.168 75.128"><defs><style>.a{fill:#324b74;}</style></defs><g transform="translate(-14.286 0.004)"><path class="a" d="M24.353,75.124l-.225-.15A3.527,3.527,0,0,1,21.5,71.221V20.938a1.051,1.051,0,0,0-1.276.976V43.453a3,3,0,0,1-3.978,2.927,2.852,2.852,0,0,1-1.876-2.627,14.485,14.485,0,0,1-.075-1.8V22.289a6.98,6.98,0,0,1,7.2-7.355h3.527c.6,2.477,1.051,5.1,2.777,7.055.075-1.051.225-2.026.3-3s.3-.675.75-.6h.675c.525-.075.826.15.9.75l.225,2.7c.826-.375,1.2-1.276,2.852-6.83,3.677-.375,7.13.075,9.681,3.3a13.059,13.059,0,0,1,.826,1.351l3.828,7.805c.075.225.225.375.45.826.225-1.726.525-3.3.826-5.1l-.976.6c-.9-1.876-1.726-3.677-2.627-5.479v-.375c.3-3.3.525-6.6.976-9.832A9.456,9.456,0,0,1,56.1,0,9.306,9.306,0,0,1,65.255,8.4c.45,4.2.75,8.406,1.051,12.608a8.555,8.555,0,0,0,.45,1.876L70.209,32.8a2.852,2.852,0,0,1-2.176,3.978L57.3,39.175A2.777,2.777,0,0,1,53.773,37a2.852,2.852,0,0,1,2.4-3.377L63.83,31.9l-1.5-4.278h-.075v2.477c.075.45-.075.675-.525.751l-3.677.826c.6-1.651,1.126-3.077,1.576-4.578s.15-1.426-.976-1.426H53.022c-1.051,0-1.351.375-.976,1.426s1.2,3.452,1.876,5.178a.751.751,0,0,1-.3.976,4.278,4.278,0,0,0-.9,5.1,4.2,4.2,0,0,0,4.728,2.327L64.43,39.1l.75-.15c.15,1.2.375,2.327.525,3.452.751,4.728,1.5,9.531,2.327,14.259.225,1.426-.375,2.176-1.876,2.176H63.379v.826c0,3.677-.075,7.355.075,11.107,0,2.1-.675,3.527-2.7,4.278h-1.5c-2.026-.751-2.7-2.252-2.7-4.428.15-3.677.075-7.355.075-11.032v-.75h-1.5V70.846c0,2.552-.525,3.377-2.777,4.278H51.071c-2.1-.675-2.852-2.176-2.777-4.278.075-3.677,0-7.355,0-11.107v-.9H45.517c-1.351,0-2.026-.675-1.8-2.026s.3-2.026.45-3L46.193,41.2c.075-.225.3-.525.45-.525a4.278,4.278,0,0,0,3.527-3.227,4.212,4.212,0,0,0-1.5-4.578c-1.426-1.276-3.452-3.3-5.253-4.8a22.815,22.815,0,0,1-5.629-6.679c-.075-.225-.3-.375-.45-.525a22.739,22.739,0,0,0-.075,3.9,1.951,1.951,0,0,1-.6,1.5,7.43,7.43,0,0,0-1.651,2.777c0,.225-.3.525-.6.675s-1.2.375-1.8.675a4.8,4.8,0,0,0-2.477,5.929,4.653,4.653,0,0,0,5.7,2.852l1.426-.45v32.5a3.6,3.6,0,0,1-2.627,3.753l-.15.15h-1.5c-2.176-.751-2.852-2.327-2.852-4.5.075-8.781,0-17.637,0-26.418v-.9h-1.5V71.071a8.255,8.255,0,0,1-.15,1.351,3.784,3.784,0,0,1-2.7,2.7ZM63.83,18.386v-.6c-.3-3.077-.45-6.154-.751-9.231a7.28,7.28,0,0,0-14.41-.075c-.225,1.951-.375,3.978-.6,6s-.15,2.026-.225,2.927l3.677-.225h6.83C60.227,17.185,62.1,17.035,63.83,18.386Zm-8.556.3c-.45.225-1.051.375-1.351.826a3,3,0,0,0-.15,1.426c0,.375,1.2,1.276,1.576,1.126a2.4,2.4,0,0,0,1.276-.75c.3-.3.225-.9.225-1.426S55.724,18.686,55.274,18.686ZM59.4,22.814a1.576,1.576,0,0,0-2.777-.6,3.6,3.6,0,0,0-.3,1.351c-.075.375.826,1.276,1.426,1.2a1.876,1.876,0,0,0,1.351-.6A3.6,3.6,0,0,0,59.4,22.814Zm-6.079-.675c-.375,0-1.276.9-1.2,1.426a2.777,2.777,0,0,0,.6,1.351,3,3,0,0,0,1.426.225c.3.075,1.351-1.051,1.2-1.426a2.326,2.326,0,0,0-.675-1.351C54.373,22.139,53.773,22.214,53.323,22.139Z" transform="translate(0 0)"/><path class="a" d="M26.2,6.979A6.154,6.154,0,0,1,32.429.9a6.154,6.154,0,0,1-.15,12.233A6.079,6.079,0,0,1,26.2,6.979Z" transform="translate(-2.972 -0.225)"/><path class="a" d="M33.7,22.827c-1.126,0-1.126,0-1.351-1.126s-.525-1.8,1.576-1.8,1.5,0,1.2,1.5a.826.826,0,0,1-.075.375C34.9,22.827,34.9,22.827,33.7,22.827Z" transform="translate(-4.467 -4.966)"/><path class="a" d="M46.258,34.5l7.43,6.83,1.726,1.576a2.852,2.852,0,0,1-3.9,4.128c-2.327-2.176-4.578-4.278-6.83-6.529a2.7,2.7,0,0,1-.3-3.828Z" transform="translate(-7.345 -8.609)"/><path class="a" d="M40.91,41.7c.9,2.026,2.852,3.152,4.278,4.8a33.7,33.7,0,0,1-4.428,1.426,2.777,2.777,0,0,1-3.3-2.026,2.927,2.927,0,0,1,1.8-3.6Z" transform="translate(-5.75 -10.405)"/><path class="a" d="M67.754,16.469A5.779,5.779,0,0,1,61.9,10.615a5.854,5.854,0,0,1,5.779-5.929,5.929,5.929,0,1,1,.075,11.783Z" transform="translate(-11.879 -1.16)"/><path class="a" d="M69.441,27.046c-.3.15-.45.45-.6.375a1.99,1.99,0,0,1-.45-.375c-.15-.15.3-.375.45-.45S69.14,26.821,69.441,27.046Z" transform="translate(-13.491 -6.634)"/><path class="a" d="M72.742,30.85c-.225.15-.45.375-.6.3a1.99,1.99,0,0,1-.45-.375c-.15-.15.375-.375.525-.375S72.517,30.625,72.742,30.85Z" transform="translate(-14.316 -7.586)"/><path class="a" d="M67.266,31.375c-.225.225-.375.45-.525.375a1.99,1.99,0,0,1-.45-.375c-.15-.15.3-.375.45-.375S67.04,31.15,67.266,31.375Z" transform="translate(-12.967 -7.736)"/></g></svg>