<svg xmlns="http://www.w3.org/2000/svg" xmlns:xlink="http://www.w3.org/1999/xlink" width="56.099" height="56.099" viewBox="0 0 56.099 56.099"><defs><style>.a{fill:#fff;stroke:#ca0027;}.b{clip-path:url(#a);}.c{fill:#525252;}.d{fill:#3f3f3f;}.e{fill:#fac7b7;}.f{fill:#ce93d8;}.g{fill:#ffdecf;}.h{fill:#262626;}.i{fill:#ffd3c2;}.j{fill:#c087cc;}.k{fill:#848484;}.l{fill:#e2b9ea;}.m{fill:#fff5f2;}.n{fill:#ba68c8;}</style><clipPath id="a"><circle class="a" cx="28.05" cy="28.05" r="28.05" transform="translate(0 0)"/></clipPath></defs><g class="b" transform="translate(0 0)"><g transform="translate(10.095 7.95)"><g transform="translate(0 0)"><path class="c" d="M39.5,29.923H17.053a3.745,3.745,0,0,1-3.74-3.74V14.962a14.962,14.962,0,0,1,29.923,0V26.183A3.745,3.745,0,0,1,39.5,29.923Z" transform="translate(-10.32)"/><path class="d" d="M40.239,8.881c0,.123,0,.246,0,.37A20.583,20.583,0,0,1,13.313,28.82v.255a3.745,3.745,0,0,0,3.74,3.74H39.5a3.745,3.745,0,0,0,3.74-3.74V17.854a14.884,14.884,0,0,0-3-8.973Z" transform="translate(-10.32 -2.892)"/><path class="e" d="M32.61,52.726,32.3,52.59a17.262,17.262,0,0,1-2.751-1.611c-1.943-1.406-2.928-2.856-2.928-4.309V44.158l1.5-.333V39.937H37.1v3.888l1.5.333V46.67c0,1.453-.985,2.9-2.928,4.309a17.262,17.262,0,0,1-2.751,1.61Z" transform="translate(-14.656 -13.007)"/><path class="e" d="M8.875,66.563h7.481v2.992H8.875Z" transform="translate(-8.875 -21.678)"/><path class="e" d="M51.031,66.563h7.481v2.992H51.031Z" transform="translate(-22.604 -21.678)"/><path class="f" d="M38.8,62.762H14.86V60.517H8.875V54.1a6.733,6.733,0,0,1,5.272-6.572L22.34,45.7v2.844c0,1.822,3.053,3.7,4.489,4.41,1.49-.73,4.488-2.577,4.488-4.41V45.7l8.193,1.821A6.733,6.733,0,0,1,44.783,54.1v6.42H38.8Z" transform="translate(-8.875 -14.885)"/><path class="g" d="M31.164,35.317a8.987,8.987,0,0,1-8.977-8.977V18.859H40.141V26.34A8.987,8.987,0,0,1,31.164,35.317Z" transform="translate(-13.211 -6.142)"/><path class="h" d="M39.419,17.8H21.465a1.5,1.5,0,0,1-1.5-1.5V14.061a.748.748,0,1,1,1.5,0V16.3H39.419V14.061a.748.748,0,1,1,1.5,0V16.3A1.5,1.5,0,0,1,39.419,17.8Z" transform="translate(-12.488 -4.336)"/><path class="i" d="M27.82,32.248a13.444,13.444,0,0,1-4.416-.742,8.976,8.976,0,0,0,17.134-3.747V23.216A13.47,13.47,0,0,1,27.82,32.248Z" transform="translate(-13.607 -7.561)"/><path class="j" d="M17.75,70.95h2.229c-.752,0-1.495-.036-2.229-.1Z" transform="translate(-11.765 -23.073)"/><path class="j" d="M47.269,50.753a6.756,6.756,0,0,0-3.791-2.36l-.1-.021A23.962,23.962,0,0,1,21.055,63.631h21.71V61.386H48.75v-6.42A6.756,6.756,0,0,0,47.269,50.753Z" transform="translate(-12.842 -15.754)"/><circle class="k" cx="1.496" cy="1.496" r="1.496" transform="translate(11.221 2.992)"/><circle class="k" cx="1.122" cy="1.122" r="1.122" transform="translate(15.336 4.863)"/><circle class="l" cx="1.496" cy="1.496" r="1.496" transform="translate(2.618 34.786)"/><circle class="l" cx="1.122" cy="1.122" r="1.122" transform="translate(6.733 36.656)"/><circle class="m" cx="1.496" cy="1.496" r="1.496" transform="translate(10.473 14.962)"/><circle class="m" cx="1.122" cy="1.122" r="1.122" transform="translate(14.588 16.832)"/><g transform="translate(5.985 39.649)"><path class="n" d="M35.139,60.293a.7.7,0,0,1-.146-.015.739.739,0,0,1-.14-.042.747.747,0,0,1-.129-.069.726.726,0,0,1-.114-.093.777.777,0,0,1-.093-.114.751.751,0,0,1-.069-.129.74.74,0,0,1-.042-.14.719.719,0,0,1,0-.292.74.74,0,0,1,.042-.14.751.751,0,0,1,.069-.129.777.777,0,0,1,.093-.114.726.726,0,0,1,.114-.093.746.746,0,0,1,.129-.069.738.738,0,0,1,.14-.042.755.755,0,0,1,.432.042.74.74,0,0,1,.129.069.722.722,0,0,1,.114.093.783.783,0,0,1,.092.114.751.751,0,0,1,.069.129.734.734,0,0,1,.042.14.719.719,0,0,1,0,.292.734.734,0,0,1-.042.14.751.751,0,0,1-.069.129.783.783,0,0,1-.092.114.761.761,0,0,1-.383.2.7.7,0,0,1-.146.015Z" transform="translate(-23.169 -58.798)"/><path class="n" d="M35.139,64.731a.7.7,0,0,1-.146-.015.738.738,0,0,1-.14-.042.747.747,0,0,1-.129-.069.727.727,0,0,1-.114-.093.777.777,0,0,1-.093-.114.751.751,0,0,1-.069-.129.741.741,0,0,1-.042-.14.719.719,0,0,1,0-.292.74.74,0,0,1,.042-.14.751.751,0,0,1,.069-.129.71.71,0,0,1,.207-.207.746.746,0,0,1,.129-.069.738.738,0,0,1,.14-.042.755.755,0,0,1,.432.042.74.74,0,0,1,.129.069.779.779,0,0,1,.114.093.753.753,0,0,1,.219.529.7.7,0,0,1-.015.146.735.735,0,0,1-.042.14.752.752,0,0,1-.069.129.783.783,0,0,1-.092.114.761.761,0,0,1-.383.2.7.7,0,0,1-.146.015Z" transform="translate(-23.169 -60.243)"/><path class="n" d="M51.779,67.748A.748.748,0,0,1,51.031,67V61.764a.748.748,0,0,1,1.5,0V67A.748.748,0,0,1,51.779,67.748Z" transform="translate(-28.589 -59.52)"/><path class="n" d="M18.5,67.748A.748.748,0,0,1,17.75,67V61.764a.748.748,0,0,1,1.5,0V67A.748.748,0,0,1,18.5,67.748Z" transform="translate(-17.75 -59.52)"/></g></g></g></g></svg>