<svg xmlns="http://www.w3.org/2000/svg" width="27.782" height="27.83" viewBox="0 0 27.782 27.83"><defs><style>.a{fill:#ca0027;}</style></defs><g transform="translate(-79.5 -22.8)"><path class="a" d="M106.685,22.826a1.044,1.044,0,0,1,.6,1.09V41.884c0,.727-.286,1.013-1.013,1.013h-7.5a5.85,5.85,0,0,0,.156-3.271h4.18a.826.826,0,0,0,.935-.935V26.98a.826.826,0,0,0-.935-.935H83.68a.826.826,0,0,0-.935.935V38.69a.826.826,0,0,0,.935.935h4.154A6.444,6.444,0,0,0,87.99,42.9h-7.4a1.044,1.044,0,0,1-1.09-.6V23.4a1.329,1.329,0,0,1,.6-.6Q93.378,22.839,106.685,22.826Z"/><path class="a" d="M116.293,52.082h-4a.439.439,0,0,1-.26-.182,5.7,5.7,0,0,0-9.425-.026.459.459,0,0,1-.441.234H98.3V41.8h17.993Q116.293,46.9,116.293,52.082Zm-9.036-3.791h4.31a.814.814,0,0,0,.883-.8.834.834,0,0,0-.883-.831h-8.516a.817.817,0,0,0-.831.467A.809.809,0,0,0,103,48.265C104.428,48.291,105.856,48.291,107.258,48.291Zm.026-3.271h2.648a.819.819,0,1,0,.026-1.636h-5.3a.827.827,0,0,0-.909.831c0,.493.364.8.935.8Z" transform="translate(-13.919 -14.067)"/><path class="a" d="M121.376,77.2a4.063,4.063,0,1,1-4.076,4.05A4.061,4.061,0,0,1,121.376,77.2Z" transform="translate(-27.985 -40.275)"/><path class="a" d="M121.4,111.7a5.742,5.742,0,0,0,5.972,0v3.817a.83.83,0,0,1-1.272.8c-.519-.26-1.013-.519-1.532-.753a.444.444,0,0,0-.363,0c-.519.234-1.013.493-1.532.753a.819.819,0,0,1-1.272-.779V111.7Z" transform="translate(-31.021 -65.818)"/></g></svg>