<svg xmlns="http://www.w3.org/2000/svg" width="51.972" height="53.155" viewBox="0 0 51.972 53.155"><defs><style>.a{fill:#324b74;}</style></defs><g transform="translate(-0.879 -0.3)"><path class="a" d="M13.947,61.1c2.943,3.906,5.833,7.6,8.722,11.4l.428-.482a119.688,119.688,0,0,0,8.027-10.6.428.428,0,0,1,.589-.161A35.851,35.851,0,0,1,42.2,67.254a6.207,6.207,0,0,1,2.354,5.137c-.054.963-.054,1.926-.054,2.89a1.659,1.659,0,0,1-.963,1.391,23.972,23.972,0,0,1-7.17,3.211,50.514,50.514,0,0,1-16.214,1.766A44.083,44.083,0,0,1,6.241,78.865a39.6,39.6,0,0,1-4.495-2.3A1.552,1.552,0,0,1,1,75.12c0-.749-.054-1.552-.107-2.3a6.849,6.849,0,0,1,2.676-5.833,34.408,34.408,0,0,1,6.9-4.281Z" transform="translate(0 -28.266)"/><path class="a" d="M34.821,30.854l1.07-1.5a15.571,15.571,0,0,0,2.194-13.163,8.24,8.24,0,0,0-.589-1.605.589.589,0,0,0-.91-.375c-3.746,2.3-8.027,2.729-12.093,3.746-1.338.321-1.98.91-1.926,2.354A15.985,15.985,0,0,0,26.206,30.48l.321.428-.642-.107A14.654,14.654,0,0,1,17,25.4a2.3,2.3,0,0,1-.161-3.1,26.862,26.862,0,0,0,3.532-8.241,11.344,11.344,0,0,1,3-5.565.642.642,0,0,0,.107-.535c-.214-1.819-.482-3.692-.7-5.565A1.712,1.712,0,0,1,24.654.354q5.94-.107,11.879,0a1.723,1.723,0,0,1,1.819,2.14l-.642,5.03a.7.7,0,0,0,.161.428A11.375,11.375,0,0,1,41.884,15.6a16.214,16.214,0,0,0,2.676,7.17,1.605,1.605,0,0,1,0,1.98,13.67,13.67,0,0,1-8.455,5.833ZM31.61,4.26V3.4c0-1.552,0-1.552-1.605-1.552-.375,0-.535.107-.482.535V4.26h-2.3V6.293h2.354v2.3H31.61V6.24h2.3V4.26Z" transform="translate(-7.176 0)"/><path class="a" d="M80.591,23.817A39.116,39.116,0,0,0,80.27,12.1l-1.819.268H77.113a2.194,2.194,0,0,1-2.14-1.873c-.428-1.873-.856-3.746-1.231-5.619a1.873,1.873,0,0,1,.91-2.14c2.836-1.552,5.083-1.605,7.224.642A14.822,14.822,0,0,1,85.086,9.1a28.146,28.146,0,0,1,1.231,13.966,20.708,20.708,0,0,1-2.836,8.241,9.792,9.792,0,0,1-1.712,1.926A4.227,4.227,0,0,1,77.7,34.251a13.538,13.538,0,0,1-1.926-.642A2.087,2.087,0,0,1,74.437,31.2c.268-1.819.589-3.639.856-5.458s1.391-2.247,2.943-2.14Z" transform="translate(-33.843 -0.614)"/><path class="a" d="M37.137,71.77,32,64.6a20.066,20.066,0,0,0,10.381.053Z" transform="translate(-14.468 -29.893)"/></g></svg>