<svg xmlns="http://www.w3.org/2000/svg" width="62.804" height="56.716" viewBox="0 0 62.804 56.716"><defs><style>.a{fill:#324b74;}</style></defs><g transform="translate(-215.068 -232.509)"><path class="a" d="M277.872,252.3a24.388,24.388,0,0,1-.74,3.455c-.6,1.66-1.41,3.244-2.123,4.865-.147.336-.392.4-.731.394q-7.205-.014-14.41,0a.772.772,0,0,1-.8-.477q-2.966-5.566-5.974-11.111a1.793,1.793,0,0,0-2.483-.98,2.727,2.727,0,0,0-1.029,1.145c-2.332,4.856-4.627,9.731-6.933,14.6-.1.214-.22.421-.369.7-.353-.549-.66-1.024-.964-1.5q-1.975-3.1-3.949-6.2a1.862,1.862,0,0,0-3.416.035c-.678,1.117-1.356,2.235-2.014,3.364a.726.726,0,0,1-.716.424q-6.285-.021-12.57,0a.828.828,0,0,1-.808-.489,18.183,18.183,0,0,1,8.04-26.235c6.9-3.183,13.363-1.969,19.351,2.472.408.3.8.633,1.14.909,1.336-.9,2.584-1.865,3.941-2.638,11.8-6.727,24.918,1.141,27.2,12.4.137.678.24,1.362.36,2.043Z" transform="translate(0 0)"/><path class="a" d="M271.94,447.878h.762c3.514,0,7.029-.014,10.543.01a2.129,2.129,0,0,0,2.06-1.152c.386-.691.812-1.358,1.256-2.1l4.154,6.524c.34.534.685,1.065,1.017,1.6a1.835,1.835,0,0,0,1.772.986,1.881,1.881,0,0,0,1.625-1.217q3.411-7.223,6.839-14.436c.1-.2.194-.4.337-.7.141.24.253.416.352.6,1.539,2.857,3.092,5.706,4.605,8.575a2.235,2.235,0,0,0,2.206,1.316c4.128-.03,8.256-.012,12.382-.012h.784c-.166.2-.262.34-.379.457q-11.729,11.678-23.464,23.349a1.884,1.884,0,0,1-2.992-.019q-11.713-11.651-23.422-23.3C272.255,448.238,272.143,448.1,271.94,447.878Z" transform="translate(-50.848 -183.189)"/></g></svg>