<svg xmlns="http://www.w3.org/2000/svg" width="81.948" height="74" viewBox="0 0 81.948 74">
  <g id="Group_969" data-name="Group 969" transform="translate(7574 9762)">
    <g id="Group_968" data-name="Group 968" transform="translate(-7574 -9762)">
      <path id="Path_898" data-name="Path 898" d="M429,79.558a7.074,7.074,0,1,1-9.018,4.333A7.074,7.074,0,0,1,429,79.558" transform="translate(-384.219 -68.697)" fill="#324b74"/>
      <path id="Path_899" data-name="Path 899" d="M370.454,220.641c.352.034.681.061.987.074a3.612,3.612,0,0,0,.709.071c2.8-.01,5.039.6,6.345,1.683a5.489,5.489,0,0,1,1.645,2.262,11.714,11.714,0,0,1,.74,4.481,29.936,29.936,0,0,1-.783,6.329,3.617,3.617,0,1,0,7.067,1.549,37.061,37.061,0,0,0,.95-7.877,18.862,18.862,0,0,0-1.287-7.242,12.746,12.746,0,0,0-3.33-4.734,3.144,3.144,0,0,1-4.233.012A31.728,31.728,0,0,1,376,213.853q-.519-.086-1.04-.145.049-.517.117-1.036a21.186,21.186,0,0,1-4.52-12.6,13.152,13.152,0,0,1,.486-3.766,3.145,3.145,0,0,1,6,1.882l-.006.025c-.017.068-.042.181-.07.338a8.92,8.92,0,0,0-.122,1.527,13.025,13.025,0,0,0,.486,3.345c.326-1.034.644-2.015.923-2.912,1.237-3.013.469-6.866-2.127-7.822s-6.623.071-8.7,4.477a34.741,34.741,0,0,0-3.67,17.164c.428,5.14,3.821,6.033,6.691,6.309Z" transform="translate(-335.772 -166.944)" fill="#324b74"/>
      <path id="Path_900" data-name="Path 900" d="M425.1,214.121c.031-.178.061-.306.078-.376.008-.035.014-.057.017-.062h0a2.516,2.516,0,0,0-4.8-1.507,12.443,12.443,0,0,0-.457,3.582,20.27,20.27,0,0,0,4.021,11.7,27.939,27.939,0,0,0,1.777,2.258,32.059,32.059,0,0,0,2.7,2.738,2.512,2.512,0,0,0,3.327.043,2.732,2.732,0,0,0,.227-.218,2.516,2.516,0,0,0-.174-3.553,21.2,21.2,0,0,1-6.063-8.564,13.713,13.713,0,0,1-.785-4.405,9.623,9.623,0,0,1,.132-1.636Z" transform="translate(-384.521 -182.62)" fill="#324b74"/>
      <path id="Path_901" data-name="Path 901" d="M155.343,155.093l.859,25.692a3.931,3.931,0,0,0,3.926,3.8l.134,0a3.93,3.93,0,0,0,3.8-4.06l-.911-27.234a13.175,13.175,0,0,0,.11-1.932,37.5,37.5,0,0,1,1.34-11.34,21.241,21.241,0,0,1-2.515-1.646,12.576,12.576,0,0,1-4.005-4.616,3.146,3.146,0,0,1,2.89-4.384,3.153,3.153,0,0,1,2.859,1.836l.012.019a3.807,3.807,0,0,0,.27.4,9.443,9.443,0,0,0,1.8,1.752c.084.065.176.131.267.2.26-2.619-.788-5.259-2.939-5.92-2.644-.812-6.609.434-8.438,4.946a34.741,34.741,0,0,0-2.724,17.338c.406,2.913,1.7,4.394,3.269,5.151Z" transform="translate(-151.951 -110.587)" fill="#324b74"/>
      <path id="Path_902" data-name="Path 902" d="M342.531,438.473h3.156l-1.3-15.174v-2.646h-14.2V423.3l-1.3,15.17h3.156l.605-7.076h9.278Zm-9.766-8.438.534-6.237h7.976l.534,6.237Z" transform="translate(-305.506 -365.068)" fill="#324b74"/>
      <path id="Path_903" data-name="Path 903" d="M224.577,28.316l.009.013a21.865,21.865,0,0,0-5.767-6.166.625.625,0,0,0-.024-.072,45.234,45.234,0,0,1-2.876-8.819,7.075,7.075,0,0,0,1.571-6.933,3.354,3.354,0,1,0-4.478-4.585,7.056,7.056,0,0,0-5.6.458l5.244.6c-.008.052-.02.1-.026.155a3.343,3.343,0,0,0,.061,1.115l-6.8-.783a7.074,7.074,0,0,0,4.294,12.2,24.993,24.993,0,0,0,6.469,6.622,27.8,27.8,0,0,1,5.472,4.881c.132.021.258.044.392.065a3.125,3.125,0,0,1,2.061,1.243ZM213.363,3.1c.008-.066.02-.13.033-.195a2.464,2.464,0,1,1-.033.195Zm-1.681,12.367a7.106,7.106,0,0,0,3.158-1.247,46.55,46.55,0,0,0,2.022,6.508,23.733,23.733,0,0,1-5.181-5.261Z" transform="translate(-196.831 -0.001)" fill="#324b74"/>
      <path id="Path_904" data-name="Path 904" d="M357.485,213.019a3.111,3.111,0,0,1-1.379,2.694,1.8,1.8,0,0,0,.893.683c1.153.388,3.006-5.127,1.853-5.515a2.036,2.036,0,0,0-1.928.448,3.132,3.132,0,0,1,.561,1.69Z" transform="translate(-329.129 -182.939)" fill="#324b74"/>
      <path id="Path_905" data-name="Path 905" d="M206.3,148.935a4.637,4.637,0,0,1-.315-.468l-.037-.069a2.516,2.516,0,0,0-4.6,2.044,12.055,12.055,0,0,0,3.808,4.36,20.621,20.621,0,0,0,2.288,1.513,34.276,34.276,0,0,0,12.035,3.868,2.515,2.515,0,0,0,1.041-4.912,2.53,2.53,0,0,0-.29-.063c-5.872-.892-9.39-2.565-11.469-4.007-.193-.133-.377-.266-.546-.394a10,10,0,0,1-1.919-1.873Z" transform="translate(-194.646 -127.515)" fill="#324b74"/>
    </g>
    <g id="Group_967" data-name="Group 967" transform="translate(-7520.219 -9762)">
      <path id="Path_944" data-name="Path 944" d="M303.237,59.778a6.572,6.572,0,1,0,9.767,0,29.856,29.856,0,0,0-9.767,0Z" transform="translate(-293.868 -51.529)" fill="#324b74"/>
      <path id="Path_945" data-name="Path 945" d="M284.929,301.005l.509,3.959-5.939.763-1.1.141-2.933.377-.431-3.354c-1.038-.443-2.009-.9-2.9-1.376a26.856,26.856,0,0,1-2.576-1.543l-1.624,14.477h3.895V330.5a3.286,3.286,0,0,0,6.573,0V314.45h1.1V330.5a3.286,3.286,0,1,0,6.572,0V314.45h3.895l-1.7-15.106a24.863,24.863,0,0,1-2.929,1.487c-.137.059-.275.117-.413.174Z" transform="translate(-264.697 -259.787)" fill="#324b74"/>
      <path id="Path_946" data-name="Path 946" d="M296.024,7.466a31.427,31.427,0,0,1,8.091,0,16.3,16.3,0,0,1,1.806.331l1.95-5.014a12.309,12.309,0,0,0-15.6,0l1.95,5.014a15.926,15.926,0,0,1,1.8-.331Z" transform="translate(-285.818 0.003)" fill="#324b74"/>
      <path id="Path_947" data-name="Path 947" d="M248.368,172.115v0c.237.168.488.336.746.5.122.079.245.158.372.237l.142.088c.489.3,1.014.6,1.568.888.407.215.828.428,1.27.639l.083.039q.337.159.687.316l.159.072.272.118c.182.079.361.159.548.237a2.131,2.131,0,0,0,2.624-.82,2.106,2.106,0,0,0,.172-.324,2.136,2.136,0,0,0-1.144-2.8c-1.075-.45-2.021-.9-2.848-1.346a15.2,15.2,0,0,1-3.885-2.8c-.037-.04-.075-.083-.113-.126l-.074-.085v0a4.2,4.2,0,0,1-1.252-2.837,4.535,4.535,0,0,1,.623-2.164,9.541,9.541,0,0,1,1.4-1.889l-.67,5.967c.164.215.389.492.566.684a13.739,13.739,0,0,0,3.3,2.436l-.527-4.1,9.967-1.281.556,4.33a9.975,9.975,0,0,0,2.844-1.935c.158-.171.358-.374.5-.545l-.566-5.045a9.718,9.718,0,0,1,1.081,1.657,4.556,4.556,0,0,1,.546,2.009,3.12,3.12,0,0,1-.819,2.069v0l-.146.168c-.05.058-.1.115-.119.136A11,11,0,0,1,263,168.8c-.609.292-1.293.582-2.067.865a2.136,2.136,0,0,0-1.269,2.743,2.135,2.135,0,0,0,2.743,1.269c.4-.146.782-.3,1.159-.458h0a23.729,23.729,0,0,0,3.348-1.7l.1-.059a12.828,12.828,0,0,0,2.311-1.876,7.621,7.621,0,0,0,2.266-5.324,8.911,8.911,0,0,0-1.116-4.15,19.3,19.3,0,0,0-5.344-5.917,2.118,2.118,0,0,0-.821-.351,20.092,20.092,0,0,0-6.631-.96,19.147,19.147,0,0,0-6.958,1.082,2.144,2.144,0,0,0-.629.263,19.01,19.01,0,0,0-3.23,2.659,14.137,14.137,0,0,0-2.291,3.035,8.79,8.79,0,0,0-1.146,4.211,8.66,8.66,0,0,0,2.6,5.977,16.08,16.08,0,0,0,2.344,2.013Z" transform="translate(-243.421 -132.673)" fill="#324b74"/>
    </g>
  </g>
</svg>
