<svg xmlns="http://www.w3.org/2000/svg" width="60.876" height="81.103" viewBox="0 0 60.876 81.103">
  <g id="Layer_1-2" transform="translate(0 0)">
    <g id="Group_1020" data-name="Group 1020" transform="translate(0 0)">
      <g id="Group_1016" data-name="Group 1016" transform="translate(0 20.785)">
        <path id="Path_1031" data-name="Path 1031" d="M4.014,24.551l.154,13.2a5.784,5.784,0,0,0,.077,10.64l-.062-5.127,4.571-.046.062,5.127a5.769,5.769,0,0,0-.185-10.624l-.154-13.2A5.784,5.784,0,0,0,8.4,13.88l.062,5.127-4.571.046-.062-5.127a5.769,5.769,0,0,0,.185,10.624Z" transform="translate(0.218 -13.231)" fill="#324b74"/>
        <path id="Path_1032" data-name="Path 1032" d="M4.216,49.178a.614.614,0,0,0,.587-.062.644.644,0,0,0,.278-.525l-.046-4.509,3.32-.031L8.4,48.561a.6.6,0,0,0,.278.51.656.656,0,0,0,.587.046,6.39,6.39,0,0,0,.185-11.6l-.139-12.4a6.41,6.41,0,0,0-.463-11.613.614.614,0,0,0-.587.062.644.644,0,0,0-.278.525L8.03,18.6l-3.32.046L4.664,14.14a.6.6,0,0,0-.278-.51.656.656,0,0,0-.587-.046,6.39,6.39,0,0,0-.185,11.6l.139,12.4A6.381,6.381,0,0,0,2.208,47.835a6.592,6.592,0,0,0,2.008,1.328Zm.247-24.986a5.166,5.166,0,0,1-1-9.018l.046,4.077a.561.561,0,0,0,.185.432h0a.6.6,0,0,0,.448.17l4.571-.046a.623.623,0,0,0,.618-.633L9.281,15.1a5.151,5.151,0,0,1-.8,9.018.608.608,0,0,0-.371.571l.154,13.2a.622.622,0,0,0,.386.571,5.166,5.166,0,0,1,1,9.018L9.605,43.4a.623.623,0,0,0-.633-.618L4.4,42.832a.561.561,0,0,0-.432.185.6.6,0,0,0-.17.448l.046,4.077a5.151,5.151,0,0,1,.8-9.018.608.608,0,0,0,.371-.571l-.154-13.2a.619.619,0,0,0-.185-.432.545.545,0,0,0-.2-.124Z" transform="translate(0 -13.459)" fill="#324b74"/>
      </g>
      <path id="Path_1033" data-name="Path 1033" d="M55.845,69.642c-.587-2.872-2.069-9.682-3.274-10.748-1.112-.973-11.705-5.22-15.828-6.841a19.28,19.28,0,0,0,3.583-6.764c1.328-.957,1.621-3.876,1.652-5.791,0,0,2.1-.4,2.1-.9,0-.093-.448-3.32-.448-3.32a.884.884,0,0,0-.88-.772H40.5c-.479,0-.432-.185-.432-.4s-.046-.4.432-.4h1.93C41.5,27.253,39.492,23.114,35.508,21.4c-1.019-1.606-2.44-2.27-4.741-2.27H27.138c-2.332,0-3.505.679-4.494,2.641C19,23.222,16.529,27.531,15.68,33.708h1.977c.479,0,.432.185.432.4s.046.4-.432.4H15.371a.884.884,0,0,0-.88.772l-.432,3.212c-.031.247,2.332,1,2.332,1,.108,1.714.525,4.679,1.992,5.775a20.2,20.2,0,0,0,3.2,6.733C9.1,57.242,6.893,58.462,6.368,58.956c-1.081,1.05-2.919,7.783-3.66,10.624a.976.976,0,0,0,.154.772.9.9,0,0,0,.71.34H54.981a.89.89,0,0,0,.88-1.066h0ZM27.015,22.095c.324,1.112.834,2.872.988,3.722.108.556,1.93.556,2.023,0,.154-.834.664-2.61.988-3.722h2.394s-1,2.7-1.22,3.6c-.695,2.857-.494,2.548-.494,2.548a3.217,3.217,0,0,0-2.641-1.374,3.262,3.262,0,0,0-2.641,1.374s.17.371-.494-2.548c-.216-.927-1.22-3.6-1.22-3.6H27Zm4.864,10.362v.108a2.771,2.771,0,0,1-2.764,2.764h-.108a2.761,2.761,0,0,1-2.764-2.764v-.108a2.771,2.771,0,0,1,2.764-2.764h.108A2.771,2.771,0,0,1,31.879,32.457ZM20.143,44.486a.905.905,0,0,0-.51-.6c-.726-.324-1.282-2.811-1.374-4.988l3.258,1.652,15.211.031L40.233,38.9c.031,2.394-.324,4.664-.8,4.926a.873.873,0,0,0-.618.664c-.432,1.884-3.2,9.775-9.651,9.775-6.5,0-8.478-8.03-9-9.76h0ZM36.11,53.675c-.556,2.3-3.366,4.525-7.073,4.525-3.166,0-6.161-1.9-6.733-4.509.077-.031,1.266-.54,1.3-.571a7.844,7.844,0,0,0,5.528,2.146A9.039,9.039,0,0,0,34.8,53.134c.062.046.927.386,1.3.54h0Zm9.235,15.689H13.225V63.913h2.486a.514.514,0,0,0,.51-.51V56.269q1.552-.672,3.475-1.482V63.4a.514.514,0,0,0,.51.51H38.581a.514.514,0,0,0,.51-.51v-8.54c1.189.479,2.363.957,3.475,1.405V63.4a.514.514,0,0,0,.51.51h2.27v5.451Z" transform="translate(1.462 10.411)" fill="#324b74"/>
      <g id="Group_1019" data-name="Group 1019" transform="translate(40.766 21.558)">
        <g id="Group_1017" data-name="Group 1017">
          <path id="Path_1034" data-name="Path 1034" d="M45.629,14.375v6.27H42.509a2.18,2.18,0,0,0-3.135,0H34.14s-1.575-2.594-4.185.031H26.82s.51-5.745,5.2-6.285l7.32-.031s1.591,2.61,4.185,0h2.085Z" transform="translate(-26.169 -13.742)" fill="#324b74"/>
          <path id="Path_1035" data-name="Path 1035" d="M45.874,21.527H42.739a.713.713,0,0,1-.463-.17,2.221,2.221,0,0,0-.757-.448,1.4,1.4,0,0,0-1.452.448.745.745,0,0,1-.463.2H34.369a.576.576,0,0,1-.556-.293,1.91,1.91,0,0,0-1.235-.834,2.52,2.52,0,0,0-1.93.973.745.745,0,0,1-.463.2H27.049a.619.619,0,0,1-.479-.2.67.67,0,0,1-.17-.494,9.955,9.955,0,0,1,.9-3.166,6.062,6.062,0,0,1,4.88-3.722h.077l7.32-.031a.617.617,0,0,1,.556.309,1.91,1.91,0,0,0,1.235.834,2.541,2.541,0,0,0,1.93-.973.669.669,0,0,1,.463-.2h2.085a.666.666,0,0,1,.664.649v6.27a.6.6,0,0,1-.232.51.6.6,0,0,1-.4.139Zm-1.853-6.27a3.545,3.545,0,0,1-2.826,1.158,3.018,3.018,0,0,1-1.961-1.143H32.284a4.827,4.827,0,0,0-3.8,2.965,8.69,8.69,0,0,0-.679,2.038h2.1a3.545,3.545,0,0,1,2.826-1.158,3.018,3.018,0,0,1,1.946,1.143h4.648a2.6,2.6,0,0,1,2.625-.571,3.576,3.576,0,0,1,1.019.556H45.21l-.015-4.972H44.021Z" transform="translate(-26.398 -13.96)" fill="#324b74"/>
        </g>
        <g id="Group_1018" data-name="Group 1018" transform="translate(7.322 8.385)">
          <path id="Path_1036" data-name="Path 1036" d="M36.795,19.81H31.56l.077,24.075s3.15,3.135,5.745-.54l-.6-23.534Z" transform="translate(-30.911 -19.161)" fill="#324b74"/>
          <path id="Path_1037" data-name="Path 1037" d="M35.016,46a5.055,5.055,0,0,1-3.6-1.421.745.745,0,0,1-.2-.463L31.14,20.054a.676.676,0,0,1,.649-.664h5.235a.64.64,0,0,1,.664.618l.6,23.534a.765.765,0,0,1-.124.4,5.988,5.988,0,0,1-1.112,1.2A3.769,3.769,0,0,1,35.016,46Zm1.374-25.31H32.453L32.53,43.8a3.533,3.533,0,0,0,2.378.88,2.947,2.947,0,0,0,2.054-1.328l-.587-22.669Z" transform="translate(-31.14 -19.39)" fill="#324b74"/>
        </g>
      </g>
      <path id="Path_1038" data-name="Path 1038" d="M36.246,12.632A12.679,12.679,0,1,1,23.46,0,12.71,12.71,0,0,1,36.246,12.632Z" transform="translate(5.927 0)" fill="#324b74"/>
      <path id="Path_1039" data-name="Path 1039" d="M12.414,7.882c.031.278-.062.6.355.71.232.062.17.309.139.463a1.7,1.7,0,0,0,.371,1.143c.108.17.263.263.4.185.2-.108.077-.278,0-.417a1.376,1.376,0,0,1-.371-.9c0-.093-.062-.216.077-.247.139-.046.17.077.17.17a2.214,2.214,0,0,0,.571,1.174.431.431,0,0,1,.124.309.974.974,0,0,0,1.251,1.05c.247-.062.4-.154.432.17,0,.108.124.108.2.108a1.345,1.345,0,0,1,1.066.71c.185.293.448.278.741.293.17,0,.386-.046.4.232,0,.232.154.463-.124.664a1.209,1.209,0,0,0-.2,1.76,2.853,2.853,0,0,1,.618.942c.062.2.432.293.679.417a.653.653,0,0,1,.386.71,2.591,2.591,0,0,0,0,1.035c.263.649-.139,1.421.417,2.008.062.062.046.232.031.34A2.25,2.25,0,0,0,21.2,23a.782.782,0,0,0,.71.093c.278-.062.124-.263,0-.34a.517.517,0,0,1-.232-.741c.077-.154.062-.263-.17-.293-.247-.031-.355-.17-.124-.386.093-.093.232-.216.046-.324-.494-.278-.062-.293.108-.324.664-.093.973-.6,1.313-1.081.278-.371.571-.679.371-1.22-.108-.263.062-.525.448-.51.618,0,.8-.185.88-.788a2.236,2.236,0,0,1,.51-1.5c.185-.17.355-.51-.139-.6a.11.11,0,0,1-.093-.046c-.247-.618-.8-.448-1.3-.525-.432-.062-.957-.108-.942-.8a.515.515,0,0,0-.618-.54c-.324.062-.463-.139-.618-.386-.154-.278-.309-.54-.726-.293a.544.544,0,0,1-.71-.154.683.683,0,0,0-1.081.046A.968.968,0,0,1,17.7,12.5c-.154-.077-.124-.232-.108-.34.031-.494-.031-.911-.695-.818.031-.293.34-.479.124-.8-.232.154-.463.293-.695.463a.6.6,0,0,1-.695,0,.546.546,0,0,1-.154-.664,1.4,1.4,0,0,1,1.482-1.112h.695c.108,0,.278-.046.263.139-.031.355.232.371.525.494-.232-.726.2-1.066.71-1.313.324-.154.309-.479.479-.695.463-.6,1.235-.865,1.7-1.467a.248.248,0,0,1,.17-.077c.108.015.263.17.324-.031.046-.17-.154-.077-.232-.154s-.124-.17-.031-.263a.264.264,0,0,1,.4,0c.293.309.54.17.772-.077a.226.226,0,0,1,.17.263c-.031.247.108.309.355.34-.062-.185-.386-.278-.216-.525.17-.031.324-.046.371-.263a.331.331,0,0,0-.232-.386c-.355-.154-.17-.494-.263-.741-.185-.046-.293.093-.448.154-.232.093-.355.124-.34-.216.015-.463-.432-.293-.664-.386A.347.347,0,0,0,21,4.33c0,.448,0,.834-.6.911-.093,0-.154.232-.216.371-.046.108-.124.17-.232.139-.139-.031-.108-.154-.093-.232.046-.309-.077-.448-.4-.448a.537.537,0,0,1-.556-.463c-.077-.324.232-.309.386-.417a4.283,4.283,0,0,1,.741-.4c.139-.046.293-.216.463.108.154.324.355-.093.51-.17.17-.093.51-.571.649-.587.34-.031.726-.232.988.2-.232.139-.479.278-.8.463.34.077.587.124.834.2.17.062.293.062.34-.139.046-.17.154-.185.293-.185.154,0,.293.015.355-.17.077-.232-.2-.17-.2-.247-.031-.371-.278-.479-.556-.633a1.791,1.791,0,0,0-1.7-.015,1.7,1.7,0,0,0-.865-.2q-.293.154-.124.4c.062.108.015.247-.046.247-.386,0-.664.355-1.066.278-.139-.031-.2-.077-.2-.216-.015-.17.062-.216.2-.2a.656.656,0,0,0,.6-.263c.046-.062.139-.108.046-.2-.077-.077-.139-.046-.216.015-.355.324-.633.293-.942-.093-.232-.293-.571-.2-.849-.077a3.238,3.238,0,0,0-.463.34c.062.263.695-.17.448.417a.12.12,0,0,1-.154.031c-.4,0-.71-.309-1.127-.247A10.324,10.324,0,0,1,20.676.933,11.482,11.482,0,0,1,30.513,3.3c.4.309.386.4-.077.618-.216.093-.587.247-.432.463.154.2.232.71.726.51.247-.108.2.139.232.263.046.17-.031.232-.2.216-.371-.046-.726-.077-.957.293a.175.175,0,0,1-.124.046A1.172,1.172,0,0,1,29,4.979c-.124-.278-.247-.278-.386,0a.542.542,0,0,1-.077.124c-.139.124-.386.154-.417.417.185.046.309-.124.463-.108a.159.159,0,0,1,.17.17.245.245,0,0,0,.232.293c.093.015.232.031.2.2-.309.124-.355.34-.154.587a.181.181,0,0,1,.046.247c-.046.124-.17.062-.263.062s-.2-.077-.293-.062c-.309.046-.741,0-.71.463.046.587,0,.71.664.726.371,0,.71,0,.849-.448.17-.54.757-.51,1.127-.788.046-.046.077,0,.108.062.139.263.432.34.633.525.093.077.293.108.232.263-.046.154-.247.031-.355.093.015.216.185.263.355.232A.3.3,0,0,0,31.7,7.7c0-.17.062-.309-.154-.386a2.386,2.386,0,0,1-.34-.185.381.381,0,0,1-.185-.463c.077-.124.34-.108.448,0,.232.232.618.34.571.788-.015.247.247.371.432.587a4.763,4.763,0,0,0,.139-.463c.046-.2.185-.263.371-.293,0,.51.139.9.772.834.17-.015.51.587.463.818-.062.263-.293.108-.448.139a1.062,1.062,0,0,1-.865-.263c-.278-.216-.618-.355-.788.139-.077.185-.185.124-.263.062a1.885,1.885,0,0,0-.741-.232c-.278-.062-.463-.139-.4-.479.031-.154,0-.309-.216-.278a3.182,3.182,0,0,0-1.359.216,1.275,1.275,0,0,1-.679.077c-.556,0-.834.247-.865.772a.461.461,0,0,1-.247.386l-.649.463c-.263.2-.679.386-.093.695.108.062.046.2,0,.263a1.182,1.182,0,0,0,.247,1.652c.185.185.355.386.525.587a.371.371,0,0,0,.386.154c.463-.154.988.108,1.421-.278.124-.108.355,0,.556.046.633.2,1.035.448.88,1.266-.062.309.34.726.571,1.066a.559.559,0,0,1,0,.71c-.247.386-.4.772.046,1.127a.369.369,0,0,1,.077.216,1.505,1.505,0,0,0,.371,1.282c.139.139.062.355.062.525-.015.232.046.371.386.324a11.415,11.415,0,0,1-3.922,3.135,11.638,11.638,0,0,1-16.6-8.818,11.976,11.976,0,0,1,.726-6.069.219.219,0,0,1,.031-.093c0,.031.031.062.031.077Z" transform="translate(6.256 0.365)" fill="#f7f9fa"/>
    </g>
  </g>
</svg>
