<svg width="23" height="23" viewBox="0 0 23 23" fill="none" xmlns="http://www.w3.org/2000/svg">
<g clip-path="url(#clip0_33_851)">
<path d="M20.7102 23H2.24608C2.21547 22.9847 2.18622 22.9632 2.15336 22.9555C1.20855 22.7273 0.542812 22.1725 0.178661 21.2669C0.111143 21.0989 0.0589281 20.9251 -0.000488281 20.7539C-0.000488281 20.1551 -0.000488281 19.5558 -0.000488281 18.957C0.126447 18.7508 0.226824 18.5078 0.50005 18.4611C0.734115 18.4211 0.770575 18.2967 0.770125 18.0793C0.762472 14.6302 0.764723 11.1811 0.765173 7.73195C0.765173 7.42109 0.865101 7.32406 1.17839 7.32092C1.40435 7.31867 1.52408 7.45928 1.52993 7.73375C1.53128 7.80113 1.52993 7.86852 1.52993 7.9359C1.52993 10.8464 1.52993 13.7569 1.52993 16.6674C1.52993 17.2361 1.53399 17.8043 1.53579 18.373C1.54749 18.3856 1.55919 18.3982 1.5709 18.4108C1.81036 18.4013 2.05028 18.3919 2.28974 18.382C2.39327 18.3901 2.4968 18.4049 2.60033 18.4054C8.51496 18.4067 14.4296 18.4063 20.3438 18.4063C20.4635 18.4063 20.5832 18.4027 20.703 18.4009C20.8448 18.4067 20.9861 18.4166 21.1279 18.4175C21.4695 18.4198 21.47 18.4175 21.47 18.0689C21.47 13.6396 21.47 9.20988 21.47 4.78059C21.47 4.7132 21.4718 4.64582 21.4682 4.57844C21.4322 3.90551 20.9028 3.4208 20.2569 3.46887H18.4479C18.5361 3.91584 18.3812 4.26174 18.1125 4.56631C18 4.69344 18.0256 4.79631 18.0932 4.945C18.3641 5.54111 18.6356 6.13902 18.8561 6.75445C18.9898 7.12686 18.9484 7.14213 19.3373 7.18391C19.3522 7.1857 19.3675 7.18391 19.3823 7.1857C19.8617 7.24545 20.2065 7.52801 20.2551 7.91928C20.2844 8.15512 20.3028 8.39365 20.3015 8.63129C20.3001 8.9435 20.2704 9.2557 20.261 9.56836C20.2488 9.98029 19.9909 10.3168 19.5921 10.4156C19.448 10.4511 19.3013 10.4812 19.1537 10.4933C18.9997 10.5054 18.9538 10.589 18.9052 10.7238C18.7062 11.2776 18.5352 11.8495 18.2606 12.3652C18.0571 12.7475 17.9982 13.0152 18.3079 13.3647C18.5676 13.6576 18.5334 14.1598 18.2746 14.4424C17.9064 14.844 17.5206 15.2321 17.1173 15.5987C16.8148 15.8731 16.4331 15.8767 16.0798 15.6602C15.9398 15.5744 15.8137 15.4648 15.6719 15.3821C15.6193 15.3512 15.522 15.3368 15.4752 15.3646C14.796 15.7685 14.0726 16.0609 13.3092 16.2617C13.2525 16.2765 13.19 16.3502 13.1706 16.41C13.1368 16.5142 13.1323 16.6278 13.1202 16.7383C13.0617 17.2581 12.7025 17.5972 12.1826 17.6053C11.7225 17.6125 11.2621 17.6121 10.8016 17.604C10.4379 17.5977 10.1399 17.4387 9.98462 17.1098C9.88289 16.8938 9.86128 16.6413 9.78926 16.4095C9.77081 16.3498 9.70689 16.2842 9.64838 16.2604C9.08212 16.034 8.48976 15.8601 7.95186 15.5807C7.57465 15.3844 7.31223 15.3134 6.95528 15.6207C6.59653 15.9297 6.18107 15.8817 5.83582 15.5627C5.45772 15.2128 5.08907 14.8498 4.74337 14.468C4.41568 14.1059 4.41163 13.7766 4.6736 13.3674C4.72987 13.2794 4.78568 13.1882 4.85545 13.1113C4.99004 12.9636 4.97834 12.8405 4.88786 12.6554C4.61824 12.1064 4.33466 11.5544 4.16046 10.9726C4.05513 10.6204 3.93 10.483 3.57035 10.4547C3.06936 10.4151 2.69891 9.98029 2.69486 9.50188C2.69125 9.10207 2.6899 8.70182 2.69711 8.30201C2.71016 7.5909 2.96268 7.31103 3.67343 7.17807C3.84267 7.14617 4.03623 7.15426 4.09069 6.89596C4.23338 6.21943 4.51606 5.59188 4.87166 5.00295C4.99679 4.79541 4.97248 4.66424 4.8352 4.49039C4.60698 4.20109 4.40083 3.89428 4.54397 3.46123H2.78173C2.09079 3.38576 1.55019 3.91943 1.52723 4.57574C1.51913 4.80664 1.35033 4.98318 1.14283 4.98408C0.93442 4.98543 0.768774 4.80574 0.761572 4.57215C0.734115 3.62969 1.5835 2.71732 2.53281 2.69621C3.33268 2.67824 4.133 2.68408 4.93287 2.69127C5.10572 2.69262 5.22005 2.63602 5.33979 2.51383C5.53109 2.31842 5.7431 2.14098 5.96006 1.97387C6.14551 1.83102 6.37732 1.78205 6.59158 1.86561C6.8351 1.96039 7.05386 2.11627 7.29017 2.23127C7.36264 2.26631 7.48193 2.29461 7.53819 2.25912C8.12561 1.89121 8.76208 1.6401 9.42241 1.44334C9.79737 1.33148 9.79872 1.33598 9.83968 0.942012C9.88469 0.508965 10.1746 0.159922 10.5738 0.0566016C10.645 0.0386328 10.7134 0.0188672 10.7818 0C11.2459 0 11.7104 0 12.1745 0C12.2141 0.014375 12.2523 0.0341406 12.2933 0.0422266C12.6034 0.102871 12.8852 0.225957 13.0167 0.528281C13.1004 0.720547 13.131 0.939766 13.1598 1.15045C13.1801 1.29914 13.2233 1.38404 13.3835 1.41773C14.0258 1.55295 14.6389 1.78475 15.1926 2.1293C15.5072 2.32516 15.7034 2.27215 15.9569 2.04979C16.2238 1.81529 16.5618 1.75285 16.8909 1.91816C17.0853 2.01609 17.2721 2.15266 17.4211 2.31033C17.67 2.57313 17.928 2.71912 18.3146 2.69756C18.9641 2.66117 19.6182 2.66297 20.2677 2.69801C20.5904 2.71553 20.9375 2.78516 21.2211 2.9316C21.9237 3.29457 22.2334 3.92662 22.2339 4.70467C22.237 9.17439 22.2357 13.6437 22.2357 18.1134V18.3964C22.8123 18.5172 23.0063 18.7517 22.9991 19.3272C22.9937 19.7517 22.9847 20.1767 22.9536 20.5994C22.8915 21.4421 22.4931 22.1034 21.7783 22.5413C21.4511 22.7417 21.068 22.85 20.7097 22.9996L20.7102 23ZM18.7319 7.86627C18.5064 7.85414 18.3556 7.72791 18.2417 7.54553C18.198 7.32811 18.1674 7.10664 18.1085 6.89326C17.9118 6.18305 17.5962 5.52539 17.183 4.91625C17.0939 4.78463 17.1011 4.67322 17.192 4.54969C17.3338 4.35697 17.4598 4.15258 17.6093 3.96615C17.7385 3.80443 17.7236 3.6773 17.58 3.5385C17.3171 3.28379 17.0669 3.01605 16.8009 2.76494C16.569 2.54617 16.5483 2.55336 16.3057 2.77168C16.1635 2.86691 16.0181 2.95766 15.8799 3.05873C15.6845 3.20158 15.5085 3.22314 15.2925 3.07221C14.5619 2.56145 13.7369 2.26541 12.8735 2.07359C12.6512 2.02418 12.5188 1.92266 12.4851 1.68996C12.4522 1.464 12.3784 1.24209 12.3635 1.01613C12.3509 0.819824 12.2496 0.802305 12.0993 0.804551C11.7599 0.809043 11.4201 0.808594 11.0807 0.808594C10.8133 0.808594 10.6513 0.94321 10.5945 1.21244C10.581 1.27713 10.5734 1.34316 10.5585 1.40785C10.4415 1.91906 10.5401 1.99947 9.9162 2.11852C9.66323 2.16703 9.40531 2.23127 9.17259 2.33863C8.6608 2.57447 8.16252 2.83996 7.66153 3.09871C7.49318 3.18586 7.34284 3.23662 7.17089 3.09242C6.99489 2.94463 6.79414 2.82648 6.61184 2.68543C6.4903 2.59154 6.38858 2.5848 6.27785 2.69666C5.98391 2.99314 5.69043 3.29053 5.38885 3.57893C5.27227 3.69078 5.27227 3.78871 5.36184 3.91C5.49508 4.09059 5.62381 4.27477 5.7539 4.4576C5.88084 4.63549 5.88579 4.82236 5.76785 5.00025C5.26146 5.76437 4.91397 6.59543 4.72897 7.49117C4.68621 7.69781 4.57503 7.78227 4.39182 7.81686C4.15956 7.86088 3.9282 7.91389 3.69413 7.94488C3.52579 7.96734 3.45917 8.05584 3.45917 8.21217C3.45827 8.62365 3.44566 9.03603 3.46952 9.44662C3.47447 9.53557 3.596 9.6618 3.68963 9.69279C3.87643 9.75434 4.08124 9.76107 4.27839 9.79072C4.52281 9.82711 4.70961 9.92773 4.75643 10.1995C4.90767 11.0791 5.27857 11.8675 5.7566 12.6123C5.89434 12.827 5.87949 13.0085 5.72869 13.2106C5.60446 13.3773 5.49013 13.5516 5.36454 13.7178C5.27857 13.8319 5.27362 13.9312 5.3785 14.0349C5.68593 14.3395 5.99652 14.6414 6.2954 14.954C6.40073 15.0646 6.4813 15.0354 6.58078 14.9639C6.77478 14.8242 6.97014 14.6872 7.16594 14.5497C7.32078 14.441 7.47653 14.415 7.64262 14.5322C7.73355 14.5965 7.83437 14.6472 7.93025 14.7047C8.62209 15.1203 9.3576 15.4311 10.1521 15.5821C10.3866 15.6265 10.4874 15.7469 10.5153 15.9643C10.5437 16.184 10.5612 16.4068 10.6134 16.6211C10.6341 16.7055 10.7332 16.8313 10.8011 16.834C11.2526 16.8529 11.7054 16.852 12.1565 16.8345C12.2244 16.8318 12.3244 16.7208 12.3469 16.6422C12.4099 16.4234 12.4581 16.197 12.4783 15.9706C12.5004 15.724 12.6404 15.613 12.8555 15.5681C13.7468 15.3826 14.5759 15.0529 15.3285 14.5331C15.4919 14.4204 15.6764 14.4235 15.8488 14.5619C15.9749 14.6629 16.1185 14.7425 16.254 14.8314C16.5344 15.0695 16.5776 15.0785 16.8355 14.8386C17.0925 14.5996 17.327 14.3373 17.5791 14.0929C17.7241 13.9523 17.7349 13.827 17.6052 13.6661C17.4553 13.4806 17.3266 13.2776 17.1889 13.0821C17.102 12.9591 17.0988 12.8396 17.1862 12.7106C17.734 11.9038 18.0914 11.018 18.2741 10.0612C18.3637 9.86709 18.5338 9.80285 18.7292 9.77904C18.9398 9.74041 19.1519 9.70762 19.3603 9.6591C19.4111 9.64742 19.4881 9.58498 19.489 9.54455C19.4989 9.0576 19.5007 8.5702 19.4908 8.08369C19.4899 8.03877 19.3994 7.96869 19.3409 7.95656C19.1397 7.91568 18.9344 7.89502 18.731 7.86717L18.7319 7.86627ZM13.9655 20.2944C14.6011 20.4138 15.0049 19.9404 14.9603 19.364C14.9499 19.2337 14.9072 19.174 14.7739 19.178C14.5813 19.1834 14.3882 19.1816 14.1951 19.183C14.0979 19.1803 14.0011 19.1749 13.9039 19.1749C12.0646 19.1745 10.2254 19.1749 8.38623 19.1749C8.32636 19.1749 8.25659 19.156 8.20933 19.1803C8.14496 19.2131 8.05674 19.2737 8.04908 19.3317C7.96311 19.9804 8.44384 20.3254 8.92052 20.3186C10.5126 20.2953 12.1052 20.3101 13.6977 20.3092C13.7873 20.3092 13.8764 20.2997 13.966 20.2944H13.9655ZM2.42433 22.2264C3.62841 22.2291 4.83205 22.2345 6.03613 22.2345C10.8669 22.2336 15.698 22.2314 20.5288 22.2296C20.6008 22.2152 20.6742 22.2053 20.7448 22.1856C21.4979 21.9758 22.025 21.5158 22.1645 20.735C22.2487 20.2629 22.2181 19.7701 22.2271 19.2859C22.2275 19.249 22.1321 19.1812 22.079 19.1785C21.8778 19.1682 21.6757 19.1789 21.474 19.1821C21.4443 19.1789 21.4146 19.1727 21.3849 19.1727C19.5435 19.1722 17.702 19.1718 15.8605 19.1727C15.8043 19.1727 15.7476 19.1884 15.6787 19.1987C15.6787 19.3411 15.671 19.4682 15.68 19.594C15.7354 20.3887 14.9846 21.0778 14.241 21.0773C12.4144 21.076 10.5882 21.0738 8.76163 21.0787C8.11975 21.0805 7.50038 20.5881 7.35859 20.0028C7.29513 19.74 7.27847 19.466 7.23706 19.1718C7.15964 19.1718 7.07141 19.1718 6.98364 19.1718C5.72599 19.1718 4.46835 19.1709 3.21115 19.1722C2.64984 19.1727 2.08899 19.1785 1.52768 19.1821H0.771475C0.771475 19.6713 0.71611 20.1403 0.783178 20.5913C0.910563 21.4493 1.54749 22.0809 2.42478 22.2269L2.42433 22.2264Z" fill="#848484"/>
<path d="M1.52748 19.1815C2.08879 19.1779 2.64964 19.1725 3.21095 19.1716C4.4686 19.1703 5.72624 19.1712 6.98344 19.1712C7.07167 19.1712 7.15944 19.1712 7.23686 19.1712C7.27827 19.4654 7.29448 19.7395 7.35839 20.0022C7.50018 20.5876 8.1191 21.0795 8.76143 21.0781C10.588 21.0736 12.4142 21.0754 14.2408 21.0768C14.9844 21.0772 15.7352 20.3881 15.6798 19.5935C15.6713 19.4677 15.6785 19.3405 15.6785 19.1981C15.7474 19.1878 15.8041 19.1721 15.8603 19.1721C17.7018 19.1712 19.5433 19.1716 21.3847 19.1721C21.4144 19.1721 21.4441 19.1784 21.4738 19.1815C21.4738 19.5629 21.4819 19.9443 21.4716 20.3252C21.4581 20.8306 21.3167 21.2982 20.9981 21.6985C20.8513 21.8831 20.6857 22.0529 20.5286 22.229C15.6978 22.2308 10.8667 22.2331 6.03593 22.234C4.83185 22.234 3.62821 22.2286 2.42413 22.2259C2.37462 22.1563 2.33231 22.0794 2.27424 22.0179C1.87408 21.5961 1.5671 21.1329 1.57655 20.5211C1.82187 20.7412 2.10094 20.7426 2.23283 20.5242C2.33726 20.3517 2.30575 20.1415 2.15631 20.0207C1.99606 19.8913 1.78406 19.9155 1.5977 20.0854C1.5743 20.004 1.53424 19.9236 1.53064 19.8419C1.52118 19.6222 1.52748 19.4016 1.52703 19.1811L1.52748 19.1815ZM5.5624 19.9385C5.37605 19.9385 5.1897 19.9353 5.00334 19.9394C4.77558 19.9443 4.59148 20.111 4.58293 20.3127C4.57483 20.5022 4.76298 20.694 4.99164 20.6999C5.37155 20.7093 5.75235 20.7143 6.13181 20.6981C6.38838 20.6873 6.4874 20.5489 6.50856 20.2888C6.52431 20.0984 6.34652 19.9479 6.121 19.9398C5.93465 19.9335 5.7483 19.9385 5.56195 19.938L5.5624 19.9385ZM3.82582 20.314C3.82492 20.0952 3.66017 19.9353 3.44006 19.9403C3.23301 19.9447 3.05341 20.1249 3.05476 20.3266C3.05611 20.4977 3.25641 20.7035 3.42701 20.7089C3.63452 20.7152 3.82672 20.5247 3.82582 20.314Z" fill="white"/>
<path d="M16.2548 14.8307C16.1189 14.7417 15.9757 14.6622 15.8497 14.5611C15.6773 14.4228 15.4927 14.4196 15.3293 14.5324C14.5767 15.0521 13.7476 15.3819 12.8563 15.5674C12.6412 15.6123 12.5012 15.7233 12.4791 15.9699C12.4589 16.1963 12.4107 16.4232 12.3477 16.6415C12.3252 16.7201 12.2253 16.8311 12.1573 16.8337C11.7058 16.8508 11.253 16.8522 10.802 16.8333C10.734 16.8306 10.635 16.7048 10.6143 16.6204C10.5621 16.4061 10.5445 16.1833 10.5162 15.9636C10.4882 15.7462 10.3874 15.6262 10.1529 15.5813C9.35843 15.4304 8.62293 15.12 7.93109 14.704C7.83521 14.6465 7.73484 14.5957 7.64346 14.5315C7.47736 14.4143 7.32162 14.4403 7.16678 14.549C6.97143 14.6865 6.77562 14.8235 6.58162 14.9632C6.48214 15.0351 6.40157 15.0638 6.29624 14.9533C5.99736 14.6402 5.68677 14.3388 5.37934 14.0342C5.27446 13.9304 5.27896 13.8312 5.36538 13.7171C5.49097 13.5513 5.60485 13.3766 5.72953 13.2099C5.88032 13.0078 5.89518 12.8263 5.75744 12.6115C5.27986 11.8667 4.90896 11.0779 4.75726 10.1988C4.71045 9.92701 4.52365 9.82683 4.27923 9.79C4.08208 9.76035 3.87727 9.75361 3.69047 9.69207C3.59684 9.66107 3.47531 9.53484 3.47036 9.4459C3.44695 9.03576 3.45911 8.62338 3.46001 8.21144C3.46001 8.05556 3.52662 7.96662 3.69497 7.94416C3.92903 7.91316 4.1604 7.8606 4.39266 7.81613C4.57586 7.78109 4.68704 7.69709 4.72981 7.49045C4.91481 6.5947 5.2623 5.76365 5.76869 4.99953C5.88663 4.82164 5.88167 4.63476 5.75474 4.45687C5.6242 4.27404 5.49592 4.08986 5.36268 3.90927C5.27311 3.78799 5.27311 3.68961 5.38969 3.5782C5.69127 3.2898 5.98475 2.99242 6.27868 2.69593C6.38986 2.58408 6.49159 2.59082 6.61268 2.6847C6.79498 2.82576 6.99573 2.9439 7.17173 3.0917C7.34323 3.23545 7.49357 3.18468 7.66237 3.09799C8.16335 2.83924 8.66164 2.57375 9.17343 2.33791C9.40615 2.23054 9.66362 2.16631 9.91704 2.11779C10.5409 1.9983 10.4423 1.91789 10.5594 1.40713C10.5742 1.34289 10.5819 1.2764 10.5954 1.21172C10.6518 0.942485 10.8138 0.807869 11.0815 0.807869C11.4209 0.807869 11.7607 0.807869 12.1001 0.803826C12.2505 0.802029 12.3518 0.819099 12.3644 1.01541C12.3792 1.24181 12.453 1.46328 12.4859 1.68924C12.5197 1.92193 12.652 2.02345 12.8744 2.07287C13.7377 2.26469 14.5628 2.56072 15.2933 3.07148C15.5094 3.22242 15.6854 3.20086 15.8807 3.05801C16.0189 2.95693 16.1643 2.86619 16.3066 2.77095C16.4623 2.96771 16.6117 3.16941 16.7747 3.35943C16.9781 3.59707 17.0029 3.82797 16.8278 4.09166C16.7288 4.2408 16.6284 4.39039 16.5145 4.52785C16.4029 4.66217 16.3975 4.77447 16.4893 4.9299C16.6829 5.25738 16.8562 5.59699 17.025 5.93795C17.0628 6.01431 17.0488 6.11584 17.0587 6.20613C16.8926 5.92312 16.7414 5.63023 16.5577 5.3598C15.9352 4.44429 15.1223 3.74621 14.1167 3.27767C13.4537 2.96861 12.7582 2.80285 12.0272 2.72918C11.1283 2.63844 10.2614 2.7422 9.4219 3.04453C8.12419 3.51217 7.09836 4.33873 6.34305 5.49457C5.71918 6.44916 5.39329 7.50527 5.35278 8.6382C5.31992 9.5609 5.51032 10.4481 5.88843 11.2967C6.30659 12.2355 6.91201 13.0334 7.72448 13.6506C9.03389 14.6452 10.5076 15.115 12.1672 14.9147C13.5653 14.7458 14.7689 14.173 15.7867 13.2036C16.379 12.6389 16.8053 11.9593 17.1523 11.2248C17.146 11.2935 17.1591 11.3717 17.1307 11.4296C16.9223 11.8582 16.7126 12.2863 16.4871 12.7059C16.415 12.8397 16.3844 12.9354 16.4925 13.0657C16.6252 13.2256 16.7405 13.4017 16.8512 13.5787C16.9889 13.7984 16.979 14.0297 16.8192 14.2269C16.6464 14.4403 16.4447 14.6299 16.2557 14.8302L16.2548 14.8307Z" fill="white"/>
<path d="M13.9655 20.2944C13.8759 20.2994 13.7868 20.3092 13.6972 20.3092C12.1047 20.3101 10.5121 20.2953 8.92005 20.3187C8.44382 20.3259 7.96264 19.9804 8.04861 19.3317C8.05627 19.2738 8.14449 19.2131 8.20886 19.1803C8.25657 19.1561 8.32589 19.175 8.38576 19.175C10.225 19.175 12.0642 19.175 13.9034 19.175C14.0006 19.175 14.0974 19.1803 14.1946 19.183C14.2333 19.5775 14.1397 19.944 13.965 20.2944H13.9655Z" fill="white"/>
<path d="M17.0578 6.20618C17.0479 6.11633 17.0619 6.01436 17.0241 5.93799C16.8553 5.59704 16.682 5.25743 16.4884 4.92995C16.3966 4.77452 16.402 4.66266 16.5136 4.5279C16.628 4.39043 16.7283 4.24084 16.8269 4.0917C17.0016 3.82801 16.9768 3.59711 16.7738 3.35948C16.6108 3.16901 16.461 2.96731 16.3057 2.771C16.5483 2.55223 16.5694 2.54549 16.8008 2.76426C17.0668 3.01538 17.3171 3.28311 17.58 3.53782C17.7231 3.67663 17.7384 3.80375 17.6092 3.96547C17.4602 4.1519 17.3337 4.35629 17.192 4.54901C17.101 4.67254 17.0938 4.78395 17.183 4.91557C17.5962 5.52516 17.9113 6.18237 18.1084 6.89258C18.1674 7.10596 18.198 7.32698 18.2416 7.54485C17.9896 7.51565 17.7375 7.4869 17.4854 7.4577C17.3914 7.13606 17.2973 6.81487 17.2037 6.49323C17.1744 6.43977 17.1456 6.38631 17.1163 6.33286C17.097 6.29018 17.0776 6.24795 17.0578 6.20528V6.20618Z" fill="white"/>
<path d="M16.2549 14.8308C16.4439 14.6309 16.6456 14.4409 16.8184 14.2275C16.9782 14.0303 16.9881 13.7989 16.8504 13.5793C16.7397 13.4027 16.6244 13.2262 16.4916 13.0663C16.3836 12.936 16.4142 12.8403 16.4862 12.7064C16.7118 12.2869 16.9215 11.8588 17.1299 11.4302C17.1583 11.3723 17.1452 11.2941 17.1515 11.2254C17.2645 10.8669 17.3775 10.5084 17.4909 10.1504C17.7524 10.1203 18.014 10.0906 18.2759 10.0605C18.0927 11.0174 17.7358 11.9032 17.188 12.71C17.1002 12.839 17.1038 12.9585 17.1907 13.0815C17.3284 13.277 17.4572 13.48 17.6071 13.6655C17.7367 13.8263 17.7259 13.9517 17.5809 14.0923C17.3289 14.3367 17.0944 14.599 16.8373 14.838C16.5794 15.0779 16.5362 15.0689 16.2558 14.8308H16.2549Z" fill="white"/>
<path d="M18.2748 10.0604C18.0133 10.0905 17.7518 10.1202 17.4898 10.1503C17.5303 9.81379 17.6086 9.47643 17.6023 9.14086C17.592 8.57979 17.5272 8.01961 17.4849 7.45898C17.7369 7.48818 17.989 7.51693 18.2411 7.54613C18.355 7.72852 18.5057 7.85475 18.7313 7.86688C18.7308 8.50432 18.7299 9.14176 18.7295 9.77875C18.5346 9.80256 18.3644 9.8668 18.2744 10.0609L18.2748 10.0604Z" fill="white"/>
<path d="M1.52719 19.1816C1.52719 19.4018 1.52134 19.6223 1.5308 19.8424C1.5344 19.9246 1.57446 20.0051 1.59786 20.0859C1.59066 20.231 1.58346 20.3761 1.57671 20.5217C1.56726 21.1335 1.87469 21.5966 2.2744 22.0185C2.33292 22.08 2.37478 22.1568 2.42429 22.2264C1.547 22.0804 0.910074 21.4488 0.782689 20.5908C0.71562 20.1398 0.770986 19.6704 0.770986 19.1816H1.52719Z" fill="#FEFEFF"/>
<path d="M20.5288 22.2293C20.6859 22.0528 20.8515 21.8834 20.9983 21.6988C21.317 21.2985 21.4579 20.8309 21.4718 20.3255C21.4822 19.9446 21.4741 19.5632 21.4741 19.1818C21.6757 19.1787 21.8778 19.1679 22.079 19.1782C22.1326 19.1809 22.228 19.2492 22.2271 19.2856C22.2181 19.7694 22.2487 20.2626 22.1646 20.7347C22.025 21.5155 21.4979 21.9755 20.7449 22.1853C20.6742 22.205 20.6008 22.2149 20.5288 22.2293Z" fill="white"/>
<path d="M18.73 9.77906C18.7304 9.14162 18.7313 8.50418 18.7318 7.86719C18.9352 7.89549 19.1405 7.9157 19.3417 7.95658C19.4002 7.96871 19.4907 8.03834 19.4916 8.08371C19.5015 8.57066 19.4997 9.05807 19.4898 9.54457C19.4889 9.585 19.4119 9.64744 19.3611 9.65912C19.1526 9.70764 18.9406 9.74043 18.73 9.77906Z" fill="white"/>
<path d="M13.9653 20.2942C14.14 19.9443 14.2336 19.5773 14.1949 19.1829C14.388 19.1815 14.5807 19.1829 14.7738 19.1779C14.907 19.1739 14.9502 19.2336 14.9601 19.3639C15.0051 19.9402 14.6009 20.4137 13.9653 20.2942Z" fill="white"/>
<path d="M1.52883 6.12337C1.53513 6.32372 1.34563 6.5088 1.12912 6.51374C0.940069 6.51823 0.773523 6.34933 0.766321 6.14673C0.759569 5.95177 0.918463 5.76714 1.10571 5.75276C1.30422 5.73794 1.52253 5.92886 1.52883 6.12337Z" fill="#848484"/>
<path d="M5.56277 19.9384C5.74912 19.9384 5.93547 19.9334 6.12182 19.9397C6.34688 19.9474 6.52468 20.0983 6.50938 20.2888C6.48822 20.5484 6.38875 20.6872 6.13263 20.698C5.75317 20.7142 5.37237 20.7092 4.99246 20.6998C4.7638 20.694 4.57565 20.5026 4.58375 20.3126C4.5923 20.1109 4.7764 19.9442 5.00416 19.9393C5.19052 19.9352 5.37687 19.9384 5.56322 19.9388L5.56277 19.9384Z" fill="#848484"/>
<path d="M3.82625 20.3133C3.82715 20.524 3.63494 20.7145 3.42744 20.7082C3.25684 20.7028 3.05653 20.497 3.05518 20.3259C3.05383 20.1242 3.23343 19.9441 3.44049 19.9396C3.66015 19.9346 3.8249 20.0945 3.82625 20.3133Z" fill="#848484"/>
<path d="M1.57666 20.5212C1.58386 20.3761 1.59106 20.231 1.59782 20.0855C1.78417 19.9157 1.99618 19.8914 2.15642 20.0208C2.30541 20.1416 2.33737 20.3519 2.23294 20.5244C2.1006 20.7427 1.82198 20.7413 1.57666 20.5212Z" fill="#848484"/>
<path d="M17.4858 7.45839C17.5276 8.01902 17.5925 8.5792 17.6033 9.14027C17.6096 9.47584 17.5308 9.8132 17.4907 10.1497C17.3777 10.5081 17.2648 10.8666 17.1513 11.2246C16.8047 11.9591 16.3785 12.6392 15.7857 13.2035C14.7684 14.1729 13.5647 14.7456 12.1662 14.9145C10.5066 15.1149 9.0329 14.645 7.72348 13.6504C6.91101 13.0332 6.30559 12.2354 5.88743 11.2965C5.50977 10.4479 5.31892 9.56074 5.35178 8.63804C5.39229 7.50466 5.71818 6.449 6.34205 5.49441C7.09736 4.33857 8.12319 3.51201 9.4209 3.04437C10.2599 2.7416 11.1269 2.63828 12.0262 2.72902C12.7577 2.80269 13.4527 2.96845 14.1157 3.27752C15.1213 3.74605 15.9342 4.44369 16.5567 5.35964C16.7408 5.63052 16.8916 5.92341 17.0577 6.20597C17.0771 6.24865 17.0964 6.29088 17.1162 6.33355C17.1455 6.38701 17.1743 6.44047 17.2036 6.49392C17.2976 6.81556 17.3917 7.13675 17.4853 7.45839H17.4858ZM13.1155 13.9146C13.1304 13.9159 13.147 13.9222 13.1596 13.9177C14.7486 13.3566 15.8721 12.318 16.4982 10.7359C16.852 9.84195 16.9303 8.92509 16.793 7.99566C16.608 6.74548 16.0391 5.67814 15.0911 4.83002C14.5285 4.32689 13.8983 3.93382 13.1614 3.73347C12.3458 3.43834 11.5041 3.39252 10.6569 3.51785C9.59105 3.67507 8.66019 4.13642 7.86842 4.8673C6.78452 5.86771 6.21602 7.12148 6.11654 8.58099C6.07063 9.25796 6.19081 9.92461 6.42353 10.5665C6.86465 11.783 7.62491 12.7399 8.73356 13.4146C9.40875 13.8252 10.1371 14.0642 10.9248 14.1585C11.6792 14.2488 12.403 14.1576 13.1151 13.915L13.1155 13.9146Z" fill="#848484"/>
<path d="M13.1158 13.9145C12.4037 14.1571 11.6803 14.2483 10.9255 14.158C10.1377 14.0637 9.40944 13.8247 8.73425 13.4141C7.62559 12.7394 6.86533 11.783 6.42421 10.5661C6.1915 9.92367 6.07086 9.25703 6.11723 8.5805C6.21671 7.12144 6.78521 5.86722 7.86911 4.86681C8.66088 4.13593 9.59174 3.67459 10.6576 3.51736C11.5048 3.39248 12.3465 3.43785 13.1621 3.73298C13.2175 3.78914 13.2639 3.86011 13.3291 3.8983C13.8909 4.22713 14.373 4.65478 14.7785 5.15476C15.8129 6.42965 16.2455 7.89185 16.0425 9.52746C15.8426 11.1379 15.0788 12.4276 13.7954 13.4136C13.5722 13.5848 13.3426 13.7479 13.1162 13.9145H13.1158ZM8.05276 9.03152C8.06897 9.02748 8.08517 9.02343 8.10138 9.01939C8.32959 9.27455 8.5632 9.21345 8.81347 8.98256C8.81347 9.38191 8.81347 9.73275 8.81347 10.0836C8.81347 10.1658 8.80987 10.2485 8.81572 10.3302C8.83328 10.5669 8.98992 10.735 9.18573 10.7327C9.41934 10.73 9.57688 10.5687 9.57778 10.3095C9.58138 9.33699 9.58003 8.36488 9.57913 7.39232C9.57913 7.11156 9.48911 6.96691 9.29511 6.92244C9.07454 6.87168 8.94131 6.95074 8.80717 7.21488C8.68789 7.45072 8.56996 7.68746 8.43447 7.95699C8.29178 7.67218 8.17205 7.43185 8.05051 7.19242C7.92178 6.93906 7.78674 6.86134 7.55132 6.92423C7.31951 6.98578 7.2799 7.17041 7.28035 7.38019C7.2826 8.35275 7.2808 9.32486 7.28215 10.2974C7.28215 10.5485 7.44149 10.7327 7.65395 10.7345C7.88262 10.7363 8.04376 10.5571 8.04646 10.2884C8.05096 9.86976 8.05096 9.45064 8.05276 9.03197V9.03152ZM14.5224 6.9175C14.5224 6.9175 14.4931 6.9166 14.4634 6.9175C13.7441 6.93726 13.3233 7.6942 13.4025 8.14476C13.52 8.8141 13.8994 9.12945 14.5845 9.20896C14.747 9.22783 14.892 9.29431 14.9185 9.48298C14.9559 9.74668 14.8865 9.84461 14.6696 9.93849C14.4459 10.0355 14.3419 9.89222 14.2213 9.75746C14.0655 9.58361 13.8283 9.55621 13.6613 9.68783C13.4975 9.81675 13.4772 9.99644 13.6023 10.2031C13.9417 10.7637 14.6817 10.8998 15.2345 10.5216C15.7836 10.1456 15.8237 9.25388 15.4434 8.84464C15.2012 8.58455 14.9217 8.4673 14.5836 8.44394C14.3351 8.42642 14.1655 8.22966 14.1961 7.99427C14.2235 7.78269 14.4229 7.62726 14.6327 7.68611C14.738 7.71576 14.8343 7.80381 14.9163 7.88422C15.0954 8.06076 15.298 8.08861 15.474 7.94396C15.6139 7.82851 15.6392 7.58953 15.5203 7.41298C15.2899 7.07158 14.9658 6.90716 14.5228 6.91705L14.5224 6.9175ZM11.8995 7.69869C12.0535 7.68431 12.1885 7.68656 12.3163 7.65691C12.5734 7.59716 12.6638 7.45925 12.6238 7.19916C12.5905 6.98308 12.4365 6.90627 12.2362 6.90582C11.7429 6.90402 11.2491 6.90132 10.7558 6.90716C10.5217 6.90986 10.329 7.09224 10.3335 7.28541C10.338 7.47632 10.5374 7.66769 10.7535 7.68027C10.8633 7.68656 10.9736 7.68162 11.0911 7.68162V9.96994C10.9727 9.96994 10.8764 9.96814 10.7801 9.96994C10.5302 9.97533 10.3389 10.137 10.3326 10.3459C10.3268 10.5566 10.5293 10.7327 10.7873 10.7341C11.2432 10.7363 11.6997 10.7363 12.1556 10.7332C12.2281 10.7327 12.301 10.7134 12.3731 10.699C12.5603 10.6613 12.6175 10.5306 12.6247 10.3563C12.6319 10.1775 12.5765 10.0459 12.3848 10.0117C12.2272 9.98386 12.0679 9.96455 11.8991 9.93984V7.69824L11.8995 7.69869Z" fill="white"/>
<path d="M13.1157 13.9149C13.3426 13.7483 13.5721 13.5857 13.795 13.4141C15.0783 12.428 15.8421 11.1379 16.042 9.52787C16.245 7.89227 15.8129 6.43006 14.778 5.15518C14.3725 4.65564 13.8904 4.22754 13.3286 3.89871C13.2629 3.86053 13.2165 3.7891 13.1616 3.7334C13.8985 3.93375 14.5287 4.32682 15.0913 4.82994C16.0393 5.67807 16.6082 6.74541 16.7932 7.99559C16.931 8.92502 16.8522 9.84188 16.4984 10.7358C15.8723 12.318 14.7488 13.357 13.1598 13.9176C13.1472 13.9221 13.1306 13.9158 13.1157 13.9145V13.9149Z" fill="white"/>
<path d="M8.05269 9.03178C8.05089 9.45045 8.05044 9.86957 8.04639 10.2882C8.04369 10.5569 7.88254 10.7366 7.65388 10.7343C7.44187 10.7325 7.28253 10.5483 7.28208 10.2972C7.28118 9.32467 7.28298 8.35256 7.28028 7.38C7.27983 7.16976 7.31944 6.98558 7.55125 6.92404C7.78712 6.86115 7.9217 6.93887 8.05044 7.19223C8.17242 7.43166 8.29171 7.67199 8.4344 7.9568C8.56943 7.68726 8.68737 7.45053 8.8071 7.21469C8.94079 6.95055 9.07402 6.87148 9.29503 6.92224C9.48904 6.96717 9.57906 7.11137 9.57906 7.39213C9.57996 8.36469 9.58131 9.3368 9.57771 10.3094C9.57681 10.5686 9.41882 10.7298 9.18565 10.7325C8.98985 10.7348 8.83276 10.5668 8.81565 10.33C8.8098 10.2483 8.8134 10.1656 8.8134 10.0834C8.8134 9.73256 8.8134 9.38172 8.8134 8.98236C8.56313 9.21371 8.32997 9.27435 8.1013 9.0192C8.0887 9.00437 8.07565 8.98955 8.06304 8.97472C8.05944 8.99359 8.05629 9.01246 8.05269 9.03178Z" fill="#848484"/>
<path d="M14.522 6.91741C14.9649 6.90753 15.2894 7.07194 15.5194 7.41335C15.6383 7.58989 15.6131 7.82888 15.4731 7.94433C15.2971 8.08897 15.0945 8.06112 14.9154 7.88458C14.8334 7.80417 14.7371 7.71612 14.6318 7.68647C14.422 7.62718 14.2222 7.78306 14.1952 7.99464C14.1646 8.23003 14.3347 8.42724 14.5827 8.44431C14.9203 8.46767 15.2003 8.58446 15.4425 8.84501C15.8233 9.25425 15.7828 10.1459 15.2336 10.5219C14.6809 10.9006 13.9409 10.7641 13.6015 10.2034C13.4763 9.99681 13.497 9.81712 13.6604 9.68819C13.8274 9.55657 14.0646 9.58397 14.2204 9.75782C14.341 9.89259 14.4454 10.0359 14.6687 9.93886C14.8852 9.84497 14.955 9.74659 14.9176 9.48335C14.8911 9.29468 14.7461 9.22819 14.5836 9.20933C13.8981 9.12981 13.5186 8.81446 13.4016 8.14513C13.3224 7.69456 13.7432 6.93763 14.4625 6.91786C14.4923 6.91696 14.5224 6.91786 14.5215 6.91786L14.522 6.91741Z" fill="#848484"/>
<path d="M11.8991 7.69893V9.94053C12.0679 9.96524 12.2272 9.98456 12.3848 10.0124C12.5765 10.0461 12.6319 10.1777 12.6247 10.357C12.6179 10.5308 12.5603 10.662 12.3731 10.6997C12.301 10.7141 12.2281 10.7334 12.1556 10.7339C11.6997 10.737 11.2432 10.737 10.7873 10.7348C10.5293 10.7334 10.3268 10.5578 10.3326 10.3466C10.3385 10.1377 10.5298 9.97602 10.7801 9.97063C10.8764 9.96838 10.9723 9.97063 11.0911 9.97063V7.68231C10.9736 7.68231 10.8633 7.6877 10.7535 7.68096C10.5379 7.66838 10.338 7.47702 10.3335 7.2861C10.329 7.09293 10.5217 6.91055 10.7558 6.90786C11.2491 6.90202 11.7429 6.90471 12.2362 6.90651C12.4365 6.90741 12.5905 6.98377 12.6238 7.19985C12.6638 7.45995 12.5729 7.59786 12.3163 7.6576C12.1885 7.68725 12.0535 7.685 11.8995 7.69938L11.8991 7.69893Z" fill="#848484"/>
<path d="M8.05273 9.03166L8.06309 8.97461C8.07569 8.98943 8.08874 9.00426 8.10135 9.01908C8.08514 9.02313 8.06894 9.02717 8.05273 9.03121V9.03166Z" fill="#C6D8FB"/>
</g>
<defs>
<clipPath id="clip0_33_851">
<rect width="23" height="23" fill="white"/>
</clipPath>
</defs>
</svg>
