<svg width="30" height="30" viewBox="0 0 30 30" fill="none" xmlns="http://www.w3.org/2000/svg">
<g clip-path="url(#clip0_33_851)">
<path d="M27.0134 30H2.92982C2.8899 29.9801 2.85173 29.952 2.80887 29.942C1.57651 29.6443 0.708164 28.9207 0.233185 27.7395C0.145117 27.5203 0.0770114 27.2936 -0.000488281 27.0703C-0.000488281 26.2893 -0.000488281 25.5076 -0.000488281 24.7266C0.165079 24.4576 0.296007 24.1406 0.652388 24.0797C0.957689 24.0275 1.00525 23.8652 1.00466 23.5816C0.994678 19.0828 0.997613 14.584 0.998201 10.0852C0.998201 9.67969 1.12854 9.55313 1.53718 9.54902C1.83191 9.54609 1.98808 9.72949 1.99572 10.0875C1.99748 10.1754 1.99572 10.2633 1.99572 10.3512C1.99572 14.1475 1.99572 17.9437 1.99572 21.74C1.99572 22.4818 2.001 23.223 2.00335 23.9648C2.01861 23.9813 2.03388 23.9977 2.04914 24.0141C2.36149 24.0018 2.67442 23.9895 2.98677 23.9766C3.12181 23.9871 3.25685 24.0064 3.39188 24.007C11.1066 24.0088 18.8214 24.0082 26.5355 24.0082C26.6917 24.0082 26.8479 24.0035 27.004 24.0012C27.189 24.0088 27.3733 24.0217 27.5583 24.0229C28.0039 24.0258 28.0045 24.0229 28.0045 23.5682C28.0045 17.7908 28.0045 12.0129 28.0045 6.23555C28.0045 6.14766 28.0068 6.05977 28.0021 5.97187C27.9552 5.09414 27.2647 4.46191 26.4222 4.52461H24.0626C24.1776 5.10762 23.9757 5.55879 23.6252 5.95605C23.4784 6.12188 23.5119 6.25605 23.5999 6.45C23.9534 7.22754 24.3074 8.00742 24.5951 8.81016C24.7695 9.2959 24.7154 9.31582 25.2227 9.37031C25.2421 9.37266 25.2621 9.37031 25.2814 9.37266C25.9067 9.45059 26.3564 9.81914 26.4199 10.3295C26.458 10.6371 26.4821 10.9482 26.4803 11.2582C26.4786 11.6654 26.4398 12.0727 26.4275 12.4805C26.4116 13.0178 26.0752 13.4566 25.555 13.5855C25.3671 13.6318 25.1757 13.6711 24.9832 13.6869C24.7824 13.7027 24.7225 13.8117 24.6591 13.9875C24.3996 14.71 24.1765 15.4559 23.8183 16.1285C23.553 16.6271 23.476 16.9764 23.88 17.4322C24.2187 17.8143 24.1741 18.4693 23.8365 18.8379C23.3563 19.3617 22.8531 19.868 22.327 20.3461C21.9325 20.7041 21.4346 20.7088 20.9737 20.4264C20.7911 20.3145 20.6268 20.1715 20.4418 20.0637C20.3731 20.0232 20.2463 20.0045 20.1852 20.0408C19.2993 20.5676 18.3558 20.949 17.36 21.2109C17.286 21.2303 17.2044 21.3264 17.1792 21.4043C17.1352 21.5402 17.1293 21.6885 17.1134 21.8326C17.0371 22.5105 16.5686 22.9529 15.8905 22.9635C15.2904 22.9729 14.6898 22.9723 14.0892 22.9617C13.6148 22.9535 13.2261 22.7461 13.0236 22.3172C12.8909 22.0354 12.8627 21.7061 12.7688 21.4037C12.7447 21.3258 12.6613 21.2402 12.585 21.2092C11.8464 20.9139 11.0737 20.6871 10.3721 20.3227C9.88013 20.0666 9.53784 19.974 9.07226 20.3748C8.60432 20.7779 8.06241 20.7152 7.61209 20.2992C7.11891 19.8428 6.63806 19.3693 6.18716 18.8713C5.75973 18.399 5.75445 17.9695 6.09615 17.4357C6.16954 17.3209 6.24234 17.202 6.33335 17.1018C6.5089 16.909 6.49363 16.7484 6.37562 16.507C6.02394 15.791 5.65405 15.0709 5.42684 14.3121C5.28945 13.8527 5.12623 13.6734 4.65712 13.6365C4.00366 13.585 3.52046 13.0178 3.51518 12.3938C3.51048 11.8723 3.50872 11.3502 3.51811 10.8287C3.53514 9.90117 3.86451 9.53613 4.79157 9.36269C5.01233 9.32109 5.26479 9.33164 5.33583 8.99473C5.52195 8.1123 5.89066 7.29375 6.35448 6.52559C6.5177 6.25488 6.486 6.08379 6.30693 5.85703C6.00926 5.47969 5.74036 5.07949 5.92706 4.51465H3.62849C2.72726 4.41621 2.02214 5.1123 1.99219 5.96836C1.98162 6.26953 1.76145 6.4998 1.49079 6.50098C1.21896 6.50273 1.0029 6.26836 0.993504 5.96367C0.957689 4.73437 2.06558 3.54434 3.30382 3.5168C4.34713 3.49336 5.39102 3.50098 6.43433 3.51035C6.65979 3.51211 6.80891 3.43828 6.96509 3.27891C7.21461 3.02402 7.49115 2.79258 7.77414 2.57461C8.01603 2.38828 8.3184 2.32441 8.59786 2.4334C8.9155 2.55703 9.20084 2.76035 9.50907 2.91035C9.6036 2.95605 9.75918 2.99297 9.83257 2.94668C10.5988 2.4668 11.429 2.13926 12.2903 1.88262C12.7793 1.73672 12.7811 1.74258 12.8345 1.22871C12.8932 0.663867 13.2713 0.208594 13.7921 0.0738281C13.8849 0.0503906 13.9741 0.0246094 14.0634 0C14.6687 0 15.2746 0 15.8799 0C15.9316 0.01875 15.9815 0.0445312 16.0349 0.0550781C16.4394 0.13418 16.807 0.294727 16.9784 0.689063C17.0876 0.939844 17.1275 1.22578 17.1651 1.50059C17.1915 1.69453 17.2479 1.80527 17.4569 1.84922C18.2947 2.02559 19.0944 2.32793 19.8165 2.77734C20.2269 3.03281 20.4829 2.96367 20.8135 2.67363C21.1616 2.36777 21.6025 2.28633 22.0317 2.50195C22.2854 2.62969 22.529 2.80781 22.7234 3.01348C23.048 3.35625 23.3844 3.54668 23.8888 3.51855C24.736 3.47109 25.5891 3.47344 26.4363 3.51914C26.8573 3.54199 27.3099 3.63281 27.6798 3.82383C28.5963 4.29727 29.0002 5.12168 29.0008 6.13652C29.0049 11.9666 29.0032 17.7961 29.0032 23.6262V23.9953C29.7553 24.1529 30.0083 24.4588 29.9989 25.2094C29.9919 25.7631 29.9801 26.3174 29.9396 26.8687C29.8586 27.968 29.339 28.8305 28.4067 29.4018C27.9798 29.6631 27.4802 29.8043 27.0128 29.9994L27.0134 30ZM24.433 10.2604C24.1389 10.2445 23.9422 10.0799 23.7937 9.84199C23.7367 9.5584 23.6968 9.26953 23.6199 8.99121C23.3633 8.06484 22.9517 7.20703 22.4128 6.4125C22.2965 6.24082 22.3059 6.09551 22.4245 5.93437C22.6095 5.68301 22.7738 5.41641 22.9688 5.17324C23.1373 4.9623 23.1179 4.79648 22.9306 4.61543C22.5877 4.2832 22.2613 3.93398 21.9143 3.60645C21.6119 3.32109 21.5849 3.33047 21.2685 3.61523C21.0829 3.73945 20.8933 3.85781 20.7131 3.98965C20.4582 4.17598 20.2287 4.2041 19.9469 4.00723C18.994 3.34102 17.9178 2.95488 16.7917 2.70469C16.5017 2.64023 16.329 2.50781 16.285 2.2043C16.2421 1.90957 16.1459 1.62012 16.1265 1.32539C16.11 1.06934 15.9779 1.04648 15.7818 1.04941C15.3392 1.05527 14.8959 1.05469 14.4532 1.05469C14.1044 1.05469 13.8931 1.23027 13.8191 1.58145C13.8015 1.66582 13.7915 1.75195 13.7721 1.83633C13.6195 2.50313 13.7481 2.60801 12.9343 2.76328C12.6044 2.82656 12.2679 2.91035 11.9644 3.05039C11.2968 3.35801 10.6469 3.7043 9.99345 4.0418C9.77386 4.15547 9.57776 4.22168 9.35349 4.03359C9.12392 3.84082 8.86207 3.68672 8.62428 3.50273C8.46576 3.38027 8.33307 3.37148 8.18864 3.51738C7.80525 3.9041 7.42245 4.29199 7.02908 4.66816C6.87702 4.81406 6.87702 4.9418 6.99386 5.1C7.16764 5.33555 7.33556 5.57578 7.50524 5.81426C7.6708 6.04629 7.67726 6.29004 7.52344 6.52207C6.86293 7.51875 6.40967 8.60273 6.16837 9.77109C6.11259 10.0406 5.96757 10.1508 5.72862 10.1959C5.42566 10.2533 5.12388 10.3225 4.81858 10.3629C4.599 10.3922 4.51211 10.5076 4.51211 10.7115C4.51093 11.2482 4.49449 11.7861 4.52561 12.3217C4.53207 12.4377 4.69059 12.6023 4.81271 12.6428C5.05636 12.723 5.3235 12.7318 5.58066 12.7705C5.89947 12.818 6.14312 12.9492 6.20418 13.3037C6.40145 14.451 6.88524 15.4793 7.50876 16.4508C7.68842 16.7309 7.66904 16.9676 7.47236 17.2312C7.31031 17.4486 7.16119 17.676 6.99738 17.8928C6.88524 18.0416 6.87878 18.1711 7.01558 18.3064C7.41658 18.7037 7.82169 19.0975 8.21154 19.5053C8.34893 19.6494 8.45402 19.6113 8.58377 19.5182C8.83682 19.3359 9.09163 19.1572 9.34703 18.9779C9.549 18.8361 9.75214 18.8021 9.96879 18.9551C10.0874 19.0389 10.2189 19.1051 10.344 19.1801C11.2464 19.7221 12.2057 20.1275 13.242 20.3244C13.5479 20.3824 13.6794 20.5395 13.7158 20.823C13.7528 21.1096 13.7757 21.4002 13.8438 21.6797C13.8708 21.7898 13.9999 21.9539 14.0886 21.9574C14.6775 21.982 15.2681 21.9809 15.8564 21.958C15.9451 21.9545 16.0754 21.8098 16.1048 21.7072C16.187 21.4219 16.2498 21.1266 16.2762 20.8312C16.305 20.5096 16.4876 20.3648 16.7682 20.3062C17.9307 20.0643 19.0122 19.6342 19.9938 18.9562C20.207 18.8092 20.4477 18.8133 20.6725 18.9938C20.8369 19.1256 21.0242 19.2293 21.201 19.3453C21.5667 19.6559 21.6231 19.6676 21.9595 19.3547C22.2948 19.043 22.6006 18.7008 22.9294 18.382C23.1185 18.1986 23.1326 18.0352 22.9635 17.8254C22.768 17.5834 22.6001 17.3186 22.4204 17.0637C22.3071 16.9031 22.303 16.7473 22.4169 16.5791C23.1314 15.5268 23.5976 14.3713 23.8359 13.1232C23.9528 12.8701 24.1747 12.7863 24.4295 12.7553C24.7043 12.7049 24.9808 12.6621 25.2527 12.5988C25.319 12.5836 25.4194 12.5021 25.4206 12.4494C25.4335 11.8143 25.4358 11.1785 25.4229 10.5439C25.4218 10.4854 25.3037 10.3939 25.2274 10.3781C24.965 10.3248 24.6972 10.2979 24.4319 10.2615L24.433 10.2604ZM18.216 26.4709C19.0451 26.6268 19.5717 26.0092 19.5136 25.2574C19.5001 25.0875 19.4443 25.0096 19.2705 25.0148C19.0192 25.0219 18.7673 25.0195 18.5155 25.0213C18.3887 25.0178 18.2624 25.0107 18.1356 25.0107C15.7366 25.0102 13.3377 25.0107 10.9387 25.0107C10.8606 25.0107 10.7696 24.9861 10.708 25.0178C10.624 25.0605 10.5089 25.1396 10.499 25.2152C10.3868 26.0613 11.0139 26.5113 11.6356 26.5025C13.7123 26.4721 15.7895 26.4914 17.8667 26.4902C17.9835 26.4902 18.0998 26.4779 18.2166 26.4709H18.216ZM3.16232 28.991C4.73286 28.9945 6.30282 29.0016 7.87336 29.0016C14.1743 29.0004 20.4759 28.9975 26.7768 28.9951C26.8708 28.9764 26.9665 28.9635 27.0586 28.9377C28.0409 28.6641 28.7284 28.0641 28.9104 27.0457C29.0202 26.4299 28.9803 25.7871 28.992 25.1555C28.9926 25.1074 28.8681 25.0189 28.7989 25.0154C28.5364 25.002 28.2728 25.016 28.0098 25.0201C27.971 25.016 27.9323 25.0078 27.8935 25.0078C25.4916 25.0072 23.0897 25.0066 20.6878 25.0078C20.6144 25.0078 20.5404 25.0283 20.4506 25.0418C20.4506 25.2275 20.4406 25.3934 20.4524 25.5574C20.5246 26.5939 19.5453 27.4928 18.5754 27.4922C16.1928 27.4904 13.8109 27.4875 11.4284 27.4939C10.5911 27.4963 9.78326 26.8541 9.59831 26.0906C9.51553 25.7479 9.49381 25.3904 9.43979 25.0066C9.33881 25.0066 9.22373 25.0066 9.10924 25.0066C7.46883 25.0066 5.82843 25.0055 4.1886 25.0072C3.45647 25.0078 2.72492 25.0154 1.99278 25.0201H1.00642C1.00642 25.6582 0.934205 26.2699 1.02169 26.8582C1.18784 27.9773 2.01861 28.8012 3.16291 28.9916L3.16232 28.991Z" fill="#848484"/>
<path d="M1.99199 25.0197C2.72413 25.015 3.45568 25.008 4.18781 25.0068C5.82822 25.0051 7.46863 25.0062 9.10845 25.0062C9.22353 25.0062 9.33802 25.0062 9.439 25.0062C9.49302 25.39 9.51415 25.7475 9.59752 26.0902C9.78247 26.8537 10.5898 27.4953 11.4276 27.4935C13.8101 27.4877 16.192 27.49 18.5746 27.4918C19.5445 27.4924 20.5238 26.5935 20.4516 25.557C20.4404 25.393 20.4498 25.2271 20.4498 25.0414C20.5397 25.0279 20.6136 25.0074 20.687 25.0074C23.0889 25.0062 25.4908 25.0068 27.8927 25.0074C27.9315 25.0074 27.9702 25.0156 28.009 25.0197C28.009 25.5172 28.0195 26.0146 28.006 26.5115C27.9884 27.1707 27.8041 27.7807 27.3884 28.3027C27.197 28.5435 26.9809 28.765 26.776 28.9947C20.4751 28.9971 14.1735 29 7.87257 29.0012C6.30203 29.0012 4.73207 28.9941 3.16153 28.9906C3.09695 28.8998 3.04176 28.7996 2.96602 28.7193C2.44407 28.1691 2.04366 27.565 2.05599 26.767C2.37596 27.0541 2.73998 27.0559 2.912 26.7711C3.04822 26.5461 3.00712 26.2719 2.81219 26.1142C2.60318 25.9455 2.32665 25.9771 2.08358 26.1986C2.05305 26.0926 2.0008 25.9877 1.9961 25.881C1.98377 25.5945 1.99199 25.3068 1.9914 25.0191L1.99199 25.0197ZM7.25492 26.007C7.01185 26.007 6.76879 26.0029 6.52572 26.0082C6.22864 26.0146 5.98851 26.232 5.97735 26.4951C5.96678 26.7424 6.2122 26.9926 6.51045 27.0002C7.00598 27.0125 7.50268 27.0189 7.99763 26.9978C8.33228 26.9838 8.46145 26.8033 8.48904 26.4641C8.50959 26.2156 8.27768 26.0193 7.98353 26.0088C7.74047 26.0006 7.4974 26.007 7.25433 26.0064L7.25492 26.007ZM4.98982 26.4969C4.98864 26.2115 4.77376 26.0029 4.48666 26.0094C4.21658 26.0152 3.98232 26.2502 3.98408 26.5133C3.98584 26.7365 4.24711 27.0049 4.46963 27.0119C4.74029 27.0201 4.99099 26.7717 4.98982 26.4969Z" fill="#848484"/>
<path d="M21.2018 19.3439C21.0245 19.2279 20.8378 19.1242 20.6734 18.9923C20.4485 18.8119 20.2078 18.8078 19.9947 18.9548C19.013 19.6328 17.9316 20.0628 16.7691 20.3048C16.4884 20.3634 16.3058 20.5082 16.2771 20.8298C16.2506 21.1251 16.1878 21.421 16.1056 21.7058C16.0763 21.8084 15.9459 21.9531 15.8573 21.9566C15.2684 21.9789 14.6778 21.9806 14.0895 21.956C14.0008 21.9525 13.8716 21.7884 13.8446 21.6783C13.7765 21.3988 13.7536 21.1082 13.7166 20.8216C13.6802 20.538 13.5487 20.3816 13.2428 20.323C12.2066 20.1261 11.2472 19.7212 10.3448 19.1787C10.2198 19.1037 10.0888 19.0375 9.96965 18.9537C9.753 18.8007 9.54986 18.8347 9.34789 18.9765C9.09308 19.1558 8.83768 19.3345 8.58463 19.5167C8.45488 19.6105 8.34979 19.648 8.2124 19.5039C7.82255 19.0955 7.41744 18.7023 7.01644 18.305C6.87964 18.1697 6.88551 18.0402 6.99824 17.8914C7.16204 17.6751 7.31059 17.4472 7.47322 17.2298C7.6699 16.9662 7.68928 16.7294 7.50962 16.4494C6.88669 15.4779 6.4029 14.449 6.20504 13.3023C6.14398 12.9478 5.90033 12.8171 5.58152 12.7691C5.32436 12.7304 5.05722 12.7216 4.81357 12.6414C4.69145 12.6009 4.53293 12.4363 4.52647 12.3203C4.49594 11.7853 4.51179 11.2474 4.51297 10.7101C4.51297 10.5068 4.59986 10.3908 4.81944 10.3615C5.12474 10.321 5.42652 10.2525 5.72948 10.1945C5.96843 10.1488 6.11345 10.0392 6.16923 9.76968C6.41053 8.60132 6.86379 7.51734 7.5243 6.52066C7.67812 6.28863 7.67166 6.04488 7.5061 5.81284C7.33583 5.57437 7.1685 5.33413 6.99472 5.09859C6.87788 4.94038 6.87788 4.81206 7.02994 4.66675C7.42331 4.29058 7.80611 3.90269 8.1895 3.51597C8.33452 3.37007 8.46721 3.37886 8.62515 3.50132C8.86293 3.68531 9.12478 3.83941 9.35435 4.03218C9.57804 4.21968 9.77414 4.15347 9.99431 4.04038C10.6478 3.70288 11.2977 3.35659 11.9653 3.04898C12.2688 2.90894 12.6046 2.82515 12.9352 2.76187C13.7489 2.60601 13.6203 2.50113 13.773 1.83492C13.7924 1.75113 13.8024 1.66441 13.82 1.58003C13.8936 1.22886 14.1049 1.05327 14.4541 1.05327C14.8967 1.05327 15.34 1.05327 15.7827 1.048C15.9788 1.04566 16.1109 1.06792 16.1273 1.32398C16.1467 1.61929 16.243 1.90816 16.2859 2.20288C16.3299 2.5064 16.5025 2.63882 16.7926 2.70327C17.9186 2.95347 18.9948 3.3396 19.9477 4.00581C20.2295 4.20269 20.4591 4.17456 20.7139 3.98824C20.8942 3.8564 21.0838 3.73804 21.2693 3.61382C21.4725 3.87046 21.6674 4.13355 21.8799 4.3814C22.1453 4.69136 22.1776 4.99253 21.9492 5.33648C21.82 5.53101 21.6891 5.72613 21.5406 5.90542C21.395 6.08062 21.3879 6.2271 21.5077 6.42984C21.7602 6.85698 21.9862 7.29995 22.2064 7.74468C22.2557 7.84429 22.2375 7.97671 22.2504 8.09448C22.0338 7.72534 21.8365 7.34331 21.5969 6.99058C20.785 5.79644 19.7246 4.88589 18.413 4.27476C17.5482 3.87163 16.6411 3.65542 15.6876 3.55933C14.5151 3.44097 13.3843 3.57632 12.2894 3.97066C10.5967 4.58062 9.25865 5.65874 8.27346 7.16636C7.45971 8.41148 7.03464 9.78902 6.9818 11.2668C6.93894 12.4703 7.18729 13.6275 7.68047 14.7343C8.2259 15.9589 9.01558 16.9996 10.0753 17.8046C11.7833 19.1019 13.7055 19.7148 15.8702 19.4535C17.6938 19.2332 19.2637 18.4861 20.5912 17.2216C21.3639 16.4851 21.9199 15.5986 22.3725 14.6406C22.3643 14.7302 22.3813 14.8322 22.3443 14.9078C22.0725 15.4667 21.7989 16.0251 21.5048 16.5724C21.4108 16.747 21.3709 16.8718 21.5118 17.0417C21.685 17.2503 21.8353 17.48 21.9797 17.7109C22.1594 17.9974 22.1465 18.2992 21.9381 18.5564C21.7126 18.8347 21.4496 19.082 21.203 19.3433L21.2018 19.3439Z" fill="#848484"/>
<path d="M18.2161 26.4712C18.0993 26.4777 17.983 26.4906 17.8662 26.4906C15.789 26.4917 13.7117 26.4724 11.6351 26.5029C11.0139 26.5122 10.3863 26.0617 10.4984 25.2156C10.5084 25.14 10.6235 25.0609 10.7075 25.0181C10.7697 24.9865 10.8601 25.0111 10.9382 25.0111C13.3372 25.0111 15.7361 25.0111 18.1351 25.0111C18.2619 25.0111 18.3881 25.0181 18.515 25.0216C18.5655 25.5361 18.4433 26.0142 18.2155 26.4712H18.2161Z" fill="white"/>
<path d="M22.2496 8.09561C22.2367 7.97842 22.2549 7.84541 22.2056 7.7458C21.9854 7.30108 21.7594 6.85811 21.5069 6.43096C21.3872 6.22822 21.3942 6.08233 21.5398 5.90654C21.6889 5.72725 21.8199 5.53213 21.9484 5.3376C22.1762 4.99365 22.1439 4.69248 21.8792 4.38252C21.6666 4.13408 21.4711 3.871 21.2686 3.61494C21.585 3.32959 21.6126 3.3208 21.9144 3.60615C22.2614 3.93369 22.5878 4.28291 22.9307 4.61514C23.1174 4.79619 23.1374 4.96201 22.9688 5.17295C22.7745 5.41612 22.6095 5.68272 22.4246 5.93408C22.306 6.09522 22.2966 6.24053 22.4128 6.41221C22.9518 7.20733 23.3628 8.06455 23.62 8.99092C23.6969 9.26924 23.7368 9.55752 23.7938 9.8417C23.465 9.80362 23.1362 9.76612 22.8074 9.72803C22.6847 9.3085 22.562 8.88955 22.4399 8.47002C22.4017 8.4003 22.3641 8.33057 22.326 8.26084C22.3007 8.20518 22.2755 8.1501 22.2496 8.09444V8.09561Z" fill="#848484"/>
<path d="M21.2021 19.3441C21.4487 19.0834 21.7118 18.8355 21.9372 18.5572C22.1456 18.3 22.1586 17.9982 21.9789 17.7117C21.8345 17.4814 21.6842 17.2512 21.511 17.0426C21.3701 16.8727 21.41 16.7479 21.5039 16.5732C21.7981 16.026 22.0717 15.4676 22.3435 14.9086C22.3805 14.833 22.3635 14.7311 22.3717 14.6414C22.5191 14.1738 22.6664 13.7063 22.8144 13.2393C23.1555 13.2 23.4966 13.1613 23.8383 13.1221C23.5994 14.3701 23.1338 15.5256 22.4192 16.5779C22.3048 16.7461 22.3095 16.902 22.4228 17.0625C22.6024 17.3174 22.7703 17.5822 22.9659 17.8242C23.1349 18.034 23.1209 18.1975 22.9318 18.3809C22.603 18.6996 22.2971 19.0418 21.9619 19.3535C21.6255 19.6664 21.5691 19.6547 21.2033 19.3441H21.2021Z" fill="#848484"/>
<path d="M23.837 13.1217C23.4959 13.1609 23.1548 13.1996 22.8131 13.2389C22.8659 12.8 22.9681 12.36 22.9599 11.9223C22.9464 11.1904 22.8618 10.4598 22.8066 9.72852C23.1354 9.7666 23.4642 9.8041 23.793 9.84219C23.9415 10.0801 24.1382 10.2447 24.4324 10.2605C24.4318 11.092 24.4306 11.9234 24.43 12.7543C24.1758 12.7854 23.9539 12.8691 23.8364 13.1223L23.837 13.1217Z" fill="#848484"/>
<path d="M1.99191 25.0195C1.99191 25.3066 1.98428 25.5943 1.9966 25.8814C2.0013 25.9887 2.05356 26.0936 2.08409 26.199C2.07469 26.3883 2.0653 26.5775 2.05649 26.7674C2.04416 27.5654 2.44516 28.1695 2.96652 28.7197C3.04285 28.8 3.09745 28.9002 3.16204 28.991C2.01774 28.8006 1.18697 27.9768 1.02081 26.8576C0.933333 26.2693 1.00555 25.657 1.00555 25.0195H1.99191Z" fill="#848484"/>
<path d="M26.7769 28.9942C26.9818 28.7639 27.1978 28.543 27.3892 28.3022C27.8049 27.7801 27.9887 27.1702 28.0069 26.511C28.0204 26.0141 28.0098 25.5166 28.0098 25.0192C28.2728 25.0151 28.5365 25.001 28.7989 25.0145C28.8688 25.018 28.9932 25.1071 28.9921 25.1545C28.9803 25.7856 29.0202 26.429 28.9104 27.0448C28.7284 28.0631 28.0409 28.6631 27.0587 28.9368C26.9665 28.9625 26.8708 28.9754 26.7769 28.9942Z" fill="#848484"/>
<path d="M24.4307 12.7545C24.4313 11.923 24.4324 11.0916 24.433 10.2607C24.6984 10.2977 24.9661 10.324 25.2286 10.3773C25.3049 10.3932 25.4229 10.484 25.4241 10.5432C25.437 11.1783 25.4346 11.8141 25.4217 12.4486C25.4205 12.5014 25.3201 12.5828 25.2538 12.598C24.982 12.6613 24.7054 12.7041 24.4307 12.7545Z" fill="#848484"/>
<path d="M18.2158 26.471C18.4436 26.0145 18.5657 25.5358 18.5152 25.0213C18.7671 25.0196 19.0184 25.0213 19.2703 25.0149C19.4441 25.0096 19.5004 25.0876 19.5134 25.2575C19.5721 26.0092 19.0448 26.6268 18.2158 26.471Z" fill="white"/>
<path d="M1.99387 7.98739C2.00209 8.24871 1.75492 8.49012 1.47251 8.49657C1.22592 8.50242 1.00869 8.28211 0.999294 8.01785C0.990487 7.76356 1.19774 7.52274 1.44198 7.50399C1.7009 7.48465 1.98565 7.73367 1.99387 7.98739Z" fill="#848484"/>
<path d="M7.25583 26.0073C7.49889 26.0073 7.74196 26.0008 7.98503 26.009C8.27859 26.019 8.5105 26.2159 8.49054 26.4643C8.46294 26.803 8.33319 26.984 7.99912 26.9981C7.50418 27.0192 7.00748 27.0128 6.51195 27.0005C6.21369 26.9928 5.96828 26.7432 5.97884 26.4954C5.99 26.2323 6.23013 26.0149 6.52721 26.0085C6.77028 26.0032 7.01335 26.0073 7.25641 26.0079L7.25583 26.0073Z" fill="#F5F5F5"/>
<path d="M4.99061 26.4964C4.99178 26.7712 4.74108 27.0197 4.47042 27.0115C4.2479 27.0044 3.98663 26.7361 3.98487 26.5128C3.98311 26.2498 4.21737 26.0148 4.48745 26.0089C4.77396 26.0025 4.98885 26.2111 4.99061 26.4964Z" fill="#F5F5F5"/>
<path d="M2.05664 26.767C2.06603 26.5777 2.07543 26.3884 2.08424 26.1986C2.3273 25.9771 2.60384 25.9455 2.81285 26.1142C3.00719 26.2718 3.04887 26.5461 2.91266 26.7711C2.74005 27.0558 2.37662 27.0541 2.05664 26.767Z" fill="#F5F5F5"/>
<path d="M22.8078 9.72872C22.8624 10.46 22.9469 11.1906 22.961 11.9225C22.9692 12.3602 22.8665 12.8002 22.8142 13.2391C22.6669 13.7067 22.5195 14.1742 22.3715 14.6412C21.9195 15.5992 21.3635 16.4863 20.5902 17.2223C19.2633 18.4867 17.6934 19.2338 15.8692 19.4541C13.7045 19.7154 11.7823 19.1026 10.0743 17.8053C9.01459 17.0002 8.22492 15.9596 7.67949 14.735C7.18689 13.6281 6.93796 12.4709 6.98081 11.2674C7.03366 9.78908 7.45873 8.41212 8.27248 7.167C9.25766 5.65939 10.5957 4.58126 12.2884 3.9713C13.3828 3.57638 14.5135 3.44161 15.6866 3.55997C16.6407 3.65607 17.5472 3.87228 18.412 4.2754C19.7236 4.88654 20.784 5.7965 21.596 6.99122C21.8361 7.34454 22.0328 7.72657 22.2494 8.09513C22.2747 8.15079 22.2999 8.20587 22.3257 8.26154C22.3639 8.33126 22.4015 8.40099 22.4396 8.47072C22.5624 8.89025 22.6851 9.30919 22.8072 9.72872H22.8078ZM17.1074 18.1498C17.1268 18.1516 17.1485 18.1598 17.165 18.1539C19.2375 17.4221 20.703 16.0674 21.5196 14.0037C21.9811 12.8377 22.0833 11.6418 21.9042 10.4295C21.6629 8.79884 20.9208 7.40665 19.6843 6.3004C18.9504 5.64415 18.1284 5.13146 17.1673 4.87013C16.1035 4.48517 15.0056 4.4254 13.9006 4.58888C12.5103 4.79396 11.2961 5.39572 10.2634 6.34904C8.84961 7.65392 8.10808 9.28927 7.97833 11.193C7.91844 12.076 8.0752 12.9455 8.37874 13.7828C8.95412 15.3695 9.94576 16.6176 11.3918 17.4977C12.2725 18.0332 13.2225 18.3449 14.2499 18.468C15.2339 18.5858 16.178 18.4668 17.1068 18.1504L17.1074 18.1498Z" fill="#848484"/>
<path d="M17.1074 18.1504C17.4033 17.933 17.7028 17.7209 17.9934 17.4971C19.6673 16.2109 20.6636 14.5281 20.9243 12.4281C21.1891 10.2947 20.6254 8.3875 19.2757 6.72461C18.7467 6.07305 18.1179 5.51465 17.3851 5.08574C17.2994 5.03594 17.2389 4.94277 17.1673 4.87012C18.1284 5.13145 18.9504 5.64414 19.6843 6.30039C20.9208 7.40664 21.6629 8.79883 21.9042 10.4295C22.0838 11.6418 21.9811 12.8377 21.5196 14.0037C20.7029 16.0674 19.2375 17.4227 17.165 18.1539C17.1485 18.1598 17.1268 18.1516 17.1074 18.1498V18.1504Z" fill="#848484"/>
<path d="M10.5034 11.7805L10.5169 11.7061C10.5334 11.7254 10.5504 11.7447 10.5668 11.7641C10.5457 11.7693 10.5246 11.7746 10.5034 11.7799V11.7805Z" fill="#C6D8FB"/>
<circle cx="15.6523" cy="11.7392" r="7.82609" fill="#848484"/>
<path d="M9.14042 11.4496C9.13735 12.1623 9.13659 12.8758 9.12969 13.5885C9.1251 14.0458 8.85092 14.3517 8.46185 14.3479C8.10113 14.3448 7.83001 14.0313 7.82924 13.6038C7.82771 11.9482 7.83077 10.2933 7.82618 8.63765C7.82541 8.27975 7.89281 7.96621 8.28723 7.86145C8.68855 7.75438 8.91755 7.88668 9.13659 8.31799C9.34414 8.72559 9.5471 9.13472 9.78988 9.61956C10.0196 9.16072 10.2203 8.75771 10.424 8.35623C10.6515 7.90657 10.8782 7.77197 11.2542 7.85839C11.5843 7.93486 11.7375 8.18034 11.7375 8.65829C11.739 10.3139 11.7413 11.9688 11.7352 13.6244C11.7337 14.0657 11.4648 14.3402 11.0681 14.3448C10.735 14.3486 10.4677 14.0626 10.4386 13.6596C10.4286 13.5204 10.4347 13.3797 10.4347 13.2398C10.4347 12.6425 10.4347 12.0453 10.4347 11.3654C10.0089 11.7593 9.61219 11.8625 9.22313 11.4281C9.20169 11.4029 9.17948 11.3777 9.15803 11.3524C9.1519 11.3846 9.14654 11.4167 9.14042 11.4496Z" fill="white"/>
<path d="M21.4869 7.82689C22.2401 7.81001 22.792 8.09082 23.1832 8.67393C23.3853 8.97545 23.3424 9.38363 23.1044 9.58081C22.8051 9.82786 22.4606 9.78029 22.1559 9.47877C22.0166 9.34143 21.8528 9.19105 21.6737 9.14041C21.317 9.03913 20.9771 9.30537 20.9312 9.66674C20.8791 10.0688 21.1685 10.4056 21.5902 10.4348C22.1643 10.4746 22.6405 10.6741 23.0523 11.1191C23.6999 11.8181 23.631 13.3411 22.6971 13.9833C21.7571 14.63 20.4987 14.3968 19.9215 13.4393C19.7087 13.0863 19.7439 12.7794 20.0218 12.5593C20.3058 12.3344 20.7092 12.3813 20.974 12.6782C21.1792 12.9083 21.3568 13.1531 21.7364 12.9874C22.1046 12.827 22.2233 12.659 22.1598 12.2094C22.1146 11.8871 21.8681 11.7736 21.5918 11.7414C20.4259 11.6056 19.7806 11.067 19.5816 9.92377C19.4469 9.15422 20.1626 7.86142 21.3858 7.82766C21.4364 7.82612 21.4877 7.82766 21.4861 7.82766L21.4869 7.82689Z" fill="white"/>
<path d="M16.5966 9.17856V12.9935C16.9794 13.0356 17.3408 13.0685 17.6982 13.1159C18.1331 13.1732 18.2587 13.3972 18.2423 13.7022C18.227 13.9981 18.0963 14.2214 17.6716 14.2856C17.5083 14.31 17.3429 14.3429 17.1785 14.3437C16.1443 14.349 15.1091 14.349 14.0749 14.3452C13.4899 14.3429 13.0305 14.044 13.0437 13.6847C13.057 13.3292 13.4909 13.0539 14.0585 13.0448C14.277 13.0409 14.4945 13.0448 14.764 13.0448V9.15027C14.4975 9.15027 14.2474 9.15944 13.9983 9.14797C13.5093 9.12657 13.056 8.80088 13.0458 8.47596C13.0356 8.14721 13.4725 7.83682 14.0034 7.83223C15.1224 7.82229 16.2423 7.82688 17.3613 7.82994C17.8156 7.83146 18.1647 7.96143 18.2403 8.32917C18.3311 8.77183 18.1249 9.00654 17.543 9.10822C17.253 9.15868 16.9468 9.15486 16.5976 9.17932L16.5966 9.17856Z" fill="white"/>
</g>
<defs>
<clipPath id="clip0_33_851">
<rect width="30" height="30" fill="white"/>
</clipPath>
</defs>
</svg>
