<?xml version="1.0" encoding="UTF-8"?>
<svg id="Layer_1" data-name="Layer 1" xmlns="http://www.w3.org/2000/svg" width="250" height="250" viewBox="0 0 250 250">
  <g>
    <g>
      <path d="M134.6,81.8c4.4,2.1,8.7,4.3,13.1,6.4-.4,.8-.7,1.5-1.1,2.2-4.4,9.1-8.8,18.1-13.3,27.2-1.2,2.4-2.9,4.5-4.6,6.6-1.8,2.1-3.7,4.1-6,5.7-.2,.1-.4,.3-.7,.4-.8,.2-1.2,.8-1.5,1.6-.2,.5-.5,1-.8,1.5-.4,.8-1.4,1.1-2.2,.7-.8-.4-1.2-1.3-.9-2.2,.4-.8,1-1.6,1.2-2.4,.1-.8-.3-1.8-.4-2.7-.2-2.6,.1-5.1,.6-7.6,.4-2.5,.9-4.9,1.9-7.2,1-2.4,2.3-4.7,3.4-7.1,3.7-7.6,7.4-15.2,11.1-22.8,0,0,0-.2,.2-.3Z" fill="#40403f"/>
      <path d="M150.3,83c-4.4-2.2-8.7-4.3-13.1-6.4,.3-.7,.6-1.4,1-2,3.1-6.5,6.3-12.9,9.4-19.4,1.5-3.1,5.1-5.1,8.4-4.5,2,.3,3.4,1.5,4.2,3.3,1.3,2.7,1.6,5.5,.2,8.3-3.3,6.7-6.5,13.4-9.7,20.1,0,.2-.2,.4-.3,.7Z" fill="#40403f"/>
      <path d="M127.8,76.7c0-.3,.2-.7,.4-1.1,3.7-7.5,7.4-15,11.1-22.6,.6-1.3,2.1-2,3.4-1.8,1.5,.2,2.6,1.3,2.8,2.8,0,.7,0,1.4-.3,2-3.6,7.5-7.3,15-10.9,22.5-.7,1.5-2.1,2.2-3.7,1.9-1.4-.2-2.5-1.4-2.7-2.8,0-.3,0-.5,0-.9Z" fill="#40403f"/>
    </g>
    <path d="M82.5,134c-1-.4-1.7-1.2-2.2-2.3,2.6-1.5,5.3-1.6,8,0,.4,.2,.7,.3,1.1,.5,4,2.1,5.7,1.7,8.7-1.9,1.1-1.3,2.1-2.6,3.3-3.7,1.9-1.8,4-1.5,5.5,.7,.7,1.1,1.3,2.3,2,3.5,1.9,3,3.8,3.7,7,2.7,.9-.3,1.9-.6,2.3,.8,.4,1.2-.4,1.8-1.4,2.2-3.2,1.3-7,.4-9.3-2.4-.6-.7-1.1-1.5-1.5-2.3q-2.2-3.9-4.9-.5c-.6,.8-1.2,1.5-1.9,2.2-3.2,3.4-6.3,4-10.3,2-2.1-1.1-4.1-2.2-6.4-1.4Z" fill="#40403f"/>
    <g>
      <path d="M190.7,90.2c0,37.1-30.3,66.7-66.6,66.7-36.8,0-67.3-29.8-66.8-67.7,.5-36.2,29.8-65.8,67.1-65.8,36.6,0,66.4,30.1,66.4,66.8Zm-67.2,1.1c-1-1.1-2-2.3-3.2-3.2-.4-.7-1-1.4-1.8-1.7,0-.6-.5-.8-.9-1.1-5.9-5.9-11.7-11.7-17.6-17.6-7.2-7.2-14.3-14.3-21.5-21.5-.6-.6-1-.8-1.7,0-10.6,11.3-16,24.8-17.3,40.1-.3,3.2-.2,6.6,.2,9.9,.9,7.7,2.7,15,6.1,22,7.3,14.8,18.5,25.6,33.9,31.8,7.6,3.1,15.5,4.9,23.8,4.8,3.6,0,7.2-.1,10.8-.8,12.7-2.2,24-7.4,33.5-16.3,.9-.8,.9-1.3,0-2.2-6.1-6-12.1-12-18.1-18-4.4-4.4-8.8-8.7-13.2-13-.5-.7-1.1-1.3-1.8-1.8-3-3.3-6.2-6.5-9.5-9.5-.5-.7-1.1-1.3-1.8-1.8Zm12.1,8.7c.4,.7,1,1.2,1.7,1.6,.1,.5,.6,.8,.9,1.1,10.4,10.5,20.9,20.9,31.3,31.4,.9,.9,1.4,.5,2-.2,12.8-14.4,18.5-31.2,16.7-50.5-1.1-11.2-4.7-21.5-11.5-30.5-16.3-21.9-38.2-30.5-65.1-26.1-11.9,2-22.2,7.6-31.2,15.7-1.1,.9-1.1,1.4,0,2.5,10.6,10.6,21.2,21.2,31.8,31.7,2.3,2.3,4.5,4.8,7.1,6.9,.5,.7,1.1,1.3,1.8,1.8,1,1.2,1.9,2.3,3.2,3.1,.4,.8,.9,1.3,1.7,1.7,2.9,3.5,6.3,6.6,9.6,9.7Z" fill="#606161"/>
      <path d="M84.7,133c1.9,2.3,4.3,3.9,6.7,5.5,10.7,7.2,22.5,10.4,35.3,9.9,.8,0,2-.5,2.1,.9,0,1.3-1.1,1.1-2,1.1-13.3,.4-25.6-2.9-36.7-10.4-2.7-1.8-5.1-3.9-7.6-5.9-.3-.7-.8-1.1-1.5-1.5,0-1.6,.4-1.8,1.9-1.2,.4,.7,.9,1.3,1.7,1.6Z" fill="#606161"/>
      <path d="M132.8,147.8c.7,0,1.3,.2,1.3,.9,0,1.1-1,1.1-1.7,1.1-.6,0-1.2-.1-1.2-.9,0-1.2,1-1,1.7-1.2Z" fill="#606161"/>
      <path d="M152.8,140.9c.9,0,1.3,.2,1.3,.9,0,1.1-1,1.2-1.8,1.5-.6,.2-1.1-.3-1.1-.9,0-1.1,1.1-1.1,1.5-1.5Z" fill="#606161"/>
      <path d="M144.5,146.3c-.3,1-1.1,1.1-2,1.2-.7,0-1-.4-1-1,0-1.2,1.2-1,1.9-1.2,.6-.1,.9,.4,1.1,1Z" fill="#606161"/>
      <path d="M148.3,143.3c.8,0,1.2,.4,1.1,1-.1,.9-1,1.2-1.8,1.3-.6,.1-1.1-.3-1.1-.9,0-1.1,1.1-1.1,1.7-1.4Z" fill="#606161"/>
      <path d="M139.3,147.9c-.2,1-1.2,.9-1.9,1.1-.7,.1-1-.4-.9-1,.1-1.1,1-1,1.8-1.1,.7,0,1,.2,1.1,1Z" fill="#606161"/>
      <path d="M81.1,132.7c.6,.3,1.2,.8,1.5,1.5-.5,.4-1,.4-1.4,0-.5-.4-.4-.9,0-1.4Z" fill="#606161"/>
      <path d="M124.2,29.9c16.2,.1,30.1,5.8,41.9,16.9,.2,.2,.4,.3,.5,.5,.4,.5,.6,1.1,0,1.6-.5,.5-1,.3-1.5-.1-.8-.7-1.6-1.5-2.4-2.2-12.2-10.7-26.4-15.6-42.6-14.6-.8,0-1.6,.1-1.7-.9,0-1,.8-1,1.6-1.1,.1,0,.3,0,.4,0,1.2,0,2.5,0,3.7,0Z" fill="#606161"/>
      <path d="M95.8,38.5c-.1,1-1,1.2-1.8,1.4-.5,0-1-.2-1-.8,0-1.2,1-1.3,1.8-1.5,.5-.1,.9,.3,.9,1Z" fill="#606161"/>
      <path d="M109.6,31.6c.6,0,1.1,.2,1.1,.8,0,1.1-1,1.1-1.7,1.2-.7,.1-1.3-.3-1.2-1,0-1,1-1,1.8-1.1Z" fill="#606161"/>
      <path d="M98.9,37.4c-.7,0-1.2-.2-1.1-.9,0-1.1,1-1.2,1.8-1.4,.6-.1,1.1,.3,1,.9,0,1.1-1,1.2-1.7,1.4Z" fill="#606161"/>
      <path d="M114.2,32.6c-.7,0-1.2-.3-1.1-1,.1-1.1,1.1-1,1.8-1.1,.7,0,1.1,.3,1.1,1,0,.6-.8,1.1-1.8,1.1Z" fill="#606161"/>
      <path d="M103.9,35.3c-.8,0-1.3-.3-1.2-.9,.1-1.1,1.1-1.1,1.9-1.3,.6,0,1.1,.3,1,.9-.1,1.1-1.1,1.1-1.7,1.2Z" fill="#606161"/>
    </g>
  </g>
  <text transform="translate(29.4 196.6)" fill="#40403f" font-family="Graphik-Medium, Graphik" font-size="25.4"><tspan x="0" y="0">NO SIGN</tspan><tspan x="108.3" y="0" letter-spacing="0em">A</tspan><tspan x="124.4" y="0" letter-spacing="0em">TURE</tspan><tspan x="27.2" y="30.5" letter-spacing="0em">AV</tspan><tspan x="58.9" y="30.5">AI</tspan><tspan x="84.6" y="30.5" letter-spacing="0em">L</tspan><tspan x="98.7" y="30.5">ABLE</tspan></text>
</svg>