<svg xmlns="http://www.w3.org/2000/svg" width="22.097" height="26.93" viewBox="0 0 22.097 26.93">
  <path id="Icon_material-notifications-active" data-name="Icon material-notifications-active" d="M24.38,15.489c0-4.24-2.265-7.789-6.215-8.728V5.822a2.072,2.072,0,1,0-4.143,0v.939c-3.964.939-6.215,4.475-6.215,8.728v6.905L5.046,25.156v1.381h22.1V25.156L24.38,22.394ZM16.094,30.68a2.419,2.419,0,0,0,.552-.055A2.8,2.8,0,0,0,18.635,29a2.773,2.773,0,0,0,.207-1.077H13.318A2.782,2.782,0,0,0,16.094,30.68Z" transform="translate(-5.046 -3.75)" fill="#8f8d8d"/>
</svg>
