<?xml version="1.0" encoding="utf-8"?>
<!-- Generator: Adobe Illustrator 25.2.3, SVG Export Plug-In . SVG Version: 6.00 Build 0)  -->
<svg version="1.1" id="Layer_1" xmlns="http://www.w3.org/2000/svg" xmlns:xlink="http://www.w3.org/1999/xlink" x="0px" y="0px"
	 viewBox="0 0 40 30" style="enable-background:new 0 0 40 30;" xml:space="preserve">
<style type="text/css">
	.st0{fill:#CA0027;}
	.st1{fill:#AFAFAF;}
</style>
<g>
	<path class="st0" d="M15.4,21.5H6.9v-7.9h8.6V21.5z"/>
	<path class="st0" d="M38.5,11.6V7.8c0-2.6-1.5-4.7-3.3-4.7H4.8C3,3.1,1.5,5.2,1.5,7.8v3.8H38.5z"/>
	<path class="st0" d="M1.5,11.1V24c0,1.8,1.5,3.3,3.3,3.3h30.5c1.8,0,3.3-1.5,3.3-3.3V11.1H1.5z M21.2,17.7c0-0.6,0.5-1.1,1.1-1.1
		h9.2c0.6,0,1.1,0.5,1.1,1.1s-0.5,1.1-1.1,1.1h-9.2C21.7,18.8,21.2,18.3,21.2,17.7z M21.2,21.4c0-0.6,0.5-1.1,1.1-1.1h9.2
		c0.6,0,1.1,0.5,1.1,1.1s-0.5,1.1-1.1,1.1h-9.2C21.7,22.5,21.2,22,21.2,21.4z M21.2,13.6c0-0.6,0.5-1.1,1.1-1.1h9.2
		c0.6,0,1.1,0.5,1.1,1.1c0,0.6-0.5,1.1-1.1,1.1h-9.2C21.7,14.7,21.2,14.2,21.2,13.6z M5.8,13.9c0-0.9,0.6-1.7,1.3-1.7h8.2
		c0.7,0,1.3,0.8,1.3,1.7v7.3c0,0.9-0.6,1.7-1.3,1.7H7.1c-0.7,0-1.3-0.8-1.3-1.7V13.9z"/>
</g>
</svg>
