<svg width="13" height="19" viewBox="0 0 13 19" fill="none" xmlns="http://www.w3.org/2000/svg">
<path d="M10.367 6.50781H1.94859C0.870197 6.50781 0 7.37801 0 8.45641V16.0538C0 17.132 0.870197 18.0024 1.94859 18.0024H10.367C11.4452 18.0024 12.3156 17.132 12.3156 16.0538V8.45641C12.3156 7.37801 11.4452 6.50781 10.367 6.50781ZM7.01717 13.5414V16.4204H5.29838V13.5414C4.64698 13.2294 4.19818 12.5616 4.19818 11.7844C4.19818 10.7006 5.07398 9.8194 6.15778 9.8194C7.24157 9.8194 8.11717 10.7006 8.11717 11.7844C8.11717 12.5616 7.66837 13.2294 7.01717 13.5414Z" fill="white"/>
<path d="M2.41706 5.70178C3.02166 5.70178 3.51186 5.21158 3.51186 4.60718V4.12258C3.51186 3.05499 4.37725 2.18959 5.44485 2.18959H6.87004C7.93764 2.18959 8.80304 3.05499 8.80304 4.12258V4.60718C8.80304 5.21178 9.29324 5.70178 9.89783 5.70178C10.5024 5.70178 10.9924 5.21158 10.9924 4.60718V4.12258C10.9924 1.84579 9.14684 0 6.87004 0H5.44485C3.16806 0 1.32227 1.84579 1.32227 4.12258V4.60718C1.32227 5.21178 1.81246 5.70178 2.41706 5.70178Z" fill="white"/>
</svg>
