<svg xmlns="http://www.w3.org/2000/svg" width="21.392" height="19.999" viewBox="0 0 21.392 19.999"><defs><style>.a{fill:#ca857d;}</style></defs><path class="a" d="M290.414,235.051a5.985,5.985,0,0,1-.41.989,2.512,2.512,0,0,1-2.129,1.186c-.9.033-1.81.017-2.715.007a.777.777,0,1,1,.008-1.553c.682-.012,1.365,0,2.047,0h.293c-.262-.344-.481-.666-.736-.96a8.938,8.938,0,0,0-5.209-2.994,9.2,9.2,0,0,0-7.076,1.392,8.163,8.163,0,0,0-3.512,4.79,7.7,7.7,0,0,0,1.249,6.752,8.853,8.853,0,0,0,6.176,3.661,17.917,17.917,0,0,0,1.873.078,3.572,3.572,0,0,1,.5.016.774.774,0,0,1,.658.81.814.814,0,0,1-.774.721c-.131.01-.261.024-.392.037h-1.17c-.068-.012-.135-.026-.2-.035-.393-.048-.79-.075-1.179-.145a10.594,10.594,0,0,1-5.872-3.068,9.375,9.375,0,0,1-2.759-7.762,9.1,9.1,0,0,1,2.556-5.532,10.811,10.811,0,0,1,10.082-3.274,10.445,10.445,0,0,1,6.484,3.726c.178.213.342.436.545.7v-.233c0-.638,0-1.277,0-1.915a.744.744,0,0,1,.511-.72.806.806,0,0,1,.888.152,1.975,1.975,0,0,1,.271.408Q290.414,233.664,290.414,235.051Z" transform="translate(-269.023 -229.978)"/><path class="a" d="M438.843,313.652c0,1.009,0,2.019,0,3.028a.9.9,0,0,1-.307.7q-1.6,1.49-3.193,2.982a.854.854,0,0,1-1.447-.289.74.74,0,0,1,.248-.8l1.034-.967c.611-.571,1.219-1.144,1.834-1.711a.441.441,0,0,0,.161-.355q-.008-2.823,0-5.646a.8.8,0,0,1,.555-.813.825.825,0,0,1,1.115.765c.006,1,0,1.993,0,2.989C438.843,313.574,438.843,313.613,438.843,313.652Z" transform="translate(-427.314 -306.772)"/><path class="a" d="M621.107,697.035a.858.858,0,0,1-.8-.6.732.732,0,0,1,.374-.856c.278-.147.564-.283.856-.4a.849.849,0,0,1,1.066.362.733.733,0,0,1-.3,1.006c-.28.156-.577.286-.873.416A1.731,1.731,0,0,1,621.107,697.035Z" transform="translate(-606.324 -677.838)"/><path class="a" d="M755.629,532.586a8.377,8.377,0,0,1,.321-.991.808.808,0,0,1,.976-.366.743.743,0,0,1,.56.833,5.963,5.963,0,0,1-.265.96.837.837,0,0,1-1.591-.436Z" transform="translate(-736.297 -520.002)"/><path class="a" d="M706.513,626.954a2.959,2.959,0,0,1-.23.466,7.163,7.163,0,0,1-.508.594.875.875,0,0,1-1.174.133.739.739,0,0,1-.135-1.1c.179-.223.37-.44.569-.648a.852.852,0,0,1,.916-.2A.883.883,0,0,1,706.513,626.954Z" transform="translate(-686.99 -611.433)"/></svg>