<svg xmlns="http://www.w3.org/2000/svg" width="36.284" height="34.745" viewBox="0 0 36.284 34.745"><defs><style>.a{fill:#fff;}</style></defs><g transform="translate(-21.8 -20.1)"><path class="a" d="M61.1,67.177c-.66-.165-1.374-.22-2.034-.44a9.82,9.82,0,1,1,12.48-11.05l.165.825v1.649c0,.055-.055.165-.055.22a9.771,9.771,0,0,1-6.762,8.3,15.805,15.805,0,0,1-2.2.495Zm-6.707-9.841a7.559,7.559,0,1,0,15.118,0,7.559,7.559,0,0,0-15.118,0Z" transform="translate(-13.628 -12.332)"/><path class="a" d="M52.807,26.752c-1.1.55-2.2,1.1-3.244,1.594-3.079,1.539-6.157,3.079-9.236,4.563a4.193,4.193,0,0,1-3.793,0C32.52,30.93,28.452,28.9,24.439,26.917a1.831,1.831,0,0,0-.33-.165v10.94a1.157,1.157,0,0,0,1.264,1.264H35.709a1.153,1.153,0,0,1,1.209.935,1.176,1.176,0,0,1-1.1,1.374H25.373A3.405,3.405,0,0,1,21.8,37.692V23.673A3.376,3.376,0,0,1,25.373,20.1H51.487a3.405,3.405,0,0,1,3.573,3.573v8.851a1.189,1.189,0,0,1-.825,1.154,1.079,1.079,0,0,1-1.264-.55,1.756,1.756,0,0,1-.165-.77V27.192C52.807,27.082,52.807,26.972,52.807,26.752ZM38.458,22.3H25.373a1.173,1.173,0,0,0-1.319,1.264v.275c-.055.275.055.385.33.55,4.343,2.144,8.741,4.288,13.084,6.487a2.1,2.1,0,0,0,1.979,0c1.539-.77,3.079-1.539,4.673-2.309,2.8-1.374,5.608-2.749,8.411-4.178.11-.055.275-.165.275-.22a3.928,3.928,0,0,0-.11-1.155,1.136,1.136,0,0,0-1.209-.66C47.144,22.3,42.8,22.3,38.458,22.3Z"/><path class="a" d="M70.154,59.878H72.9a2.062,2.062,0,0,1,.55.055,1.079,1.079,0,0,1,.88,1.155,1.123,1.123,0,0,1-1.045,1.045H69a1.14,1.14,0,0,1-1.1-1.1V56.8a1.127,1.127,0,0,1,2.254.055v2.584C70.154,59.6,70.154,59.713,70.154,59.878Z" transform="translate(-20.756 -16.028)"/></g></svg>