<svg xmlns="http://www.w3.org/2000/svg" width="37.427" height="37.428" viewBox="0 0 37.427 37.428"><defs><style>.a{fill:#d6b118;}</style></defs><g transform="translate(0 0)"><path class="a" d="M306.449,239.471a11.629,11.629,0,0,1-.718,1.851,4.34,4.34,0,0,1-3.726,2.22c-1.581.062-3.168.033-4.751.014a1.454,1.454,0,0,1,.014-2.907c1.194-.022,2.388-.007,3.582-.008h.512c-.459-.644-.842-1.246-1.288-1.8a15.443,15.443,0,0,0-9.114-5.6,15.779,15.779,0,1,0-5.536,31.056,29.343,29.343,0,0,0,3.277.147,5.834,5.834,0,0,1,.87.029,1.43,1.43,0,0,1,1.151,1.515,1.469,1.469,0,0,1-1.355,1.349c-.229.019-.457.046-.685.069h-2.047c-.119-.022-.236-.049-.356-.065-.687-.09-1.383-.141-2.062-.272a18.735,18.735,0,0,1-15.1-20.267,17.575,17.575,0,0,1,4.472-10.354,18.728,18.728,0,0,1,28.985.845c.311.4.6.817.953,1.3v-.437c0-1.194-.008-2.389,0-3.583a1.39,1.39,0,0,1,.893-1.348,1.342,1.342,0,0,1,1.554.284,3.721,3.721,0,0,1,.473.763Q306.448,236.876,306.449,239.471Z" transform="translate(-269.023 -229.978)"/><path class="a" d="M442.575,317.067c0,1.889-.006,3.778,0,5.667a1.741,1.741,0,0,1-.537,1.309q-2.8,2.788-5.586,5.58a1.466,1.466,0,1,1-2.1-2.037q.9-.906,1.809-1.81c1.068-1.068,2.133-2.141,3.209-3.2a.849.849,0,0,0,.282-.665q-.015-5.283-.006-10.566a1.492,1.492,0,0,1,.97-1.521,1.459,1.459,0,0,1,1.95,1.432c.011,1.864,0,3.729,0,5.594C442.575,316.92,442.575,316.994,442.575,317.067Z" transform="translate(-422.405 -304.19)"/><path class="a" d="M621.728,698.708a1.519,1.519,0,0,1-1.4-1.117,1.407,1.407,0,0,1,.654-1.6,16.117,16.117,0,0,1,1.5-.754,1.44,1.44,0,0,1,1.864.677,1.421,1.421,0,0,1-.53,1.883c-.49.292-1.01.535-1.526.778A2.832,2.832,0,0,1,621.728,698.708Z" transform="translate(-595.863 -662.782)"/><path class="a" d="M755.629,533.8a16.523,16.523,0,0,1,.561-1.855,1.375,1.375,0,0,1,1.708-.685,1.391,1.391,0,0,1,.979,1.558,11.79,11.79,0,0,1-.464,1.8,1.411,1.411,0,0,1-1.7.851A1.527,1.527,0,0,1,755.629,533.8Z" transform="translate(-721.805 -510.252)"/><path class="a" d="M708.185,627.657a5.7,5.7,0,0,1-.4.872,13.273,13.273,0,0,1-.889,1.111,1.462,1.462,0,0,1-2.054.25,1.444,1.444,0,0,1-.236-2.052c.314-.418.647-.824,1-1.213a1.423,1.423,0,0,1,1.6-.372A1.642,1.642,0,0,1,708.185,627.657Z" transform="translate(-674.027 -598.61)"/></g></svg>