<?xml version="1.0" encoding="utf-8"?>
<!-- Generator: Adobe Illustrator 25.2.3, SVG Export Plug-In . SVG Version: 6.00 Build 0)  -->
<svg version="1.1" id="Layer_1" xmlns="http://www.w3.org/2000/svg" xmlns:xlink="http://www.w3.org/1999/xlink" x="0px" y="0px"
	 viewBox="0 0 28.2 28" style="enable-background:new 0 0 28.2 28;" xml:space="preserve">
<style type="text/css">
	.st0{fill:#535353;}
	.st1{fill:#FFFFFF;}
</style>
<path id="Icon_awesome-user-check" class="st1" d="M11.4,13.2c2.8,0,5.1-2.3,5.1-5.1s-2.3-5.1-5.1-5.1S6.3,5.3,6.3,8.1c0,0,0,0,0,0
	C6.3,10.9,8.6,13.2,11.4,13.2z M14.9,14.4h-0.7c-1.8,0.8-3.9,0.8-5.8,0H7.8c-2.9,0-5.3,2.4-5.3,5.3c0,0,0,0,0,0v1.6
	c0,1,0.8,1.9,1.9,1.9h13.9c1,0,1.9-0.8,1.9-1.9v-1.6C20.2,16.8,17.8,14.4,14.9,14.4L14.9,14.4z M27.6,9.4l-1.1-1.1
	c-0.2-0.2-0.5-0.2-0.7,0c0,0,0,0,0,0l-4.1,4.1L20,10.6c-0.2-0.2-0.5-0.2-0.7,0c0,0,0,0,0,0l-1.1,1.1c-0.2,0.2-0.2,0.5,0,0.7
	c0,0,0,0,0,0l3.2,3.2c0.2,0.2,0.5,0.2,0.7,0c0,0,0,0,0,0l5.6-5.5C27.8,9.9,27.8,9.6,27.6,9.4L27.6,9.4z"/>
</svg>
