<?xml version="1.0" encoding="utf-8"?>
<!-- Generator: Adobe Illustrator 25.2.3, SVG Export Plug-In . SVG Version: 6.00 Build 0)  -->
<svg version="1.1" id="Layer_1" xmlns="http://www.w3.org/2000/svg" xmlns:xlink="http://www.w3.org/1999/xlink" x="0px" y="0px"
	 viewBox="0 0 25 25" style="enable-background:new 0 0 25 25;" xml:space="preserve">
<style type="text/css">
	.st0{fill:#535353;}
</style>
<g id="OTP">
	<path class="st0" d="M23.2,5.4h-9.5V3c0-0.8-0.7-1.5-1.5-1.5c0,0,0,0,0,0H3.8C2.9,1.5,2.2,2.2,2.2,3c0,0,0,0,0,0v19
		c0,0.8,0.7,1.5,1.5,1.5h8.4c0.8,0,1.5-0.7,1.5-1.5v-7.7h9.5c0.6,0,1.1-0.5,1.1-1.1V6.5C24.3,5.9,23.8,5.4,23.2,5.4
		C23.2,5.4,23.2,5.4,23.2,5.4z M6.9,2.4h2.2c0.3,0,0.6,0.2,0.6,0.6S9.4,3.5,9.1,3.5H6.9C6.6,3.5,6.3,3.3,6.3,3S6.6,2.4,6.9,2.4z
		 M9.1,22.6H6.9c-0.3,0-0.6-0.2-0.6-0.6c0-0.3,0.2-0.6,0.6-0.6h2.2c0.3,0,0.6,0.2,0.6,0.6C9.6,22.3,9.4,22.6,9.1,22.6z M12.7,20.5
		H3.2V4.5h9.5v1H6.9c-0.6,0-1.1,0.5-1.1,1.1v6.6c0,0.6,0.5,1.1,1.1,1.1c0,0,0,0,0,0h2V16c0,0.3,0.2,0.5,0.5,0.5
		c0.1,0,0.3-0.1,0.4-0.2l2.2-2.2h0.8V20.5z M11.5,10.3c0.3,0.2,0.4,0.5,0.2,0.8c-0.1,0.3-0.5,0.4-0.7,0.2c0,0,0,0,0,0l-0.7-0.4v0.8
		c0,0.3-0.2,0.6-0.6,0.6c-0.3,0-0.6-0.2-0.6-0.6v-0.8l-0.7,0.4c-0.3,0.2-0.6,0.1-0.8-0.2c0,0,0,0,0,0c-0.2-0.3-0.1-0.6,0.2-0.8
		l0.7-0.4L7.9,9.4C7.7,9.3,7.6,9,7.7,8.7c0.2-0.3,0.5-0.4,0.8-0.2l0,0l0.7,0.4V8.1c0-0.3,0.2-0.6,0.6-0.6c0.3,0,0.6,0.2,0.6,0.6v0.8
		L11,8.5c0.3-0.2,0.6-0.1,0.8,0.2c0.2,0.3,0.1,0.6-0.2,0.8l-0.7,0.4L11.5,10.3z M16.8,10.3c0.3,0.2,0.4,0.5,0.2,0.8
		c-0.1,0.3-0.5,0.4-0.7,0.2c0,0,0,0,0,0l-0.7-0.4v0.8c0,0.3-0.2,0.6-0.6,0.6s-0.6-0.2-0.6-0.6v-0.8l-0.7,0.4
		c-0.3,0.2-0.6,0.1-0.8-0.2c0,0,0,0,0,0c-0.2-0.3-0.1-0.6,0.2-0.8l0.7-0.4l-0.7-0.4C13,9.3,12.9,9,13,8.7c0.2-0.3,0.5-0.4,0.8-0.2
		l0.7,0.4V8.1c0-0.3,0.2-0.6,0.6-0.6s0.6,0.2,0.6,0.6v0.8l0.7-0.4c0.3-0.2,0.6-0.1,0.8,0.2c0.2,0.3,0.1,0.6-0.2,0.8l-0.7,0.4
		L16.8,10.3z M22.1,10.3c0.3,0.2,0.4,0.5,0.2,0.8c-0.1,0.3-0.5,0.4-0.7,0.2c0,0,0,0,0,0l-0.7-0.4v0.8c0,0.3-0.2,0.6-0.6,0.6
		c-0.3,0-0.6-0.2-0.6-0.6v-0.8l-0.7,0.4c-0.3,0.2-0.6,0.1-0.8-0.2c0,0,0,0,0,0c-0.2-0.3-0.1-0.6,0.2-0.8l0.7-0.4l-0.7-0.4
		c-0.3-0.2-0.4-0.5-0.2-0.8c0.2-0.3,0.5-0.4,0.8-0.2l0,0l0.7,0.4V8.1c0-0.3,0.2-0.6,0.6-0.6c0.3,0,0.6,0.2,0.6,0.6v0.8l0.7-0.4
		c0.3-0.2,0.6-0.1,0.8,0.2c0.2,0.3,0.1,0.6-0.2,0.8l-0.7,0.4L22.1,10.3z"/>
</g>
</svg>
