<?xml version="1.0" encoding="utf-8"?>
<!-- Generator: Adobe Illustrator 25.2.3, SVG Export Plug-In . SVG Version: 6.00 Build 0)  -->
<svg version="1.1" id="Layer_1" xmlns="http://www.w3.org/2000/svg" xmlns:xlink="http://www.w3.org/1999/xlink" x="0px" y="0px"
	 viewBox="0 0 25 25" style="enable-background:new 0 0 25 25;" xml:space="preserve">
<style type="text/css">
	.st0{fill:#535353;}
</style>
<path id="Icon_awesome-mobile-alt" class="st0" d="M17.5,1H7.5c-1.2,0-2.2,1-2.2,2.2c0,0,0,0,0,0v18.7c0,1.2,1,2.2,2.2,2.2h10.1
	c1.2,0,2.2-1,2.2-2.2V3.1C19.7,1.9,18.7,1,17.5,1z M12.5,22.6c-0.8,0-1.4-0.6-1.4-1.4c0-0.8,0.6-1.4,1.4-1.4s1.4,0.6,1.4,1.4
	C13.9,21.9,13.3,22.6,12.5,22.6C12.5,22.6,12.5,22.6,12.5,22.6z M17.5,17.7c0,0.3-0.2,0.5-0.5,0.5H8c-0.3,0-0.5-0.2-0.5-0.5v-14
	c0-0.3,0.2-0.5,0.5-0.5h9c0.3,0,0.5,0.2,0.5,0.5L17.5,17.7z"/>
</svg>
