<?xml version="1.0" encoding="utf-8"?>
<!-- Generator: Adobe Illustrator 25.4.1, SVG Export Plug-In . SVG Version: 6.00 Build 0)  -->
<svg version="1.1" id="Layer_1" xmlns="http://www.w3.org/2000/svg" xmlns:xlink="http://www.w3.org/1999/xlink" x="0px" y="0px"
	 viewBox="0 0 60 60" style="enable-background:new 0 0 60 60;" xml:space="preserve">
<style type="text/css">
	.st0{fill:#324B74;}
</style>
<g>
	<path class="st0" d="M0.7,13.8c0-0.5,0.1-1,0.2-1.6C1.2,10.3,1.6,8.6,2.7,7S5,4.6,6.7,4.3c0.6-0.1,1.2-0.1,1.9-0.1
		c10.5,0,21.2,0,31.8,0c0.6,0,1.2,0.2,1.6,0.5c3.4,1.2,5.4,3.5,6.1,7c0.1,0.6,0.1,1.2,0.1,1.9c0,1.7,0.1,3.5,0.1,5.2
		c0,0.1,0,0.2-0.1,0.3c-1.2,1.2-2.3,2.3-3.5,3.5c0,0,0,0-0.1,0.1c0-0.1,0-0.2,0-0.3c0-3,0-5.9,0-8.9c0-1.7-0.7-3.1-2-4.2
		C41.8,8.3,40.6,8,39.4,8c-1.7,0-3.4,0-5.1,0c-7.9,0-15.7,0-23.5,0.1c-0.6,0-1.3,0-1.9,0c1.6,0.6,2.6,1.9,2.6,3.6
		c0.1,8.8,0.1,17.5,0.2,26.3c0,4.3,0,8.5,0,12.8c0,0.5,0.5,1,0.9,1.2c0.5,0.1,0.9,0.1,1.3,0.1c2,0,4.1,0.1,6,0.1
		c6.7,0,13.6,0,20.3,0c1,0,2.1-0.1,3.1-0.1c0.7-0.1,1-0.5,1.2-1.2c0-0.7,0-1.3,0.1-2c0-2.6,0-5,0.1-7.5c0-0.1,0-0.2,0.1-0.3
		c1.2-1.2,2.3-2.3,3.5-3.5c0,0.1,0,0.2,0,0.2c0,4.2-0.1,8.3-0.1,12.5c0,2.9-2.2,5.1-4.6,5.4c-0.9,0.1-1.9,0.1-2.8,0.1
		c-3.7,0-7.4,0-11.1,0c-0.1,0-0.2,0-0.3,0c-0.7,0-1.5,0-2.2,0c-0.1,0-0.2,0-0.3,0c-4.4,0-8.9-0.1-13.3-0.1c-0.7,0-1.3-0.1-1.9-0.3
		c-2.2-0.9-3.5-3.1-3.5-4.9c0-1,0-2.2,0-3.2c0-9.9,0-19.7,0-29.6c0-0.1,0-0.2,0-0.5c-0.5,0-0.8,0-1.2,0c-1.5,0-2.9-0.1-4.4-0.1
		c-0.7,0-1.2-0.2-1.5-0.9c-0.2-0.3-0.3-0.6-0.3-0.7C0.7,14.9,0.7,14.3,0.7,13.8z"/>
	<path class="st0" d="M48.8,21.1c2.1,2.2,4.3,4.3,6.4,6.5c0,0,0,0,0.1,0c0,0.1-0.1,0.1-0.1,0.2c-4.6,4.6-9.4,9.3-14,13.9
		c-0.7,0.7-1.4,1.2-2.2,1.5c-2,0.9-4.1,1.9-6,2.8c-0.3,0.1-0.8,0.2-1.2,0.3c-0.5,0.1-0.8-0.1-1.2-0.5c-0.5-0.6-0.7-1-0.3-1.9
		c1.2-2.4,2.2-4.9,3.4-7.3c0.1-0.3,0.3-0.7,0.7-0.9c4.8-4.9,9.6-9.6,14.4-14.5C48.7,21.3,48.7,21.2,48.8,21.1z M35.5,37.8
		c-0.1,0.2-0.2,0.2-0.2,0.3c-0.5,1-0.9,2.1-1.4,3.1c0,0.1,0,0.2,0.1,0.3c0.2,0.2,0.6,0.5,0.8,0.8c0.1,0.1,0.2,0.2,0.5,0.1
		c1-0.5,2.1-0.9,3-1.4c0.1,0,0.2-0.1,0.3-0.2C37.6,39.9,36.5,38.8,35.5,37.8z"/>
	<path class="st0" d="M33.6,24.2c-1.9,0-3.7,0-5.6,0c-0.8,0-1.5-0.7-1.6-1.5c-0.1-0.8,0.3-1.7,1.2-2c0.2-0.1,0.5-0.1,0.8-0.1
		c3.7,0,7.3,0,11,0c0.8,0,1.4,0.6,1.6,1.4c0.1,0.8-0.2,1.6-0.9,2c-0.2,0.1-0.6,0.1-0.9,0.1C37.2,24.2,35.4,24.2,33.6,24.2L33.6,24.2
		z"/>
	<path class="st0" d="M56.7,26.2c-2.2-2.2-4.3-4.3-6.5-6.5c0.8-0.8,1.5-1.6,2.4-2.3c0.8-0.6,2.4-0.5,3,0.2c0.9,1,2,2,3,3
		c0.8,0.9,0.8,2.3,0,3.2C58.1,24.7,57.4,25.5,56.7,26.2z"/>
	<path class="st0" d="M19,40.1c0.5-0.5,0.8-0.8,1.3-1.3c0.5-0.5,0.9-0.8,1.3-1.2c0.6-0.5,1.2-0.5,1.7-0.2c0.6,0.2,0.9,0.7,1,1.4
		c0,0.6,0,1-0.5,1.5c-1.3,1.2-2.4,2.4-3.6,3.7c-0.7,0.7-1.9,0.7-2.6,0s-1.4-1.4-2-2.1c-0.5-0.6-0.5-1.3-0.1-1.9
		c0.3-0.6,0.9-1,1.6-0.9c0.3,0,0.7,0.2,1.2,0.5C18.6,39.6,18.8,39.9,19,40.1z"/>
	<path class="st0" d="M19,21.7c0.5-0.5,1-1,1.6-1.5c0.3-0.3,0.7-0.6,1-0.9c0.7-0.6,1.6-0.3,2.2,0.1c0.6,0.6,0.8,1.5,0.3,2.2
		c-0.2,0.3-0.5,0.7-0.7,0.9c-0.9,0.9-2,2-2.9,2.9c-0.2,0.2-0.5,0.3-0.7,0.6c-0.6,0.3-1.2,0.3-1.6,0c-1-0.7-1.9-1.5-2.6-2.6
		c-0.3-0.6-0.2-1.4,0.2-2s1.3-0.8,2-0.5C18.2,21.1,18.6,21.4,19,21.7z"/>
	<path class="st0" d="M19,30.8c0.8-0.8,1.6-1.5,2.4-2.3c0.5-0.5,1.2-0.6,1.7-0.3c1,0.3,1.5,1.7,0.9,2.7c-0.2,0.3-0.5,0.6-0.7,0.8
		c-1,1-2,2-3,3c-1,0.9-1.7,0.9-2.8,0c-0.7-0.6-1.3-1.3-1.9-2c-0.5-0.6-0.5-1.3,0-2c0.3-0.6,1-0.9,1.7-0.8c0.3,0.1,0.7,0.3,1,0.6
		C18.7,30.6,18.8,30.7,19,30.8z"/>
	<path class="st0" d="M37.3,29.9c-1.2,1.2-2.3,2.3-3.5,3.5c-0.1,0.1-0.2,0.1-0.2,0.1c-1.9,0-3.7,0-5.4-0.1c-0.8,0-1.5-0.7-1.6-1.5
		c-0.1-0.8,0.3-1.6,1-2c0.1-0.1,0.3-0.1,0.5-0.1c3.1,0,6.1-0.1,9.3-0.1C37.2,29.9,37.3,29.9,37.3,29.9z"/>
</g>
</svg>
