<svg xmlns="http://www.w3.org/2000/svg" width="30.935" height="82.317" viewBox="0 0 30.935 82.317"><defs><style>.a{fill:#324b74;}</style></defs><g transform="translate(-32.173 -2.5)"><path class="a" d="M55.528,35.006l1.128.867a16.219,16.219,0,0,1,5.638,7.372,14.571,14.571,0,0,1,.52,7.719q-1.041,5.2-2.342,10.408c-.52,2.429-1.128,4.944-1.735,7.372-.087.347-.173.434-.52.434H35.232L40.7,47.061l1.474,1.3a5.117,5.117,0,0,0,6.592-7.719l-6.5-6.592c-.173-.087-.26-.26-.434-.434,1.3-1.214,2.515-2.515,3.73-3.73s.694-1.041.347-1.474-.954-.347-1.561.26l-4.163,4.163c-.52.607-.607,1.041,0,1.561l7.459,7.459A3.3,3.3,0,0,1,48.5,45.24a3.036,3.036,0,0,1-2.515,2.342,3.383,3.383,0,0,1-3.122-.781l-9.107-9.194a5.811,5.811,0,0,1,.087-8.066l9.02-9.02a4.163,4.163,0,0,1,5.377-.347,15.612,15.612,0,0,1,1.821,1.648l6.158,6.071a4.51,4.51,0,0,1,0,6.592Z" transform="translate(0 -2.236)"/><path class="a" d="M53.69,8.745A6.245,6.245,0,1,1,47.445,2.5,6.332,6.332,0,0,1,53.69,8.745Z" transform="translate(-1.198 0)"/><path class="a" d="M44.386,79.4h7.806V91.109a3.936,3.936,0,0,1-7.806.694A1.475,1.475,0,0,1,44.3,91.2V79.4Z" transform="translate(-1.608 -10.202)"/></g></svg>