<svg xmlns="http://www.w3.org/2000/svg" width="27.396" height="27.373" viewBox="0 0 27.396 27.373"><defs><style>.a{fill:#ca0027;}</style></defs><g transform="translate(-27.4 -19.2)"><path class="a" d="M27.444,29.543a3.836,3.836,0,0,1,.665-1.507,3.211,3.211,0,0,1,2.748-1.2v1.419a3.061,3.061,0,0,0,1.6,2.7,3.235,3.235,0,0,0,1.552.4h6.25A3.131,3.131,0,0,0,43.4,28.213V26.795a3.19,3.19,0,0,1,3.413,3.147v7.4a.479.479,0,0,1-.133.31l-3.812,3.812a1.476,1.476,0,0,1-.266.133H31.789a.845.845,0,1,0-.133,1.685h9.221A10.052,10.052,0,0,0,39.5,45.059a16.175,16.175,0,0,0-.621,2.216h-.266c-2.615,0-5.231-.044-7.891,0a3.135,3.135,0,0,1-3.28-2.66c0-.044-.044-.044-.044-.089C27.444,39.606,27.444,34.6,27.444,29.543Zm9.708,8.423H31.744a.861.861,0,0,0-.842.754.876.876,0,0,0,.665.931.954.954,0,0,0,.355,0H42.561a.865.865,0,0,0,.842-.621.852.852,0,0,0-.887-1.064Zm-.044-3.724h-5.5a.87.87,0,0,0-.576,1.419.882.882,0,0,0,.709.31H42.428a.562.562,0,0,0,.266-.044.878.878,0,0,0,.621-.621.835.835,0,0,0-.887-1.064Z" transform="translate(0 -4.226)"/><path class="a" d="M43.341,19.2a3.265,3.265,0,0,1,.621.177,3.021,3.021,0,0,1,1.906,1.906c.044.177.133.222.31.222H47.2a.815.815,0,0,1,.842.842v1.773a1.959,1.959,0,0,1-1.951,1.906H39.795A1.977,1.977,0,0,1,37.8,24.076V22.347a.862.862,0,0,1,.887-.887h1.02c.089,0,.222-.089.222-.133a3.146,3.146,0,0,1,2.527-2.083c.044,0,.044-.044.089-.044Z" transform="translate(-5.79)"/><path class="a" d="M71.651,52.547a2.055,2.055,0,0,1-.665,1.507c-1.374,1.33-2.7,2.7-4.078,4.078l-4.078,4.078a2.064,2.064,0,0,1-1.108.576c-.975.177-1.995.355-2.97.532a.865.865,0,0,1-1.064-1.02c.177-1.064.355-2.172.576-3.236a1.152,1.152,0,0,1,.4-.709l8.245-8.245a2.631,2.631,0,0,1,.8-.576,1.483,1.483,0,0,1,1.862.266c.532.488,1.02,1.02,1.507,1.552A1.492,1.492,0,0,1,71.651,52.547Z" transform="translate(-16.855 -16.768)"/></g></svg>