<svg xmlns="http://www.w3.org/2000/svg" width="94.316" height="100.748" viewBox="0 0 94.316 100.748"><defs><style>.a{fill:#57423f;}</style></defs><g transform="translate(0)"><path class="a" d="M39.9,113.8a4.819,4.819,0,0,1-3.3-3.3,5.12,5.12,0,0,1-.206-1.648V33.445q0-4.945,4.945-4.945h10.3v1.236c0,2.678,0,5.563.206,8.241a6.845,6.845,0,0,0,6.387,6.181H80.078c4.945,0,7.829-3.09,7.829-7.829V28.5h10.3q4.636,0,4.945,4.945v13.8a2.928,2.928,0,0,1-.412,1.236c-4.327,6.387-8.859,12.774-13.186,19.161-.412.618-.824.618-1.442.618H52.058q-3.09,0-3.708,2.472a3.255,3.255,0,0,0,2.472,3.915c.412,0,1.03.206,1.648.206H84.4c-.206.412-.412.618-.618,1.03-1.648,2.266-3.09,4.533-4.739,6.8a2.164,2.164,0,0,1-1.854,1.03H52.058a4.537,4.537,0,0,0-1.648.206,3.206,3.206,0,0,0-2.266,3.5,3.131,3.131,0,0,0,3.09,2.884H73.279c-1.854,3.915-.618,7.623-.206,11.538.412,2.884,3.708,4.739,6.387,4.121,2.266-.618,4.327-1.236,6.593-1.854a6.484,6.484,0,0,0,3.5-2.678c4.121-5.975,8.447-11.95,12.568-17.718a4.5,4.5,0,0,0,.618-1.03v26.578a5.32,5.32,0,0,1-3.5,5.151C79.666,113.8,59.681,113.8,39.9,113.8ZM69.57,59.4H87.907a3.218,3.218,0,0,0,3.3-3.915q-.618-2.472-3.709-2.472H50.822a3.359,3.359,0,0,0-2.678,2.266,3.292,3.292,0,0,0,3.3,4.327C57.621,59.4,63.6,59.4,69.57,59.4Z" transform="translate(-36.4 -13.666)"/><path class="a" d="M67.759,90.663c-3.09-2.06-5.975-4.121-8.859-6.181,3.09-4.533,6.181-8.859,9.271-13.186,9.683-13.8,19.161-27.608,28.844-41.206.206-.206.206-.412.412-.618a1.97,1.97,0,0,1,3.09-.618c1.648,1.03,3.09,2.06,4.739,3.3,1.854,1.236,2.06,2.266.824,4.121C97.015,49.251,87.95,62.231,79.091,75c-3.5,4.945-6.8,9.889-10.3,14.834A2.23,2.23,0,0,0,67.759,90.663Z" transform="translate(-12.544 -13.814)"/><path class="a" d="M51.875,28.923C52.9,23.978,55.583,21.3,59.7,21.3c3.3,0,7.211,2.266,7.623,7.623h3.09a2.92,2.92,0,0,1,3.09,3.09V44.169a2.92,2.92,0,0,1-3.09,3.09H48.99a2.818,2.818,0,0,1-3.09-3.09V31.807c0-1.854,1.236-2.884,3.09-3.09A13.6,13.6,0,0,0,51.875,28.923Zm4.327,0h6.593a3.3,3.3,0,1,0-6.593,0Z" transform="translate(-26.327 -21.3)"/><path class="a" d="M58.472,58c3.09,2.06,5.975,4.121,8.859,6.181-.824,1.236-1.648,2.266-2.472,3.5a1.574,1.574,0,0,1-1.03.412,55.236,55.236,0,0,1-5.563,1.442c-1.03.206-1.648,0-1.854-1.236-.206-2.06-.412-4.121-.412-6.181a1.239,1.239,0,0,1,.206-.824A18.672,18.672,0,0,1,58.472,58Z" transform="translate(-15.619 17.612)"/></g></svg>