<svg xmlns="http://www.w3.org/2000/svg" width="19.619" height="19.607" viewBox="0 0 19.619 19.607"><defs><style>.a{fill:#6b6b6b;}</style></defs><g transform="translate(-22.2 -20)"><path class="a" d="M54.419,20c.372.062.712.093,1.084.155a9.65,9.65,0,0,1,4.987,2.478,9.38,9.38,0,0,1,3,5.575,9.6,9.6,0,0,1-2.478,8.239,1.868,1.868,0,0,1-.248.248c.4.4.805.774,1.177,1.177,0,.031-.031.031-.031.062-1.456.093-2.912.186-4.429.31.093-1.487.186-2.943.31-4.429.4.4.805.805,1.177,1.208a7.284,7.284,0,0,0,1.889-7.217A7.39,7.39,0,0,0,53.8,22.447V20Z" transform="translate(-21.812 0)"/><path class="a" d="M22.2,32.206c.062-.341.093-.712.155-1.053a9.613,9.613,0,0,1,2.571-5.08l.155-.155L23.873,24.71c1.518-.093,2.974-.186,4.46-.31-.093,1.487-.186,2.943-.31,4.429l-1.177-1.177a7.331,7.331,0,0,0-1.951,7.093A7.422,7.422,0,0,0,31.988,40.2v2.447c-.434-.031-.9-.062-1.332-.124a9.648,9.648,0,0,1-6.164-3.407A9.783,9.783,0,0,1,22.262,34a3.413,3.413,0,0,1-.062-.558Z" transform="translate(0 -3.037)"/></g></svg>