<svg xmlns="http://www.w3.org/2000/svg" width="103.545" height="103.52" viewBox="0 0 103.545 103.52"><defs><style>.a{fill:#2f4858;}</style></defs><path class="a" d="M2,2V84.836a15.551,15.551,0,0,0,15.532,15.532H56.523a30.93,30.93,0,0,1-6.148-10.355H17.532a5.182,5.182,0,0,1-5.177-5.177V12.354H74.481V49.081a31,31,0,0,1,5.177-.486h5.177V33.063H95.19V48.6h10.354V22.709H84.836V2ZM22.709,22.709V38.241H64.127V22.709Zm0,25.886V58.95H56.523a31.29,31.29,0,0,1,7.6-6.148V48.6ZM83.38,54.1V75.938l7.28-7.281a15.559,15.559,0,1,1-22,0l-7.28-7.28a25.855,25.855,0,1,0,36.564,0l7.28-7.281ZM22.709,64.127V74.481H49.081A30.86,30.86,0,0,1,52.8,64.127Z" transform="translate(-2 -2)"/></svg>