<svg xmlns="http://www.w3.org/2000/svg" width="111.822" height="111.476" viewBox="0 0 111.822 111.476"><defs><style>.a{fill:#3b3b3b;}</style></defs><g transform="translate(0)"><g transform="translate(0 0)"><path class="a" d="M195.493,370.337a10.817,10.817,0,1,0,10.768,10.816A10.815,10.815,0,0,0,195.493,370.337Zm0,15.8a4.983,4.983,0,1,1,4.934-4.983A4.964,4.964,0,0,1,195.493,386.136Z" transform="translate(-139.825 -280.494)"/><path class="a" d="M16.17,21.015a2.926,2.926,0,0,0,2.066.851,2.969,2.969,0,0,0,2.066-.851,2.919,2.919,0,0,0,0-4.132l-5.591-5.59L20.3,5.7A2.922,2.922,0,0,0,16.17,1.57l-5.59,5.59L4.989,1.57A2.922,2.922,0,0,0,.857,5.7l5.59,5.59-5.59,5.59a2.917,2.917,0,0,0,2.066,4.983,2.969,2.969,0,0,0,2.066-.851l5.59-5.59Z" transform="translate(0 -0.713)"/><path class="a" d="M183.928,21.015a2.885,2.885,0,0,0,2.066.851,2.989,2.989,0,0,0,2.066-.851L203.373,5.7a2.922,2.922,0,1,0-4.132-4.132L185.994,14.817l-4.205-4.205a2.922,2.922,0,0,0-4.132,4.132Z" transform="translate(-133.826 -0.713)"/><path class="a" d="M219.942,329.972a2.917,2.917,0,1,0-2.917-2.917A2.925,2.925,0,0,0,219.942,329.972Z" transform="translate(-164.274 -245.525)"/><path class="a" d="M219.942,284.072a2.917,2.917,0,1,0-2.917-2.917A2.925,2.925,0,0,0,219.942,284.072Z" transform="translate(-164.274 -210.781)"/><path class="a" d="M219.942,238.171a2.917,2.917,0,1,0-2.917-2.917A2.894,2.894,0,0,0,219.942,238.171Z" transform="translate(-164.274 -176.037)"/><path class="a" d="M387.711,11.292,393.3,5.7A2.922,2.922,0,0,0,389.17,1.57l-5.591,5.59-5.59-5.59A2.922,2.922,0,0,0,373.857,5.7l5.591,5.59-5.591,5.59a2.917,2.917,0,0,0,2.066,4.983,2.969,2.969,0,0,0,2.066-.851l5.59-5.59,5.591,5.59a2.926,2.926,0,0,0,2.066.851,2.969,2.969,0,0,0,2.066-.851,2.919,2.919,0,0,0,0-4.132Z" transform="translate(-282.337 -0.713)"/><path class="a" d="M125.105,109.238a2.925,2.925,0,0,0-2.917,2.917V128H82.447V112.155a2.917,2.917,0,1,0-5.834,0V128H37.359V112.155a2.917,2.917,0,1,0-5.834,0v18.765a2.925,2.925,0,0,0,2.917,2.917h90.663a2.925,2.925,0,0,0,2.917-2.917V112.155A2.925,2.925,0,0,0,125.105,109.238Z" transform="translate(-23.862 -82.859)"/></g></g></svg>