<svg xmlns="http://www.w3.org/2000/svg" width="46.527" height="46.466" viewBox="0 0 46.527 46.466"><defs><style>.a{fill:#fff;}</style></defs><g transform="translate(45.999 313.986)"><path class="a" d="M23.264,46.466a23.454,23.454,0,0,1-4.688-.472,23.116,23.116,0,0,1-8.318-3.5,23.324,23.324,0,0,1-6.285-6.275,23.189,23.189,0,0,1,0-25.98,23.317,23.317,0,0,1,6.285-6.275A23.288,23.288,0,0,1,44.7,14.19a22.929,22.929,0,0,1,1.355,4.361,23.371,23.371,0,0,1,0,9.365A22.927,22.927,0,0,1,44.7,32.277,23.255,23.255,0,0,1,27.952,45.994,23.466,23.466,0,0,1,23.264,46.466ZM15.887,12.261l-3.6,3.6,7.383,7.377L12.287,30.61l3.6,3.6,7.379-7.376L30.644,34.2l3.6-3.6-7.379-7.372,7.379-7.372-3.6-3.6-7.377,7.372-7.38-7.377Z" transform="translate(-45.999 -313.986)"/></g></svg>