<svg xmlns="http://www.w3.org/2000/svg" width="106.25" height="106.294" viewBox="0 0 106.25 106.294"><defs><style>.a{fill:#007f3f;}</style></defs><g transform="translate(0)"><g transform="translate(0)"><path class="a" d="M163.337,141.2a22.137,22.137,0,1,0,22.137,22.137A22.157,22.157,0,0,0,163.337,141.2Zm-6.545,6.984a24.466,24.466,0,0,0-3.536,7.16h-4.348A16.545,16.545,0,0,1,156.793,148.184Zm-9.29,19.831a16.411,16.411,0,0,1,0-9.356h4.963a28.359,28.359,0,0,0-.4,4.678,26.16,26.16,0,0,0,.4,4.678Zm1.406,3.316h4.348a25.314,25.314,0,0,0,3.536,7.16A16.546,16.546,0,0,1,148.909,171.331Zm12.76,7.8a21.572,21.572,0,0,1-4.919-7.8h4.919Zm0-11.113h-5.82a25.129,25.129,0,0,1,0-9.356h5.82Zm0-12.672h-4.919a21.208,21.208,0,0,1,4.919-7.818Zm16.1,0h-4.348a25.314,25.314,0,0,0-3.536-7.16A16.545,16.545,0,0,1,177.766,155.343Zm-12.76-7.8a21.572,21.572,0,0,1,4.919,7.8h-4.919Zm0,11.113h5.82a25.13,25.13,0,0,1,0,9.356h-5.82Zm0,12.672h4.919a21.207,21.207,0,0,1-4.919,7.818Zm4.876,7.16a24.467,24.467,0,0,0,3.536-7.16h4.348A16.546,16.546,0,0,1,169.882,178.491Zm4.3-10.476a28.362,28.362,0,0,0,.4-4.678,26.161,26.161,0,0,0-.4-4.678h4.963a16.411,16.411,0,0,1,0,9.356Z" transform="translate(-110.212 -110.19)"/><path class="a" d="M18.043,214.752h8.038a26.214,26.214,0,0,1-.264-3.733,26.579,26.579,0,0,1,.132-2.657H18.043a9.235,9.235,0,1,0,0,6.391Z" transform="translate(-0.1 -157.872)"/><path class="a" d="M205.961,17.965v7.95a25.561,25.561,0,0,1,3.184-.2,25.3,25.3,0,0,1,3.184.2V17.943a9.216,9.216,0,1,0-6.369.022Z" transform="translate(-156.021)"/><path class="a" d="M67.924,77.114a9.233,9.233,0,0,0,3.887-.857L77.455,81.9a27.55,27.55,0,0,1,4.524-4.524l-5.644-5.644a9.24,9.24,0,1,0-8.411,5.381Z" transform="translate(-45.83 -45.73)"/><path class="a" d="M323.924,81.879l5.644-5.644a9.24,9.24,0,1,0-4.524-4.524l-4.722,4.722h0l-.922.922A29.373,29.373,0,0,1,323.924,81.879Z" transform="translate(-249.276 -45.73)"/><path class="a" d="M382.335,199.9a9.271,9.271,0,0,0-8.873,6.588h-7.73a26.576,26.576,0,0,1,.132,2.657,26.214,26.214,0,0,1-.264,3.733h8.258a9.253,9.253,0,1,0,8.477-12.979Z" transform="translate(-285.33 -155.999)"/><path class="a" d="M333.434,324.166a9.233,9.233,0,0,0-3.887.856l-5.622-5.622a27.545,27.545,0,0,1-4.524,4.524l5.644,5.644a9.234,9.234,0,1,0,8.389-5.4Z" transform="translate(-249.276 -249.254)"/><path class="a" d="M77.355,319.4l-5.622,5.622a9.245,9.245,0,1,0,4.5,4.5l5.644-5.644A27.275,27.275,0,0,1,77.355,319.4Z" transform="translate(-45.752 -249.254)"/><path class="a" d="M212.33,373.972V366a25.56,25.56,0,0,1-3.184.2,25.3,25.3,0,0,1-3.184-.2v7.972a9.246,9.246,0,1,0,6.369,0Z" transform="translate(-156.021 -285.62)"/></g></g></svg>