<svg xmlns="http://www.w3.org/2000/svg" width="52" height="51" viewBox="0 0 52 51"><defs><style>.a,.b{fill:#fff;}.a{opacity:0.37;}</style></defs><g transform="translate(-46.629 -115.384)"><ellipse class="a" cx="26" cy="25.5" rx="26" ry="25.5" transform="translate(46.629 115.384)"/><g transform="translate(60.022 127.852)"><path class="b" d="M1190.6,1878.769a1.143,1.143,0,0,1,1.253-.768c.848.026,1.7,0,2.542.008a.994.994,0,0,1,1.09,1.089q0,5.506,0,11.013a.989.989,0,0,1-1.095,1.083c-.847,0-1.7-.019-2.542.007a1.133,1.133,0,0,1-1.248-.771Z" transform="translate(-1190.6 -1865.927)"/><path class="b" d="M2972.008,874.962c0-3.793.011-7.586-.01-11.377a1.1,1.1,0,0,1,1.246-1.232c.856.037,1.714.006,2.571.008a.986.986,0,0,1,1.079,1.074q0,11.555,0,23.111a.985.985,0,0,1-1.08,1.071q-1.324,0-2.647,0a1.011,1.011,0,0,1-1.158-1.149Q2972.007,880.715,2972.008,874.962Z" transform="translate(-2950.824 -862.351)"/><path class="b" d="M2382.737,1181.135c0,3.207-.014,6.415.009,9.622a1.081,1.081,0,0,1-1.2,1.192c-.865-.034-1.731-.007-2.6-.009a.993.993,0,0,1-1.093-1.089q0-9.711,0-19.422a.987.987,0,0,1,1.087-1.091q1.351-.007,2.7,0a.981.981,0,0,1,1.1,1.1Q2382.738,1176.287,2382.737,1181.135Z" transform="translate(-2363.738 -1166.675)"/><path class="b" d="M1784.7,1532.88q0-3.754,0-7.508a1.56,1.56,0,0,1,.079-.573.975.975,0,0,1,1-.605c.9,0,1.8,0,2.7,0a1,1,0,0,1,1.105,1.1c0,.959,0,1.917,0,2.876q0,6.083,0,12.167a3.043,3.043,0,0,1-.018.38.944.944,0,0,1-.938.864q-1.489.017-2.978,0a.944.944,0,0,1-.94-.918c-.014-.228-.008-.457-.008-.687Q1784.7,1536.43,1784.7,1532.88Z" transform="translate(-1777.636 -1516.326)"/></g></g></svg>