<svg xmlns="http://www.w3.org/2000/svg" width="27.246" height="23.185" viewBox="0 0 27.246 23.185"><defs><style>.a{fill:#6b6b6b;}</style></defs><g transform="translate(0 0)"><path class="a" d="M322.168,343.537a4.79,4.79,0,0,1-.238.553,1.4,1.4,0,0,1-1.26.745c-1.6.007-3.193.014-4.788,0a1.529,1.529,0,0,1-1.487-1.678q-.011-1.01,0-2.021a1.54,1.54,0,0,1,1.526-1.7c.565-.006,1.131,0,1.72,0a3.218,3.218,0,0,0-.352-2.063,1.6,1.6,0,0,0-1.345-.711c-2.217-.007-4.434,0-6.65,0a.482.482,0,0,0-.094.023v2.751h1.7a1.424,1.424,0,0,1,1.233.633,1.762,1.762,0,0,1,.307,1.051c0,.674,0,1.348,0,2.022a1.526,1.526,0,0,1-1.451,1.687q-2.434.036-4.868,0a1.525,1.525,0,0,1-1.453-1.685q-.009-1.01,0-2.021a1.54,1.54,0,0,1,1.51-1.685c.567-.008,1.134,0,1.722,0v-2.777h-.276q-3.153,0-6.3,0c-1.192,0-1.866.752-1.866,2.076v.681c.085.007.16.018.236.018.5,0,.993,0,1.49,0a1.54,1.54,0,0,1,1.528,1.693q.01,1.01,0,2.021a1.529,1.529,0,0,1-1.484,1.68q-2.394.024-4.788,0a1.54,1.54,0,0,1-1.5-1.7q-.008-1,0-1.992a1.547,1.547,0,0,1,1.522-1.7c.565-.007,1.132,0,1.733,0,0-.276,0-.53,0-.784a3.1,3.1,0,0,1,3.033-3.389c2.119-.005,4.238,0,6.358,0h.326v-3.735h-.293c-1.33,0-2.66,0-3.99,0a2.552,2.552,0,0,1-2.524-2.137,3.543,3.543,0,0,1-.087-.822q-.013-1.977,0-3.954a2.769,2.769,0,0,1,1.917-2.849,2.613,2.613,0,0,1,.761-.1q4.868-.01,9.736,0A2.566,2.566,0,0,1,316,323.8a3.513,3.513,0,0,1,.09.821q.013,1.977,0,3.954a2.77,2.77,0,0,1-1.883,2.847,2.7,2.7,0,0,1-.788.1c-1.3.01-2.607,0-3.911,0H309.2v3.735h.322c2.137,0,4.274-.007,6.411,0a2.964,2.964,0,0,1,2.9,2.595,14.074,14.074,0,0,1,.107,1.576h.852c.293,0,.585-.005.878,0a1.484,1.484,0,0,1,1.435,1.178.926.926,0,0,0,.058.126Q322.167,342.14,322.168,343.537Z" transform="translate(-294.923 -321.661)"/></g></svg>