<svg xmlns="http://www.w3.org/2000/svg" width="94.392" height="91.511" viewBox="0 0 94.392 91.511"><defs><style>.a{fill:#798897;}</style></defs><path class="a" d="M1190.6,1880.783c.792-2.1,2.346-2.848,4.536-2.78,3.069.1,6.138.018,9.206.026a3.6,3.6,0,0,1,3.947,3.946q.006,19.935,0,39.872c0,2.5-1.438,3.916-3.964,3.92-3.068.009-6.141-.069-9.2.026-2.191.07-3.745-.676-4.519-2.793Z" transform="translate(-1190.6 -1834.292)"/><path class="a" d="M2972.033,908.012c0-13.732.038-27.464-.035-41.192-.012-2.767,1.462-4.592,4.512-4.463,3.1.133,6.2.022,9.307.03a3.569,3.569,0,0,1,3.909,3.886q.007,41.836,0,83.675a3.568,3.568,0,0,1-3.913,3.877q-4.793.013-9.584,0c-2.833,0-4.191-1.347-4.191-4.161Q2972.031,928.84,2972.033,908.012Z" transform="translate(-2895.337 -862.35)"/><path class="a" d="M2395.541,1209.435c0,11.61-.048,23.225.033,34.836.023,2.87-1.769,4.424-4.363,4.316-3.13-.125-6.266-.026-9.4-.03a3.594,3.594,0,0,1-3.955-3.942q-.014-35.16,0-70.317c0-2.535,1.407-3.937,3.937-3.951q4.887-.026,9.769,0c2.617.008,3.972,1.368,3.978,3.976Q2395.546,1191.882,2395.541,1209.435Z" transform="translate(-2326.759 -1157.082)"/><path class="a" d="M1784.7,1555.646q0-13.593.012-27.185a5.648,5.648,0,0,1,.285-2.073,3.532,3.532,0,0,1,3.611-2.191c3.258,0,6.511-.013,9.769,0,2.587.013,3.989,1.411,4,4,.017,3.473.005,6.941.005,10.414q0,22.025-.005,44.049a11.469,11.469,0,0,1-.064,1.377,3.418,3.418,0,0,1-3.4,3.129q-5.39.064-10.78,0a3.417,3.417,0,0,1-3.4-3.323c-.052-.826-.031-1.656-.031-2.487Q1784.694,1568.5,1784.7,1555.646Z" transform="translate(-1759.131 -1495.71)"/></svg>