<svg xmlns="http://www.w3.org/2000/svg" width="51.417" height="51.418" viewBox="0 0 51.417 51.418"><defs><style>.a{fill:#fff;}</style></defs><g transform="translate(0 0)"><path class="a" d="M320.438,243.02a15.976,15.976,0,0,1-.986,2.543,5.963,5.963,0,0,1-5.118,3.05c-2.172.085-4.352.045-6.527.019a2,2,0,0,1,.019-3.993c1.64-.03,3.28-.009,4.921-.011h.7c-.63-.885-1.156-1.712-1.77-2.469a21.215,21.215,0,0,0-12.521-7.7,21.677,21.677,0,1,0-7.6,42.664,40.283,40.283,0,0,0,4.5.2,8.01,8.01,0,0,1,1.2.04,1.964,1.964,0,0,1,1.581,2.082,2.018,2.018,0,0,1-1.861,1.853c-.314.026-.627.063-.942.1h-2.812c-.163-.03-.325-.068-.489-.09-.944-.124-1.9-.194-2.833-.373a25.737,25.737,0,0,1-20.746-27.842,24.144,24.144,0,0,1,6.144-14.223c6.506-7.25,14.647-10.106,24.233-8.418a24.8,24.8,0,0,1,15.585,9.579c.428.547.821,1.122,1.309,1.792v-.6c0-1.64-.011-3.282.007-4.922a1.91,1.91,0,0,1,1.227-1.852,1.843,1.843,0,0,1,2.134.39,5.112,5.112,0,0,1,.65,1.048Q320.437,239.454,320.438,243.02Z" transform="translate(-269.023 -229.978)"/><path class="a" d="M445.832,319.808c0,2.594-.009,5.19.006,7.784a2.392,2.392,0,0,1-.737,1.8q-3.84,3.83-7.674,7.666a2.014,2.014,0,1,1-2.882-2.8q1.24-1.245,2.485-2.487c1.468-1.467,2.93-2.942,4.408-4.4a1.167,1.167,0,0,0,.388-.913q-.02-7.257-.008-14.514a2.05,2.05,0,0,1,1.333-2.09,2,2,0,0,1,2.68,1.967c.015,2.561,0,5.123,0,7.684C445.832,319.606,445.832,319.708,445.832,319.808Z" transform="translate(-418.122 -302.118)"/><path class="a" d="M622.27,700.051a2.086,2.086,0,0,1-1.921-1.535,1.932,1.932,0,0,1,.9-2.2,22.164,22.164,0,0,1,2.058-1.036,1.978,1.978,0,0,1,2.561.93,1.953,1.953,0,0,1-.729,2.587c-.673.4-1.388.734-2.1,1.068A3.9,3.9,0,0,1,622.27,700.051Z" transform="translate(-586.737 -650.698)"/><path class="a" d="M755.629,534.779a22.656,22.656,0,0,1,.771-2.548,1.888,1.888,0,0,1,2.346-.94,1.911,1.911,0,0,1,1.345,2.141,16.224,16.224,0,0,1-.638,2.468,1.938,1.938,0,0,1-2.331,1.169A2.1,2.1,0,0,1,755.629,534.779Z" transform="translate(-709.163 -502.427)"/><path class="a" d="M709.644,628.221a7.828,7.828,0,0,1-.552,1.2,18.163,18.163,0,0,1-1.221,1.526,2.008,2.008,0,0,1-2.822.343,1.984,1.984,0,0,1-.325-2.819c.432-.574.889-1.132,1.368-1.666a1.954,1.954,0,0,1,2.2-.511A2.255,2.255,0,0,1,709.644,628.221Z" transform="translate(-662.719 -588.317)"/></g></svg>