<svg xmlns="http://www.w3.org/2000/svg" width="79.665" height="77.785" viewBox="0 0 79.665 77.785"><defs><style>.a{fill:#7c7c7c;}</style></defs><g transform="translate(-0.86 -1.9)"><path class="a" d="M70.9,48.781,78.181,45.3l.566-.243,1.132.323c-.162.323-.162.889-.485,1.051L74.947,48.7,50.774,60.5l-.4.243c.808,1.374.485,2.668.162,4.123l-1.94,8.651c-.4,1.617-1.536,2.345-2.991,1.859s-1.7-1.455-1.374-2.83.97-4.689,1.536-7.034a5.579,5.579,0,0,0,.162-1.051c0-.323,0-.728-.162-.889a1.213,1.213,0,0,0-1.051-.081l-5.983,2.83a8.085,8.085,0,0,1-1.7.808A2.749,2.749,0,0,0,35.009,69.4c-.728,3.961-2.991,7.276-4.77,10.833a2.345,2.345,0,0,1-2.506,1.617c-1.779-.323-2.425-1.859-1.617-3.557l3.4-6.468L30,70.609l-.97.4-19.08,9.3L2.105,84.03a1.779,1.779,0,0,1-1.132,0,1.536,1.536,0,0,1-.081-.889c.081-.243.4-.4.647-.566l13.582-6.629,6.387-3.072c-1.132-1.051-.808-2.183-.485-3.4l1.455-6.953c.243-.97.081-1.213-.97-1.374L15.445,60.1c-1.536-.323-1.7-.162-2.183,1.294s-1.213,4.285-1.779,6.468c-.97,3.881-3.072,7.2-4.851,10.672a2.183,2.183,0,0,1-3.153.808c-1.132-.647-1.374-1.859-.728-3.234a52.792,52.792,0,0,0,2.83-5.659c1.051-2.506,1.779-5.093,2.587-7.68s.889-2.991,1.294-4.527A2.91,2.91,0,0,0,9.3,56.785a5.821,5.821,0,0,1-.081-4.77c2.1-4.77,4.2-9.621,6.468-14.391A5.659,5.659,0,0,1,24.9,36.169c.323.323.889.889,1.213.808a2.183,2.183,0,0,0,1.617-1.617l.97-5.417c.243-.97.4-2.021.647-3.072a2.021,2.021,0,0,1,2.668-1.7,2.1,2.1,0,0,1,1.455,2.587c-.647,3.234-1.213,6.468-1.859,9.7a4.123,4.123,0,0,1-1.294,1.859c-1.132,1.051-2.425,1.779-3.557,2.749a3.638,3.638,0,0,0-1.294,1.617c-1.7,3.638-3.315,7.276-4.932,10.914-.566,1.294-.485,1.859,1.051,1.94a27.729,27.729,0,0,1,2.749.485c2.425.4,3.557,1.94,3.072,4.366S26.2,66.971,25.55,69.8a4.689,4.689,0,0,1-.243,1.132,17.463,17.463,0,0,1,2.021-.808,5.7,5.7,0,0,0,4.285-5.336c.162-.889.485-1.779.728-2.668a5.012,5.012,0,0,0,.081-4.042,4.851,4.851,0,0,1,.243-3.961c2.1-4.77,4.123-9.459,6.306-14.229a5.74,5.74,0,0,1,9.944-.728c.566.889,1.132.889,2.021.647a4.2,4.2,0,0,0,3.315-2.991c.728-2.183,1.7-4.2,2.587-6.225s1.536-1.779,2.668-1.374a1.94,1.94,0,0,1,1.294,2.83c-.889,2.264-2.021,4.447-2.83,6.71s-2.345,4.447-5.255,4.851l-.485.162c-2.183.323-3.4,1.617-4.2,3.638-1.294,3.4-2.83,6.629-4.366,9.944-.323.728-.162,1.132.647,1.294l4.2.647a2.1,2.1,0,0,0,1.213-.162l21.1-10.267ZM36.141,65.435l.162.243,5.5-2.749A15.765,15.765,0,0,0,38,62.2a1.213,1.213,0,0,0-1.051.566,25.709,25.709,0,0,0-.808,2.668Z" transform="translate(0 -4.437)"/><path class="a" d="M78.838,44.425l-3.153-2.991a1.536,1.536,0,0,0-2.021-.4L71.4,42a1.7,1.7,0,0,0-1.374,1.94v3.153c0,.728-.323,1.051-1.051,1.051h-6.71c-.728.081-1.051-.243-1.051-.97s-.081-2.1,0-3.153A1.859,1.859,0,0,0,59.758,42l-1.374-.566v-.243l1.455-.485,3.476-1.132a4.042,4.042,0,0,0,2.668-2.425l.485-1.132A1.536,1.536,0,0,1,67.843,34.8a9.971,9.971,0,0,0-4.608-19.4,11.157,11.157,0,0,0-5.417,3.557,1.536,1.536,0,0,1-1.455.728A5.578,5.578,0,0,0,50.7,25.507,5.659,5.659,0,0,0,56.767,31a2.506,2.506,0,0,1,1.294.485,28.054,28.054,0,0,1,2.021,2.345l-1.7.566a1.455,1.455,0,0,1-.647-.4,6.834,6.834,0,0,0-8-2.425c-.485.162-.728,0-.889-.485A2.332,2.332,0,0,0,46.5,29.468H43.751c-.808.081-1.051-.243-1.051-1.051V21.546c0-.728.243-1.051.97-.97s2.183-.081,3.234,0A1.779,1.779,0,0,0,48.763,19.2l.97-2.264a1.7,1.7,0,0,0-.4-2.183c-.889-.808-1.617-1.617-2.425-2.425s-.485-.728,0-1.213l4.932-4.932c.485-.566.889-.566,1.374,0l2.506,2.506a1.617,1.617,0,0,0,1.859.323l2.264-.97A1.779,1.779,0,0,0,61.214,6.1v-3.4c.081-.566.323-.808.97-.808h6.872c.728,0,.97.243.97.97s.081,2.183,0,3.315A1.536,1.536,0,0,0,71,7.8a22.232,22.232,0,0,0,2.91,1.213,2.183,2.183,0,0,0,1.7-.4A17.785,17.785,0,0,0,78.11,6.185c.485-.485.808-.566,1.294,0l4.77,4.77c.566.566.647.97,0,1.617s-1.536,1.617-2.345,2.345a1.617,1.617,0,0,0-.323,1.94l1.051,2.506a1.617,1.617,0,0,0,1.7,1.213h3.315c.647,0,.97.323.97,1.051v6.387c0,1.051-.323,1.374-1.374,1.374H84.174a1.617,1.617,0,0,0-1.617,1.051l-1.132,2.83a1.294,1.294,0,0,0,.4,1.7,30.961,30.961,0,0,0,2.264,2.345c.647.566.647,1.051,0,1.7l-5.174,5.255Z" transform="translate(-8.014)"/><path class="a" d="M32.216,28.827A4.609,4.609,0,1,1,23,28.989,4.608,4.608,0,0,1,27.608,24.3a4.527,4.527,0,0,1,4.608,4.527Z" transform="translate(-4.24 -4.29)"/><path class="a" d="M63.055,29.727a4.608,4.608,0,0,1-4.527,4.527,4.527,4.527,0,0,1,0-9.055,4.447,4.447,0,0,1,4.527,4.527Z" transform="translate(-10.178 -4.463)"/></g></svg>