<svg xmlns="http://www.w3.org/2000/svg" width="62.772" height="62.766" viewBox="0 0 62.772 62.766"><defs><style>.a{fill:#324b74;}</style></defs><g transform="translate(0.017)"><path class="a" d="M9.4,75.658a5.957,5.957,0,0,0,.628-3.389.879.879,0,0,1,.251-.69L15.362,68a15.565,15.565,0,0,0,2.385,1.067,4.205,4.205,0,0,0,5.209-3.954,9.414,9.414,0,0,0,0-1.883.941.941,0,0,1,.5-.879L42.977,48.8l1.444-1A8.787,8.787,0,0,0,44.8,49.3a.628.628,0,0,0,.5.377q3.7.126,7.343,0a.628.628,0,0,0,.5-.377c.188-.628.314-1.318.5-1.946a1.13,1.13,0,0,1,.565-.628l2.761-1.13a1.067,1.067,0,0,1,.753.063l2.008,1.192,5.837-5.837-1.192-2.008a1.067,1.067,0,0,1-.063-.753l1.13-2.762c.126-.251.439-.439.628-.69l.188.126V75.658ZM43.605,50.992,28.856,61.285l1.255,1.757L44.86,52.75ZM61.994,62.729V64.8h2.071V62.729Zm0,6.464h2.071V67.059H61.994ZM14.3,73.524V71.39H12.224v2.134Zm4.331,0V71.39H16.555v2.134Zm4.331,0V71.39H20.885v2.134Zm41.109,0V71.39H61.994v2.134ZM27.915,64.549l-1.192-1.757-1.757,1.192,1.192,1.757Z" transform="translate(-3.507 -12.959)"/><path class="a" d="M9.785,37.324V49.186h3.891a3.288,3.288,0,0,1,3.64,3.577v9.1a2.262,2.262,0,0,1-2.134,2.51c-1.255.063-2.2-1-2.2-2.573V55.964A2.2,2.2,0,0,0,10.6,53.517H3.508A3.264,3.264,0,0,1-.006,50V41.843A7.594,7.594,0,0,1,7.839,34.06h8.536a3.766,3.766,0,0,0,2.385-.816c2.259-1.695,4.519-3.452,6.841-5.084A3.2,3.2,0,0,1,27.3,27.6a1.786,1.786,0,0,1,1.13,3.264c-2.259,1.82-4.519,3.577-6.841,5.272a9.414,9.414,0,0,1-2.573,1.13,3.452,3.452,0,0,1-1.13.063Z" transform="translate(0 -10.274)"/><path class="a" d="M64.57,34.582H59.737a17.7,17.7,0,0,0-.439-1.946,1.506,1.506,0,0,0-.628-.628l-4.456-1.883c-.377-.126-.628-.188-.941.063L51.7,31.13l-3.389-3.452.941-1.506c.251-.314.188-.565,0-.941l-1.632-3.7a1.318,1.318,0,0,1,.063-.69,3.97,3.97,0,0,0-2.51-5.586c-.126,0-.251-.126-.377-.314a9.6,9.6,0,0,1,1.82-.439,1.192,1.192,0,0,0,.879-.816c.5-1.444,1.13-2.887,1.757-4.268a.941.941,0,0,0,0-1.067c-.377-.5-.69-1.067-1-1.506,1.192-1.13,2.259-2.259,3.452-3.452l1.569,1a.753.753,0,0,0,.941,0L58.67,2.51a1.13,1.13,0,0,0,.628-.565A17.7,17.7,0,0,0,59.737,0H64.57c.126.628.251,1.318.439,1.946a1.13,1.13,0,0,0,.628.565,15.879,15.879,0,0,1,4.519,1.946.69.69,0,0,0,.816,0l1.632-1,3.389,3.389L75.051,8.41a.69.69,0,0,0-.063.879,16.506,16.506,0,0,1,1.946,4.582,1.192,1.192,0,0,0,.565.565l1.946.439v4.833l-1.946.439a.879.879,0,0,0-.565.565,17.385,17.385,0,0,1-1.946,4.582,1.506,1.506,0,0,0,0,.753,11.171,11.171,0,0,0,1.067,1.695L72.6,31.13l-1.632-1a1.067,1.067,0,0,0-.753,0,18.2,18.2,0,0,1-4.707,1.946,1,1,0,0,0-.5.5,18.892,18.892,0,0,0-.439,2.008ZM49.193,17.259A12.929,12.929,0,1,0,52.98,8.054a12.992,12.992,0,0,0-3.787,9.205Z" transform="translate(-16.689)"/><path class="a" d="M5.2,22.6a5.4,5.4,0,1,1,5.4,5.4A5.4,5.4,0,0,1,5.2,22.6Z" transform="translate(-1.943 -6.405)"/><path class="a" d="M4.331,71.667V86.73a2.134,2.134,0,0,1-1.318,2.134A2.008,2.008,0,0,1,.69,88.424a2.51,2.51,0,0,1-.628-1.444C0,81.583,0,76.186,0,70.6a5.9,5.9,0,0,0,4.331,1.067Z" transform="translate(-0.006 -26.29)"/><path class="a" d="M76.815,21.095A10.858,10.858,0,1,1,66.02,10.3,10.858,10.858,0,0,1,76.815,21.095Zm-4.331,0a6.527,6.527,0,1,0-6.464,6.527,6.527,6.527,0,0,0,6.464-6.527Z" transform="translate(-20.525 -3.835)"/><path class="a" d="M74.18,24.622a4.331,4.331,0,0,1-4.331,4.331,4.268,4.268,0,0,1-4.268-4.331,4.331,4.331,0,1,1,8.6,0Z" transform="translate(-24.416 -7.362)"/></g></svg>