<svg xmlns="http://www.w3.org/2000/svg" width="88.983" height="67.373" viewBox="0 0 88.983 67.373">
  <g id="Group_971" data-name="Group 971" transform="translate(-657.593 -222.478)">
    <path id="Path_948" data-name="Path 948" d="M657.593,280.381a5.1,5.1,0,0,1,2.819-3.112c4.614-2.351,9.2-4.755,13.8-7.14.254-.131.5-.27.819-.441-.12-.321-.219-.615-.338-.9-1.008-2.4-1.963-4.823-3.045-7.189a4.239,4.239,0,0,1,1.048-5.28c2.994-2.985,6.035-5.922,9.063-8.873a9.355,9.355,0,0,1,.818-.639l-.1-.239-4.1-1.066q-2.319,2.527-4.636,5.049c-.727.787-1.413,1.621-2.211,2.329a3.377,3.377,0,0,1-5.535-1.684,3.5,3.5,0,0,1,.975-3.426c1.927-2.082,3.84-4.179,5.758-6.27.587-.64,1.178-1.277,1.761-1.922a3.669,3.669,0,0,1,3.928-1.149c4.169,1.078,8.348,2.12,12.515,3.2a6.072,6.072,0,0,1,2.789,1.527c.638.63,1.286,1.256,1.87,1.936a5.261,5.261,0,0,1,.4,6.579,1.149,1.149,0,0,0-.161,1.122q.515,1.519.933,3.069a1.142,1.142,0,0,0,.934.87c2.646.736,5.284,1.5,7.921,2.26a3.418,3.418,0,0,1,2.789,3.319,3.353,3.353,0,0,1-4.183,3.394c-2.658-.685-5.287-1.483-7.928-2.234-.889-.253-1.772-.531-2.666-.769a3.648,3.648,0,0,1-2.733-2.636c-.228-.766-.484-1.524-.776-2.436l-5.561,5.424c1.582,1.758,3.111,3.457,4.641,5.154,1.2,1.334,2.4,2.674,3.613,4a4.405,4.405,0,0,1,1.105,4.409c-1.159,4.238-2.286,8.484-3.459,12.718a4.16,4.16,0,0,1-4.045,3.2,4.022,4.022,0,0,1-3.894-3.127,5.092,5.092,0,0,1,.053-2.22c.849-3.362,1.766-6.708,2.69-10.051a1.242,1.242,0,0,0-.321-1.406c-.482-.455-.906-.97-1.271-1.369-5.066,2.9-10.279,5.395-15.376,8.1-1.4.746-2.824,1.467-4.239,2.2-2.822,1.453-5.081.659-6.355-2.228a.746.746,0,0,0-.1-.135Z" transform="translate(0 -2.695)" fill="#324b74"/>
    <path id="Path_949" data-name="Path 949" d="M741.536,248.778c.7,1.668,1.343,3.181,1.974,4.7,1.143,2.75,2.3,5.5,3.412,8.258a4.229,4.229,0,0,1-1.192,5.168c-1.908,1.728-3.7,3.588-5.548,5.381a6.034,6.034,0,0,1-.78.539c.386.484.629.8.881,1.1q4.961,5.985,9.927,11.966a4.412,4.412,0,0,1,1.216,2.98,3.9,3.9,0,0,1-2.478,3.749,3.747,3.747,0,0,1-4.406-.805c-1.154-1.172-2.161-2.491-3.216-3.759q-4.333-5.207-8.653-10.426c-.143-.172-.305-.331-.507-.547-.2.391-.377.72-.542,1.054-2.021,4.067-4.05,8.13-6.055,12.2a4.3,4.3,0,0,1-3.258,2.578,4.1,4.1,0,0,1-4.541-5.15,7.937,7.937,0,0,1,.5-1.2q4.12-8.322,8.247-16.64a6.361,6.361,0,0,1,2.125-2.466c1.66-1.155,3.3-2.349,5-3.564L730.31,256c-.537.634-1.018,1.154-1.444,1.717a3.862,3.862,0,0,1-3.8,1.6q-4.605-.565-9.211-1.125a17.378,17.378,0,0,1-1.971-.293,3.415,3.415,0,0,1,1.137-6.709c2.9.316,5.8.67,8.7,1.045a1.044,1.044,0,0,0,1.122-.406,14.791,14.791,0,0,1,1.231-1.46,3.412,3.412,0,0,0,1.092-3.117,4.606,4.606,0,0,1,2.34-4.544A10.2,10.2,0,0,1,734,240.974a15.073,15.073,0,0,1,3.353.221c3.776.541,7.544,1.139,11.318,1.7a3.629,3.629,0,0,1,3.08,2.575c1.251,3.513,2.525,7.019,3.749,10.541a3.429,3.429,0,1,1-6.387,2.483c-.561-1.456-1.061-2.937-1.585-4.407-.475-1.334-.967-2.664-1.411-4.008a1,1,0,0,0-.906-.777C744.043,249.146,742.876,248.97,741.536,248.778Z" transform="translate(-9.173 -3.152)" fill="#324b74"/>
    <path id="Path_950" data-name="Path 950" d="M733.594,235a6.247,6.247,0,0,1-6.233-6.259,6.276,6.276,0,1,1,12.552.093A6.269,6.269,0,0,1,733.594,235Z" transform="translate(-11.907)" fill="#324b74"/>
    <path id="Path_951" data-name="Path 951" d="M705.933,240.034a6.267,6.267,0,1,1,6.308-6.264A6.306,6.306,0,0,1,705.933,240.034Z" transform="translate(-7.182 -0.857)" fill="#324b74"/>
    <path id="Path_952" data-name="Path 952" d="M707.493,288.56a6.269,6.269,0,1,1-6.3,6.274A6.255,6.255,0,0,1,707.493,288.56Z" transform="translate(-7.442 -11.278)" fill="#324b74"/>
  </g>
</svg>
