<svg xmlns="http://www.w3.org/2000/svg" width="78.31" height="65.357" viewBox="0 0 78.31 65.357"><defs><style>.a{fill:#a2a2a2;}</style></defs><g transform="translate(-7 -9.187)"><path class="a" d="M58.115,67.931h6.526V37.506H65.7c1.146,0,2.381,0,3.527-.088a2.064,2.064,0,0,0,1.852-2.557,2.648,2.648,0,0,0-1.411-1.676c-6.614-3.7-13.14-7.408-19.666-11.111-.265-.176-.617-.353-.617-.617-.088-1.058,0-2.028,0-3.175,1.852.882,3.616.617,5.379.353a13.927,13.927,0,0,1,4.674-.265,14.1,14.1,0,0,1,1.852.441V12.285c0-.794-.265-1.058-.97-1.323a13.323,13.323,0,0,0-6.173.176,7.913,7.913,0,0,1-4.057-.088c-.441-.176-.794-.265-.794-.882a1.053,1.053,0,0,0-1.235-.97c-.705.176-.882.617-.882,1.323V20.927a1.181,1.181,0,0,1-.705,1.235c-6.438,3.616-12.963,7.231-19.4,10.935-1.411.794-1.94,1.676-1.587,2.734.265,1.146,1.146,1.587,2.822,1.587h3.7V67.843h6.526V41.827h6.526V67.843h6.526V41.827h6.526C58.115,50.646,58.115,59.288,58.115,67.931ZM25.574,74.457H71.166c-1.235-1.235-2.469-2.381-3.616-3.616a1.977,1.977,0,0,0-1.676-.705H30.512a1.584,1.584,0,0,0-.97.265C28.22,71.723,26.985,73.046,25.574,74.457Z" transform="translate(-2.171 0)"/><path class="a" d="M7,43.8H27.371a.324.324,0,0,1,.265.088V71.755A8.224,8.224,0,0,0,26.048,72.9l-5.291,5.291a1.432,1.432,0,0,1-.794.441H7.088C7,66.993,7,55.441,7,43.8Zm8.642,5.468H11.409v6.438h4.233Zm3.351,6.438h4.321v-6a.621.621,0,0,0-.353-.441H18.993Zm0,4.409v6.438h4.321V60.115Zm-7.584,0v6.438h4.233V60.115Z" transform="translate(0 -4.089)"/><path class="a" d="M93.024,78.545c-3.968,0-7.937,0-11.905.088a3.123,3.123,0,0,1-2.293-.882c-1.587-1.676-3.175-3.263-4.85-4.85A9.165,9.165,0,0,0,72.3,71.755V43.8H92.936C93.024,55.441,93.024,66.993,93.024,78.545ZM81.03,55.705V49.268H76.8v6.438Zm7.584,0V49.268H84.382v6.438Zm0,10.935V60.2H84.382V66.64ZM81.03,60.2H76.709V66.64H81.03Z" transform="translate(-7.714 -4.089)"/><path class="a" d="M58.119,67.942V41.927H51.593V67.942H45.068V41.927H38.542V67.942H32.016V37.518h-3.7c-1.587,0-2.469-.529-2.822-1.587-.265-1.146.176-2.028,1.587-2.734,6.438-3.616,12.875-7.319,19.4-10.935a1.181,1.181,0,0,0,.705-1.235V10.621A1.169,1.169,0,0,1,48.066,9.3a1.006,1.006,0,0,1,1.235.97c0,.617.353.794.794.882a7.913,7.913,0,0,0,4.057.088,14.545,14.545,0,0,1,6.173-.176c.705.176,1.058.441.97,1.323-.088,2.2,0,4.321,0,6.526a18.462,18.462,0,0,0-1.852-.441,11.873,11.873,0,0,0-4.674.265,8.126,8.126,0,0,1-5.379-.353v3.175c0,.176.353.441.617.617,6.526,3.7,13.14,7.408,19.666,11.111a2.451,2.451,0,0,1,1.411,1.676,2.03,2.03,0,0,1-1.852,2.557c-1.146.088-2.381.088-3.527.088H64.645V68.03C62.529,67.942,60.412,67.942,58.119,67.942Z" transform="translate(-2.176 -0.012)"/><path class="a" d="M25.6,82.633c1.411-1.411,2.646-2.734,4.057-3.968a1.584,1.584,0,0,1,.97-.265H65.989a2.085,2.085,0,0,1,1.676.705l3.616,3.616C55.936,82.633,40.856,82.633,25.6,82.633Z" transform="translate(-2.197 -8.176)"/></g></svg>