<svg xmlns="http://www.w3.org/2000/svg" width="76.5" height="36.401" viewBox="0 0 76.5 36.401"><defs><style>.a{fill:#324b74;}</style></defs><path class="a" d="M93.5,36.4H17V0H93.5V36.4ZM37.737,19.249h3.41l6.6,9.642h3.007l-6.789-9.827c3.539-.687,5.487-2.833,5.487-6.045v-.124c0-3.92-2.825-6.169-7.75-6.169H35.04V28.891h2.7V19.25ZM63.094,6.726V28.891h2.7V19.869h3.6c4.925,0,7.75-2.384,7.75-6.54V13.2c0-4.118-2.825-6.479-7.75-6.479Zm-8.432,0V28.891h2.7V6.726ZM69.574,17.731H65.792V8.9h3.782c3.275,0,4.867,1.41,4.867,4.309v.124a4.2,4.2,0,0,1-1.248,3.27A5.239,5.239,0,0,1,69.574,17.731Zm-27.683-.62H37.737V8.9H41.89a5.912,5.912,0,0,1,3.561.872,3.606,3.606,0,0,1,1.306,3.127v.124a3.776,3.776,0,0,1-1.248,3.069A5.571,5.571,0,0,1,41.89,17.111Z" transform="translate(-17)"/></svg>