<svg xmlns="http://www.w3.org/2000/svg" width="41" height="41" viewBox="0 0 41 41"><defs><style>.a{fill:#fff;}</style></defs><path class="a" d="M20.5,41a20.651,20.651,0,0,1-4.131-.416A20.387,20.387,0,0,1,9.039,37.5,20.56,20.56,0,0,1,1.612,28.48,20.4,20.4,0,0,1,.417,24.632,20.968,20.968,0,0,1,.4,16.379,20.33,20.33,0,0,1,3.459,9.061a20.5,20.5,0,0,1,8.973-7.432,20.338,20.338,0,0,1,3.834-1.2A20.592,20.592,0,0,1,20.384,0H20.5a20.651,20.651,0,0,1,4.131.416A20.387,20.387,0,0,1,31.962,3.5a20.56,20.56,0,0,1,7.427,9.019,20.4,20.4,0,0,1,1.194,3.848,20.7,20.7,0,0,1,0,8.263,20.388,20.388,0,0,1-3.085,7.33,20.56,20.56,0,0,1-9.019,7.427,20.4,20.4,0,0,1-3.848,1.194A20.651,20.651,0,0,1,20.5,41ZM12.463,18.054l-3.32,3.261,8.153,8.1,14.56-14.56-3.32-3.261L17.3,22.83l-4.834-4.776Z" transform="translate(0 0)"/></svg>