<svg xmlns="http://www.w3.org/2000/svg" width="85.876" height="62.745" viewBox="0 0 85.876 62.745"><defs><style>.a{fill:#a2a2a2;}</style></defs><g transform="translate(-4.6 -17.5)"><path class="a" d="M4.6,50H21.66V71.782c-.964.1-1.831.1-2.8.193V70.047h-2.8v2.988c-3.084,2.024-3.759,3.566-3.663,8.385H4.6C4.6,70.915,4.6,60.409,4.6,50Zm5.687,7.132h-2.8v2.7h2.8Zm8.578,4.337h-2.8v2.7h2.8ZM10.287,65.71h-2.8v2.7h2.8Zm8.578,0h-2.8v2.7h2.8Zm-8.578,7.036v-2.7h-2.8v2.7Zm0-8.482v-2.8h-2.7v2.8Zm5.783-8.674h2.7V52.8h-2.7Zm-8.578-2.7v2.8h2.7v-2.8Zm4.241,0v2.7h2.8v-2.7Zm7.036,7.036v-2.8h-2.7v2.8ZM14.527,65.71h-2.7v2.7h2.7Zm0-1.542v-2.8h-2.7v2.8Zm0-7.036h-2.8v2.217a.619.619,0,0,0,.482.482,18.523,18.523,0,0,0,2.313,0Zm-2.8,12.819v2.8h2.7v-2.8Z" transform="translate(0 -1.176)"/><path class="a" d="M23.8,17.5H39.412V72.052a9.3,9.3,0,0,0-10.988,2.024,9.781,9.781,0,0,0-4.337-2.988.53.53,0,0,1-.289-.482c-.1-.193,0-.386,0-.578V17.5Zm5.687,9.927V23.187H28.232v4.241Zm2.8-4.241H30.931v4.144H32.28Zm2.891,4.241V23.187H33.918v4.241Zm0,1.446H33.822v2.8h1.349Zm-4.241,7.036H32.28v-2.7H30.931C30.931,34.174,30.931,34.945,30.931,35.909Zm4.241,0v-2.7H33.918v2.7Zm-5.687,4.337v-2.8H28.232v2.8Zm2.891-2.8H31.027v2.7h1.349Zm2.8,2.8v-2.8H33.822v2.8Zm-5.687,5.783H28.136v2.7h1.349Zm1.542,2.7h1.349v-2.7H31.027C31.027,46.9,31.027,47.86,31.027,48.728Zm2.8,0h1.349v-2.7H33.822ZM29.485,61.546v-2.8H28.232v2.8Zm2.8,0v-2.7H30.931v2.7Zm2.891.1v-2.8H33.822v2.8Zm-5.687,1.446H28.136v2.8h1.349Zm1.542,2.8H32.28v-2.7H31.027ZM29.485,35.909v-2.8H28.232v2.8Zm0,21.4v-2.8H28.136v2.8Zm1.542-2.8v2.8h1.349v-2.8Zm4.144,11.373v-2.8H33.918v2.8Zm0-11.277H33.822v2.7h1.349ZM29.485,31.668v-2.8H28.136v2.8Zm1.542,0h1.349v-2.8H31.027C31.027,29.837,31.027,30.7,31.027,31.668Zm1.253,21.4v-2.7H31.027v2.7Zm-2.891-8.578v-2.7H28.136v2.7Zm5.783,0v-2.7H33.918v2.7Zm-1.349,8.482h1.349v-2.7H33.822Zm-2.8-11.277v2.7H32.28v-2.7ZM29.485,50.27H28.136v2.7h1.349Z" transform="translate(-0.693)"/><path class="a" d="M55.768,41.2V70.018A1.291,1.291,0,0,1,55,71.367a8.774,8.774,0,0,0-4.241,8.964,1.223,1.223,0,0,0,.1.578V81.1H44.877c-.1-.578-.1-1.157-.193-1.735a9.773,9.773,0,0,0-2.6-4.915,1.534,1.534,0,0,1-.482-.964V41.2ZM44.4,68.091h8.482V66.838H44.4Zm8.482-4.144H44.4V65.2h8.482Zm0,5.783H44.4v1.349h8.482Zm-2.8-17.156h-2.8v2.7h2.8ZM47.287,44v2.8h2.8V44Zm0,12.819v2.7h2.7v-2.7Zm0-8.482v2.7h2.7v-2.7Zm-2.8,4.241v2.8h1.349v-2.8Zm0-8.578v2.7h1.253V44Zm0,12.819v2.7h1.349v-2.7Zm0-8.482v2.7h1.349v-2.7Zm8.385-1.542V44H51.624v2.8ZM51.624,56.814v2.7h1.253v-2.7Zm0-4.241v2.8h1.253v-2.8Zm-1.542,8.578h-2.8V62.5h2.8Zm1.542-10.12h1.349v-2.7H51.624Zm-5.783,10.12H44.491V62.4h1.349Zm5.783-.1V62.4h1.253V61.055Z" transform="translate(-1.339 -0.858)"/><path class="a" d="M81.07,72.844v-16.1h1.253a2.54,2.54,0,0,0,2.891-2.7,32.562,32.562,0,0,0,0-4.337,1.079,1.079,0,0,0-.675-.771c-.482-.1-.675.289-.675.771V52.7a6.363,6.363,0,0,1-.1,1.349,1.2,1.2,0,0,1-1.446,1.157H80.973v-8c0-.578.1-1.253-.675-1.253s-.771.675-.771,1.253v3.663H77.5c-.675,0-.867-.578-.867-1.157V46.821c0-.482-.1-.964-.675-.964s-.675.482-.675.964v2.988a2.3,2.3,0,0,0,2.506,2.41h1.735V72.652a2.183,2.183,0,0,1-1.157,2.024l-.289-1.157v-13.3c0-.771-.193-1.06-.964-1.253A9.787,9.787,0,0,1,69.7,47.978a9.968,9.968,0,1,1,13.4,10.7,1.067,1.067,0,0,0-.867,1.157v11.18C82.419,72.459,82.419,72.459,81.07,72.844Z" transform="translate(-2.352 -0.792)"/><path class="a" d="M52.7,82.141c-.482-4.048,1.06-7.132,4.241-8.771,2.988-1.542,5.879-.867,9.349,2.313,5.108-3.277,9.831-.867,11.662,2.988,2.313-3.663,5.59-4.819,9.638-3.373,2.988,1.06,4.337,3.663,4.626,6.843Z" transform="translate(-1.737 -1.993)"/><path class="a" d="M28.075,78.732c2.6-3.566,5.687-4.723,9.06-3.663a7.853,7.853,0,0,1,5.2,7.132H14.292a6.205,6.205,0,0,1,4.53-7.614,7.585,7.585,0,0,1,9.06,3.759C27.882,78.442,27.978,78.539,28.075,78.732Z" transform="translate(-0.343 -2.053)"/><path class="a" d="M66.435,72.549a2.094,2.094,0,0,1-1.446-2.217c.1-1.446,0-2.891,0-4.337a.75.75,0,0,0-.578-.867A7.853,7.853,0,0,1,61.52,52.406,7.7,7.7,0,0,1,67.785,49.9a25.836,25.836,0,0,0,.482,2.891,25.706,25.706,0,0,0,1.928,4.048,2.615,2.615,0,0,1-.1,2.891,1.094,1.094,0,0,1-.771.289H67.688V55.875c0-.289-.386-.482-.675-.771l-.675.675c-.1.193,0,.482,0,.675v2.12H64.893V56.068c0-.482-.1-.964-.675-.964s-.675.482-.675.964v2.217c0,1.157.482,1.638,1.638,1.831.386,0,.771.1,1.157.1C66.435,64.164,66.435,68.309,66.435,72.549Z" transform="translate(-1.982 -1.172)"/><path class="a" d="M69.649,72.4a7.1,7.1,0,0,1-1.349.386V61.7c2.024.193,3.855,0,4.048-2.6.964.578,1.831,1.157,2.8,1.735a7.656,7.656,0,0,1-4.723,4.723.9.9,0,0,0-.771,1.06Z" transform="translate(-2.305 -1.505)"/></g></svg>