<svg xmlns="http://www.w3.org/2000/svg" width="38.363" height="38.369" viewBox="0 0 38.363 38.369"><defs><style>.a{fill:#39b54a;}</style></defs><g transform="translate(0 0)"><path class="a" d="M232.043,232.019h-.3a4.341,4.341,0,0,0-.469-.092c-.658-.058-1.319-.082-1.974-.162a17.668,17.668,0,0,1-7.385-2.623,18.85,18.85,0,0,1-8.984-13.777,18.247,18.247,0,0,1,.186-6.363,19.142,19.142,0,0,1,18.722-15.352,16.786,16.786,0,0,1,4.3.49,18.94,18.94,0,0,1,13.8,12.3,16.67,16.67,0,0,1,1.068,5.748,2.624,2.624,0,0,0,.09.469v.3c-.032.169-.072.337-.094.507a32.223,32.223,0,0,1-.47,3.587,18.817,18.817,0,0,1-12.277,13.809,16.648,16.648,0,0,1-5.747,1.068A2.517,2.517,0,0,0,232.043,232.019ZM229,214.948l-.216-.031a2.165,2.165,0,0,0-.237-.342c-1.3-1.285-2.6-2.559-3.892-3.85-.233-.233-.37-.234-.6,0q-1.278,1.294-2.6,2.549c-.237.227-.237.365,0,.6q3.554,3.5,7.088,7.019c.342.339.346.338.7-.013q6.512-6.511,13.02-13.022c.1-.1.2-.216.314-.342-.112-.121-.2-.223-.3-.319q-1.252-1.241-2.507-2.479c-.348-.344-.35-.343-.7.005q-4.919,4.919-9.834,9.842A1.963,1.963,0,0,0,229,214.948Z" transform="translate(-212.737 -193.65)"/></g></svg>