<?xml version="1.0" encoding="utf-8"?>
<!-- Generator: Adobe Illustrator 25.2.3, SVG Export Plug-In . SVG Version: 6.00 Build 0)  -->
<svg version="1.1" id="Layer_1" xmlns="http://www.w3.org/2000/svg" xmlns:xlink="http://www.w3.org/1999/xlink" x="0px" y="0px"
	 viewBox="0 0 28 28" style="enable-background:new 0 0 28 28;" xml:space="preserve">
<style type="text/css">
	.st0{fill:#CA0027;}
	.st1{fill:#AFAFAF;}
	.st2{fill:#FFFFFF;}
	.st3{fill:#7C7C7C;}
	.st4{fill:#434343;}
	.st5{fill:#E04F5F;}
	.st6{fill:#B2B2B2;}
	.st7{fill:#303030;}
	.st8{fill:#10BF79;}
</style>
<path id="Subtraction_18" class="st8" d="M14,26.4c-0.8,0-1.7-0.1-2.5-0.3c-1.6-0.3-3.1-1-4.4-1.9c-2-1.3-3.6-3.2-4.5-5.5
	c-0.3-0.8-0.6-1.5-0.7-2.3c-0.3-1.6-0.3-3.3,0-5c0.3-1.6,1-3.1,1.9-4.4c1.3-2,3.2-3.6,5.4-4.5c0.7-0.3,1.5-0.6,2.3-0.7
	c0.8-0.2,1.7-0.3,2.5-0.3H14c0.8,0,1.7,0.1,2.5,0.3c1.6,0.3,3.1,1,4.4,1.9c2,1.3,3.6,3.2,4.5,5.5c0.3,0.8,0.6,1.5,0.7,2.3
	c0.3,1.7,0.3,3.4,0,5c-0.3,1.6-1,3.1-1.9,4.4c-1.3,2-3.2,3.6-5.5,4.5c-0.8,0.3-1.5,0.6-2.3,0.7C15.7,26.3,14.8,26.4,14,26.4z
	 M9.1,12.5l-2,2l4.9,4.9l8.8-8.8l-2-2l-6.8,6.8L9.1,12.5L9.1,12.5z"/>
</svg>
