<svg xmlns="http://www.w3.org/2000/svg" width="17.276" height="19.517" viewBox="0 0 17.276 19.517">
  <g id="LANG-01" transform="translate(-276.4 -247.4)">
    <path id="Icon_metro-language" data-name="Icon metro-language" d="M281.631,257.583l-1.565.475.711-2.554Zm11.605-4.674-7.8-2.623v11.605l7.8,2.611Zm-13.54,6.509,2.376-.73.506,1.236,1.143-.348-2.426-6.03-1.128.352-2.032,7.386,1.147-.348Zm-1.2-11.5v4.269l6.444-2.067Zm9.986,16.531,1.773.189-.649,1.789-.433-.753a8.368,8.368,0,0,1-3.133,1.14,5.1,5.1,0,0,1-1.028.108l-.943-.023a7.631,7.631,0,0,1-2.233-.491,7.511,7.511,0,0,1-2.04-1.012.228.228,0,0,1-.085-.182.209.209,0,0,1,.062-.151.193.193,0,0,1,.143-.058.677.677,0,0,1,.2.093l.336.193.228.128a10.164,10.164,0,0,0,1.773.738,6.524,6.524,0,0,0,1.766.317,9.58,9.58,0,0,0,1.881-.116,9.2,9.2,0,0,0,1.777-.525c.116-.046.232-.1.348-.162l.39-.209.324-.174Zm-10.427-12.111v-4.7a.2.2,0,0,1,.228-.236c.027,0,.634.2,1.816.6l3.554,1.217q1.777.622,1.8.618l6.274-2.225v4.319c.321.112.881.3,1.677.564a.46.46,0,0,1,.224.124.572.572,0,0,1,.046.112v12.127a.043.043,0,0,0-.012.031.2.2,0,0,1-.2.143c-.05,0-1.433-.456-4.137-1.368s-4.11-1.387-4.219-1.433L276.4,265V252.863Z" fill="#303030"/>
    <path id="Path_789" data-name="Path 789" d="M533.4,453.352a2.007,2.007,0,0,0,.761,2.785,3.48,3.48,0,0,0,3.234.062,1.914,1.914,0,0,0,1-2.357,1.1,1.1,0,0,0-1.082-.792.644.644,0,0,0-.63.352.691.691,0,0,0,.17.784,3.65,3.65,0,0,0,.518.382c.085.062.2.085.267.158s.135.178.12.247a.286.286,0,0,1-.22.162c-1.047.012-2.09.008-3.156.008v-.413h2.55a4.783,4.783,0,0,1-.487-.394,1.153,1.153,0,0,1-.294-1.3,1.089,1.089,0,0,1,1.082-.676,1.42,1.42,0,0,1,1.271.661,2.9,2.9,0,0,1-.023,3.079,2.743,2.743,0,0,1-2.214,1.279,3.259,3.259,0,0,1-2.893-1.024,2.893,2.893,0,0,1-.255-3.322,1.379,1.379,0,0,1,1.062-.668.975.975,0,0,1,1.1.919.923.923,0,0,1-.823,1.008C533.863,454.361,533.476,454.024,533.4,453.352Zm.939-.51a.508.508,0,0,0-.471.533.5.5,0,0,0,.483.5.519.519,0,0,0,.487-.525A.5.5,0,0,0,534.338,452.842Z" transform="translate(-246.402 -197.044)" fill="#303030"/>
  </g>
</svg>
