<svg xmlns="http://www.w3.org/2000/svg" width="716" height="472.838" viewBox="0 0 716 472.838"><defs><style>.a,.b,.d{fill:#ca0027;}.a{opacity:0.04;}.b,.g{opacity:0.1;}.c,.i{opacity:0.2;}.e{fill:#3f3d56;}.f{fill:#f1c0c0;}.h{fill:#be6f72;}.j{fill:#fed253;}.k{fill:#fbbebe;}</style></defs><g transform="translate(-7 24.881)"><path class="a" d="M727.07,370.618a146.717,146.717,0,0,1-4.3,35.4q-1.447,5.854-3.362,11.465a135.384,135.384,0,0,1-5.422,13.568q-1.55,3.356-3.276,6.577a88.486,88.486,0,0,1-7.4,35.556,91.663,91.663,0,0,1-44.486,45.835,93.571,93.571,0,0,1-39.714,9.118H147a118.95,118.95,0,0,1-59.829-15.994l-.28-.158q-3.884-2.273-7.574-4.814a118.784,118.784,0,0,1-15.544-12.814,115.671,115.671,0,0,1-17.088-21.173,112.983,112.983,0,0,1-17.38-60.321A142.252,142.252,0,0,1,11.07,342.424c0-32.826,10.675-62.771,28.212-85.439a120.116,120.116,0,0,1,11.982-13.331,111.5,111.5,0,0,1,13.7-11.216,106.614,106.614,0,0,1,12.158-7.295c1.757-.894,3.52-1.739,5.313-2.523,1.574-.7,3.167-1.35,4.778-1.964q2.9-1.1,5.872-2.024t5.866-1.617q4.255-1.039,8.656-1.69c2.432-.359,4.863-.608,7.295-.8,1.933-.146,3.884-.225,5.848-.249h1.064c2.164,0,4.316.085,6.45.231.225-.45.468-.906.693-1.35.851-1.623,1.733-3.24,2.62-4.821a.152.152,0,0,1,0-.043c.152-.28.3-.553.462-.821.717-1.295,1.465-2.577,2.231-3.848.353-.608.7-1.179,1.058-1.751a4.65,4.65,0,0,1,.249-.413q.547-.912,1.112-1.824,2.815-4.5,5.854-8.839l.517-.742c.316-.45.608-.888.961-1.337.839-1.173,1.7-2.353,2.571-3.508.608-.827,1.216-1.647,1.872-2.432q2.371-3.039,4.863-6.079t5.179-6c.243-.274.486-.541.742-.808l2.6-2.833h0c.128-.134.237-.255.359-.377h0c.31-.334.608-.669.942-.991,1.392-1.477,2.821-2.924,4.255-4.365a231.721,231.721,0,0,1,23.282-20.285c.322-.255.65-.5.973-.742,1.544-1.161,3.112-2.31,4.681-3.441a246.388,246.388,0,0,1,27-16.839c.644-.371,1.3-.717,1.964-1.058a257.743,257.743,0,0,1,25.829-11.89c4.808-1.9,9.726-3.69,14.674-5.325,3.295-1.082,6.6-2.109,9.951-3.076q7.854-2.261,15.817-4.055a281.666,281.666,0,0,1,47.562-6.48q7.295-.371,14.754-.383a282.673,282.673,0,0,1,71.123,9,2.565,2.565,0,0,0,2.207,1.149h2.042c.888.243,1.769.486,2.657.742q7.434,2.14,14.656,4.675l1.216.438a261.66,261.66,0,0,1,34.6,15.2,249.661,249.661,0,0,1,28.966,17.9q2.134,1.532,4.207,3.088,2.517-1.611,5.118-3.088a100.68,100.68,0,0,1,21.2-9.039,96.716,96.716,0,0,1,47.562-1.86c20.212,4.286,38.51,14.924,53.288,30.054A124.34,124.34,0,0,1,658.706,176.3c.334.523.669,1.052.991,1.587a133.726,133.726,0,0,1,10.176,20.285c.1.261.207.5.3.76a140.461,140.461,0,0,1,6.261,20.273c.073.353.158.7.231,1.052a145.973,145.973,0,0,1,2.991,20.285,3.932,3.932,0,0,0,.049.748q.383,5.295.389,10.7c0,3.222-.109,6.419-.31,9.593,0,.347-.049.705-.079,1.064-.055.918-.134,1.824-.213,2.748a115.369,115.369,0,0,1,13,12.261q2.656,2.9,5.143,6.018a128.036,128.036,0,0,1,13.252,20.285A142.358,142.358,0,0,1,727.07,370.618Z" transform="translate(-4.07 -112.641)"/><path class="b" d="M707.286,778.945c0,4.152-14.3,8.042-39.264,11.386H195.908a118.953,118.953,0,0,1-59.829-15.994l-.28-.158c7.173-2.614,20.121-5.052,37.744-7.252h0l.79-.1c7.9-.967,16.735-1.884,26.389-2.754a6.013,6.013,0,0,0,.736-.067h0q11.489-1.021,24.443-1.915c.274,0,.541-.049.815-.061q5-.359,10.2-.681h0l1.337-.085c25.258-1.568,53.969-2.821,85.1-3.647h.036q6.541-.182,13.222-.322,7.428-.176,15.039-.31c3.872-.085,7.793-.146,11.726-.207h.091c17.744-.267,36.078-.4,54.826-.4,46.358,0,90.175.845,129,2.365h.109c5.97.231,11.83.486,17.544.748l4.863.231q9.672.462,18.845.991h0C660.575,764.805,707.286,771.45,707.286,778.945Z" transform="translate(-58.642 -342.374)"/><g class="c" transform="translate(377.726 240.11)"><path class="d" d="M682.991,746.173a11.53,11.53,0,0,1-.225,1.951Q676.419,747.116,670,746.3v-.523a10.26,10.26,0,0,1,1.52-5.155,5.655,5.655,0,0,1,10.292.316A10.254,10.254,0,0,1,682.991,746.173Z" transform="translate(-647.168 -582.624)"/><ellipse class="d" cx="8.517" cy="6.504" rx="8.517" ry="6.504" transform="translate(22.902 161.265) rotate(-88.19)"/><ellipse class="d" cx="8.517" cy="6.504" rx="8.517" ry="6.504" transform="translate(23.234 150.858) rotate(-88.19)"/><ellipse class="d" cx="8.517" cy="6.504" rx="8.517" ry="6.504" transform="translate(23.559 140.45) rotate(-88.19)"/><ellipse class="d" cx="8.517" cy="6.504" rx="8.517" ry="6.504" transform="translate(23.885 130.043) rotate(-88.19)"/><path class="d" d="M640.969,532.474a30.188,30.188,0,0,1-2.31-3.647l17.179-2.268-18.492-.444a31.235,31.235,0,0,1,.188-24.7l24.389,13.647-22.34-17.532A31.173,31.173,0,1,1,689.941,534a30.883,30.883,0,0,1,3.374,5.793l-22.547,10.82,23.908-7.191a31.209,31.209,0,0,1-5.97,29.124A31.173,31.173,0,1,1,639.735,571a31.173,31.173,0,0,1,1.216-38.528Z" transform="translate(-632.44 -482.747)"/><path class="b" d="M696,598.8a31,31,0,0,1-7.295,19.051,31.173,31.173,0,1,1-48.972-1.544C635.741,610.883,696.111,595.308,696,598.8Z" transform="translate(-632.44 -528.055)"/></g><g class="c" transform="translate(285.327 240.11)"><path class="d" d="M530.991,746.173a11.536,11.536,0,0,1-.225,1.951Q524.419,747.116,518,746.3v-.523a10.261,10.261,0,0,1,1.52-5.155,5.655,5.655,0,0,1,10.292.316A10.256,10.256,0,0,1,530.991,746.173Z" transform="translate(-495.168 -582.624)"/><ellipse class="d" cx="8.517" cy="6.504" rx="8.517" ry="6.504" transform="translate(22.895 161.268) rotate(-88.19)"/><ellipse class="d" cx="8.517" cy="6.504" rx="8.517" ry="6.504" transform="translate(23.227 150.86) rotate(-88.19)"/><ellipse class="d" cx="8.517" cy="6.504" rx="8.517" ry="6.504" transform="translate(23.552 140.453) rotate(-88.19)"/><ellipse class="d" cx="8.517" cy="6.504" rx="8.517" ry="6.504" transform="translate(23.878 130.045) rotate(-88.19)"/><path class="d" d="M488.969,532.474a30.187,30.187,0,0,1-2.31-3.647l17.179-2.268-18.492-.444a31.233,31.233,0,0,1,.188-24.7l24.389,13.647-22.34-17.532A31.173,31.173,0,1,1,537.941,534a30.872,30.872,0,0,1,3.374,5.793l-22.547,10.82,23.908-7.191a31.209,31.209,0,0,1-5.97,29.124A31.173,31.173,0,1,1,487.735,571a31.173,31.173,0,0,1,1.216-38.528Z" transform="translate(-480.44 -482.747)"/><path class="b" d="M544,598.8a31,31,0,0,1-7.295,19.051,31.173,31.173,0,1,1-48.972-1.544C483.741,610.883,544.111,595.308,544,598.8Z" transform="translate(-480.44 -528.055)"/></g><g class="c" transform="translate(504.621 95.564)"><path class="e" d="M938.407,751.889a22.673,22.673,0,0,1-.444,3.7q-12.218-1.951-24.614-3.489v-1a19.756,19.756,0,0,1,2.93-9.927c2.432-3.811,6.079-6.2,10.109-6.079s7.538,2.742,9.726,6.687a19.774,19.774,0,0,1,2.292,10.115Z" transform="translate(-869.482 -437.144)"/><ellipse class="e" cx="16.401" cy="12.529" rx="16.401" ry="12.529" transform="translate(44.026 310.336) rotate(-88.19)"/><ellipse class="e" cx="16.401" cy="12.529" rx="16.401" ry="12.529" transform="translate(44.658 290.299) rotate(-88.19)"/><ellipse class="e" cx="16.401" cy="12.529" rx="16.401" ry="12.529" transform="translate(45.296 270.263) rotate(-88.19)"/><ellipse class="e" cx="16.401" cy="12.529" rx="16.401" ry="12.529" transform="translate(45.226 249.36) rotate(-88.282)"/><path class="d" d="M857.559,340.59a60.336,60.336,0,0,1-4.444-7.009l33.069-4.365-35.592-.857a60.121,60.121,0,0,1,.353-47.562l46.96,26.267-43-33.75a60.011,60.011,0,1,1,96.941,70.248,60.006,60.006,0,0,1,6.5,11.155l-43.409,20.845,46.024-13.86a60.029,60.029,0,0,1-11.447,56.017,60.011,60.011,0,1,1-94.284-2.973,60.029,60.029,0,0,1,2.334-74.163Z" transform="translate(-841.186 -244.965)"/><path class="b" d="M963.53,468.2a59.779,59.779,0,0,1-13.982,36.68,60.011,60.011,0,1,1-94.284-2.973C847.52,491.448,963.743,461.472,963.53,468.2Z" transform="translate(-841.202 -332.116)"/></g><path class="f" d="M157.82,424.464l6.377-.018h8.991L184.555,239.78,297.131,51.923l-4.894-5.252V33.37L170.488,235.427Z" transform="translate(-61.87 -13.084)"/><path class="g" d="M169.43,433.025h8.31l11.368-184.666L301.683,60.5,296.79,55.25,180.67,245.545Z" transform="translate(-66.423 -21.664)"/><path class="f" d="M126.91,670.932l291.7,22.322.249.018,282.3-17.361.213-.012V663.977L390.31,658.269l-259.515-.249h-1.9l-.207,1.337Z" transform="translate(-49.75 -258.014)"/><path class="g" d="M126.91,670.932l291.7,22.322.249.018,282.3-17.361.213-.231V664.227h-.249l-282.512,9.434L130.794,658.02h-.043l-.511.334-1.55,1Z" transform="translate(-49.75 -258.014)"/><path class="g" d="M126.91,671.147l291.7,22.322V673.877L130.241,658.57l-1.55,1Z" transform="translate(-49.75 -258.23)"/><path class="f" d="M378.88,46.512,507.48,184.54,503.5,427.332l10.924,1.319.182.024h10.924l1.307-233.71,240.8,80.436,4.061,143.22,8.79.985,2.979.334-6.893-154.472L524.853,177.093,386.825,33.6H378.88Z" transform="translate(-148.55 -13.175)"/><path class="g" d="M620.65,291.7l.991,4.468,240.8,80.436,4.061,143.219,8.79.985L868.4,373.626Z" transform="translate(-243.349 -114.377)"/><path class="g" d="M378.88,46.512,507.48,184.54,503.5,427.332l10.924,1.319,2.979-252.057L378.88,33.6Z" transform="translate(-148.55 -13.175)"/><path class="f" d="M621.42,441.819l88.321,17.392.03.006,154.69,30.474,7.082-2.839-.024-.5-.462-9.878L621.511,426.05Z" transform="translate(-243.651 -167.057)"/><path class="g" d="M766.76,480.61l154.69,30.474,7.082-2.839-.024-.5Z" transform="translate(-300.64 -188.45)"/><path class="f" d="M776.49,350.56l2.389,131.512,1.234,67.47,10.875-.365,6.845-.231-2.128-196.483-4.717-1.568-1.034-.334Z" transform="translate(-304.455 -137.457)"/><path class="g" d="M776.65,350.51v.03l2.292,131.511,1.234,67.47,10.875-.365V350.51Z" transform="translate(-304.518 -137.437)"/><path class="e" d="M495.787,488.17a13.861,13.861,0,0,1,1.824,1.185,12.065,12.065,0,0,1,1.824,2c2.608,3.374,5.015,7.295,4.76,11.55a4.7,4.7,0,0,1-1.356,3.343c-1.076.918-2.62.96-4.03.96a8.581,8.581,0,0,1-4.468-.79c-1.325-.79-2.432-2.328-4-2.292a2.05,2.05,0,0,1-.669,0c-.541-.176-.65-.888-1-1.337-.608-.809-1.891-.608-2.845-.255s-2.012.881-2.954.474a3.07,3.07,0,0,1-1.283-1.283c-2.255-3.647-2.736-8.03-3.161-12.267-.261-2.577-2.255-11.368,3.246-9.368,2.432.875,4.705,2.626,6.918,3.909Z" transform="translate(-194.102 -241.481)"/><path class="e" d="M497.688,492.864a2.711,2.711,0,0,0,3.337-.134,5.028,5.028,0,0,0,1.623-3.149c.608-.188.918.608,1.307,1.094.681.827,2.067.815,2.687,1.7.432.608.334,1.453.638,2.14.4.888,1.374,1.349,2.043,2.067a7.039,7.039,0,0,1,1.337,2.669l1,2.991a14.773,14.773,0,0,1,.912,3.872,5.014,5.014,0,0,1-1.155,3.7c-1.337,1.441-3.532,1.593-5.471,1.55a7.039,7.039,0,0,1-1.921-.225,5.452,5.452,0,0,1-3.277-4.012,50.647,50.647,0,0,1-.675-5.362,21.014,21.014,0,0,0-1.52-5.094c-.535-1.264-2.006-3.149-1.982-4.492C497.007,492.177,497.324,492.579,497.688,492.864Z" transform="translate(-201.438 -245.306)"/><path class="h" d="M496.651,479.816a10.037,10.037,0,0,1-.492-2.669,11.617,11.617,0,0,1,1.672-5.167l-6.948.942a3.077,3.077,0,0,0-2.249.985,2.431,2.431,0,0,0,0,2.243,11.465,11.465,0,0,1,.827,2.17,10.842,10.842,0,0,0,.225,1.951,4.136,4.136,0,0,0,.894,1.258,42.145,42.145,0,0,1,4.96,7.368c-.042-.073,4.188-3.349,4.018-4.419-.1-.608-1.319-1.337-1.708-1.921A9.779,9.779,0,0,1,496.651,479.816Z" transform="translate(-198.219 -238.415)"/><path class="f" d="M507.5,358.04v5.988l-102.533,20-5.319,3.222H381.3v-3.374l100.74-24.34Z" transform="translate(-149.498 -140.39)"/><path class="g" d="M507.5,367.89l-102.533,20-5.319,3.222H381.3l101.488-21.72Z" transform="translate(-149.498 -144.252)"/><path class="d" d="M453.565,723.558A7.945,7.945,0,0,0,443.9,721.5a2.546,2.546,0,0,0-.887.693c-.608.851-.219,2.024-.164,3.076.14,2.565-1.9,4.65-3.739,6.444a8.838,8.838,0,0,0-2.432,3.295,3.087,3.087,0,0,0,1.076,3.647,4.479,4.479,0,0,0,1.666.462,17.978,17.978,0,0,0,5.9.164A6.389,6.389,0,0,0,450,736.026a3.434,3.434,0,0,1,.784-1.295c1.07-.845,2.711.146,3.927-.456,1-.5,1.046-1.283,1.058-2.316C455.8,729.1,455.377,725.868,453.565,723.558Z" transform="translate(-177.88 -335.929)"/><path class="d" d="M480.091,720.556a20.014,20.014,0,0,1,.948,6.219,6,6,0,0,1-.565,3.544,4.843,4.843,0,0,1-3.167,1.824c-2.535.523-5.471.03-7.106-1.982a7.5,7.5,0,0,1-1.283-5.641c.195-1.635.608-3.55-.565-4.711-.3-.31-.7-.529-.979-.863a2.9,2.9,0,0,1-.182-2.772,12.038,12.038,0,0,0,.954-2.742c.049-.45,8.231.316,8.985.687,1.027.5.869,1.35,1.179,2.371C478.742,717.911,479.569,719.194,480.091,720.556Z" transform="translate(-189.817 -333.036)"/><path class="e" d="M465.6,580.368c1.6,1.039,2.225,3.082,2.474,4.979.687,5.2-.517,10.45-.608,15.7-.085,7.349,2.042,14.833.225,21.951-1.088,4.255-.164,9.118-1.185,13.416-.3,1.277-.863,2.48-1.155,3.757-.608,2.766.03,5.659.887,8.365a8.639,8.639,0,0,1,.517,2.267,8.158,8.158,0,0,1-.888,3.429l-3.647,8.626c-.407.966-2.012,1.125-3.039,1.252-1.933.231-4.091.4-5.629-.8s-1.909-3.2-2.146-5.076a77.8,77.8,0,0,1-.608-10.839,8.933,8.933,0,0,0-.249-2.814,24.683,24.683,0,0,1-1.27-3.039c-.255-1.423.468-2.821.736-4.255a12.819,12.819,0,0,0-.061-3.945c-.237-1.945-.511-3.891-.821-5.824-.438-2.7.188-5.374.608-8.085a22.292,22.292,0,0,0-.608-7.672,21.147,21.147,0,0,1-.76,6.079c-.322.966-.784,1.89-1.064,2.875-1.246,4.419,1.41,9.058,1.033,13.635-.176,2.14-1.015,4.255-.778,6.365a21.474,21.474,0,0,0,1.374,4.431,5.744,5.744,0,0,1,0,4.529c-1.976,3.732-.5,8.808,1.271,12.638a17.059,17.059,0,0,1,.936,2.1c.523,1.726.085,3.58.225,5.38a3.392,3.392,0,0,1-2.851-.857c-.267-.28-.486-.608-.748-.9a7.422,7.422,0,0,0-2.541-1.587,3.337,3.337,0,0,0-1.824-.419,3.648,3.648,0,0,0-1.732,1.076,16.978,16.978,0,0,1-1.909,1.453,2.261,2.261,0,0,1-.973.432.857.857,0,0,1-.894-.456,1.078,1.078,0,0,1-.067-.316,48.116,48.116,0,0,1-.359-5.532c0-3.179-3.805-5.368-4.286-8.511-.383-2.535.328-5.118.091-7.672a37.326,37.326,0,0,1-.456-3.915c0-.851.194-1.684.261-2.529a18.913,18.913,0,0,0-.043-2.815l-.188-2.936a25.371,25.371,0,0,0-1.526-8.51,28.918,28.918,0,0,1-2.371-9.775c-.122-2.128-.043-4.255-.286-6.389a31.458,31.458,0,0,1-.565-5.775c.116-1.5.608-2.942.723-4.438.237-2.875-.857-5.672-1.714-8.425s-1.489-5.805-.365-8.462a2.778,2.778,0,0,1,.778-1.131,3.392,3.392,0,0,1,1.435-.535,111.316,111.316,0,0,1,31.744-2.024A10.543,10.543,0,0,1,465.6,580.368Z" transform="translate(-173.824 -280.178)"/><ellipse class="h" cx="9.738" cy="9.738" rx="9.738" ry="9.738" transform="translate(247.528 216.149)"/><path class="h" d="M428.757,473.2a3.478,3.478,0,0,1,0,1.7,3.843,3.843,0,0,1-.638,1.07A27.473,27.473,0,0,1,425,479.362a5.648,5.648,0,0,0,2.912,2.875,16.9,16.9,0,0,0,4.018,1.149,4.212,4.212,0,0,0,3.939-.681l5.41-3.24a10.805,10.805,0,0,0,2.249-1.623,5.538,5.538,0,0,0,1.568-3.805,1.046,1.046,0,0,0-.194-.717,1.277,1.277,0,0,0-.742-.31,6.592,6.592,0,0,1-4.255-3.714,19.671,19.671,0,0,1-1.477-5.635l-5.769,3.039c-.857.456-1.708.912-2.6,1.307-.565.255-1.708.468-2.109.985C427.188,469.946,428.556,472.055,428.757,473.2Z" transform="translate(-173.375 -235.153)"/><path class="e" d="M423.755,482.578a6.415,6.415,0,0,0-1.866,2.523,6.575,6.575,0,0,0,.34,3.7,110.441,110.441,0,0,1,3.647,15.678c.511,3.647.7,7.349.948,11.039.511,7.526,1.252,19.526,2.243,27,3.647.164,7.2-.9,10.821-1.289,6.76-.717,13.72.924,20.34-.608-1.6-6.34-3.21-17.167-4.814-23.5a44.852,44.852,0,0,1-1.471-7.629c-.14-1.854-.055-3.714-.03-5.58.055-3.647-.146-7.295-.346-10.942a69.418,69.418,0,0,0-1.471-12.675,2.359,2.359,0,0,0-.705-1.392,2.856,2.856,0,0,0-2.121-.188,9.228,9.228,0,0,1-6.31-1.5c-.8-.547-1.878-1.216-2.626-.608a2.614,2.614,0,0,0-.608,1.295,6.474,6.474,0,0,1-3.805,3.751,19.047,19.047,0,0,1-5.386,1.106,2.645,2.645,0,0,1-1.672-.188c-.863-.529-.924-2.432-2.012-2.559C425.895,479.909,424.4,481.964,423.755,482.578Z" transform="translate(-172.094 -240.138)"/><path class="d" d="M431.179,497.683c-2.243-2.146-3.228-5.258-4.863-7.9a17.593,17.593,0,0,0-4.2-4.62,12.528,12.528,0,0,1-2.286-1.939c-.577-.711-1.015-1.66-1.89-1.933a2.286,2.286,0,0,0-2.049.565,20.15,20.15,0,0,0-1.52,1.617c-2.577,2.669-7.106,3.039-9.149,6.128a5.021,5.021,0,0,0-1.088,2.28,17.666,17.666,0,0,0,3.246,12.7,4.316,4.316,0,0,0,2.249,1.824,7.038,7.038,0,0,0,.438,3.343,89.4,89.4,0,0,0,4.14,11.276,27.266,27.266,0,0,0-.815,4.371c-.426,3.714-.03,7.483-.432,11.2-.328,3.039-1.216,6-1.246,9.045,0,.486.043,1.064.462,1.313a1.4,1.4,0,0,0,.723.152l7.477.225a60.7,60.7,0,0,0,13-.547,5.41,5.41,0,0,0,1.635-.517c1.447-.808,1.927-2.632,2.158-4.255a37.092,37.092,0,0,0,.359-6.359c.906,2.863,1.982,5.824,4.717,7.064a10.583,10.583,0,0,0,4.687.565,88.214,88.214,0,0,0,10.207-1.052,1.343,1.343,0,0,0,1.489-1.562l.037-3.319c.073-6.742-1.6-13.185-2.249-19.9a43.258,43.258,0,0,0-.705-6.328c-.213-.869-.523-1.72-.711-2.6a18.552,18.552,0,0,1-.3-2.6l-.474-6.687c-.225-3.094-.547-6.079-.784-9.167a44.371,44.371,0,0,0-1.3-8.912c-.529-1.824-1.629-3.891-3.532-4.115a7.279,7.279,0,0,0-2.967.638,11.987,11.987,0,0,1-7.295-.03,10.27,10.27,0,0,0-2.273-.608,2.231,2.231,0,0,0-2.079.863,3.118,3.118,0,0,0-.322,1.532A81.087,81.087,0,0,1,431.179,497.683Z" transform="translate(-165.135 -240.398)"/><path class="e" d="M421.747,505.536c-2.8-2.954-5.678-5.963-9.289-7.842a7.418,7.418,0,0,0-4.614-1.021,3.454,3.454,0,0,0-2.967,3.246,21,21,0,0,0,.839,2.839c.219,1.094-.1,2.261.243,3.319a5.618,5.618,0,0,0,1.216,1.866l4.3,5.1a27.7,27.7,0,0,0,5.994,5.757,9.01,9.01,0,0,0,7.963,1.113,9.788,9.788,0,0,0,4.365-4.006c1.07-1.7,1.824-3.562,2.827-5.319a26.413,26.413,0,0,1,6.079-7.374c-1.264-.328-2.851-.79-3.647-1.824a6.024,6.024,0,0,1-.578-1.046l-.985-2.128a2.432,2.432,0,0,0-1.824.687,15.289,15.289,0,0,1-1.356,1.38c-.857.644-2.018.821-2.8,1.556a7.406,7.406,0,0,0-.815,1.021,6.82,6.82,0,0,1-4.96,2.675Z" transform="translate(-165.484 -248.069)"/><path class="h" d="M456.727,479.243c2.109-3.848,2.012-8.462,2.614-12.808a5.847,5.847,0,0,1,1.161-3.179c1.216-1.374,3.362-1.392,5.2-1.216.541.061,1.216.316,1.185.857a1.094,1.094,0,0,1-.274.517,14.463,14.463,0,0,0-3,7.975c.954.663,2.432-.7,3.35,0,.608.511.328,1.52-.036,2.249q-1.271,2.535-2.62,5.033a16.166,16.166,0,0,1-2.778,4.006c-.772.742-1.678,1.325-2.462,2.055-1.824,1.708-2.924,4.122-4.808,5.787a.985.985,0,0,1-.608.31,1.021,1.021,0,0,1-.638-.286,9.216,9.216,0,0,1-2.3-2.778c-.717-1.325-.608-1.714.523-2.65A20.092,20.092,0,0,0,456.727,479.243Z" transform="translate(-183.278 -234.487)"/><path class="d" d="M419.477,501.756c.365.225.815.48,1.216.292a1.264,1.264,0,0,0,.407-.4,14.307,14.307,0,0,0,1.726-3,1.156,1.156,0,0,0,.128-.486c0-.389-.347-.675-.669-.9a24.782,24.782,0,0,0-5.526-2.626,11.4,11.4,0,0,0-4.985-.985,4.754,4.754,0,0,0-3.325,1.69c-1.216,1.562.821,2.036,2.1,2.6C413.5,499.288,416.7,500.066,419.477,501.756Z" transform="translate(-166.739 -246.903)"/><path class="g" d="M423.674,520.443a.894.894,0,0,0,.255.766c.176-.863-.055-1.775.128-2.644.267-1.307,1.538-2.292,1.647-3.6C423.376,514.5,423.692,519.032,423.674,520.443Z" transform="translate(-172.851 -255.255)"/><path class="i" d="M572.484,358.04v5.988l-24.717,1.5-.748-5.994Z" transform="translate(-214.478 -140.39)"/><path class="e" d="M417.944,452.453c1.544-1.258.65-3.9,1.7-5.587a5.428,5.428,0,0,1,2.644-1.824,12.033,12.033,0,0,1,3.86-1.07,4.48,4.48,0,0,1,3.647,1.343c.4.45.663,1,1.033,1.465a3.951,3.951,0,0,0,3.83,1.325c.808-.182,1.647-.8,1.593-1.623a2.291,2.291,0,0,0-.729-1.3l-1.739-1.927c-1.976-2.188-4.17-4.511-7.07-5.058a12.128,12.128,0,0,0-6.03.809c-.784.261-1.666.65-1.884,1.447-.146.547.073,1.143-.055,1.7-.249,1.1-1.66,1.471-2.316,2.4s-.456,2.018-.644,3.04a26.58,26.58,0,0,0-.8,3.076c-.043.638.28,1.824,1,2.055S417.5,451.693,417.944,452.453Z" transform="translate(-169.444 -225.119)"/><path class="j" d="M435.324,442.389A18.238,18.238,0,0,0,432.09,435a12.954,12.954,0,0,0-5.757-4.571,8.243,8.243,0,0,0-7.167.565,10.408,10.408,0,0,0-3.581,4.517c-1.574,3.392-2.158,7.538-.328,10.8.729-.888,1.982-.486,3.088-.809a32.177,32.177,0,0,0,3.878-1.9C426.206,441.842,431.069,443.264,435.324,442.389Z" transform="translate(-169.11 -221.9)"/><path class="g" d="M417.41,448.039c-.14-1.094-.231-2.365.547-3.143a.4.4,0,0,1,.322-.146.419.419,0,0,1,.249.219,13.612,13.612,0,0,1,1.143,2.237,2.322,2.322,0,0,0-2.432.942" transform="translate(-170.332 -227.738)"/><path class="g" d="M440.706,443.131l-.219-2.17a.991.991,0,0,1,.043-.535.687.687,0,0,1,.887-.243,1.824,1.824,0,0,1,.711.711,12.763,12.763,0,0,1,1.252,2.474,7.357,7.357,0,0,0-2.96.037" transform="translate(-179.421 -225.918)"/><path class="g" d="M421.838,502.21v4.96l-4.188.28H395.62v-5.24Z" transform="translate(-155.113 -196.92)"/><path class="f" d="M376.911,446.652v5.24H350.692L281.04,364.642V360.52h14.6Z" transform="translate(-110.186 -141.362)"/><path class="g" d="M376.911,446.652v5.24H350.692L281.04,364.642V360.52h14.6Z" transform="translate(-110.186 -141.362)"/><path class="g" d="M376.911,446.652v5.24H350.692L281.04,364.642V360.52l70.029,86.132Z" transform="translate(-110.186 -141.362)"/><path class="d" d="M302.466,731.177a1.824,1.824,0,0,1-1.593,2.146c-1.69.571-3.483,1.137-4.681,2.432s-1.435,3.7,0,4.748a4.614,4.614,0,0,0,2.432.663,16.476,16.476,0,0,0,8.121-1.015c1.787-.827,3.471-2.237,5.435-2.109,1.015.061,2.1.535,3,.073s1.161-1.751,1.167-2.827a20.928,20.928,0,0,0-1-6.62c-.091-.292-3.957-.517-4.419-.608l-4.687-.608c-.888-.115-2.8-.784-3.5-.043S302.466,730.3,302.466,731.177Z" transform="translate(-122.481 -338.435)"/><path class="d" d="M353.055,703.047a14.682,14.682,0,0,0,.96,3.185c.65,1.654,1.483,3.41,3.076,4.213a5.49,5.49,0,0,0,4.693-.225,3.865,3.865,0,0,0,1.562-1.185,4.706,4.706,0,0,0,.608-2.729,14.911,14.911,0,0,0-1.216-6.875c-.924-1.824-2.535-3.392-2.559-5.41l-5.538,1.07a1.581,1.581,0,0,0-.815.322,1.4,1.4,0,0,0-.353.662A18.1,18.1,0,0,0,353.055,703.047Z" transform="translate(-145.101 -325.479)"/><path class="h" d="M244.3,607.394a9.048,9.048,0,0,0,.888,5.744,4.446,4.446,0,0,0,5.033,2.134.735.735,0,0,0,.456-.346.857.857,0,0,0-.079-.608,8.973,8.973,0,0,1,.188-6.76c.122-.28.383-.608.669-.5a.609.609,0,0,1,.274.28,3.18,3.18,0,0,1,.426,1.678,6.239,6.239,0,0,0-.049,1.611c.116.523.675,1.015,1.161.79a1.216,1.216,0,0,0,.553-.784c1.356-3.921.742-8.207.122-12.31a.644.644,0,0,0-.723-.675c-2.869-.286-4.438-.973-6.079,1.7C245.732,601.6,244.3,604.689,244.3,607.394Z" transform="translate(-102.482 -287.576)"/><path class="e" d="M298.413,596.334a37.279,37.279,0,0,0-1.252,17.519l.638,5.264c.219,1.775.432,3.544.742,5.3a14.072,14.072,0,0,1,.322,2.754,14.754,14.754,0,0,1-.432,2.705,31.612,31.612,0,0,0-.638,5.653c-.067,3.039.31,6.079.547,9.118a101.554,101.554,0,0,1-.213,18.188,6.821,6.821,0,0,0,1,4.687,6.031,6.031,0,0,1,.881,1.447c.456,1.392-.608,2.784-.881,4.213a4.256,4.256,0,0,0,3.538,4.863c4.863.577,9.86.316,14.243,2.541.462-1.349-.547-2.881-.085-4.255.292-.851,1.094-1.4,1.641-2.122a6.176,6.176,0,0,0,1.046-3.708,13.55,13.55,0,0,0-.9-5.027c-.517-1.337-1.258-2.656-1.216-4.091a5.17,5.17,0,0,0-.036-2.1,3.276,3.276,0,0,0-.784-.979,12.358,12.358,0,0,1-3.179-7.2,33.183,33.183,0,0,1,.255-7.988c.3-2.517.7-5.173,2.3-7.137a45.792,45.792,0,0,1,1.283-17.781c.158-.535.407-1.155.954-1.283a1.362,1.362,0,0,1,1.167.462,7.97,7.97,0,0,1,1.824,3.429,7.476,7.476,0,0,1,.571,4.152c-.146.608-.438,1.143-.608,1.726a5.119,5.119,0,0,0,.182,3.568,3.428,3.428,0,0,1,.438,1.343,3.719,3.719,0,0,1-.365,1.167,5.374,5.374,0,0,0,.5,4.347,15.747,15.747,0,0,0,2.839,3.483,12.766,12.766,0,0,0,.4,7.027.887.887,0,0,1,.079.675c-.109.231-.389.316-.608.48-.608.5-.231,1.441.176,2.091a47.955,47.955,0,0,0,3.69,5.118c1.216,1.453,1.106,4.255,2.918,4.778a5.471,5.471,0,0,0,2.31,0c1.787-.274,3.781-.79,4.656-2.371a6.381,6.381,0,0,1,1.064-1.927c.559-.486,1.283-.571,1.593-1.155s-.036-1.349.067-2.024.693-1.216.881-1.927c.45-1.641-1.465-2.991-1.726-4.669-.377-2.432,2.687-4.255,2.559-6.687-.267-5.282-.438-10.589-.711-15.872a114.444,114.444,0,0,1-.146-14.219c.213-2.948.608-6.036-.474-8.778-1.556-3.866-5.848-6.036-10-6.45s-8.292.571-12.407,1.216a78.426,78.426,0,0,1-20.638.431Z" transform="translate(-123.048 -286.491)"/><ellipse class="k" cx="9.738" cy="9.738" rx="9.738" ry="9.738" transform="translate(177.967 232.264)"/><path class="k" d="M310.717,500.918a4.152,4.152,0,0,1-3.97,2.511c-.353,1.459.492,2.93,1.459,4.079a17.313,17.313,0,0,0,16.571,5.684,8.176,8.176,0,0,0,3.264-1.362,7.24,7.24,0,0,0,2.492-4.316,21.457,21.457,0,0,0,.237-5.076,1.313,1.313,0,0,0-.267-.936,1.337,1.337,0,0,0-.851-.28c-2.055-.182-4.2-.261-6.006-1.27s-3.088-3.289-2.219-5.161c-.14.292-3.69.432-4.158.492-1.465.207-2.93.438-4.389.705a7.987,7.987,0,0,0-2.061.389c-.881.456-.553.231-.347,1.058C310.784,498.7,311.24,499.6,310.717,500.918Z" transform="translate(-126.975 -247.359)"/><path class="e" d="M295.277,510.038a16.128,16.128,0,0,1-3.9-.432,5.471,5.471,0,0,1-3.2-2.134c-.45-.681-.742-1.538-1.459-1.921-1.173-.608-2.511.419-3.447,1.362a12.523,12.523,0,0,1-2.93,2.359c-1.3.687-2.821.93-4.049,1.738a10.178,10.178,0,0,0-2.432,2.626l-8.614,11.732c-3.459,4.717-6.468,9.781-9.55,14.76-2.669,4.31-4.067,9.27-6.079,13.921a1.556,1.556,0,0,0-.188.936c.073.316.456.571.723.389-.906.9-.109,2.432-.322,3.7a4.534,4.534,0,0,1-1.447,2.267,11.431,11.431,0,0,1,4.012.188,12.3,12.3,0,0,1,3.793,1.824c.736-.115.669-1.422,1.216-1.909.328-.286.815-.249,1.246-.334,1.623-.316,2.267-2.268,3.514-3.368,1.04-.918,2.511-1.216,3.611-2.079,1.787-1.4,2.17-3.9,3.106-5.976.8-1.757,2.049-3.289,2.748-5.088a21.92,21.92,0,0,1,1.325-3.508c1.039-1.739,3-2.663,4.863-3.5a8.054,8.054,0,0,1,3.7-.991c-.067,2.827-.426,5.611.188,8.371.213.973.511,1.921.766,2.888a54.368,54.368,0,0,1,1.489,13.374,40.692,40.692,0,0,1,8.511-1.021c2.255-.067,4.5.225,6.76.182,2.675-.049,5.319-.565,7.994-.748a14.932,14.932,0,0,1,7.836,1.216,74.43,74.43,0,0,1,.322-11.55l.644-6.042a37.126,37.126,0,0,1,.809-5.216c.353-1.386.863-2.723,1.252-4.1,1.368-4.863,1.118-10.055.857-15.118a19.054,19.054,0,0,0-2.316-7.477,20.235,20.235,0,0,0-1.459-2.48,14.364,14.364,0,0,0-12.559-5.9,2.537,2.537,0,0,0-.9.195,3,3,0,0,0-1.149,1.368A14.894,14.894,0,0,1,295.277,510.038Z" transform="translate(-104.125 -250.559)"/><path class="e" d="M303.837,481.508c.274-.608,1.009-.833,1.459-1.319.863-.924.474-2.4.608-3.647a5.239,5.239,0,0,1,3.465-4,11.2,11.2,0,0,1,5.471-.347,5.3,5.3,0,0,1,2.468.821c.316.231.608.529.906.742a2.431,2.431,0,0,0,3.307-.772c-2.152-2.59-4.535-5.325-7.805-6.121a16.008,16.008,0,0,0-3.41-.322,11.074,11.074,0,0,0-4.474.523A7.458,7.458,0,0,0,301.9,471.6a22.048,22.048,0,0,0-.954,6.079,22.893,22.893,0,0,0,0,4.134,11.429,11.429,0,0,0,2.03,5.21,1.575,1.575,0,0,0,.608.565C306.36,488.8,303.612,482.013,303.837,481.508Z" transform="translate(-124.697 -236.278)"/><path class="j" d="M319.9,467.456c-.334-2.863-2.377-5.228-4.547-7.131a16.766,16.766,0,0,0-6.109-3.678,8.164,8.164,0,0,0-6.894.839,10.591,10.591,0,0,0-3.355,4.614,14.523,14.523,0,0,0-1.465,6.687,7.209,7.209,0,0,0,3.264,5.787,6.139,6.139,0,0,1,3.161-2.036,154.762,154.762,0,0,1,15.945-5.082Z" transform="translate(-123.391 -232.25)"/><path class="g" d="M303.574,472.72c.195,0,.322.2.419.365a15.409,15.409,0,0,1,1.271,2.432c-.711.152-1.933.322-2.286-.3C302.789,474.9,303.014,472.689,303.574,472.72Z" transform="translate(-125.504 -238.705)"/><path class="g" d="M326.586,468.524c-.146.14-.316-.146-.316-.353v-2.359a.347.347,0,0,1,.043-.189.286.286,0,0,1,.2-.1c.492-.055.9.365,1.216.766a12.839,12.839,0,0,1,1.246,2.073l-2.571-.079" transform="translate(-134.662 -235.883)"/><path class="e" d="M367.018,524.631a15.9,15.9,0,0,1,1.787-1.465c1.684-1.125,3.72-1.568,5.611-2.286s3.812-1.878,4.547-3.763a8.935,8.935,0,0,0,.353-3.647,3.646,3.646,0,0,0-.267-1.5,2.985,2.985,0,0,0-.96-1.046c-2.565-1.9-6.006-2.049-9.191-1.854a57.613,57.613,0,0,0-20.31,5.07,1.764,1.764,0,0,0-.851.608,1.739,1.739,0,0,0-.164.845,13.981,13.981,0,0,0,.687,5.295c.839,2.164,2.565,3.909,3.289,6.115.328.991.438,2.042.723,3.039a4.256,4.256,0,0,0,1.708,2.541c2.4,1.435,4.669-.492,6.334-1.988Z" transform="translate(-143.004 -252.933)"/><path class="d" d="M313.8,529.842l-3.082-6.723a23.521,23.521,0,0,1-1.167-2.875c-.353-1.173-.523-2.389-.851-3.568-1.082-3.927-3.812-7.2-5.143-11.046a2.1,2.1,0,0,0-.5-.93,1.623,1.623,0,0,0-1.356-.243c-1.86.322-3.313,1.738-5.015,2.541-.79.365-1.641.608-2.432,1.027a3.039,3.039,0,0,0-1.629,1.939,4.741,4.741,0,0,0,.663,2.73c1.654,3.732,2.03,7.9,2.1,11.988.055,2.748-.085,5.7-1.708,7.9-3.118,4.255-1.125,10.5.043,15.653.14.608.3,1.264.4,1.909a17.549,17.549,0,0,1,.14,2.431,19.031,19.031,0,0,1-1.295,8.018,8.976,8.976,0,0,0,3.647,1.034q5.295.675,10.632.948a11.589,11.589,0,0,0,3.337-.17,6.079,6.079,0,0,0,4.492-5.957c.195,1.684.553,3.514,1.775,4.681s3,1.343,4.663,1.435a86.682,86.682,0,0,0,14.042-.4,2.431,2.431,0,0,0,.863-.2c.9-.45.948-1.69.875-2.687-.134-1.866-.274-3.732-.5-5.587a22.869,22.869,0,0,1-.292-3.574,20.563,20.563,0,0,1,.608-3.647,41.364,41.364,0,0,0,1.185-11.55,19.5,19.5,0,0,1-.116-2.851c.158-2.146,1.289-4.188,1.076-6.322-.608-6.273-1.1-12.711-2.851-18.766a4.863,4.863,0,0,0-1.66-2.863c-1.216-.815-2.924-.389-4.316-.906a10.8,10.8,0,0,1-1.854-1.1,8.511,8.511,0,0,0-4.188-1.289,3.555,3.555,0,0,0-3.04,1.106,4.414,4.414,0,0,0-.608,1.659c-.881,3.708-1.915,7.374-2.948,11.039l-.991,3.514-2.656,9.434C313.89,528.583,314.066,528.894,313.8,529.842Z" transform="translate(-121.231 -249.725)"/><path class="f" d="M334.845,400.25l58.8,61.792v5.24H367.428L323.24,409.612" transform="translate(-126.733 -156.941)"/><path class="g" d="M334.845,400.25l58.8,61.792v5.24H367.428L323.24,409.612" transform="translate(-126.733 -156.941)"/><path class="g" d="M324.176,414.31l.188.067,43.44,53.178h25.842v5.24H367.428L323.24,415.125Z" transform="translate(-126.733 -162.454)"/><path class="h" d="M343.613,502.571c-2.128.93-4.492,2.122-5.131,4.359a2.182,2.182,0,0,0,2.152,2.924,7.294,7.294,0,0,0,2.924-.535l12.553-4.146c.34-.109.729-.274.815-.608a1.046,1.046,0,0,0-.122-.608c-.389-.948-.772-2.887-1.587-3.55-.669-.535-1.994-.346-2.8-.334C349.3,500.1,346.379,501.356,343.613,502.571Z" transform="translate(-139.404 -249.414)"/><path class="e" d="M363.681,504.848a20.19,20.19,0,0,1,6.231.967,11.1,11.1,0,0,1,5.161,3.526,3.866,3.866,0,0,1,.815,1.593c.122.608,2.1.973,1.666,1.386,1.331-.213,1.015.413,2.365.4a4.468,4.468,0,0,0,3.617-1.435,4.7,4.7,0,0,0,.711-2.973,5.064,5.064,0,0,0-.4-2.1c-.608-1.277-2.006-1.963-3.295-2.553l-10.857-4.967a7.209,7.209,0,0,0-2.006-.711,7.5,7.5,0,0,0-1.769.043l-4.918.565a7.374,7.374,0,0,1,3.362,6.486" transform="translate(-148.28 -248.596)"/></g></svg>