<svg xmlns="http://www.w3.org/2000/svg" width="510.002" height="371.041" viewBox="0 0 510.002 371.041"><defs><style>.a,.k{fill:#ca0027;}.a,.b,.d,.j{opacity:0.1;}.b{fill:#6c63ff;}.c{fill:#ced7e7;}.e{fill:#fed253;}.f{fill:#ffa2a2;}.g{opacity:0.05;}.h{fill:#63667e;}.i{fill:#896363;}</style></defs><g transform="translate(-0.01 0)"><path class="a" d="M565.219,394.232c-12.632,26.068-38.3,43.5-64.882,54.994a239.387,239.387,0,0,1-66.8,17.826q-6.611.785-13.265,1.218a257.257,257.257,0,0,1-34.039-.038q-10.226-.68-20.38-2.174a257.038,257.038,0,0,1-68.14-19.842q-9.388-4.228-18.4-9.232a235.34,235.34,0,0,1-28.755-18.805q-3.025-2.311-5.974-4.723l-.809-.661c-1.546-1.275-3.077-2.578-4.632-3.843a67.335,67.335,0,0,0-8.209-5.888c-.195-.114-.39-.228-.59-.338-.533-.309-1.075-.6-1.627-.875a37.24,37.24,0,0,0-3.491-1.541,45.724,45.724,0,0,0-17.341-2.725c-.989,0-1.978.067-2.973.133h0c-1.389.1-2.782.238-4.171.419l-.514.071a94.542,94.542,0,0,0-13.093,2.811c-6.63,1.9-13.141,4.281-19.695,6.426h0c-2.782.918-5.569,1.793-8.38,2.578l-.618.171a91.72,91.72,0,0,1-12.18,2.549,67.87,67.87,0,0,1-27.875-2.245l-.314-.09-.58-.171-.794-.247q-2-.628-3.962-1.375l-.794-.3q-1.9-.732-3.724-1.574l-.794-.361q-1.9-.885-3.724-1.869c-.438-.228-.87-.476-1.3-.709q-1.94-1.084-3.8-2.273-1.979-1.26-3.871-2.63-.875-.628-1.731-1.289a76.743,76.743,0,0,1-9.212-8.309c-.157-.157-.3-.319-.452-.476-.756-.818-1.5-1.65-2.216-2.5-.266-.314-.533-.628-.794-.951q-1.279-1.56-2.468-3.191c-.119-.157-.233-.319-.347-.476a68.769,68.769,0,0,1-8.023-14.506c-.067-.157-.128-.319-.185-.476q-.951-2.449-1.736-4.98c-.214-.7-.419-1.427-.6-2.131-.062-.209-.119-.423-.171-.633C64.17,348.641,63.87,337.9,63.87,327.215v-3.734c.076-17.279.342-34.852,2.892-51.893a2.166,2.166,0,0,1,.052-.352A162.073,162.073,0,0,1,70.291,254.2a125.674,125.674,0,0,1,5.855-17.264c5.864-13.793,14.392-26.344,23.861-37.977a214.083,214.083,0,0,1,39.061-37.573q3.139-2.3,6.364-4.461l.994-.652c.347-.233.694-.476,1.042-.68h0c.713-.476,1.427-.923,2.15-1.374l.809-.5,1.541-.951.476-.271.823-.476.813-.476q1.427-.842,2.887-1.646,6.235-3.477,12.765-6.354,1.926-.851,3.876-1.641a136.712,136.712,0,0,1,18.144-5.95q3.424-.866,6.891-1.522,4.09-.79,8.223-1.308a130.482,130.482,0,0,1,13.212-.984c31.066-.756,62.447,9.355,86.793,28.736,9.7,7.724,18.42,16.87,29.316,22.791,9.512,5.156,20.646,7.291,30.833,3.234,8.418-3.353,13.9-5.018,23.352-4.509a195.74,195.74,0,0,1,57.22,11.966c.742.271,1.484.552,2.221.832,47.9,18.335,89.081,54.742,110.473,101.527q.847,1.855,1.65,3.738C574.7,330.249,579.3,365.183,565.219,394.232Z" transform="translate(-63.846 -97.774)"/><path class="b" d="M159.037,315.615v180.33l-.618.171a91.729,91.729,0,0,1-12.18,2.549,67.868,67.868,0,0,1-27.875-2.245l-.314-.09-.58-.171-.794-.247q-2-.628-3.962-1.374l-.794-.3q-1.9-.733-3.724-1.574l-.794-.361q-1.9-.885-3.724-1.869c-.438-.228-.87-.476-1.3-.709q-1.94-1.084-3.8-2.273-1.979-1.26-3.871-2.63-.875-.628-1.731-1.289a76.752,76.752,0,0,1-9.212-8.309c-.157-.157-.3-.319-.452-.476-.756-.818-1.5-1.651-2.216-2.5-.266-.314-.533-.628-.794-.951q-1.279-1.56-2.468-3.191c-.119-.157-.233-.319-.347-.476a68.764,68.764,0,0,1-8.023-14.506c-.067-.157-.128-.319-.185-.476q-.951-2.449-1.736-4.98c-.214-.7-.419-1.427-.6-2.131-.062-.209-.119-.423-.171-.633-2.625-10.335-2.925-21.079-2.925-31.761V409.4c.076-17.279.342-34.852,2.892-51.893a2.168,2.168,0,0,1,.052-.352,162.072,162.072,0,0,1,3.477-17.036h48.569V315.615h9.683V295.93h20.841v19.685Z" transform="translate(-63.83 -183.688)"/><path class="a" d="M743.136,462.878c-12.632,26.068-38.3,43.5-64.882,54.994a239.386,239.386,0,0,1-66.8,17.825q-6.611.785-13.265,1.218a257.29,257.29,0,0,1-34.039-.038q-10.226-.68-20.38-2.174a257.036,257.036,0,0,1-68.14-19.842q-9.388-4.228-18.4-9.231a235.35,235.35,0,0,1-28.755-18.805q-3.025-2.311-5.974-4.723l-.809-.661c-1.546-1.275-3.077-2.578-4.632-3.843a67.339,67.339,0,0,0-8.209-5.888c-.195-.114-.39-.228-.59-.338-.533-.309-1.075-.6-1.626-.875a37.222,37.222,0,0,0-3.491-1.541V395.185h88.268v16.423h38.738V291.479h45.6v48.036H598.3V311.074h18.634V280.693H625.5V263c.742.271,1.484.552,2.221.832v16.86h8.333v30.4h18.62v28.441H682.13V447.891h43.641v-78.8h14.064C752.615,398.895,757.219,433.828,743.136,462.878Z" transform="translate(-241.763 -166.419)"/><rect class="b" width="20.38" height="20.38" transform="translate(302.019 143.138)"/><rect class="b" width="20.38" height="20.38" transform="translate(302.019 185.381)"/><rect class="b" width="20.38" height="20.38" transform="translate(302.019 227.629)"/><rect class="b" width="20.38" height="20.38" transform="translate(302.019 269.877)"/><rect class="b" width="20.38" height="20.38" transform="translate(302.019 312.12)"/><path class="b" d="M719.22,805v16.094q-10.226-.68-20.38-2.174V805Z" transform="translate(-396.821 -450.642)"/><rect class="b" width="71.336" height="9.231" transform="translate(168.108 255.105)"/><rect class="b" width="71.336" height="9.231" transform="translate(168.108 283.141)"/><path class="b" d="M496.56,714.21v9.227H443.845q-3.025-2.311-5.974-4.723l-.809-.661c-1.546-1.275-3.077-2.578-4.632-3.843Z" transform="translate(-257.117 -403.032)"/><path class="b" d="M540.851,773.15v9.232h-5.565q-9.388-4.228-18.4-9.232Z" transform="translate(-301.407 -433.939)"/><rect class="b" width="13.265" height="13.265" transform="translate(356.438 198.322)"/><rect class="b" width="13.265" height="13.265" transform="translate(69.172 136.503)"/><rect class="b" width="13.265" height="13.265" transform="translate(69.172 167.322)"/><rect class="b" width="13.265" height="13.265" transform="translate(69.172 198.137)"/><rect class="b" width="13.265" height="13.265" transform="translate(69.172 228.956)"/><rect class="b" width="13.265" height="13.265" transform="translate(69.172 259.775)"/><rect class="b" width="13.265" height="13.265" transform="translate(69.172 290.589)"/><rect class="b" width="13.265" height="13.265" transform="translate(407.085 198.322)"/><rect class="b" width="13.265" height="13.265" transform="translate(356.438 231.044)"/><rect class="b" width="13.265" height="13.265" transform="translate(407.085 231.044)"/><rect class="b" width="13.265" height="13.265" transform="translate(356.438 263.77)"/><rect class="b" width="13.265" height="13.265" transform="translate(407.085 263.77)"/><rect class="b" width="13.265" height="13.265" transform="translate(356.438 296.496)"/><rect class="b" width="13.265" height="13.265" transform="translate(407.085 296.496)"/><rect class="b" width="13.265" height="13.265" transform="translate(356.438 329.218)"/><rect class="b" width="13.265" height="13.265" transform="translate(407.085 329.218)"/><path class="b" d="M749.43,769.566V761.01h13.265v7.338Z" transform="translate(-392.993 -399.071)"/><path class="b" d="M69.93,424.68v7.61h50.733v-7.61Zm4.518,7.134H70.724v-6.659h3.724Zm4.518,0H75.243v-6.659h3.724Zm4.518,0H79.761v-6.659h3.724Zm4.518,0H84.279v-6.659H88Zm4.518,0H88.8v-6.659h3.724Zm4.518,0H93.315v-6.659h3.724Zm4.518,0H97.834v-6.659h3.724Zm4.518,0h-3.724v-6.659h3.724Zm4.518,0H106.87v-6.659h3.724Zm4.518,0h-3.724v-6.659h3.724Zm4.756,0h-3.962v-6.659h3.962Z" transform="translate(-67.024 -251.203)"/><path class="b" d="M69.93,471.14v7.586h50.733V471.14Zm4.518,7.11H70.724v-6.635h3.724Zm4.518,0H75.243v-6.635h3.724Zm4.518,0H79.761v-6.635h3.724Zm4.518,0H84.279v-6.635H88Zm4.518,0H88.8v-6.635h3.724Zm4.518,0H93.315v-6.635h3.724Zm4.518,0H97.834v-6.635h3.724Zm4.518,0h-3.724v-6.635h3.724Zm4.518,0H106.87v-6.635h3.724Zm4.518,0h-3.724v-6.635h3.724Zm4.756,0h-3.962v-6.635h3.962Z" transform="translate(-67.024 -275.567)"/><path class="b" d="M69.93,517.59v7.586h50.733V517.59Zm4.518,7.11H70.724v-6.635h3.724Zm4.518,0H75.243v-6.635h3.724Zm4.518,0H79.761v-6.635h3.724Zm4.518,0H84.279v-6.635H88Zm4.518,0H88.8v-6.635h3.724Zm4.518,0H93.315v-6.635h3.724Zm4.518,0H97.834v-6.635h3.724Zm4.518,0h-3.724v-6.635h3.724Zm4.518,0H106.87v-6.635h3.724Zm4.518,0h-3.724v-6.635h3.724Zm4.756,0h-3.962v-6.635h3.962Z" transform="translate(-67.024 -299.925)"/><path class="b" d="M69.93,564v7.61h50.733V564Zm4.518,7.134H70.724v-6.659h3.724Zm4.518,0H75.243v-6.659h3.724Zm4.518,0H79.761v-6.659h3.724Zm4.518,0H84.279v-6.659H88Zm4.518,0H88.8v-6.659h3.724Zm4.518,0H93.315v-6.659h3.724Zm4.518,0H97.834v-6.659h3.724Zm4.518,0h-3.724v-6.659h3.724Zm4.518,0H106.87v-6.659h3.724Zm4.518,0h-3.724v-6.659h3.724Zm4.756,0h-3.962v-6.659h3.962Z" transform="translate(-67.024 -324.262)"/><path class="b" d="M70.34,610.49c.181.713.385,1.427.6,2.131v-1.655h3.724v6.658H72.675c.057.157.119.319.185.476H120.9v-7.61Zm8.841,7.134H75.458v-6.658h3.724Zm4.518,0H79.976v-6.658H83.7Zm4.518,0H84.494v-6.658h3.724Zm4.518,0H89.012v-6.658h3.724Zm4.518,0H93.531v-6.658h3.724Zm4.518,0H98.049v-6.658h3.724Zm4.518,0h-3.724v-6.658h3.724Zm4.518,0h-3.724v-6.658h3.724Zm4.518,0H111.6v-6.658h3.724Zm4.756,0h-3.962v-6.658h3.962Z" transform="translate(-67.239 -348.641)"/><path class="b" d="M92.51,656.94c.114.157.228.319.347.476h2.468v3.191c.262.319.528.633.794.951V657.42h3.724v6.658H98.336c.147.157.295.319.452.475H132.5v-7.61Zm11.852,7.134h-3.724v-6.659h3.724Zm4.518,0h-3.724v-6.659h3.724Zm4.518,0h-3.724v-6.659H113.4Zm4.518,0h-3.724v-6.659h3.724Zm4.518,0h-3.724v-6.659h3.724Zm4.518,0h-3.724v-6.659h3.724Zm4.756,0h-3.962v-6.659h3.962Z" transform="translate(-78.864 -373)"/><path class="b" d="M144.87,703.39c.428.243.861.476,1.3.709v-.233h3.724v2.1l.794.362v-2.464h3.724V707.9l.794.3v-4.342h3.962v5.707l.794.247v-6.43Z" transform="translate(-106.322 -397.358)"/><path class="b" d="M462.654,286.154s-11.338-.685-9.988,7.258a1.941,1.941,0,0,0,1.008,2.045s0-.59,1.16-.39a5.3,5.3,0,0,0,1.232.057,2.564,2.564,0,0,0,1.508-.618h0s3.187-1.317,4.428-6.525c0,0,.913-1.137.88-1.427l-1.9.818a3.423,3.423,0,0,1,.143,2.525s-.062-2.473-.433-2.416c-.071,0-.994.476-.994.476s1.127,2.407.276,4.152c0,0,.323-2.958-.623-3.976l-1.379.794s1.317,2.483.423,4.509c0,0,.233-3.106-.7-4.314l-1.222.951s1.237,2.445.476,4.128c0,0-.1-3.619-.747-3.9a7.34,7.34,0,0,0-1.232,1.332s.847,1.774.323,2.711c0,0-.323-2.407-.59-2.421a8.014,8.014,0,0,0-1.17,2.692,5.793,5.793,0,0,1,.913-2.854,3.2,3.2,0,0,0-1.627.842s.166-1.127,1.9-1.227a7.425,7.425,0,0,1,1.118-1.284,7.008,7.008,0,0,0-2.758.319s.918-1.065,3.072-.58l1.2-.984a9.914,9.914,0,0,0-3.215.033s1.1-.951,3.538-.257l1.313-.785a11.972,11.972,0,0,0-3.072-.266,4.713,4.713,0,0,1,3.458.057l.951-.423s-1.427-.276-1.822-.319-.438-.157-.438-.157a4.888,4.888,0,0,1,2.649.295A11.97,11.97,0,0,0,462.654,286.154Z" transform="translate(-267.67 -178.553)"/><path class="b" d="M410.175,367.335s-3.876,10.673,4.124,11.648a1.936,1.936,0,0,0,2.24-.385s-.556-.185-.043-1.227a5.419,5.419,0,0,0,.409-1.16,2.573,2.573,0,0,0-.171-1.622h0s-.357-3.429-5-6.1c0,0-.827-1.2-1.118-1.251l.238,2.069a3.428,3.428,0,0,1,2.464.58s-2.378-.642-2.44-.271c0,.071.176,1.089.176,1.089s2.625-.4,4.057.913c0,0-2.749-1.151-3.99-.528l.371,1.512s2.754-.552,4.442.875c0,0-2.911-1.1-4.338-.547l.566,1.427s2.7-.476,4.1.709c0,0-3.5-.951-3.943-.39a7.487,7.487,0,0,0,.923,1.555s1.945-.3,2.692.476c0,0-2.4-.376-2.487-.128a8.2,8.2,0,0,0,2.25,1.9,5.822,5.822,0,0,1-2.468-1.688,3.2,3.2,0,0,0,.347,1.8s-1.037-.476-.642-2.164a7.281,7.281,0,0,1-.913-1.427,6.9,6.9,0,0,0-.476,2.735s-.761-1.184.314-3.11l-.6-1.427a9.626,9.626,0,0,0-.885,3.1s-.59-1.327.761-3.472l-.376-1.479a11.858,11.858,0,0,0-1.127,2.854,4.7,4.7,0,0,1,1.032-3.3l-.138-1.018s-.666,1.275-.823,1.66-.276.371-.276.371a4.889,4.889,0,0,1,1.032-2.459A12.011,12.011,0,0,0,410.175,367.335Z" transform="translate(-244.954 -221.082)"/><path class="b" d="M568.207,348.41s-3.871,10.692,4.124,11.643a1.94,1.94,0,0,0,2.245-.39s-.561-.185-.043-1.222a5.1,5.1,0,0,0,.4-1.165,2.572,2.572,0,0,0-.167-1.622h0s-.357-3.429-5-6.1c0,0-.832-1.2-1.122-1.246l.243,2.064a3.441,3.441,0,0,1,2.464.585s-2.378-.642-2.445-.276c0,.076.176,1.089.176,1.089s2.625-.395,4.062.913c0,0-2.749-1.146-4-.528l.376,1.517s2.754-.557,4.442.875c0,0-2.915-1.1-4.342-.552l.566,1.427s2.7-.476,4.095.709c0,0-3.5-.951-3.943-.385a7.341,7.341,0,0,0,.951,1.555s1.941-.309,2.692.476c0,0-2.4-.376-2.487-.124a8.237,8.237,0,0,0,2.245,1.9,5.769,5.769,0,0,1-2.464-1.688,3.22,3.22,0,0,0,.343,1.8s-1.032-.476-.637-2.159a7.66,7.66,0,0,1-.918-1.427,7.01,7.01,0,0,0-.476,2.735s-.761-1.18.314-3.11l-.6-1.427a9.624,9.624,0,0,0-.885,3.091s-.59-1.322.761-3.467l-.381-1.484a11.862,11.862,0,0,0-1.127,2.854,4.721,4.721,0,0,1,1.037-3.3l-.138-1.018s-.666,1.275-.828,1.66-.276.371-.276.371a4.923,4.923,0,0,1,1.037-2.459A11.688,11.688,0,0,0,568.207,348.41Z" transform="translate(-327.826 -211.155)"/><path class="b" d="M342.3,531.9s-3.876,10.677,4.124,11.652a1.931,1.931,0,0,0,2.24-.39s-.556-.185-.043-1.222a5.115,5.115,0,0,0,.409-1.165,2.539,2.539,0,0,0-.171-1.622h0s-.357-3.429-5-6.092c0,0-.827-1.2-1.118-1.251l.238,2.064a3.439,3.439,0,0,1,2.464.585s-2.378-.642-2.44-.276c0,.076.176,1.089.176,1.089s2.625-.395,4.057.913c0,0-2.749-1.146-3.99-.528l.371,1.517s2.754-.556,4.442.875c0,0-2.911-1.1-4.338-.552l.566,1.427s2.7-.476,4.095.709c0,0-3.5-.951-3.943-.385a7.488,7.488,0,0,0,.923,1.555s1.945-.309,2.7.476c0,0-2.407-.376-2.492-.124a8.284,8.284,0,0,0,2.25,1.9,5.788,5.788,0,0,1-2.468-1.684,3.182,3.182,0,0,0,.347,1.8s-1.037-.476-.642-2.159a7.664,7.664,0,0,1-.913-1.427,6.921,6.921,0,0,0-.476,2.735s-.761-1.179.314-3.11l-.6-1.427a9.532,9.532,0,0,0-.88,3.091s-.59-1.322.761-3.467l-.381-1.479a11.762,11.762,0,0,0-1.127,2.854,4.7,4.7,0,0,1,1.032-3.3l-.138-1.023s-.666,1.275-.823,1.66-.276.371-.276.371a4.872,4.872,0,0,1,1.037-2.459A12.126,12.126,0,0,0,342.3,531.9Z" transform="translate(-209.363 -307.382)"/><path class="b" d="M309.967,320.305s-3.871,10.673,4.123,11.648a1.945,1.945,0,0,0,2.245-.385s-.561-.186-.043-1.227a5.332,5.332,0,0,0,.4-1.165,2.559,2.559,0,0,0-.166-1.617h0s-.357-3.429-5-6.1c0,0-.828-1.2-1.118-1.251l.243,2.069a3.414,3.414,0,0,1,2.459.58s-2.378-.642-2.44-.271c0,.071.176,1.089.176,1.089s2.625-.4,4.062.913c0,0-2.749-1.151-4-.528l.371,1.512s2.754-.557,4.447.875c0,0-2.916-1.1-4.342-.547l.566,1.427s2.7-.476,4.1.713c0,0-3.5-.951-3.943-.39a7.485,7.485,0,0,0,.923,1.555s1.945-.3,2.7.476c0,0-2.4-.376-2.487-.128a8.153,8.153,0,0,0,2.245,1.9,5.85,5.85,0,0,1-2.468-1.688,3.2,3.2,0,0,0,.347,1.8s-1.037-.476-.637-2.164a7.5,7.5,0,0,1-.918-1.427,6.991,6.991,0,0,0-.476,2.735s-.766-1.184.314-3.11l-.6-1.427a9.532,9.532,0,0,0-.88,3.1s-.59-1.327.761-3.472l-.38-1.479a11.856,11.856,0,0,0-1.127,2.854,4.729,4.729,0,0,1,1.032-3.3l-.133-1.018s-.671,1.275-.828,1.655-.276.376-.276.376a4.87,4.87,0,0,1,1.037-2.459A11.634,11.634,0,0,0,309.967,320.305Z" transform="translate(-192.406 -196.42)"/><path class="b" d="M371.44,442.22s2.992,10.939,10.088,7.134a1.936,1.936,0,0,0,1.608-1.607s-.561.171-.737-.975a5.228,5.228,0,0,0-.342-1.184,2.516,2.516,0,0,0-1.07-1.227h0s-2.269-2.6-7.61-2.1c0,0-1.37-.5-1.636-.371l1.389,1.546a3.473,3.473,0,0,1,2.349-.951s-2.326.856-2.154,1.184c.038.067.77.79.77.79s1.9-1.841,3.843-1.6c0,0-2.906.647-3.562,1.874l1.175,1.023s1.931-2.04,4.138-1.85c0,0-3.02.78-3.867,2.055l1.294.851s1.9-1.955,3.757-1.779c0,0-3.4,1.251-3.448,1.955a7.417,7.417,0,0,0,1.655.737s1.427-1.37,2.468-1.175c0,0-2.183,1.08-2.107,1.332a8.463,8.463,0,0,0,2.925.247,5.8,5.8,0,0,1-2.987.048,3.167,3.167,0,0,0,1.322,1.27s-1.122.2-1.769-1.4a7.535,7.535,0,0,1-1.579-.642,7.031,7.031,0,0,0,1.189,2.511s-1.3-.528-1.536-2.725l-1.317-.823a9.967,9.967,0,0,0,1.061,3.034s-1.246-.742-1.379-3.272l-1.16-.989a11.888,11.888,0,0,0,.732,3,4.768,4.768,0,0,1-1.056-3.291l-.7-.756s.19,1.427.281,1.831,0,.476,0,.476a4.884,4.884,0,0,1-.571-2.606A11.888,11.888,0,0,0,371.44,442.22Z" transform="translate(-225.134 -260.216)"/><path class="b" d="M542.08,462.786s2.992,10.939,10.083,7.134a1.931,1.931,0,0,0,1.612-1.608s-.566.171-.742-.951a4.993,4.993,0,0,0-.338-1.184,2.549,2.549,0,0,0-1.075-1.227h0s-2.269-2.6-7.61-2.1c0,0-1.37-.5-1.631-.376l1.384,1.546a3.474,3.474,0,0,1,2.349-.951s-2.326.856-2.15,1.184c.033.067.77.79.77.79s1.9-1.841,3.843-1.6c0,0-2.911.647-3.567,1.874l1.18,1.023s1.9-2.04,4.133-1.85c0,0-3.015.78-3.862,2.055l1.294.851s1.9-1.955,3.753-1.779c0,0-3.4,1.251-3.443,1.955a7.355,7.355,0,0,0,1.65.737s1.427-1.37,2.468-1.175c0,0-2.178,1.08-2.107,1.332a8.479,8.479,0,0,0,2.93.247,5.826,5.826,0,0,1-2.991.048,3.2,3.2,0,0,0,1.322,1.27s-1.122.2-1.769-1.4a7.41,7.41,0,0,1-1.574-.642,6.986,6.986,0,0,0,1.184,2.511s-1.3-.528-1.536-2.725l-1.317-.832a9.881,9.881,0,0,0,1.065,3.034s-1.246-.742-1.379-3.272l-1.165-.989a11.742,11.742,0,0,0,.737,3,4.755,4.755,0,0,1-1.061-3.291l-.7-.756s.19,1.427.281,1.831,0,.476,0,.476a4.885,4.885,0,0,1-.571-2.606A11.96,11.96,0,0,0,542.08,462.786Z" transform="translate(-314.617 -271.013)"/><path class="c" d="M457.053,643.536s24.674-8.309,19.566-37.749l-31.342-8.138L438,621.806Z" transform="translate(-260.038 -341.908)"/><path class="d" d="M438,630.778l19.048,21.73s24.674-8.309,19.566-37.749Z" transform="translate(-260.038 -350.881)"/><path class="e" d="M219.962,182.84s3.329,5.417,7.881,2.711.185-10.183.185-10.183S219.31,174.175,219.962,182.84Z" transform="translate(-145.681 -120.436)"/><path class="d" d="M227.842,185.554a4.694,4.694,0,0,1-3.667.618,7.392,7.392,0,0,1-3.643-2.549,7.937,7.937,0,0,1-.571-.775c-.233-3.091.728-4.932,2.059-6.016h0a8.385,8.385,0,0,1,5.46-1.5,2.476,2.476,0,0,1,.533.048l.09.152c.128.243.409.78.709,1.5C229.83,179.381,231.043,183.647,227.842,185.554Z" transform="translate(-145.681 -120.439)"/><path class="f" d="M467.585,611.85l17.122,1.384,31.865.261L491.466,644.41s-7.966.433-9.607,1.555-24.679.523-24.679.523l-3.719-15.847Z" transform="translate(-268.145 -349.354)"/><path class="g" d="M467.585,611.85l17.122,1.384,31.865.261L491.466,644.41s-7.966.433-9.607,1.555-24.679.523-24.679.523l-3.719-15.847Z" transform="translate(-268.145 -349.354)"/><path class="c" d="M427.657,436.351l3.981,6.754.866,11.776s2.773,10.04,4.851,12.984S440.3,478.6,440.3,478.6s.866,7.272,1.9,8.827,2.426,12.841,2.426,12.841,9.179,18.354,17.488,20.6c0,0-41.211,13.507-19.566,37.749,0,0-15.41,3.8-19.048-.518s-13.16-68.4-13.16-68.4l2.944-54.029Z" transform="translate(-245.533 -256.972)"/><path class="g" d="M427.657,436.351l3.981,6.754.866,11.776s2.773,10.04,4.851,12.984S440.3,478.6,440.3,478.6s.866,7.272,1.9,8.827,2.426,12.841,2.426,12.841,9.179,18.354,17.488,20.6c0,0-41.211,13.507-19.566,37.749,0,0-15.41,3.8-19.048-.518s-13.16-68.4-13.16-68.4l2.944-54.029Z" transform="translate(-245.533 -256.972)"/><path class="f" d="M286.119,266.067a37.1,37.1,0,0,0,1,18.025l-6.411,18.354s-48.83-27.186-44.674-33.768c2.354-3.733,2.654-13.612,2.464-21.459-.138-5.964-.561-10.749-.561-10.749s59.926,5.893,51.95,19.571A32.288,32.288,0,0,0,286.119,266.067Z" transform="translate(-153.996 -152.507)"/><path class="d" d="M292.26,256.041a32.288,32.288,0,0,0-3.767,10.026,40.4,40.4,0,0,1-47.622-18.848c-.138-5.964-.561-10.749-.561-10.749S300.222,242.363,292.26,256.041Z" transform="translate(-156.37 -152.507)"/><path class="f" d="M311.531,171.246a40.35,40.35,0,1,1-73.272-23.3q.856-1.2,1.8-2.35a40.36,40.36,0,0,1,13.131-10.463h0A39.636,39.636,0,0,1,261.825,132a40.211,40.211,0,0,1,49.705,39.247Z" transform="translate(-151.399 -97.152)"/><path class="c" d="M244,414.625c-.6,3.225.152,9.117,1.3,15.115.048.262.1.523.152.785s.128.666.195.994c.528,2.578,1.1,5.132,1.665,7.453s1.065,4.309,1.493,5.945c.647,2.449,1.089,3.99,1.089,3.99s.057,1.512.133,3.919c.043,1.389.09,3.082.138,4.951,0,.542.033,1.094.048,1.665.024.994.048,2.026.071,3.082,0,.342,0,.685.024,1.032,0,1.137.043,2.3.062,3.453.024,1.588.043,3.177.052,4.718v5.926c-.052,3.686-.2,6.468-.514,7.272-.109.276-.209.575-.3.889a30.072,30.072,0,0,0-.894,4.5l-.809-.661c-1.546-1.275-3.077-2.578-4.632-3.843a67.357,67.357,0,0,0-8.209-5.888c-.2-.114-.39-.228-.59-.338-.533-.309-1.075-.6-1.627-.875a37.223,37.223,0,0,0-3.491-1.541,45.724,45.724,0,0,0-17.341-2.725c-2.378.908-3.924,1.56-3.924,1.56l-3.025.913-.5.152c-3.277,1-7.886,2.416-9.545,3.006-2.682.951-25.973,5.8-25.973,5.8a38.686,38.686,0,0,1-6.5,1.189,91.721,91.721,0,0,1-12.18,2.549,67.869,67.869,0,0,1-27.875-2.245,4.556,4.556,0,0,1-.809-.024,2.5,2.5,0,0,0,.476-.067l-.58-.171-.794-.247q-2-.628-3.962-1.375l-.794-.3q-1.9-.733-3.724-1.574l-.794-.361q-1.9-.885-3.724-1.869c-.438-.228-.87-.476-1.3-.709q-1.94-1.084-3.8-2.273c-.209-1.793-.319-2.992-.319-2.992l-1.855-9.236-.1-.476-1.332-6.658-.1-.476-2.9-14.487-.1-.476-1.332-6.658-.1-.476-2.934-14.477-.1-.476L90.2,414.849l-.1-.476-2.911-14.506-.1-.476-1.332-6.635-.1-.476-.528-2.616-.794-3.962s-2.535-3.624-5.389-7.909l-.319-.476c-.813-1.2-1.65-2.454-2.464-3.681-.271-.4-.533-.8-.794-1.2q-.595-.9-1.151-1.755l-.257-.395-.052-.081c-4.1-6.345-1.355-9.1-1.355-9.1s1.722-2.33,3.943-5.412c.109-.157.224-.314.342-.476.951-1.332,2-2.787,3.025-4.242l.794-1.132c.3-.423.595-.847.88-1.265.114-.157.224-.319.328-.476a56.267,56.267,0,0,0,4.371-6.911c.58-1.546,4.28-6.116,7.966-10.126,2.906-3.168,5.8-5.983,7.1-6.658,2.944-1.555,4.157-6.582,4.157-6.582s6.406-2.245,7.272-3.976,12.989-9.512,12.989-9.512a64.068,64.068,0,0,0,6.887-5.06,4.055,4.055,0,0,0,.728-.851c.69-1.237,5.194-2.254,7.025-2.621.476-.1.77-.147.77-.147a15.5,15.5,0,0,1,2.773-3.638c.747-.661,1.679-2.939,2.464-5.146.851-2.407,1.512-4.723,1.512-4.723,1.389-4.675,4.157-3.291,4.157-3.291a9.511,9.511,0,0,0,.181,1.9h0c1.156,5.707,7.434,8.085,10.73,10.753,3.638,2.939,9.35,10.563,13.854,12.118,3.729,1.289,8.052,6.15,9.422,7.771l.1.124c.228.266.342.419.342.419s2.554-.133,4.109-.162h.566a1.655,1.655,0,0,0,.866-.352c1.546-1.051,3.848-4.133,4.851-4.842,1.208-.87,2.426-14.9,2.426-14.9l.062-.029c4.314-2.021,8.941,18.211,8.941,18.211s8.138,2.426,8.832,4.157A6.219,6.219,0,0,0,219,315.723a91.5,91.5,0,0,0,13.365,8.49c.1.052.2.1.309.147a3.18,3.18,0,0,0,.29.138c.176.086.347.162.509.233q.385.171.713.285l.285.1a6.877,6.877,0,0,1,1.9.984c.171.124.342.252.509.39a13.434,13.434,0,0,1,1.779,1.788c.081.1.157.195.233.29h0a15.989,15.989,0,0,1,.951,1.313,19.453,19.453,0,0,1,1.194,1.988s7.1,12.123,9.35,13.5,3.638,15.414,3.638,15.414h0l-7.61,28.208s-.357,7.134-1.023,14.411C245.028,407.486,244.557,411.638,244,414.625Z" transform="translate(-67.936 -174.635)"/><path class="h" d="M290.39,340.508s-5.1,2.768-9.089,3.03a7.494,7.494,0,0,1-1.56-.09c-4.176-.633-10.3-4.066-10.3-4.066l7.186-7.881,8.742,4.333,3.215,2.992Z" transform="translate(-171.646 -202.34)"/><path class="d" d="M311.022,164.793a4.784,4.784,0,0,1-.614.709c-2.5,2.378-6.944,1.394-10.354.842a37.707,37.707,0,0,1-8.623-2.492c-2.407-1.027-5.294-2.283-7.458-.809-.832.561-1.4,1.46-2.269,1.955a6.246,6.246,0,0,1-2.992.542,43.678,43.678,0,0,1-9.907-.713c-4.846-1.132-9.859-3.981-14.468-2.1-3.605,1.465-5.56,5.389-6.535,9.16a16.575,16.575,0,0,1-1.9,5.374c-1.075,1.57-3.153,2.682-4.923,1.945-2.611-1.089-3-5.522-6.145-5.745-3.458-.243-3.415,3.329-2.407,5.912,1.493,3.8,3.448,7.61,3.534,11.576a40.374,40.374,0,0,1,2.3-43.014,4.347,4.347,0,0,0,1.717-2.007,3,3,0,0,0,.086-.342c.262-1.327-.476-2.72-.518-4.109-.166-3.391,3.505-5.755,6.873-6.183,2.24-.285,4.533-.067,6.777-.138h0a15.334,15.334,0,0,0,3.353-.447,16.129,16.129,0,0,0,5.232-2.687A40.426,40.426,0,0,1,310.994,164.8Z" transform="translate(-151.404 -97.162)"/><path class="i" d="M307.75,154.354a5.233,5.233,0,0,1-1.427,2.473c-2.5,2.378-6.944,1.389-10.354.837a37.236,37.236,0,0,1-8.623-2.473c-2.407-1.023-5.293-2.278-7.457-.8-.832.561-1.4,1.46-2.269,1.955a6.188,6.188,0,0,1-2.991.537,42.356,42.356,0,0,1-9.907-.709c-4.846-1.137-9.859-3.981-14.468-2.107-3.605,1.465-5.56,5.393-6.535,9.165a16.508,16.508,0,0,1-1.9,5.37c-1.075,1.565-3.153,2.687-4.922,1.95-2.611-1.089-3-5.522-6.145-5.745-3.458-.243-3.415,3.329-2.407,5.912,1.769,4.5,4.176,8.984,3.386,13.759-.785,0-2.083-.029-2.854-.048.6-1.023-.542-2.24-1.679-2.587s-2.464-.342-3.329-1.17a3.9,3.9,0,0,1-.78-3.253,22.387,22.387,0,0,1,1.774-7.106c.623-1.427,1.427-2.973.951-4.466a12.692,12.692,0,0,0-1.027-1.945,7.429,7.429,0,0,1,.09-6.245c.361-.837.623-1.627.923-2.378a10.577,10.577,0,0,1,1.622-2.963c1.089-1.355,2.154-3.4.951-4.656-.3-.319.3-.537.109-.951a.814.814,0,0,1-.071-.224,2.159,2.159,0,0,1,.342-1.427,3.481,3.481,0,0,1,.185-.319,2.7,2.7,0,0,1,.186-.314,15.12,15.12,0,0,1,4.114-4.485c1.032-.747,2.24-1.465,2.649-2.673.476-1.427-.361-2.944-.433-4.452-.166-3.391,3.505-5.755,6.873-6.183s6.858.281,10.14-.59c4.656-1.227,7.928-5.336,12.156-7.643a17.212,17.212,0,0,1,15.124-.542c4.937,2.254,8.661,6.811,13.816,8.523,1.826.609,3.8.851,5.45,1.86,1.9,1.17,3.058,3.215,4.047,5.232,1.508,3.058,1.812,6.131,2.854,9.369.828,2.568,1.974,5.926,2.069,8.884a8.9,8.9,0,0,1-.233,2.63Z" transform="translate(-147.319 -89.524)"/><g class="j" transform="translate(75.871 42.429)"><path d="M234.917,181.749a2.116,2.116,0,0,0-.357-1.779c.124.371-.414.585-.119.894A1.9,1.9,0,0,1,234.917,181.749Z" transform="translate(-229.117 -165.307)"/><path d="M234.65,177.68h0a1.966,1.966,0,0,0-.1.514C234.64,178.041,234.764,177.885,234.65,177.68Z" transform="translate(-229.221 -164.106)"/><path d="M311.78,194.375c-2.506,2.378-6.944,1.394-10.363.837a36.984,36.984,0,0,1-8.613-2.487c-2.411-1.027-5.293-2.283-7.462-.809-.828.561-1.4,1.46-2.269,1.955a6.2,6.2,0,0,1-2.992.537,43.47,43.47,0,0,1-9.912-.713c-4.842-1.132-9.854-3.971-14.463-2.1-3.605,1.47-5.56,5.393-6.535,9.165a16.463,16.463,0,0,1-1.9,5.374c-1.08,1.57-3.158,2.682-4.923,1.95-2.611-1.094-3-5.522-6.145-5.745-2.459-.176-3.144,1.584-2.977,3.538a2.5,2.5,0,0,1,2.977-2.5c3.149.223,3.534,4.656,6.145,5.745,1.765.737,3.848-.371,4.923-1.95a16.666,16.666,0,0,0,1.9-5.37c.975-3.772,2.93-7.7,6.535-9.165,4.609-1.874,9.621.951,14.463,2.1a42.124,42.124,0,0,0,9.912.709,6.019,6.019,0,0,0,2.992-.533c.889-.5,1.427-1.394,2.269-1.96,2.169-1.47,5.051-.214,7.462.809a37.225,37.225,0,0,0,8.613,2.492c3.42.552,7.857,1.546,10.363-.842a6.535,6.535,0,0,0,1.679-5.232A5.99,5.99,0,0,1,311.78,194.375Z" transform="translate(-228.513 -170.661)"/><path d="M249.446,149.14a5.059,5.059,0,0,0-.029.713c.048.989.423,1.979.542,2.944C250.136,151.613,249.589,150.377,249.446,149.14Z" transform="translate(-237.016 -149.14)"/><path d="M227.315,214.306a3.5,3.5,0,0,1,.09.433,3.415,3.415,0,0,0-.09-1.47,12.33,12.33,0,0,0-1.027-1.95,5.874,5.874,0,0,1-.623-2.259,6.264,6.264,0,0,0,.623,3.3A12.085,12.085,0,0,1,227.315,214.306Z" transform="translate(-224.55 -180.562)"/><path d="M238.408,255.5l-2.782-.043a1.194,1.194,0,0,1-.086,1.037c.785,0,2.088.029,2.854.048a11.653,11.653,0,0,0,.138-2.464A11.147,11.147,0,0,1,238.408,255.5Z" transform="translate(-229.74 -204.17)"/><path d="M227.461,248.042c-1.137-.342-2.459-.347-3.305-1.18a3.015,3.015,0,0,1-.79-1.993,3.744,3.744,0,0,0,.79,3.034c.847.832,2.169.837,3.305,1.179a2.825,2.825,0,0,1,1.726,1.427C229.668,249.526,228.565,248.37,227.461,248.042Z" transform="translate(-223.345 -199.34)"/></g><path class="d" d="M361.916,529.2c-.533-.309-1.075-.6-1.627-.875a37.251,37.251,0,0,0-3.491-1.541,45.721,45.721,0,0,0-17.34-2.725c-2.378.908-3.924,1.56-3.924,1.56l-3.025.913-.5.152c-.033-.333-.071-.666-.1-1s-.071-.661-.109-.994c-1.065-10.088-1.9-20.451-1.9-20.451v-9.992l-.057-26.372-.476-8.694-.223-3.848-.043-.732L329,453.1l-.048-.894a8.043,8.043,0,0,1-.266-.866h0c-.033-.119-.067-.252-.1-.39-.119-.476-.247-1.089-.38-1.755-.87-4.376-1.96-11.752-2.026-13.25-.086-2-1.817-13.945-1.817-13.945-.176-6.578-5.707-18.962-7.1-21.3s-2.949-16.366-2.426-17.122a21.911,21.911,0,0,0,.556-5c0-.252.024-.5.033-.742.071-1.727.1-3.168.1-3.168l5.441-1.075,1.46-.285.114-.024.048.1c.157.29.647,1.218,1.222,2.435.067.128.128.266.195.4.029.067.062.133.1.2,1.065,2.33,2.3,5.4,2.245,7.163-.086,3.12,3.467,10.654,3.467,10.654.342,1.731,7.876,18.958,7.876,18.958s6.15,16.884,5.8,19.657,2.944,21.126,2.944,21.126l3.377,18.877c1.641,3.719,3.8,12.29,3.8,12.29l.823,4.861.157.927L356.8,503.9l1.075,6.354s.452,3.377,1.137,7.134c.057.338.124.68.19,1.023a52.351,52.351,0,0,0,1.793,7.3A27.338,27.338,0,0,1,361.916,529.2Z" transform="translate(-195.402 -224.25)"/><path class="h" d="M363.084,529.529c-.2-.114-.39-.228-.59-.338-.533-.309-1.075-.6-1.627-.875a37.276,37.276,0,0,0-3.491-1.541,45.726,45.726,0,0,0-17.341-2.725c-2.378.908-3.924,1.56-3.924,1.56l-3.025.913c-.038-.333-.071-.666-.109-1s-.067-.609-.1-.913c-1.065-10.064-1.9-20.38-1.9-20.38V494.149l-.057-26.306-.476-8.3-.1-1.722-.067-1.165-.086-1.541-.086-1.565-.062-1.127v-.247a.092.092,0,0,0-.033-.081c-.09-.257-.2-.647-.319-1.142l-.057-.238c-.024-.109-.052-.228-.076-.347-.894-4.057-2.207-12.8-2.278-14.444-.086-2-1.817-13.945-1.817-13.945-.176-6.578-5.707-18.962-7.1-21.3s-2.944-16.365-2.426-17.122c.3-.476.476-3.362.59-5.745v-.552c.062-1.47.086-2.616.086-2.616l5.06-1,1.284-.252.2-.038.476-.1s.623,1.151,1.37,2.735l.1.2c1.089,2.35,2.378,5.546,2.34,7.362-.086,3.12,3.467,10.654,3.467,10.654.342,1.731,7.876,18.958,7.876,18.958s6.15,16.884,5.8,19.657,2.944,21.126,2.944,21.126l3.377,18.877c1.641,3.719,3.8,12.29,3.8,12.29l.766,4.528.157.918,1.726,10.235,1.593,9.431s.476,3.363,1.132,7.134c.062.342.124.685.19,1.032a52.613,52.613,0,0,0,1.793,7.334,29.01,29.01,0,0,1,1.008,3.8Z" transform="translate(-195.98 -224.239)"/><path class="e" d="M309.441,128.448s-1.817,2.34-3.458,2.34-8.028-.262-11.357-1.3-19.652-1.822-19.652-1.822-23.114.086-23.894-.694-14.373-4.937-15.757-4.675c-.29.057-1,.181-1.945.338l-1.084.176c-1.641.262-3.691.566-5.565.79a17.386,17.386,0,0,1-5,.171V121.78s2.682-3.9,2.854-5.018,2.426-17.322,8.314-23.119A23.209,23.209,0,0,1,244.064,83.18C252.031,79.713,260,76.774,260,76.774l1.393-.2,4.495-.666a3.389,3.389,0,0,1,.442-.371c1.246-.951,5.022-3.02,9.945,1.427l.87,1.389S292.291,81.9,299.3,94.281s7.362,24.5,7.881,30.044c0,0-.347,1.56.347,2.164a9.709,9.709,0,0,1,.718.7c.062.062.124.124.181.19.2.2.385.409.537.58a.223.223,0,0,1,.048.048,1.509,1.509,0,0,0,.119.128Z" transform="translate(-146.627 -67.423)"/><path class="g" d="M321.943,175.845s-1.817,2.34-3.458,2.34-8.028-.262-11.357-1.3-19.652-1.822-19.652-1.822-23.114.086-23.894-.694-14.373-4.937-15.757-4.675c-.29.057-1,.181-1.945.338l-.247-1.522-.062-.376s26.234-5.626,43.722-2.678,30.391,6.23,30.391,6.23-.347,1.56.347,2.164a9.71,9.71,0,0,1,.718.7c.062.062.124.124.181.19.2.2.385.409.537.58a.223.223,0,0,1,.048.048,1.572,1.572,0,0,0,.119.128Z" transform="translate(-159.128 -114.82)"/><path class="d" d="M306.133,185.083c-3.239.252-9.208-.537-11.819-.923-.742-.109-1.47-.243-2.2-.4-2.8-.609-11.414-2.316-16.646-1.527-6.321.951-24.156-.78-24.156-.78s-11-2.25-15.414-4.066a15.325,15.325,0,0,0-7.029-.547,19.581,19.581,0,0,0-2.045.366c-3.681.87-6.787,2.854-6.249,6.235a7.948,7.948,0,0,1-.571-.775c-.233-3.091.728-4.932,2.059-6.016h0l.314-.128a38.406,38.406,0,0,1,4.956-1.061c.262-.043.533-.081.809-.114,4.732-.637,11.576-.78,17.35,2.126,0,0,5.365,2.516,9,2.516s33.245.262,40.174,2.25a29.482,29.482,0,0,0,4.209.889,17.122,17.122,0,0,0,7.515-.709,8.9,8.9,0,0,1-.257,2.668Z" transform="translate(-145.702 -120.254)"/><path class="d" d="M309.441,180.1s-1.817,2.34-3.458,2.34-8.028-.262-11.357-1.3-19.652-1.822-19.652-1.822-23.114.086-23.894-.694-14.373-4.937-15.757-4.675c-.29.057-1,.181-1.945.338l-1.084.176a19.31,19.31,0,0,0-5.565.789,17.385,17.385,0,0,1-5,.171v-.395a11.416,11.416,0,0,1,1.555-.751,42.061,42.061,0,0,1,9.845-1.531,27.514,27.514,0,0,1,13.274,2.483s5.365,2.516,9,2.516,33.245.257,40.174,2.25a30.112,30.112,0,0,0,4.209.885,17.5,17.5,0,0,0,9.174-1.317.223.223,0,0,1,.048.048,1.572,1.572,0,0,0,.119.128Z" transform="translate(-146.627 -119.08)"/><path class="e" d="M219.028,182.778s-5.8-4.418,1.731-7.362c0,0,13.16-4.066,23.119.951,0,0,5.365,2.506,9,2.506s33.245.262,40.174,2.254a29.963,29.963,0,0,0,4.209.885,17.916,17.916,0,0,0,10.687-2.031c.475-.262.9-.395,1.032-.243.433.523.09,3.553-3.719,4.157-2.972.476-9.726-.423-12.565-.837-.737-.109-1.47-.247-2.2-.4-2.8-.609-11.415-2.316-16.67-1.527-6.316.951-24.156-.78-24.156-.78s-10.991-2.25-15.41-4.071S217.382,176.024,219.028,182.778Z" transform="translate(-144.091 -119.674)"/><path class="d" d="M314.219,85.524c-.476-.685-6.587-5.579-9.079-7.557l4.495-.666a3.394,3.394,0,0,1,.442-.371A18.591,18.591,0,0,1,314.219,85.524Z" transform="translate(-190.367 -68.845)"/><path class="d" d="M216.523,89.594l-1.993,2.944,7.619-.257.171-3.291Z" transform="translate(-112.493 -46.666)"/><path class="d" d="M316.47,97.73l.866,2.682,4.851.78-2.078-3.206Z" transform="translate(-165.95 -51.249)"/><path class="d" d="M205.18,347c.518.866,17.574,23.3,22.078,22.682S205.18,347,205.18,347Z" transform="translate(-137.948 -210.468)"/><path class="d" d="M325.33,390.12s4.157,3.986,3.548,5.541S325.33,390.12,325.33,390.12Z" transform="translate(-200.954 -233.08)"/><path class="d" d="M227.422,447.65s-3.638,17.055-1.731,17.6S227.422,447.65,227.422,447.65Z" transform="translate(-148.414 -263.249)"/><path class="d" d="M328.24,586.91c.6,1.731,5.626,12.989,6.754,13.593S328.24,586.91,328.24,586.91Z" transform="translate(-202.48 -336.276)"/><path class="d" d="M446.872,489.7c-.176.6-4.5,4.157-3.553,5.455S446.872,489.7,446.872,489.7Z" transform="translate(-262.756 -285.3)"/><path class="d" d="M379.965,556.14c-.086.437-.951,9.512.694,11.258S379.965,556.14,379.965,556.14Z" transform="translate(-229.446 -320.141)"/><path class="d" d="M319.182,625.1c-1.256.7-2.554,1.375-3.876,2.021-1.427.694-2.854,1.355-4.309,1.979-.58.252-1.161.5-1.736.737q-1.313.542-2.6,1.042c-2.6,1.018-5.108,1.9-7.339,2.649-.866.29-1.693.556-2.464.8-3.881,1.232-6.459,1.9-6.459,1.9a6.993,6.993,0,0,0-1.793-.147H288.1a22.539,22.539,0,0,0-2.4.3c-5.312.951-12.818,3.619-17.34,5.365-2.378.908-3.924,1.56-3.924,1.56l-3.025.913-.5.152c-3.277,1-7.885,2.416-9.545,3.006-2.682.951-25.973,5.8-25.973,5.8a38.677,38.677,0,0,1-6.5,1.189,118.57,118.57,0,0,1-16.275.371c-5.45.352-14.268-.847-19.4-1.655l-.818-.128c-1.983-.323-3.244-.556-3.244-.556l.666-.918,13.655-18.839.081-.114,12.722-17.545.476-.637,1.156-1.593s.694-.951,3.367-1.013H212.3a27.873,27.873,0,0,1,6.6,1.346l.618.186c9.212,2.64,23.452,1.979,23.452,1.979s8.861-1.427,15.823-2.283l.518-.067a63.893,63.893,0,0,1,6.863-.595c4.242.086,13.422-2.164,13.422-2.164a8.948,8.948,0,0,0,3.919-1.574c.147-.1.3-.219.476-.343.476-.357,1.023-.794,1.726-1.336,1.284-.984,3.087-2.321,5.921-4.195.247-.162.509-.323.789-.476s.637-.357.98-.528a37.134,37.134,0,0,1,8.618-2.854,50.545,50.545,0,0,1,7.5-1.032h.376c7.134-.38,14.42.842,18.682,4.851a11.7,11.7,0,0,1,1.931,2.378,10.826,10.826,0,0,1,.694,1.294,12.133,12.133,0,0,1,.861,2.663q.052.257.086.514v.152c0,.138.029.276.038.414C332.575,615.766,326.668,620.912,319.182,625.1Z" transform="translate(-124.298 -341.956)"/><path class="f" d="M179.15,650.211s15.41,2.853,23.462,2.335c0,0,14.806.78,22.772-1.555,0,0,23.3-4.851,25.973-5.8s13.074-4.071,13.074-4.071,20.261-8.485,25.973-7.1c0,0,44.85-11.6,41.644-27.271s-31.514-12.118-40.426-6.235-7.61,6.5-12.033,7.448c0,0-9.179,2.25-13.422,2.164s-23.2,2.944-23.2,2.944-14.891.694-24.066-2.164-11-.347-11-.347Z" transform="translate(-124.298 -340.788)"/><path class="d" d="M166.472,507.662a.237.237,0,0,1,0,.057,3.212,3.212,0,0,1-.271,1.023c-1.826,4.48-12.195,16.565-12.195,16.565A33.087,33.087,0,0,1,152.3,529.5a64.328,64.328,0,0,1-4.923,8.347,113.025,113.025,0,0,1-8.956,11.353H138.4a13.608,13.608,0,0,1-1.279.842,10.587,10.587,0,0,1-4.38,1.589,4.565,4.565,0,0,1-.809-.024,2.5,2.5,0,0,0,.476-.067l-.58-.171-.794-.247q-2-.628-3.962-1.375l-.794-.3q-1.9-.732-3.724-1.574l-.794-.362q-1.9-.885-3.724-1.869c-.438-.228-.87-.476-1.3-.709q-1.94-1.084-3.8-2.273-1.979-1.26-3.871-2.63c-.951-1.765-1.736-3.329-2.164-4.171a11.6,11.6,0,0,1-.751-5.427,2.584,2.584,0,0,1,.029-.476c.081-1.018.2-1.717.2-1.717a24.456,24.456,0,0,1-1.9-2.968,3.491,3.491,0,0,1-.533-1.707,2.027,2.027,0,0,0-.067-.723,16.869,16.869,0,0,0-3.4-5.707c-1.084-1.194-1.151-5.655-1.046-8.818.062-1.9.181-3.3.181-3.3a1.108,1.108,0,0,1-.452-.585,14.134,14.134,0,0,1-.77-3.225,3.358,3.358,0,0,0-.067-.476c-.3-2.183-.442-4.376-.442-4.376-3.519-2.563-5.194-6.563-5.974-10.13l-.1-.476a29.963,29.963,0,0,1-.542-6.658v-.595s.466-10.306,1.769-14.33c.052-.171.109-.328.166-.476a3.563,3.563,0,0,1,.371-.718,8.857,8.857,0,0,0,1.094-3.239c.2-.98.357-2.069.476-3.153.109-.9.195-1.8.262-2.635.185-2.226.243-3.962.243-3.962l-.88-4.337c-.243-1.184-.428-2.378-.556-3.572a4.176,4.176,0,0,0-.057-.476,40.2,40.2,0,0,1-.119-6.635,2.636,2.636,0,0,1,.029-.476,40.212,40.212,0,0,1,3.881-14.506l.238-.476q.476-.951,1-1.869c.252-.452.518-.9.794-1.341a39.229,39.229,0,0,1,2.378-3.429c.124-.162.252-.319.38-.476a38.752,38.752,0,0,1,4.927-5.079c4.8-4.128,9.212-5.921,13.217-6.059,17.512-.618,27.333,30.353,28.922,35.78.152.523.228.809.228.809s7.1,7.1,5.018,10.216a5.36,5.36,0,0,0-.718,2.245c-.571,4.19,1.065,11.091,1.065,11.091s.58,1.9,2.273,6.459l.5,1.332c1.061,2.854,1.308,7.643.7,11.933-.585,4.109-1.959,7.743-4.162,8.675-4.5,1.9-3.291,3.8-2.254,5.37a21.373,21.373,0,0,1,1.536,3.51c.652,1.755,1.256,3.6,1.484,4.318.067.2.1.309.1.309a9.4,9.4,0,0,1,1.955-.523c.851-.119,1.693-.033,1.855.694.086.39.575.851,1.265,1.313A36.52,36.52,0,0,0,166.472,507.662Z" transform="translate(-78.204 -238.912)"/><path class="c" d="M164.3,507.661h0a3.134,3.134,0,0,1-.271,1.046c-1.817,4.485-12.194,16.6-12.194,16.6a33.821,33.821,0,0,1-1.707,4.195,60.585,60.585,0,0,1-3.886,6.787,111.853,111.853,0,0,1-9.883,12.794l-.109.119s-.419.319-1.084.728a12.363,12.363,0,0,1-3.876,1.627l-.58-.171-.794-.247q-2-.628-3.962-1.375l-.794-.3q-1.9-.732-3.724-1.574l-.794-.362q-1.9-.884-3.724-1.869c-.438-.228-.87-.476-1.3-.709q-1.94-1.084-3.8-2.273-1.979-1.26-3.871-2.63-.875-.628-1.731-1.289c-.642-1.218-1.156-2.245-1.474-2.882a11.6,11.6,0,0,1-.751-5.427,2.584,2.584,0,0,1,.029-.476c.081-1.018.2-1.717.2-1.717s-.385-.518-.851-1.222c-.262-.39-.542-.842-.794-1.289a4.413,4.413,0,0,1-.775-2.164,1.061,1.061,0,0,0,0-.247,2.3,2.3,0,0,0-.071-.476,16.89,16.89,0,0,0-3.4-5.707c-1.084-1.194-1.151-5.655-1.051-8.818v-.476c.067-1.641.166-2.825.166-2.825-.537-.233-.951-1.96-1.218-3.8l-.071-.476c-.3-2.183-.442-4.376-.442-4.376-3.519-2.563-5.194-6.563-5.969-10.13a29.041,29.041,0,0,1-.618-7.61v-.119s.409-10.359,1.712-14.387c.052-.171.109-.328.166-.476a3.56,3.56,0,0,1,.423-.694c.723-1.008,1.2-3.434,1.517-5.917l.057-.476c.395-3.329.5-6.6.5-6.6l-.885-4.337q-.361-1.783-.556-3.572c-.024-.157-.038-.319-.057-.476a40.208,40.208,0,0,1-.119-6.635,2.265,2.265,0,0,1,.033-.476A40.117,40.117,0,0,1,95.8,419.964c.076-.162.152-.319.238-.476a37.274,37.274,0,0,1,2.036-3.6c.257-.4.518-.8.794-1.2.433-.628.885-1.246,1.355-1.845l.38-.476a38.81,38.81,0,0,1,4.884-5.065c5.232-4.485,9.988-6.216,14.268-6.059,16.86.6,26.325,30.462,27.88,35.78.152.523.228.809.228.809s7.1,7.1,5.022,10.216a5.36,5.36,0,0,0-.718,2.245c-.575,4.19,1.065,11.091,1.065,11.091s.58,1.9,2.273,6.459c.152.423.319.866.476,1.332,1.061,2.854,1.308,7.643.7,11.933-.585,4.114-1.955,7.743-4.162,8.675-4.5,1.9-3.291,3.8-2.25,5.37a21.378,21.378,0,0,1,1.536,3.51c.823,2.24,1.579,4.628,1.579,4.628a9.274,9.274,0,0,1,.951-.309,4.866,4.866,0,0,1,2.055-.214.908.908,0,0,1,.813.694c.128.571,1.113,1.28,2.307,1.95a44.043,44.043,0,0,0,4.789,2.245Z" transform="translate(-77.066 -238.911)"/><path class="d" d="M115.61,517.054c1.646-.086,19.31-6.925,22.948-4.59s26.158,17.488,26.158,17.488-14.111-18.439-26.406-22.767S115.61,517.054,115.61,517.054Z" transform="translate(-90.978 -294.038)"/><path class="d" d="M169,587.46s17.664,3.548,20.346,5.974Z" transform="translate(-118.975 -336.565)"/><path class="d" d="M155.043,643c-.257.261-6.658,14.63-6.145,14.63s5.974-8.561,5.974-8.561Z" transform="translate(-108.419 -365.69)"/><path class="d" d="M182.046,606.75s-5.194,1.822-4.59,1.993S181.87,607.53,182.046,606.75Z" transform="translate(-123.384 -346.68)"/><path class="d" d="M176.24,652.45c.866,1.817,3.634,7.272,4.242,6.406S176.24,652.45,176.24,652.45Z" transform="translate(-122.772 -370.645)"/><path class="d" d="M262.005,313.6l-.742,1.056s-5.893-4.152-8.314-6.23-8.138,7.443-12.642,10.04-12.118,3.291-12.118,3.291-5.888-5.888-5.707-7.61-2.768-2.25-2.944-3.462a17.223,17.223,0,0,0-2.6-6.406c-.732-.913-.837-3.772-.77-6.259.476-.1.77-.147.77-.147a15.5,15.5,0,0,1,2.773-3.638c1.56-1.384,3.981-9.869,3.981-9.869,1.384-4.675,4.152-3.291,4.152-3.291,0,7.1,7.277,9.7,10.91,12.642s9.35,10.563,13.854,12.123C256.308,307.094,260.631,311.969,262.005,313.6Z" transform="translate(-143.703 -175.794)"/><path class="c" d="M261.979,311.407l-.742,1.061s-5.916-4.143-8.337-6.235-8.138,7.443-12.642,10.04-12.118,3.3-12.118,3.3-5.888-5.893-5.707-7.61-2.768-2.25-2.944-3.467a17.192,17.192,0,0,0-2.6-6.406c-.732-.913-.837-3.772-.77-6.259l.77-.143a15.5,15.5,0,0,1,2.773-3.638c1.56-1.389,3.981-9.869,3.981-9.869,1.384-4.675,4.152-3.3,4.152-3.3,0,7.1,7.277,9.7,10.91,12.646s9.35,10.558,13.854,12.118C256.281,304.925,260.6,309.781,261.979,311.407Z" transform="translate(-143.677 -174.647)"/><path class="d" d="M301.749,349.318s-5.1,2.768-9.089,3.03a7.491,7.491,0,0,1-1.56-.09h0s4.4-3.286,8.485-3.957Z" transform="translate(-183.004 -211.15)"/><path class="d" d="M325.9,376.481s-6.435-2.506-8.561,1.265c.071-1.731.1-3.168.1-3.168l7.015-1.389s.675,1.251,1.465,2.935C325.9,376.348,325.9,376.481,325.9,376.481Z" transform="translate(-196.764 -224.202)"/><path class="h" d="M291.1,351.922s7.71-4.628,11.414-4.238c3.886.4,11.414.69,11.414.69s-2.6,5.888-2.25,7.1a60.851,60.851,0,0,1,.433,7.1s-7.79-3.03-9.089,2.6c0,0-4.242-6.321-7.1-8.228A19.443,19.443,0,0,1,291.1,351.922Z" transform="translate(-183.004 -210.815)"/><path class="d" d="M351.264,336.412c-2.25,0-10.216-5.027-11.947-8.314s-4.157.342-6.406,1.56c-1.427.78-7.082-.851-10.13-2.036,1.546-1.051,4.97-4.009,5.974-4.718,1.208-.87,2.426-14.9,2.426-14.9,4.328-2.25,9,18.182,9,18.182s8.142,2.426,8.832,4.157a6.219,6.219,0,0,0,1.669,1.688C351.635,334.434,352.158,336.412,351.264,336.412Z" transform="translate(-199.617 -189.931)"/><path class="c" d="M352.5,334.238c-2.25,0-10.216-5.022-11.947-8.309s-4.157.342-6.406,1.555c-1.427.78-5.959-.728-9.008-1.9,1.546-1.046,3.848-4.128,4.851-4.842,1.208-.866,2.426-14.891,2.426-14.891,4.328-2.25,9,18.182,9,18.182s8.142,2.426,8.832,4.157a6.219,6.219,0,0,0,1.669,1.688C352.873,332.26,353.4,334.238,352.5,334.238Z" transform="translate(-200.855 -188.798)"/><path class="k" d="M446.94,614.43l75.293-62.78a4.033,4.033,0,0,1,2.692-.951l28.089.737s1.945,1.427-.908,4.547l-71.027,58.285a4.519,4.519,0,0,1-2.711,1.018L447.654,616.3a1.061,1.061,0,0,1-.713-1.874Z" transform="translate(-264.527 -317.287)"/><path class="f" d="M523.94,632.747s16.446,23.552,34.719,1.646,12.989-33.416,7.448-34.025S529.391,623.744,523.94,632.747Z" transform="translate(-305.105 -343.327)"/><path class="b" d="M757.17,85.931s21.2-41.14,46.252-19.923c0,0,5.469,1.993,5.056,7.776,0,0-2.107-1.156-3.781,3.263a21.351,21.351,0,0,1-2.378,4.437,10.463,10.463,0,0,1-5.279,3.986h0S785.8,93.893,764.97,87.4c0,0-5.888.847-6.839.114l6.844-5s3.476,5.16,8.561,5.75c0,0-8.561-5.374-7.581-6.54.2-.238,3.748-2.487,3.748-2.487s6.083,8.946,13.969,9.607c0,0-11.048-5.037-12.632-10.463l5.55-3.1s5.964,9.774,14.92,10.868c0,0-11.367-5.664-13.659-11.462l5.874-2.292s6.007,9.417,13.46,10.278c0,0-12.47-7.871-12.08-10.715,0,0,5.522-1.779,7.215-1.546,0,0,4.466,6.658,8.842,6.777,0,0-7.776-6.145-7.263-7.091,0,0,7.809-.4,11.89,1.484,0,0-5.8-3.229-11.89-2.706,0,0,2.754-3.239,6.345-3.952,0,0-4.3-1.769-8.237,4.071,0,0-6.074.556-6.825,1.232,0,0,3.072-6.316,6.853-9,0,0-5.636.994-8.428,9.555l-5.955,2.174s3.619-8.561,6.811-11.205c0,0-5.593,1.9-8.266,11.89l-5.479,2.977s2.554-7.61,5.47-11.324c0,0-4.808,2.882-7.01,12.233l-3.424,2.411s1.964-5.527,2.673-7.063.352-1.855.352-1.855a19.913,19.913,0,0,0-4.485,9.878S757.565,86.312,757.17,85.931Z" transform="translate(-427.409 -59.93)"/><path class="b" d="M941.5,147.9s9.579-18.591,20.9-9a3.56,3.56,0,0,1,2.283,3.51s-.951-.518-1.707,1.479a9.515,9.515,0,0,1-1.065,2,4.757,4.757,0,0,1-2.378,1.8h0s-5.084,3.8-14.5.87c0,0-2.659.38-3.087.052l3.092-2.264s1.569,2.335,3.871,2.6c0,0-3.862-2.426-3.424-2.954.086-.1,1.688-1.122,1.688-1.122s2.749,4.043,6.316,4.342c0,0-4.994-2.278-5.707-4.756l2.511-1.394s2.692,4.418,6.739,4.913c0,0-5.136-2.559-6.183-5.179l2.654-1.037s2.711,4.257,6.078,4.647c0,0-5.636-3.557-5.455-4.842a13.749,13.749,0,0,1,3.258-.7s2.017,3.011,4,3.058c0,0-3.515-2.773-3.282-3.2,0,0,3.529-.181,5.365.671a10.664,10.664,0,0,0-5.365-1.222,5.893,5.893,0,0,1,2.854-1.788s-1.945-.8-3.724,1.841a13.579,13.579,0,0,0-3.082.556,12.9,12.9,0,0,1,3.1-4.066s-2.549.447-3.8,4.318l-2.664,1s1.631-3.867,3.077-5.065c0,0-2.53.861-3.738,5.37l-2.473,1.341a21.759,21.759,0,0,1,2.468-5.118s-2.174,1.3-3.163,5.527l-1.551,1.089s.889-2.5,1.208-3.191.157-.837.157-.837a9.039,9.039,0,0,0-2.026,4.475S941.667,148.076,941.5,147.9Z" transform="translate(-524.071 -99.902)"/><path class="b" d="M723.27,193.384s9.579-18.591,20.927-9a3.569,3.569,0,0,1,2.283,3.515s-.951-.523-1.707,1.474a9.7,9.7,0,0,1-1.065,2,4.756,4.756,0,0,1-2.4,1.8h0s-5.079,3.8-14.492.87c0,0-2.659.385-3.087.052l3.091-2.264s1.569,2.335,3.867,2.6c0,0-3.862-2.43-3.424-2.958.09-.1,1.693-1.122,1.693-1.122s2.749,4.043,6.311,4.342c0,0-4.989-2.278-5.707-4.756l2.511-1.389s2.7,4.414,6.744,4.908c0,0-5.137-2.559-6.183-5.179l2.654-1.037s2.716,4.257,6.083,4.647c0,0-5.636-3.557-5.46-4.842a13.8,13.8,0,0,1,3.263-.7s2.016,3.011,4,3.063c0,0-3.515-2.777-3.282-3.206,0,0,3.524-.181,5.365.671a10.69,10.69,0,0,0-5.37-1.222,5.893,5.893,0,0,1,2.854-1.788s-1.94-.8-3.719,1.841a13.576,13.576,0,0,0-3.082.556,12.818,12.818,0,0,1,3.1-4.066s-2.549.447-3.8,4.319l-2.7,1s1.636-3.867,3.077-5.06c0,0-2.525.856-3.734,5.365l-2.478,1.341a21.85,21.85,0,0,1,2.473-5.117s-2.174,1.3-3.168,5.526l-1.551,1.089s.889-2.5,1.208-3.191.162-.837.162-.837a8.988,8.988,0,0,0-2.026,4.475S723.437,193.556,723.27,193.384Z" transform="translate(-409.632 -123.751)"/></g></svg>