<svg id="Layer_1-2" xmlns="http://www.w3.org/2000/svg" width="75.352" height="70.281" viewBox="0 0 75.352 70.281">
  <g id="Group_1010" data-name="Group 1010">
    <path id="Path_987" data-name="Path 987" d="M32.651,37.33V33.965a1.292,1.292,0,0,1,.673-1.231q6.485-3.844,12.957-7.7a1.212,1.212,0,0,1,1.346,0q6.507,3.866,13,7.76a1.3,1.3,0,0,1,.587.9c.043,3.679.258,7.387-.816,11-2.019,6.8-6.056,11.84-12.656,14.7a1.858,1.858,0,0,1-1.561,0c-6.815-2.964-10.909-8.2-12.813-15.29a23.209,23.209,0,0,1-.7-6.772Zm11.912,7.13c-.558-.587-1.074-1.131-1.6-1.661a1.168,1.168,0,1,0-1.618,1.661c.716.73,1.432,1.446,2.162,2.162.83.83,1.346.83,2.176,0,2.248-2.233,4.481-4.481,6.729-6.729a4.934,4.934,0,0,0,.372-.4A1.148,1.148,0,0,0,52.694,38a1.118,1.118,0,0,0-1.489-.129,3.806,3.806,0,0,0-.5.458l-6.142,6.142Z" transform="translate(14.093 10.717)" fill="#324b74"/>
    <g id="Group_1009" data-name="Group 1009">
      <g id="Group_1008" data-name="Group 1008">
        <g id="Group_1006" data-name="Group 1006" transform="translate(4.668 0.616)">
          <path id="Path_988" data-name="Path 988" d="M19.1,4.325V2.034L25,.86l5.913,1.174V4.325C48.218,9.335,46.27,26.845,46.27,26.845H3.75S1.8,9.335,19.1,4.325Z" transform="translate(-3.078 -0.244)" fill="#324b74"/>
          <path id="Path_989" data-name="Path 989" d="M3.331,27.1a24.658,24.658,0,0,1,1.217-9.635,20.255,20.255,0,0,1,4.61-7.731,21.727,21.727,0,0,1,9.535-5.655V1.733l6.5-1.3,6.514,1.3V4.066a22.083,22.083,0,0,1,9.535,5.655,20.436,20.436,0,0,1,4.61,7.731,24.658,24.658,0,0,1,1.217,9.635l-.057.53H3.389l-.057-.53ZM44.678,17.8C42.516,11.382,37.892,7.1,30.934,5.083l-.43-.129V2.706L25.193,1.647,19.881,2.706V4.954l-.43.129C12.494,7.1,7.87,11.368,5.708,17.8a24.694,24.694,0,0,0-1.217,8.633h41.4A24.345,24.345,0,0,0,44.678,17.8Z" transform="translate(-3.261 -0.43)" fill="#324b74"/>
        </g>
        <path id="Path_990" data-name="Path 990" d="M2.912,27.345a25.335,25.335,0,0,1,1.246-9.893A21.044,21.044,0,0,1,18.26,3.808V1.417L25.361,0l7.1,1.417V3.808a20.954,20.954,0,0,1,14.1,13.644,25.335,25.335,0,0,1,1.246,9.893l-.115,1.074H3.041l-.115-1.074ZM44.3,18.211C42.211,11.969,37.716,7.8,30.944,5.841l-.873-.258v-2.2l-4.71-.945-4.71.945v2.2l-.873.258C13.034,7.788,8.553,11.926,6.448,18.125a23.875,23.875,0,0,0-1.217,7.889H45.476a24.058,24.058,0,0,0-1.188-7.8Z" transform="translate(1.226)" fill="#324b74"/>
        <path id="Path_991" data-name="Path 991" d="M.84,20.542A2.365,2.365,0,0,0,3.2,22.9H49.273a2.365,2.365,0,0,0,2.362-2.362h0a2.365,2.365,0,0,0-2.362-2.362H3.2A2.365,2.365,0,0,0,.84,20.542Z" transform="translate(0.363 7.848)" fill="#324b74"/>
        <g id="Group_1007" data-name="Group 1007" transform="translate(0 24.825)">
          <path id="Path_992" data-name="Path 992" d="M.84,20.542A2.365,2.365,0,0,0,3.2,22.9H49.273a2.365,2.365,0,0,0,2.362-2.362h0a2.365,2.365,0,0,0-2.362-2.362H3.2A2.365,2.365,0,0,0,.84,20.542Z" transform="translate(0.363 -16.977)" fill="#324b74"/>
          <path id="Path_993" data-name="Path 993" d="M0,20.9A3.574,3.574,0,0,1,3.565,17.34H49.636a3.565,3.565,0,1,1,0,7.13H3.565A3.574,3.574,0,0,1,0,20.9Zm3.565-1.16a1.16,1.16,0,1,0,0,2.319H49.636a1.16,1.16,0,1,0,0-2.319Z" transform="translate(0 -17.34)" fill="#324b74"/>
        </g>
        <path id="Path_994" data-name="Path 994" d="M17.784,18.07a1.21,1.21,0,0,0,1.2-1.2c0-6.428-2.477-13.944-2.591-14.259a1.2,1.2,0,0,0-2.276.759c.029.072,2.462,7.473,2.462,13.5a1.21,1.21,0,0,0,1.2,1.2Z" transform="translate(6.067 0.771)" fill="#324b74"/>
        <path id="Path_995" data-name="Path 995" d="M20.553,18.07a1.21,1.21,0,0,0,1.2-1.2c0-6.042,2.434-13.429,2.462-13.5a1.2,1.2,0,0,0-2.276-.759c-.1.315-2.591,7.831-2.591,14.259A1.21,1.21,0,0,0,20.553,18.07Z" transform="translate(8.353 0.771)" fill="#324b74"/>
      </g>
      <path id="Path_996" data-name="Path 996" d="M10.852,24.83c0,.172-.029.329-.029.5a14.374,14.374,0,1,0,28.748,0c0-.172-.014-.344-.029-.5h7.616v3.894l-3.679.7a18.447,18.447,0,0,1-2.462,5.941l2.1,3.107-1.575,1.575-1.632,1.632L38.34,43.256l-3.107-2.1a18.447,18.447,0,0,1-5.941,2.462l-.7,3.679H21.819l-.7-3.679a18.316,18.316,0,0,1-5.941-2.462l-3.107,2.1-1.575-1.575L8.862,40.049,7.287,38.474l2.1-3.107a18.447,18.447,0,0,1-2.462-5.941l-3.679-.7V24.83h7.616Z" transform="translate(1.403 10.718)" fill="#324b74"/>
      <path id="Path_997" data-name="Path 997" d="M20.435,44.964a20.1,20.1,0,0,1-4.868-2.019l-3.293,2.233L6.089,38.994,8.323,35.7A19.545,19.545,0,0,1,6.3,30.833L2.41,30.089V24H12.489l-.057,1.246a1.157,1.157,0,0,1-.014.229v.215a13.171,13.171,0,0,0,26.343,0v-.458l-.043-1.246H48.782v6.085l-3.894.744a20.1,20.1,0,0,1-2.019,4.868L45.1,38.98l-6.185,6.185-3.293-2.233a19.545,19.545,0,0,1-4.868,2.019l-.744,3.894H21.251l-.744-3.894Zm8.189-1.99L29.4,42.8a17.372,17.372,0,0,0,5.555-2.3l.673-.43,2.935,1.99,3.379-3.379-1.99-2.935.43-.659a17.645,17.645,0,0,0,2.3-5.555l.172-.773,3.479-.673v-1.7H41.122a15.578,15.578,0,0,1-31.125,0H4.787v1.7l3.479.673.172.773a17.372,17.372,0,0,0,2.3,5.555l.43.673-1.99,2.935,3.379,3.379,2.935-1.99.673.43a17.507,17.507,0,0,0,5.555,2.3l.773.172.673,3.479h4.782l.673-3.479Z" transform="translate(1.04 10.356)" fill="#324b74"/>
    </g>
  </g>
</svg>
