<svg xmlns="http://www.w3.org/2000/svg" width="48.761" height="52.011" viewBox="0 0 48.761 52.011"><defs><style>.a{fill:#fac7b7;}.b{fill:#525252;}.c{fill:#3f3f3f;}.d{fill:#e56161;}.e{fill:#d65858;}.f{fill:#ffdecf;}.g{fill:#ffd3c2;}.h{fill:#bf4b4b;}.i{fill:#f29c9c;}.j{fill:#fff5f2;}</style></defs><g transform="translate(0 0)"><path class="a" d="M29.092,46.613a8.1,8.1,0,0,1-8.119-7.8l-.028-.706,1.646-.3V29.547h13v8.261l1.645.3-.028.706a8.1,8.1,0,0,1-8.119,7.8Z" transform="translate(-4.712 -4.354)"/><path class="b" d="M15.6,13.887a12.749,12.749,0,1,1,25.4,0Z" transform="translate(-3.916 0)"/><path class="c" d="M39.562,4.538a12.922,12.922,0,0,0-2.172-1.9,13.828,13.828,0,0,1-9.269,11.642H42.848a12.756,12.756,0,0,0-3.286-9.737Z" transform="translate(-5.769 -0.388)"/><path class="d" d="M50.667,57.794H1.906V49.27a8.123,8.123,0,0,1,6.673-8l11.176-2.032.037.935a6.5,6.5,0,0,0,12.989,0l.037-.935,11.176,2.032a8.123,8.123,0,0,1,6.673,8Z" transform="translate(-1.906 -5.783)"/><path class="e" d="M43.994,41.59l-1.133-.206A34.978,34.978,0,0,1,1.906,54.3v3.812H50.667V49.585A8.123,8.123,0,0,0,43.994,41.59Z" transform="translate(-1.906 -6.098)"/><path class="f" d="M28.067,33.483a11.193,11.193,0,0,1-10.515-7.361,3.721,3.721,0,0,1-3.015-2.776l-.463-1.853a2.782,2.782,0,0,1,1.733-3.281l-.229-1.117a13.071,13.071,0,0,1-.209-1.419l-.018-.194.072-.181a4.954,4.954,0,0,1,.679-1.189,5.2,5.2,0,0,1,6.751-1.243l1.2.707a7.24,7.24,0,0,0,8.032,0l1.2-.707a5.2,5.2,0,0,1,6.751,1.243,4.951,4.951,0,0,1,.679,1.189l.072.181-.019.194a13.02,13.02,0,0,1-.21,1.419l-.229,1.117a2.763,2.763,0,0,1,1.212.878,2.852,2.852,0,0,1,.506,2.468L41.6,23.346a3.72,3.72,0,0,1-3.014,2.774A11.194,11.194,0,0,1,28.067,33.483Z" transform="translate(-3.687 -1.788)"/><path class="g" d="M42.294,20.142a2.764,2.764,0,0,0-1.165-.859,15.86,15.86,0,0,1-22.016,9.629,11.193,11.193,0,0,0,20.226-1.739A3.72,3.72,0,0,0,42.352,24.4L42.8,22.61a2.852,2.852,0,0,0-.505-2.468Z" transform="translate(-4.442 -2.842)"/><path class="h" d="M50.375,59.736a.813.813,0,0,1-.813-.813V53.235a.813.813,0,1,1,1.625,0v5.689A.813.813,0,0,1,50.375,59.736Z" transform="translate(-8.929 -7.725)"/><path class="h" d="M10.344,59.736a.813.813,0,0,1-.813-.813V53.235a.813.813,0,1,1,1.625,0v5.689A.813.813,0,0,1,10.344,59.736Z" transform="translate(-3.03 -7.725)"/><circle class="i" cx="1.625" cy="1.625" r="1.625" transform="translate(4.876 37.79)"/><circle class="i" cx="1.219" cy="1.219" r="1.219" transform="translate(9.346 39.821)"/><g transform="translate(16.254 13.816)"><circle class="j" cx="1.625" cy="1.625" r="1.625"/><circle class="j" cx="1.219" cy="1.219" r="1.219" transform="translate(4.47 2.032)"/></g></g></svg>