<svg xmlns="http://www.w3.org/2000/svg" width="82.212" height="46.474" viewBox="0 0 82.212 46.474"><defs><style>.a{fill:#a2a2a2;}</style></defs><g transform="translate(-7.674 -24.279)"><path class="a" d="M42.962,33.42H29.8c-.752,0-.94.188-1.034.94-.564,4.42-1.222,8.745-1.787,13.165a33.189,33.189,0,0,0,0,4.326c.658,0,1.316.094,2.069.094v9.215c-.94-.094-1.787-.282-2.915-.47.094,1.222.094,2.257.282,3.291A6.028,6.028,0,0,0,28.1,67.837a4.048,4.048,0,0,0,2.539.282.7.7,0,0,0,.094-.47V50.441c0-.094,0-.094-.094-.282H28.574c.188-5.172,1.316-10.156,1.787-15.234H75.028c.658,0,.94.188,1.034.94.47,3.761,1.034,7.523,1.5,11.19.094.94,0,1.975,0,3.1H75.5V59.28c-.94.282-1.787.47-2.727.752v-9.78H61.016a1.231,1.231,0,0,1-1.128-.564c-2.069-2.633-4.138-5.172-6.112-7.711-.188-.282-.376-.47-.658-.846-1.787,2.257-3.761,4.42-5.36,6.771a4.745,4.745,0,0,1-4.89,2.351c-2.821-.188-5.642-.094-8.463-.094h-.94V68.119h15.8V52.98h7.8v15.14h9.968a8.8,8.8,0,0,1,.376-1.5,4.456,4.456,0,0,1,3.573-3.2,1.542,1.542,0,0,0,1.034-.658,6.621,6.621,0,0,1,10.626.658,1.122,1.122,0,0,0,.846.47A5.092,5.092,0,0,1,88,66.9c.376.846.752,1.5,1.881,1.128v2.727H14.093V68.119H17.76a2.785,2.785,0,0,0,2.915-1.881A27.332,27.332,0,0,0,21.8,62.571c.282-1.034,0-1.316-1.034-1.411-1.693-.094-3.479,0-5.078-1.034a3.879,3.879,0,0,1-1.411-1.6,6.028,6.028,0,0,0-1.975-2.351c-2.915-1.881-3.761-4.89-3.949-7.993-.094-1.787-.282-3.479-.47-5.172a12.8,12.8,0,0,1,4.8-12.6A4.723,4.723,0,0,0,13.9,29.283c.94-1.787,2.539-2.539,4.138-3.385a13.12,13.12,0,0,1,13.259.376A16.09,16.09,0,0,0,35.439,27.5,12.362,12.362,0,0,1,42.962,33.42Z" transform="translate(0 0)"/><path class="a" d="M47.093,54.9v9.4H39.1V54.9Z" transform="translate(-1.874 -1.826)"/><path class="a" d="M64.5,54.9h7.993v9.31H64.5Z" transform="translate(-3.389 -1.826)"/></g></svg>