<svg xmlns="http://www.w3.org/2000/svg" width="228.142" height="221.228" viewBox="0 0 228.142 221.228"><defs><style>.a{fill:#f0f0f0;}.b{fill:#e0e0e0;}.c{fill:#fb2e49;}.d{opacity:0.6;}.e{opacity:0.3;}.f,.n,.o{opacity:0.5;}.g{fill:#263238;}.h,.q{opacity:0.7;}.i,.l,.q,.w{fill:#fff;}.i{opacity:0.4;}.j{opacity:0.1;}.k{fill:#fafafa;}.m{fill:#e6e6e6;}.n,.p{fill:#455a64;}.r{fill:#f5f5f5;}.s{fill:#ebebeb;}.t,.w{opacity:0.2;}.u{fill:#ffa8a7;}.v{fill:#f28f8f;}.x{fill:#b16668;}.y{fill:#37474f;}.z{fill:#9a4a4d;}.aa{opacity:0.15;}</style></defs><g transform="translate(-14.56 -26.061)"><g transform="translate(14.56 115.57)"><ellipse class="a" cx="114.071" cy="65.859" rx="114.071" ry="65.859"/></g><g transform="translate(21.494 124.644)"><path class="b" d="M49.39,309.92,29.714,298.586a1.224,1.224,0,0,1,0-2.319l114.454-66.1a4.42,4.42,0,0,1,4.018,0l19.676,11.358a1.224,1.224,0,0,1,0,2.319L53.408,309.92a4.449,4.449,0,0,1-4.018,0Z" transform="translate(-28.883 -229.682)"/><path class="b" d="M195.578,339.793,148.32,312.511l59.057-34.031,47.2,27.248Z" transform="translate(-90.494 -254.854)"/><ellipse class="b" cx="22.339" cy="12.898" rx="22.339" ry="12.898" transform="translate(147.99 71.31)"/><path class="b" d="M431.324,370.412c2.421,1.4,2.421,3.665,0,5.064a9.7,9.7,0,0,1-8.768,0c-2.421-1.394-2.421-3.665,0-5.064A9.682,9.682,0,0,1,431.324,370.412Z" transform="translate(-231.021 -301.736)"/></g><g transform="translate(36.11 26.061)"><path class="c" d="M186.168,300.912l16.916-9.78c1.743-1.007,2.614-2.324,2.614-3.646v-2.353l-17.551-9.9a3.718,3.718,0,0,1-1.685-2.9V251.47L156.93,268.541v20.852a3.728,3.728,0,0,0,1.685,2.9l14.931,8.6A13.894,13.894,0,0,0,186.168,300.912Z" transform="translate(-109.551 -142.338)"/><g class="d" transform="translate(47.379 109.133)"><path d="M186.168,300.912l16.916-9.78c1.743-1.007,2.614-2.324,2.614-3.646v-2.353l-17.551-9.9a3.718,3.718,0,0,1-1.685-2.9V251.47L156.93,268.541v20.852a3.728,3.728,0,0,0,1.685,2.9l14.931,8.6A13.894,13.894,0,0,0,186.168,300.912Z" transform="translate(-156.93 -251.47)"/></g><path class="e" d="M164.018,307.8v2.343l-5.418-3.123a3.713,3.713,0,0,1-1.68-2.9V283.258L162.546,280c.116,1.452.247,2.9.363,4.357l-3.951,2.285v16.292a3.694,3.694,0,0,0,1.685,2.9Z" transform="translate(-109.546 -157.055)"/><path class="c" d="M161.13,291.828a3.718,3.718,0,0,0,1.685,2.9L175.7,302.16a13.974,13.974,0,0,0,12.632,0l16.945-9.78c3.491-2.014,3.491-5.277,0-7.291l-12.893-7.427a3.713,3.713,0,0,1-1.685-2.9v-16.3l-29.533,17.071Z" transform="translate(-111.717 -145.943)"/><path class="e" d="M161.13,291.828a3.718,3.718,0,0,0,1.685,2.9L175.7,302.16a13.974,13.974,0,0,0,12.632,0l16.945-9.78c3.491-2.014,3.491-5.277,0-7.291l-12.893-7.427a3.713,3.713,0,0,1-1.685-2.9v-16.3l-29.533,17.071Z" transform="translate(-111.717 -145.943)"/><path class="f" d="M195.806,279.651h0l-3.428-1.98a3.713,3.713,0,0,1-1.685-2.9V258.46L161.16,275.531v16.3a3.718,3.718,0,0,0,1.685,2.9l3.389,1.937Z" transform="translate(-111.733 -145.943)"/><path class="c" d="M230.407,321v2.353c0,1.322-.876,2.634-2.614,3.646l-16.945,9.775a12.7,12.7,0,0,1-6.028,1.5v-2.343a12.7,12.7,0,0,0,6.028-1.5l16.945-9.785C229.531,323.648,230.407,322.327,230.407,321Z" transform="translate(-134.255 -178.204)"/><path class="f" d="M230.407,321v2.353c0,1.322-.876,2.634-2.614,3.646l-16.945,9.775a12.7,12.7,0,0,1-6.028,1.5v-2.343a12.7,12.7,0,0,0,6.028-1.5l16.945-9.785C229.531,323.648,230.407,322.327,230.407,321Z" transform="translate(-134.255 -178.204)"/><path class="c" d="M61.051,192.2a4.527,4.527,0,0,0,4.081-.073l114.26-65.966a4.658,4.658,0,0,0,2.106-3.646V30.084a4.512,4.512,0,0,0-1.98-3.563,4.5,4.5,0,0,0-4.077.077L61.181,92.559a4.638,4.638,0,0,0-2.1,3.641v92.434a4.512,4.512,0,0,0,1.971,3.568Z" transform="translate(-59.075 -26.066)"/><path class="c" d="M69.336,194.8,183.6,128.833a4.653,4.653,0,0,0,2.106-3.646V32.758c0-1.341-.944-1.888-2.106-1.215L69.336,97.509a4.653,4.653,0,0,0-2.106,3.646v92.43C67.23,194.925,68.174,195.472,69.336,194.8Z" transform="translate(-63.279 -28.74)"/><path class="f" d="M69.336,194.8,183.6,128.833a4.653,4.653,0,0,0,2.106-3.646V32.758c0-1.341-.944-1.888-2.106-1.215L69.336,97.509a4.653,4.653,0,0,0-2.106,3.646v92.43C67.23,194.925,68.174,195.472,69.336,194.8Z" transform="translate(-63.279 -28.74)"/><path class="c" d="M64.817,361.145a3.935,3.935,0,0,1-5.747-3.655v-8.41l3.946,2.285v8.415C63.016,361,63.8,361.561,64.817,361.145Z" transform="translate(-59.07 -192.689)"/><path class="f" d="M64.817,361.145a3.935,3.935,0,0,1-5.747-3.655v-8.41l3.946,2.285v8.415C63.016,361,63.8,361.561,64.817,361.145Z" transform="translate(-59.07 -192.689)"/><path class="c" d="M67.22,280.906v8.415c0,1.341.968,1.883,2.106,1.215l114.26-65.966a4.658,4.658,0,0,0,2.106-3.646V212.49Z" transform="translate(-63.274 -122.23)"/><path class="e" d="M67.23,280.886v8.434c0,1.341.968,1.883,2.106,1.215L183.6,224.57a4.658,4.658,0,0,0,2.106-3.646V212.49Z" transform="translate(-63.279 -122.23)"/><path class="c" d="M75.38,183.768v-74.4a2.784,2.784,0,0,1,1.259-2.184L184.687,44.816c.7-.4,1.264-.077,1.264.726v74.385a2.789,2.789,0,0,1-1.264,2.188L76.648,184.494C75.946,184.9,75.38,184.567,75.38,183.768Z" transform="translate(-67.483 -35.647)"/><path class="g" d="M75.38,183.768v-74.4a2.784,2.784,0,0,1,1.259-2.184L184.687,44.816c.7-.4,1.264-.077,1.264.726v74.385a2.789,2.789,0,0,1-1.264,2.188L76.648,184.494C75.946,184.9,75.38,184.567,75.38,183.768Z" transform="translate(-67.483 -35.647)"/><path class="h" d="M63.64,168.906a4.479,4.479,0,0,0-.625,2.077v86.266l-3.946-2.285V168.707a4.3,4.3,0,0,1,.62-2.077Z" transform="translate(-59.07 -98.573)"/><path class="e" d="M182.129,29.73c-.15-1.085-1.026-1.477-2.087-.871L65.787,94.829A4.328,4.328,0,0,0,64.3,96.393l-3.951-2.28a4.357,4.357,0,0,1,1.491-1.564L176.1,26.588a4.512,4.512,0,0,1,4.081-.077,4.537,4.537,0,0,1,1.946,3.22Z" transform="translate(-59.73 -26.061)"/></g><g transform="translate(51.845 39.834)"><path class="c" d="M92.578,128.72a2.251,2.251,0,0,1-.968-1.777v-8.187a2.329,2.329,0,0,1,1.051-1.816L200.186,54.848a1.966,1.966,0,0,1,3.011,1.738v8.182a2.3,2.3,0,0,1-1.046,1.816l-107.545,62.1A2.237,2.237,0,0,1,92.578,128.72Z" transform="translate(-91.591 -54.528)"/><path class="i" d="M203.5,56.4c-.073-.542-.513-.741-1.036-.436L94.916,118.06a2.227,2.227,0,0,0-.741.784l-1.966-1.157a2.184,2.184,0,0,1,.741-.784L200.5,54.829a1.937,1.937,0,0,1,3,1.569Z" transform="translate(-91.9 -54.51)"/><path class="a" d="M94.607,276.931a1.757,1.757,0,0,1-.823.252,2.063,2.063,0,0,1-1.206-.213,2.237,2.237,0,0,1-.968-1.777V212.82l1.97,1.138v62.373c0,.484.237.75.581.75a1.007,1.007,0,0,0,.445-.15Z" transform="translate(-91.591 -136.174)"/><path class="j" d="M93.846,186.178a2.13,2.13,0,0,0-.305,1.031v12.419L91.57,198.49V185.945a2.028,2.028,0,0,1,.044-.257,2.339,2.339,0,0,1,.261-.649Z" transform="translate(-91.57 -121.844)"/><path class="c" d="M205.256,57.963v5.6L128.13,108.106c-.576.334-1.046.063-1.046-.605v-2.121c0-.668-.484-.939-1.051-.605L100.6,119.46a2.314,2.314,0,0,0-1.051,1.816V123.4a2.324,2.324,0,0,1-1.046,1.816l-2.9,1.665v-5.606a2.324,2.324,0,0,1,1.046-1.816l107.564-62.1C204.786,57.024,205.256,57.295,205.256,57.963Z" transform="translate(-93.649 -55.905)"/><path class="k" d="M205.276,139.51a2.319,2.319,0,0,1-1.046,1.82L96.686,203.423c-.576.334-1.046.063-1.046-.605V133.633l2.9-1.665c.576-.334,1.515-5.418,2.1-5.752l25.006-14.442c.581-.334,1.937,3.423,2.522,3.089L205.3,70.32v69.185Z" transform="translate(-93.669 -62.665)"/><path class="b" d="M204.772,71.168v68.348a1.835,1.835,0,0,1-.8,1.4l-107.545,62.1a.484.484,0,0,1-.223.077c-.1,0-.1-.252-.1-.266V133.914l2.643-1.525c.421-.242.683-1.055,1.268-3.152a15.492,15.492,0,0,1,.867-2.619l24.784-14.326a11.309,11.309,0,0,1,.789,1.259c.673,1.186,1.051,1.806,1.6,1.806a.62.62,0,0,0,.32-.087l76.4-44.116m-78.917,41.032h0m-24.953,14.4h0M205.256,70.33,128.13,114.872a.14.14,0,0,1-.077,0c-.586,0-1.777-3.128-2.368-3.128a.155.155,0,0,0-.077,0L100.6,126.187c-.581.334-1.52,5.418-2.1,5.752L95.6,133.6v69.224c0,.484.237.75.581.75a.939.939,0,0,0,.484-.145L204.21,141.341a2.319,2.319,0,0,0,1.046-1.82Z" transform="translate(-93.649 -62.671)"/><path class="a" d="M132.9,254.652l14.331-8.274c.387-.223.7-.044.7.4v24.135a1.54,1.54,0,0,1-.7,1.21L132.9,280.4c-.387.223-.7.039-.7-.407v-24.13A1.54,1.54,0,0,1,132.9,254.652Z" transform="translate(-112.529 -153.435)"/><path class="b" d="M138.307,260.991l9.092-5.248c.382-.223.7-.063.7.353a1.505,1.505,0,0,1-.7,1.162l-9.092,5.248c-.382.223-.7.063-.7-.353A1.51,1.51,0,0,1,138.307,260.991Z" transform="translate(-115.32 -158.264)"/><path class="c" d="M137.61,273.655v.547c0,.266.189.373.421.242l.484-.276a.915.915,0,0,0,.421-.726V272.9c0-.271-.189-.378-.421-.242l-.484.271A.93.93,0,0,0,137.61,273.655Z" transform="translate(-115.32 -167.01)"/><path class="b" d="M143,266.9c0,.416.315.576.7.353l6.468-3.738a1.5,1.5,0,0,0,.7-1.157c0-.421-.315-.576-.7-.353l-6.468,3.733A1.5,1.5,0,0,0,143,266.9Z" transform="translate(-118.1 -161.492)"/><path class="c" d="M137.61,279.875v.547c0,.266.189.373.421.242l.484-.276a.925.925,0,0,0,.421-.726v-.542c0-.271-.189-.378-.421-.242l-.484.271A.93.93,0,0,0,137.61,279.875Z" transform="translate(-115.32 -170.219)"/><path class="b" d="M143,273.157c0,.416.315.576.7.353l6.468-3.738a1.5,1.5,0,0,0,.7-1.157c0-.421-.315-.576-.7-.353l-6.468,3.733A1.5,1.5,0,0,0,143,273.157Z" transform="translate(-118.1 -164.721)"/><path class="c" d="M137.61,286.163v.542c0,.271.189.378.421.242l.484-.271a.93.93,0,0,0,.421-.726V285.4c0-.266-.189-.373-.421-.242l-.484.276A.925.925,0,0,0,137.61,286.163Z" transform="translate(-115.32 -173.462)"/><path class="b" d="M143,279.4c0,.421.315.576.7.353l6.468-3.733a1.5,1.5,0,0,0,.7-1.157c0-.421-.315-.576-.7-.353l-6.468,3.733A1.5,1.5,0,0,0,143,279.4Z" transform="translate(-118.1 -167.945)"/><path class="c" d="M137.61,292.421v.547c0,.266.189.378.421.242l.484-.271a.929.929,0,0,0,.421-.726v-.533c0-.266-.189-.378-.421-.242l-.484.271a.93.93,0,0,0-.421.712Z" transform="translate(-115.32 -176.699)"/><path class="b" d="M143,285.667c0,.416.315.576.7.353l6.478-3.743a1.511,1.511,0,0,0,.7-1.162c0-.416-.315-.576-.7-.353l-6.468,3.733A1.506,1.506,0,0,0,143,285.667Z" transform="translate(-118.1 -171.17)"/><path class="b" d="M138.2,295.45l9.088-5.248c.387-.223.7-.068.7.353a1.5,1.5,0,0,1-.7,1.157l-9.088,5.248c-.387.223-.7.068-.7-.353a1.491,1.491,0,0,1,.7-1.157Z" transform="translate(-115.263 -176.039)"/><path class="c" d="M137.49,308.106v.547c0,.266.189.378.421.242l.484-.271a.925.925,0,0,0,.416-.726v-.547c0-.266-.189-.378-.416-.242l-.484.271a.93.93,0,0,0-.421.726Z" transform="translate(-115.258 -184.782)"/><path class="b" d="M142.91,301.348c0,.416.315.576.7.353l6.468-3.733a1.506,1.506,0,0,0,.7-1.162c0-.416-.315-.576-.7-.353l-6.468,3.733A1.511,1.511,0,0,0,142.91,301.348Z" transform="translate(-118.054 -179.264)"/><path class="l" d="M310.537,65.808c.731-.421,1.322-.077,1.322.765a2.9,2.9,0,0,1-1.322,2.285c-.726.416-1.317.077-1.317-.765A2.9,2.9,0,0,1,310.537,65.808Z" transform="translate(-203.844 -60.245)"/><path class="l" d="M300.727,71.477c.731-.421,1.322-.082,1.322.76a2.905,2.905,0,0,1-1.322,2.3c-.726.421-1.317.077-1.317-.76a2.9,2.9,0,0,1,1.317-2.3Z" transform="translate(-198.784 -63.169)"/><ellipse class="l" cx="1.864" cy="1.075" rx="1.864" ry="1.075" transform="translate(95.335 13.649) rotate(-60)"/><path class="m" d="M205.276,70.33v6.817L95.64,140.455v-6.817l2.154-1.249c.576-.334.77-.842,1.046-1.816l.731-2.537a2.681,2.681,0,0,1,1.051-1.816l25.006-14.442c.581-.334,1.036-.368,1.452.363l.9,1.627c.329.566.484.9,1.07.566Z" transform="translate(-93.669 -62.671)"/><path class="b" d="M93.54,199.883V206.7l-1.971-1.138V198.75Z" transform="translate(-91.57 -128.916)"/><path class="n" d="M103.306,201.508l-1.646.968.629-1.206a.31.31,0,0,0,0-.3c-.048-.058-.136,0-.189.092l-.891,1.714h0a.1.1,0,0,1-.024.063h0a.275.275,0,0,0,0,.087.184.184,0,0,0,0,.077h0a.271.271,0,0,0,.024.039h0l.891.683a.073.073,0,0,0,.087,0,.252.252,0,0,0,.1-.126.266.266,0,0,0,0-.281l-.629-.484,1.646-.968a.344.344,0,0,0,.136-.281C103.442,201.522,103.379,201.459,103.306,201.508Z" transform="translate(-96.528 -130.052)"/><path class="n" d="M108.271,198.465l1.646-.968-.629-.484c-.053-.039-.058-.165,0-.281s.131-.165.184-.126l.9.687h0a.063.063,0,0,1,0,.034h0a.3.3,0,0,1,0,.073.6.6,0,0,1,0,.092h0a.337.337,0,0,1,0,.063h0l-.9,1.719a.232.232,0,0,1-.087.1.068.068,0,0,1-.1,0,.305.305,0,0,1,0-.3l.629-1.206-1.646.968c-.073.044-.131,0-.131-.126A.353.353,0,0,1,108.271,198.465Z" transform="translate(-100.118 -127.803)"/><path class="n" d="M117.6,190.6c0-.1-.1-.082-.14.024l-.223.552c-.387-.044-.852.334-1.167,1a2.231,2.231,0,0,0,0,2.275.581.581,0,0,0,.741.044,2.019,2.019,0,0,0,.736-.9.281.281,0,0,0,0-.29c-.048-.048-.136,0-.184.111-.305.644-.8.93-1.1.634a1.66,1.66,0,0,1,0-1.7c.213-.455.528-.726.8-.746l-.169.416c-.044.107,0,.208.063.165l.673-.441a.2.2,0,0,0,.073-.184Z" transform="translate(-104.053 -124.679)"/><path class="n" d="M154.833,160.567l.6-1.268a.382.382,0,0,0,0-.4c-.073-.068-.184,0-.257.15l-.6,1.268-.6-.576c-.068-.068-.184,0-.257.145a.407.407,0,0,0,0,.4l.586.586-.6,1.273a.4.4,0,0,0,0,.392.107.107,0,0,0,.131,0,.383.383,0,0,0,.126-.155l.6-1.273.6.581a.1.1,0,0,0,.131,0,.353.353,0,0,0,.126-.155.382.382,0,0,0,0-.4Z" transform="translate(-123.595 -108.347)"/><path class="k" d="M124.07,135.508v-2.121a2.314,2.314,0,0,1,1.051-1.816L213,80.848c.576-.334,1.046-.063,1.046.605v2.121A2.324,2.324,0,0,1,213,85.389l-87.878,50.725C124.52,136.448,124.07,136.177,124.07,135.508Z" transform="translate(-108.335 -68.022)"/><path class="b" d="M304.093,86.685a.257.257,0,0,1-.092,0,.286.286,0,0,1-.16-.315l.1-.862-.4-.29a.281.281,0,0,1-.111-.237.484.484,0,0,1,.174-.363l.615-.484a.107.107,0,0,0,.024-.048l.276-.905a.387.387,0,0,1,.31-.29.242.242,0,0,1,.242.145h0l.232.484.518-.2a.252.252,0,0,1,.281.063.392.392,0,0,1,0,.426l-.445.833V84.7l.1.755a.484.484,0,0,1-.116.4.3.3,0,0,1-.242.1l-.484-.063-.542.692a.31.31,0,0,1-.281.111Zm-.3-1.753.4.29a.31.31,0,0,1,.107.29l-.068.571.363-.46a.315.315,0,0,1,.276-.136l.484.063a.162.162,0,0,0,0-.058l-.106-.755a.484.484,0,0,1,.053-.271l.392-.731-.4.155a.247.247,0,0,1-.32-.131l-.179-.382-.247.8a.483.483,0,0,1-.15.228l-.62.484a.109.109,0,0,0,.014.039Zm1.549-1.327Z" transform="translate(-200.857 -69.149)"/><g class="o" transform="translate(106.583 10.143)"><path class="p" d="M312.075,77.89a.363.363,0,0,1-.179-.678l2.949-1.7a.363.363,0,1,1,.363.629l-2.948,1.7A.363.363,0,0,1,312.075,77.89Z" transform="translate(-311.714 -75.459)"/><path class="p" d="M312.075,81.41a.363.363,0,0,1-.179-.678l2.949-1.7a.363.363,0,1,1,.363.629l-2.948,1.7A.417.417,0,0,1,312.075,81.41Z" transform="translate(-311.714 -77.275)"/><path class="p" d="M312.075,84.933a.363.363,0,0,1-.179-.678l2.949-1.7a.358.358,0,0,1,.484.131.363.363,0,0,1-.131.484l-2.948,1.7a.368.368,0,0,1-.174.068Z" transform="translate(-311.714 -79.094)"/></g><path class="p" d="M95.635,147.718l0,6.807L205.261,91.232l.01-6.822Z" transform="translate(-93.664 -69.934)"/><path class="k" d="M121,195.264v1.317c0,.271.189.378.421.242l16.461-9.514V185l-16.461,9.514a.939.939,0,0,0-.421.75Z" transform="translate(-106.751 -121.823)"/><path class="c" d="M158.127,182.308c.237-.136.426-.024.426.247v1.317a.925.925,0,0,1-.426.731l-2.227,1.288v-2.309Z" transform="translate(-124.754 -120.405)"/><path class="k" d="M158.794,185.061l-.247-.077a1.451,1.451,0,0,0,.039-.32.581.581,0,0,0-.228-.528.344.344,0,0,0-.358,0,1.264,1.264,0,0,0-.484,1.031.581.581,0,0,0,.228.533.3.3,0,0,0,.16.044.383.383,0,0,0,.2-.063,1.075,1.075,0,0,0,.4-.537l.247.077h.029a.092.092,0,0,0,.087-.063A.1.1,0,0,0,158.794,185.061Zm-.794.484a.165.165,0,0,1-.179,0,.436.436,0,0,1-.136-.373,1.1,1.1,0,0,1,.407-.871.208.208,0,0,1,.111-.034.135.135,0,0,1,.063,0,.426.426,0,0,1,.136.373,1.1,1.1,0,0,1-.4.9Z" transform="translate(-125.586 -121.351)"/><path class="k" d="M113.424,208.569l-1.123.663a.93.93,0,0,0-.421.726v1.3c0,.271.189.378.421.242l1.123-.649a.925.925,0,0,0,.421-.726v-1.3C113.846,208.544,113.657,208.433,113.424,208.569Z" transform="translate(-102.047 -133.951)"/><path class="c" d="M194.1,160.712a3.326,3.326,0,0,0-1.5,2.6c0,.968.673,1.346,1.5.867a3.326,3.326,0,0,0,1.5-2.6C195.6,160.625,194.929,160.233,194.1,160.712Z" transform="translate(-143.686 -109.188)"/><path class="l" d="M195.04,162.954a.266.266,0,0,1-.136-.034.329.329,0,0,1-.145-.3.871.871,0,0,1,.4-.687h0a.334.334,0,0,1,.334,0,.329.329,0,0,1,.145.3.872.872,0,0,1-.4.688A.4.4,0,0,1,195.04,162.954Z" transform="translate(-144.799 -109.9)"/><path class="l" d="M195.413,164.241a.523.523,0,0,0-.533.039l-.218.126a1.452,1.452,0,0,0-.673,1.172v.155a.847.847,0,0,0,.828-.087,2.42,2.42,0,0,0,.828-.871v-.039A.537.537,0,0,0,195.413,164.241Z" transform="translate(-144.403 -111.086)"/><path class="b" d="M202,152.084l10.288-5.945c.416-.237.755-.058.755.412a1.632,1.632,0,0,1-.755,1.278L202,153.764c-.416.242-.755.058-.755-.407A1.636,1.636,0,0,1,202,152.084Z" transform="translate(-148.143 -101.722)"/><path class="b" d="M234.435,135.745l6.386-3.718c.416-.242.75-.058.755.407a1.646,1.646,0,0,1-.755,1.278l-6.386,3.723c-.416.237-.755.058-.755-.411a1.646,1.646,0,0,1,.755-1.278Z" transform="translate(-164.877 -94.441)"/><path class="b" d="M258.835,122.963l4.406-2.556c.416-.242.755-.058.755.407a1.636,1.636,0,0,1-.755,1.278l-4.406,2.561c-.416.237-.755.058-.755-.407A1.646,1.646,0,0,1,258.835,122.963Z" transform="translate(-177.464 -88.447)"/><path class="g" d="M229.484,144.75a.184.184,0,0,1-.184-.184V142.3a.184.184,0,0,1,.363,0v2.271A.184.184,0,0,1,229.484,144.75Z" transform="translate(-162.618 -99.714)"/><path class="g" d="M253.854,130.68a.184.184,0,0,1-.184-.184v-2.271a.184.184,0,0,1,.363,0V130.5A.184.184,0,0,1,253.854,130.68Z" transform="translate(-175.189 -92.456)"/><path class="g" d="M274.161,118.892a.184.184,0,0,1-.184-.179v-2.271a.184.184,0,1,1,.363,0v2.271A.184.184,0,0,1,274.161,118.892Z" transform="translate(-185.663 -86.347)"/><path class="c" d="M280.5,113.453v-.416c0-.484-.29-.7-.649-.484h0a1.554,1.554,0,0,0-.644,1.235v.392a1.486,1.486,0,0,1-.218.731h0a.382.382,0,0,0-.053.189h0c0,.121.073.174.16.126l1.515-.871a.4.4,0,0,0,.16-.315h0a.16.16,0,0,0-.048-.126h0A.445.445,0,0,1,280.5,113.453Z" transform="translate(-188.224 -84.408)"/><path class="c" d="M280.815,117.1a.75.75,0,0,1-.315.6c-.169.1-.31,0-.31-.237Z" transform="translate(-188.869 -86.797)"/><path class="c" d="M287.544,109.422a.315.315,0,0,1-.15-.039.373.373,0,0,1-.165-.339.968.968,0,0,1,.445-.775h0a.382.382,0,0,1,.378-.029.373.373,0,0,1,.165.339.969.969,0,0,1-.445.775A.484.484,0,0,1,287.544,109.422Z" transform="translate(-192.5 -82.208)"/><path class="c" d="M287.963,110.937a.586.586,0,0,0-.6.048l-.247.14a1.665,1.665,0,0,0-.76,1.322v.174a.968.968,0,0,0,.934-.1,2.769,2.769,0,0,0,.934-.968v-.044A.62.62,0,0,0,287.963,110.937Z" transform="translate(-192.052 -83.587)"/><path class="c" d="M290.023,107.1a.266.266,0,0,1-.15-.039.363.363,0,0,1-.165-.339.968.968,0,0,1,.445-.775h0a.334.334,0,0,1,.537.315.968.968,0,0,1-.445.77A.421.421,0,0,1,290.023,107.1Z" transform="translate(-193.778 -81.004)"/><path class="c" d="M290.587,108.574a.591.591,0,0,0-.6.044l-.242.145a1.564,1.564,0,0,0-.625.736.552.552,0,0,1,.528,0,.615.615,0,0,1,.266.562v.107a2.687,2.687,0,0,0,.939-.968v-.044A.615.615,0,0,0,290.587,108.574Z" transform="translate(-193.476 -82.367)"/><path class="c" d="M297.012,102.062a2.726,2.726,0,0,0-1.235,2.14.934.934,0,0,0,.276.731l-.155.731c0,.092.044.131.1.063l.557-.649a1.288,1.288,0,0,0,.455-.16,2.731,2.731,0,0,0,1.23-2.14C298.242,101.989,297.69,101.669,297.012,102.062Z" transform="translate(-196.909 -78.953)"/><path class="c" d="M309.714,95a.682.682,0,0,1,.3-.107.411.411,0,0,1,.247.044.407.407,0,0,1,.165.194.762.762,0,0,1,.063.334,1.188,1.188,0,0,1-.034.3,2.54,2.54,0,0,1-.087.271c-.039.082-.077.165-.121.242s-.082.15-.121.223a2.323,2.323,0,0,0-.106.223.938.938,0,0,0-.068.218.789.789,0,0,1-.024.1.136.136,0,0,1-.053.063l-.349.2a.044.044,0,0,1-.058,0,.1.1,0,0,1-.024-.073,1.086,1.086,0,0,1,.039-.281,2.57,2.57,0,0,1,.1-.271c.039-.082.082-.169.126-.247s.087-.155.126-.228a1.521,1.521,0,0,0,.1-.2.485.485,0,0,0,.039-.189c0-.087,0-.14-.063-.165s-.106,0-.194.039a.546.546,0,0,0-.189.169.831.831,0,0,0-.082.179.654.654,0,0,1-.044.155.193.193,0,0,1-.073.107l-.353.2a.039.039,0,0,1-.048,0,.083.083,0,0,1,0-.058,1.564,1.564,0,0,1,.053-.363,2.363,2.363,0,0,1,.16-.407,2.177,2.177,0,0,1,.252-.382A1.2,1.2,0,0,1,309.714,95Zm.252,2.9a.237.237,0,0,1-.024.1.159.159,0,0,1-.053.068l-.368.208a.039.039,0,0,1-.053,0,.1.1,0,0,1-.024-.073v-.45a.237.237,0,0,1,.024-.1.131.131,0,0,1,.053-.068l.368-.213a.044.044,0,0,1,.053,0,.1.1,0,0,1,.024.073Z" transform="translate(-203.689 -75.341)"/><path class="c" d="M132.19,168.844V189.13c0,.668.484.939,1.051.605l72.139-41.666a2.324,2.324,0,0,0,1.046-1.816V125.973c0-.668-.484-.939-1.046-.605l-72.139,41.661A2.314,2.314,0,0,0,132.19,168.844Z" transform="translate(-112.524 -90.988)"/><path class="q" d="M132.19,168.844V189.13c0,.668.484.939,1.051.605l72.139-41.666a2.324,2.324,0,0,0,1.046-1.816V125.973c0-.668-.484-.939-1.046-.605l-72.139,41.661A2.314,2.314,0,0,0,132.19,168.844Z" transform="translate(-112.524 -90.988)"/><path class="c" d="M140.186,220.847a8.708,8.708,0,0,0-3.936,6.817c0,2.508,1.762,3.525,3.936,2.271a8.675,8.675,0,0,0,3.931-6.817C144.113,220.6,142.355,219.593,140.186,220.847Z" transform="translate(-114.618 -140.037)"/><path class="l" d="M142.652,226.658a.673.673,0,0,1-.349-.092.852.852,0,0,1-.378-.789,2.251,2.251,0,0,1,1.031-1.791h0a.775.775,0,0,1,1.254.721,2.256,2.256,0,0,1-1.036,1.791,1.05,1.05,0,0,1-.523.16Z" transform="translate(-117.544 -141.844)"/><path class="l" d="M143.618,230.079a1.356,1.356,0,0,0-1.385.107l-.571.329a3.873,3.873,0,0,0-1.772,3.065v.407a2.2,2.2,0,0,0,2.174-.232,6.294,6.294,0,0,0,2.169-2.276v-.1A1.453,1.453,0,0,0,143.618,230.079Z" transform="translate(-116.496 -145.004)"/><path class="p" d="M157.315,214.466l8.332-4.808c.416-.242.755-.087.755.339a1.588,1.588,0,0,1-.755,1.21l-8.332,4.808c-.416.242-.755.092-.755-.339a1.588,1.588,0,0,1,.755-1.21Z" transform="translate(-125.095 -134.484)"/><path class="p" d="M157.005,223.284l4.9-2.827c.242-.145.441-.053.441.2a.939.939,0,0,1-.441.712l-4.9,2.827c-.247.14-.445.053-.445-.2A.925.925,0,0,1,157.005,223.284Z" transform="translate(-125.095 -140.077)"/><path class="r" d="M133.241,208.679l72.139-41.637a2.324,2.324,0,0,0,1.046-1.816V161.9L132.19,204.743v3.331C132.19,208.742,132.66,209.013,133.241,208.679Z" transform="translate(-112.524 -109.907)"/><path class="s" d="M172.619,231.484a.174.174,0,0,1-.179-.179v-2.271a.179.179,0,0,1,.179-.184.184.184,0,0,1,.184.184V231.3a.179.179,0,0,1-.184.179Z" transform="translate(-133.287 -144.443)"/><path class="b" d="M153.835,236.392l6.381-3.723c.416-.237.755-.058.755.412a1.646,1.646,0,0,1-.755,1.278l-6.381,3.743c-.416.242-.755.058-.755-.407a1.646,1.646,0,0,1,.755-1.3Z" transform="translate(-123.3 -146.359)"/><path class="s" d="M196.429,217.654a.179.179,0,0,1-.179-.184V215.2a.179.179,0,0,1,.179-.179.184.184,0,0,1,.184.179v2.271a.184.184,0,0,1-.184.184Z" transform="translate(-145.569 -137.309)"/><path class="b" d="M177.645,222.58l6.381-3.694c.416-.242.755-.058.755.407a1.636,1.636,0,0,1-.755,1.278l-6.381,3.723c-.416.242-.755.058-.755-.407A1.646,1.646,0,0,1,177.645,222.58Z" transform="translate(-135.582 -139.248)"/><path class="s" d="M220.234,203.814a.184.184,0,0,1-.184-.179v-2.271a.184.184,0,0,1,.184-.184.179.179,0,0,1,.179.184v2.271A.179.179,0,0,1,220.234,203.814Z" transform="translate(-157.846 -130.169)"/><path class="b" d="M201.455,208.722,207.836,205c.416-.237.755-.058.755.412a1.646,1.646,0,0,1-.755,1.278l-6.381,3.718c-.416.242-.755.058-.755-.407A1.646,1.646,0,0,1,201.455,208.722Z" transform="translate(-147.864 -132.085)"/><path class="s" d="M244.044,189.984a.184.184,0,0,1-.184-.184v-2.271a.179.179,0,0,1,.184-.179.174.174,0,0,1,.179.179V189.8a.179.179,0,0,1-.179.184Z" transform="translate(-170.128 -123.035)"/><path class="b" d="M225.265,194.925l6.381-3.718c.416-.242.755-.058.755.407a1.637,1.637,0,0,1-.755,1.278l-6.381,3.723c-.421.242-.755.058-.755-.407a1.632,1.632,0,0,1,.755-1.283Z" transform="translate(-160.147 -124.969)"/><path class="b" d="M249.07,181.052l6.386-3.723c.416-.237.755-.058.755.412a1.646,1.646,0,0,1-.755,1.278l-6.386,3.718c-.416.242-.75.058-.75-.407A1.641,1.641,0,0,1,249.07,181.052Z" transform="translate(-172.429 -117.812)"/></g><g transform="translate(48.862 163.326)"><path class="c" d="M122.358,352.818l6.434-3.709s3.994-11.755,2.982-22.581c-1.273-13.45-7.625-18.2-11.353-16.679s-2.958,6.86,1,14.04C124.541,329.6,124.551,342.729,122.358,352.818Z" transform="translate(-102.222 -309.578)"/><path class="j" d="M122.358,352.818l6.434-3.709s3.994-11.755,2.982-22.581c-1.273-13.45-7.625-18.2-11.353-16.679s-2.958,6.86,1,14.04C124.541,329.6,124.551,342.729,122.358,352.818Z" transform="translate(-102.222 -309.578)"/><path class="l" d="M129.357,354.468a.291.291,0,0,0,.276-.2c4.144-12.69,4.319-30.5-3.525-38.543a.291.291,0,1,0-.416.407c7.4,7.582,7.533,25.253,3.389,37.953a.29.29,0,0,0,.189.368A.282.282,0,0,0,129.357,354.468Z" transform="translate(-106.147 -312.704)"/><path class="c" d="M93.965,375.048c-.668.383-2.043-.455-2.566-.809a6.391,6.391,0,0,1-2.116-2.421,5.97,5.97,0,0,1-.533-3.583,14.493,14.493,0,0,1,.455-1.9c.179-.615.353-1.23.533-1.849a4.716,4.716,0,0,0,.271-1.859c-.165-1.264-1.283-2.15-2.3-2.9-1.128-.842-2.3-1.961-2.295-3.481a5.326,5.326,0,0,1,1.341-3.186c.726-.92,1.588-1.733,2.246-2.706a3.714,3.714,0,0,0,.765-2.363,3.951,3.951,0,0,0-.513-1.477,20.73,20.73,0,0,1-1.617-2.963,2.976,2.976,0,0,1,.513-3.147,3.5,3.5,0,0,1,2.619-.654,6,6,0,0,1,2.421.857c2.421,1.346,3.8,4.2,6.357,5.239a24.8,24.8,0,0,0,3.1.755,3.811,3.811,0,0,1,2.556,1.753c.944,1.879-.8,4.2-.145,6.192.586,1.762,2.3,2.421,3.268,4.028a3.776,3.776,0,0,1,.45,2.309,11.106,11.106,0,0,1-.968,3.907,27.725,27.725,0,0,1-2.14,3.515C105.623,368.328,94.067,374.99,93.965,375.048Z" transform="translate(-85.41 -325.131)"/><path class="l" d="M105.987,373.114a.266.266,0,0,0,.257-.232c1.244-9.857-3.462-23.157-10.492-29.64a.261.261,0,0,0-.353.383c6.919,6.386,11.552,19.482,10.327,29.194a.261.261,0,0,0,.228.29Z" transform="translate(-90.528 -326.915)"/><path class="l" d="M104.052,375.825a.257.257,0,0,0,.208-.107.261.261,0,0,0-.048-.363c-3.873-2.9-9.809-2.421-10.056-2.382a.261.261,0,0,0-.237.286.266.266,0,0,0,.281.237c.063,0,5.979-.513,9.683,2.276A.271.271,0,0,0,104.052,375.825Z" transform="translate(-89.799 -342.253)"/><path class="l" d="M113.371,365.423a.257.257,0,0,0,.257-.247,10.431,10.431,0,0,1,3.621-7.262.261.261,0,0,0,.048-.368.266.266,0,0,0-.368-.044,10.859,10.859,0,0,0-3.82,7.659.261.261,0,0,0,.247.271Z" transform="translate(-99.699 -334.271)"/></g><g transform="translate(89.211 101.714)"><path class="s" d="M206.117,319.529a33.01,33.01,0,0,1-16.132-23.665l-3.433-22.789a32.985,32.985,0,0,0-13.324-21.845L168.75,248v2.556l2.421,1.753A33.01,33.01,0,0,1,184.485,274.1l3.5,22.949a33.014,33.014,0,0,0,16.122,23.607l2,1.152v-2.271Z" transform="translate(-168.75 -216.201)"/><path class="k" d="M245.048,230.188,241.615,207.4A32.99,32.99,0,0,0,228.3,185.554l-4.478-3.234-55.067,31.8,4.478,3.234A32.985,32.985,0,0,1,186.552,239.2l3.433,22.789a33.009,33.009,0,0,0,16.132,23.665h0l55.067-31.794h0a33,33,0,0,1-16.137-23.67Z" transform="translate(-168.75 -182.32)"/><path class="b" d="M223.788,182.9l4.222,3.05a32.724,32.724,0,0,1,13.13,21.525l3.428,22.789a33.31,33.31,0,0,0,15.658,23.588l-54.109,31.238a32.361,32.361,0,0,1-15.658-23.176l-3.428-22.789a33.7,33.7,0,0,0-13.518-22.169l-3.873-2.794L223.788,182.9m.029-.576-55.067,31.8,4.478,3.234A32.985,32.985,0,0,1,186.552,239.2l3.433,22.789a33.01,33.01,0,0,0,16.132,23.665h0l55.067-31.794a32.995,32.995,0,0,1-16.137-23.665L241.615,207.4a32.99,32.99,0,0,0-13.319-21.85l-4.478-3.234Z" transform="translate(-168.75 -182.32)"/><path class="r" d="M245.93,361.864,301,330.07v2.271L245.93,364.135Z" transform="translate(-208.563 -258.536)"/><path class="c" d="M188.3,243.99c-1.937.818-2.125,2.493-.46,3.752a7.233,7.233,0,0,0,6.5.789c1.937-.813,2.13-2.493.484-3.747A7.219,7.219,0,0,0,188.3,243.99Z" transform="translate(-178.016 -213.905)"/><path class="l" d="M192.393,247.112a2.21,2.21,0,0,1-.484,0,2.086,2.086,0,0,1-1-.358c-.445-.334-.4-.77.121-.968h0a2.125,2.125,0,0,1,1.065-.111,2.16,2.16,0,0,1,1,.363c.445.334.392.77-.121.968A1.743,1.743,0,0,1,192.393,247.112Z" transform="translate(-180.023 -214.989)"/><path class="l" d="M196.85,248.54a3.389,3.389,0,0,0-1.685.174l-.484.213c-.876.378-.968,1.118-.2,1.69l.271.2a6.144,6.144,0,0,0,2.735-.218c.833-.32,1.341-.687,1.414-1.215l-.373-.247A3.544,3.544,0,0,0,196.85,248.54Z" transform="translate(-181.754 -216.46)"/><path class="p" d="M207.99,226.885l16.171-9.339a1.98,1.98,0,0,1,2.029.107l.145.116a.784.784,0,0,1-.111,1.38l-16.156,9.359a1.883,1.883,0,0,1-1.975-.174c-.058-.044-.116-.087-.169-.136a.726.726,0,0,1,.068-1.312Z" transform="translate(-188.759 -200.373)"/><path class="p" d="M214.5,238.734l8.1-4.672a.431.431,0,0,0,.082-.721l-.145-.14a.842.842,0,0,0-.968-.111l-8.051,4.706a.436.436,0,0,0-.082.726l.1.1A.852.852,0,0,0,214.5,238.734Z" transform="translate(-191.717 -208.455)"/><path class="t" d="M204.273,236.156l43.632-25.2a1.346,1.346,0,0,1,1.748.382l.092.131a1.128,1.128,0,0,1-.387,1.617L205.7,238.306a1.293,1.293,0,0,1-1.7-.412l-.092-.14a1.1,1.1,0,0,1,.368-1.6Z" transform="translate(-186.781 -197.003)"/><path class="t" d="M209.655,245.04l43.68-25.21a1.123,1.123,0,0,1,1.593.484l.068.14a1.365,1.365,0,0,1-.552,1.709l-43.69,25.244a1.07,1.07,0,0,1-1.535-.484l-.077-.155A1.322,1.322,0,0,1,209.655,245.04Z" transform="translate(-189.515 -201.587)"/><path class="t" d="M213.646,254.665l43.719-25.239a.934.934,0,0,1,1.419.547l.058.218a1.632,1.632,0,0,1-.726,1.772l-43.7,25.258a.886.886,0,0,1-1.36-.566.844.844,0,0,0-.068-.232A1.593,1.593,0,0,1,213.646,254.665Z" transform="translate(-191.54 -206.54)"/><path class="t" d="M216.068,276.442l25.413-14.675a.77.77,0,0,1,1.23.6l.053.339a1.9,1.9,0,0,1-.867,1.8l-25.413,14.689a.77.77,0,0,1-1.23-.591,2.285,2.285,0,0,0-.053-.358A1.937,1.937,0,0,1,216.068,276.442Z" transform="translate(-192.707 -223.224)"/><path class="c" d="M270.091,287.97l-41.584,24.014a2.677,2.677,0,0,1-3.51-.755,37.082,37.082,0,0,1-5.268-15.052l-1.661-11.034a3.83,3.83,0,0,1,1.733-3.607l41.637-24.053a1.539,1.539,0,0,1,2.459,1.186l1.661,11.039a34.723,34.723,0,0,0,5.238,15.072,2.2,2.2,0,0,1-.707,3.191Z" transform="translate(-194.181 -220.944)"/><path class="q" d="M270.091,287.97l-41.584,24.014a2.677,2.677,0,0,1-3.51-.755,37.082,37.082,0,0,1-5.268-15.052l-1.661-11.034a3.83,3.83,0,0,1,1.733-3.607l41.637-24.053a1.539,1.539,0,0,1,2.459,1.186l1.661,11.039a34.723,34.723,0,0,0,5.238,15.072,2.2,2.2,0,0,1-.707,3.191Z" transform="translate(-194.181 -220.944)"/><path class="c" d="M233.011,330.32l41.584-24.014a2.2,2.2,0,0,0,.707-3.191,32.1,32.1,0,0,1-3.3-6.735l-12.9-3.641-5.727,12.714,6.221,5-21.709-11.426-11.1,25.239a30.468,30.468,0,0,0,2.721,5.3A2.677,2.677,0,0,0,233.011,330.32Z" transform="translate(-198.685 -239.28)"/><path class="c" d="M273.207,286.772a2.056,2.056,0,0,1,3.258,1.637,5.113,5.113,0,0,1-2.285,4.841,2.05,2.05,0,0,1-3.253-1.636A5.108,5.108,0,0,1,273.207,286.772Z" transform="translate(-221.441 -236.009)"/><path class="c" d="M300.143,348.829a2.419,2.419,0,0,1-.416,0,1.792,1.792,0,0,1-.842-.305c-.368-.276-.324-.639.1-.823h0a1.773,1.773,0,0,1,.886-.092,1.844,1.844,0,0,1,.842.3c.368.281.324.644-.1.828A1.393,1.393,0,0,1,300.143,348.829Z" transform="translate(-235.751 -267.573)"/><path class="c" d="M303.868,350.045a2.793,2.793,0,0,0-1.409.145l-.421.174c-.731.315-.809.934-.169,1.414l.223.169a5.18,5.18,0,0,0,2.29-.184c.692-.266,1.118-.576,1.181-1.017l-.315-.2A2.9,2.9,0,0,0,303.868,350.045Z" transform="translate(-237.195 -268.824)"/><path class="c" d="M305.941,346.31l-1.559.077-.421.363a.15.15,0,0,0,0,.232l.421.334,1.583-.063Zm-1.665.658a.115.115,0,1,1,.116-.116.116.116,0,0,1-.116.116Z" transform="translate(-238.47 -266.914)"/><path class="c" d="M322.995,340.539c0,.237-.305.436-.484.533a2.945,2.945,0,0,1-1.094.353C321.048,340.994,321.755,340.243,322.995,340.539Z" transform="translate(-247.452 -263.902)"/><path class="c" d="M319.267,336.441a3.894,3.894,0,0,0-4.193-.571,1.87,1.87,0,0,0-.349,3.191,4.3,4.3,0,0,0,4.474.237C320.448,338.566,320.415,337.38,319.267,336.441Zm-1.888-.223a.576.576,0,0,1,.649.1.291.291,0,0,1-.058.484.591.591,0,0,1-.673-.073.315.315,0,0,1,.082-.513Zm-2.295,1.762a.315.315,0,0,1,.082-.518.566.566,0,0,1,.644.1.29.29,0,0,1-.053.484.591.591,0,0,1-.7-.048Zm3.8.707a3.583,3.583,0,0,1-1.743.421,3.525,3.525,0,0,1-1.53-.324l3.253-1.835a1.351,1.351,0,0,1,.61,1.017,1.041,1.041,0,0,1-.615.741Z" transform="translate(-243.667 -261.329)"/><path class="c" d="M334.6,327.453a1.937,1.937,0,0,0-.431-.484,2.731,2.731,0,0,0-2.934-.4A1.307,1.307,0,0,0,331,328.8a2.2,2.2,0,0,0,.324.213h0a11.2,11.2,0,0,0,4.091.93A4.638,4.638,0,0,0,334.6,327.453Zm-1.264.915a1.452,1.452,0,0,1-1.5-.077.63.63,0,0,1,.116-1.07,1.307,1.307,0,0,1,1.4.194c.387.315.4.712-.019.954Z" transform="translate(-252.176 -256.597)"/></g><g transform="translate(172.221 76.068)"><path class="u" d="M433.289,339.075l-6.226,18.17a.586.586,0,0,1-1.109,0L419.81,338.93Z" transform="translate(-381.269 -237.461)"/><path class="g" d="M431.1,372.572a.586.586,0,0,0,1.109,0l1.215-3.549h0a3.239,3.239,0,0,1-3.365-.189l-.271-.184Z" transform="translate(-386.417 -252.792)"/><path class="c" d="M420.053,171.58V175.5l-.223,77.1a8.618,8.618,0,0,0,5.679,2.672c3.258.339,6.6-.731,7.795-2.522l.218-77.053v-4.1C433.362,174.248,419.936,174.243,420.053,171.58Z" transform="translate(-381.279 -151.134)"/><path class="s" d="M420.209,185.514v3.97c-.039,1.152,2.421,1.9,5.243,2.154,3.757.358,8.182-.658,8.231-2.184V185.48c-.058,1.525-4.483,2.547-8.231,2.188-2.711-.252-5.084-.968-5.219-2.029h0A.232.232,0,0,1,420.209,185.514Z" transform="translate(-381.474 -158.305)"/><path class="c" d="M420.229,183.329c-.1,2.673,13.372,2.639,13.469-.034V179.32c-.1,2.672-13.556,2.706-13.469.034Z" transform="translate(-381.485 -155.127)"/><path class="s" d="M420.289,171.58V175.5c-.116,2.624,12.883,2.7,13.469.194a.693.693,0,0,0,.024-.15v-3.951C433.6,174.248,420.173,174.243,420.289,171.58Z" transform="translate(-381.515 -151.134)"/><path class="v" d="M433.816,132.986v-.169c0-1.912-3.011-3.467-6.73-3.467s-6.735,1.554-6.735,3.467v1.806l-.063,15.173c-.048,1.138,2.372,1.888,5.18,2.159,3.757.368,8.2-.625,8.284-2.145h0l.058-16.7A.573.573,0,0,0,433.816,132.986Z" transform="translate(-381.516 -129.35)"/><ellipse class="w" cx="6.735" cy="3.467" rx="6.735" ry="3.467" transform="translate(38.837 0)"/><path class="j" d="M441.224,157.785l.073-20.925c-.087,1.636-2.9,3.186-5.931,3.3l-.218,97.266-.358,15.585,6.226-18.17h0Z" transform="translate(-388.996 -133.224)"/><path class="x" d="M403.09,213.511c2.561-.373,5.718,1.554,7.916,4.643s9.857,10.608,10.7,13c.61,1.743.252,5.021-3.355,3.481-3.491-1.486-14.621-12.4-14.621-12.4Z" transform="translate(-372.644 -172.741)"/><path class="y" d="M400.56,213.261a12.692,12.692,0,0,1,2.508-.281,8.419,8.419,0,0,1,4.924,2.58c2.048,1.995,7.364,8.439,7.364,8.439a5.243,5.243,0,0,1-1.544,3.83,5.111,5.111,0,0,1-3.447,2.019l-7.9-6.541Z" transform="translate(-371.339 -172.49)"/><path class="x" d="M436.4,227.6l5.616-8.153V213.46a3.151,3.151,0,0,1,1.733,2.348c.494,1.932,1.109,4.178.862,5.81s-4.135,11.6-6.231,13S436.4,227.6,436.4,227.6Z" transform="translate(-389.825 -172.738)"/><path class="x" d="M384.19,206.392l1.094,6.894,6.831-.368-.978-8.008Z" transform="translate(-362.894 -168.327)"/><path class="z" d="M373.139,190.51s-1.627,2.469-1.453,2.711,1.385.484,1.385.484Z" transform="translate(-356.437 -160.899)"/><path class="x" d="M379.045,176.047c-3.292.7-4.246,2.145-4.556,7.378-.324,5.471.232,7.19.968,7.926.484.484,3.181.586,4.541.213,1.7-.484,5.548-1.835,7.349-4.585,2.116-3.234,2.673-7.625.407-9.422C384.565,175.02,380.406,175.766,379.045,176.047Z" transform="translate(-357.841 -153.272)"/><path class="z" d="M384.32,208.286a13.393,13.393,0,0,0,1.733-.436,3.036,3.036,0,0,1-1.651.968Z" transform="translate(-362.961 -169.844)"/><path class="g" d="M372.606,172.82a6.294,6.294,0,0,0,1.452.586c.8.232.683.533.794,1.268a2.992,2.992,0,0,0,.905,1.738c.315.286.547.31.654.746a6.169,6.169,0,0,1,0,1.37c0,.91.591,1.6.871.382,0,0,.523-2.024,2.227-1.767s1.854,2.174,1.041,3.68c-.484.92-1.82.678-1.82.678a5.941,5.941,0,0,0,1.782,4.585s1.695,1.259,4.357-.048a34.4,34.4,0,0,0,3.031-4.6c1.181-2.053,2.2-4.58,1.8-7a4.517,4.517,0,0,0-1.147-2.421,1.646,1.646,0,0,1-.552-1.21,2.348,2.348,0,0,0-.823-1.389,2.392,2.392,0,0,0-2.421-.324,2,2,0,0,0-1.53-1.791,3.679,3.679,0,0,0-2.455.339,2.711,2.711,0,0,0-4.551-.286,1.453,1.453,0,0,0-1.143-.658,3.539,3.539,0,0,0-1.341.213,5,5,0,0,0-1.046.445,3.341,3.341,0,0,0-1.491,3.617,2.9,2.9,0,0,0,1.4,1.85Z" transform="translate(-356.147 -148.384)"/><path class="g" d="M405.9,176.852l1.971-1.162a1.144,1.144,0,1,0-1.971,1.162Z" transform="translate(-374.012 -152.964)"/><path class="g" d="M393.857,386.107l.044.441a7.917,7.917,0,0,1,.044,1.757,1.559,1.559,0,0,1-.542,1.176,4.881,4.881,0,0,1-1.283.484,4.507,4.507,0,0,1-2.987-.3,13.442,13.442,0,0,0-2.217-1.2,16.787,16.787,0,0,0-2.634-.436,5.971,5.971,0,0,1-1.167-.213,5.415,5.415,0,0,1-.838-.378,8.181,8.181,0,0,1-2.484-1.816,3.873,3.873,0,0,1-.891-1.772c-.077-.392-.232-1.511.412-1.482,3.171.14,6.294.823,9.48.784a4.393,4.393,0,0,1,.62,0,2.691,2.691,0,0,1,1.065.484,1.094,1.094,0,0,0,.968.237,4.916,4.916,0,0,1,1.641.024.774.774,0,0,1,.566.387.648.648,0,0,1,.048.237C393.755,385.1,393.808,385.585,393.857,386.107Z" transform="translate(-360.128 -259.874)"/><path class="x" d="M404.573,381.745l-.165,2.387c-.155.91-3.254,1.452-3.873-.14l-.305-2.711Z" transform="translate(-371.168 -259.307)"/><path class="g" d="M367.851,401.739s.378,1.239.576,2.324a6.278,6.278,0,0,1,.058,2.944c-.315.639-1.5,1.026-3.316.968a10.617,10.617,0,0,0-4.3,1.394,11.513,11.513,0,0,1-5.384.731c-1.612-.228-3.263-1.206-3.51-1.879s.116-1.365,3.96-2.9c.034,0,5.326-1.607,7.224-3.6Z" transform="translate(-346.245 -269.851)"/><path class="x" d="M379.861,398.58s-.029,1.051-.034,1.656-.741,1.482-2.581,1.375c-1.293-.077-2.184-.445-2.111-1.506l.034-1.535Z" transform="translate(-358.221 -268.227)"/><path class="c" d="M389.221,304.359c-.547-4.648-.968-7.316-.968-7.316s.1-6.478.484-12.515c.411-6.526.32-14.742.484-16.369,0,0-20.959-4.474-21.133,3.084-.194,8.783.387,26.953.513,29.32.174,3.321.184,6.778.746,12.167.557,5.326,2.169,17.889,2.169,17.889a4.977,4.977,0,0,0,4.691,0s1.825-15.062,1.753-18.882a52.15,52.15,0,0,0-.794-8.279l1.651-17.052s.649,5.272.823,8.594.629,5.35,1.452,11.533c.712,5.36,2.518,16.679,2.518,16.679a4.246,4.246,0,0,0,4.459-.179S389.769,309.012,389.221,304.359Z" transform="translate(-354.568 -200.276)"/><path class="e" d="M389.221,304.359c-.547-4.648-.968-7.316-.968-7.316s.1-6.478.484-12.515c.411-6.526.32-14.742.484-16.369,0,0-20.959-4.474-21.133,3.084-.194,8.783.387,26.953.513,29.32.174,3.321.184,6.778.746,12.167.557,5.326,2.169,17.889,2.169,17.889a4.977,4.977,0,0,0,4.691,0s1.825-15.062,1.753-18.882a52.15,52.15,0,0,0-.794-8.279l1.651-17.052s.649,5.272.823,8.594.629,5.35,1.452,11.533c.712,5.36,2.518,16.679,2.518,16.679a4.246,4.246,0,0,0,4.459-.179S389.769,309.012,389.221,304.359Z" transform="translate(-354.568 -200.276)"/><path class="aa" d="M398.264,290.88s-1.452,2.4-5.858,4.149l-1.23,4.115-.131,7.233c-.169-2.329-.426-4.875-.755-7.572l.484-4.241S395.654,293.093,398.264,290.88Z" transform="translate(-366.041 -212.675)"/><path class="p" d="M389.911,218c-.842-3-2.823-4.319-5.016-4.459-.557-.034-1.69,0-1.69,0,.155,1.273-3.757,2.169-6.778,1.452-.92.237-2.421.581-3.2.838-2.184.726-4.808,3.457-5.147,10.588,0,0-.349,15.323-.242,19.778a25.138,25.138,0,0,0,13.755,1.937c6.551-1.273,7.625-4.081,7.625-4.081s-.058-3.873-.3-10.1C390.008,225.139,390.274,219.3,389.911,218Z" transform="translate(-354.449 -172.773)"/><path class="x" d="M350.127,245.863a4.062,4.062,0,0,1,1.912,3.389,10.487,10.487,0,0,0,.746,4.169c.107.208.678.678.9.61v-1.782A16.055,16.055,0,0,0,355.3,250.4c.426-.881-.073-1.937.184-2.9a4.314,4.314,0,0,0,.329-1.172,3.278,3.278,0,0,0-1.089-2.682,34.319,34.319,0,0,1-2.687-2.619c-1.123-1.128-2.682-2.789-3.805-3.922l7.538-7.228a10.878,10.878,0,0,0,2.15-2.861c1.235-2.372,2.9-6.531,1.041-8.715-2.687,0-4.212.412-6.957,3.612-2.367,2.76-9.925,11.813-10.9,13.348s-1.53,2.585.334,4.29a55.966,55.966,0,0,0,4.754,3.636C347.464,244.1,348.854,244.957,350.127,245.863Z" transform="translate(-340.204 -175.235)"/><path class="z" d="M354.329,257.19a8.486,8.486,0,0,1-2.309,1.588,6.934,6.934,0,0,0,2.832-1.055Z" transform="translate(-346.299 -195.296)"/><path class="y" d="M366.023,217.784a13.323,13.323,0,0,0-3.254.247c-1.632.353-2.731,1.181-5.558,4.382s-4.812,5.81-4.812,5.81-.813,1.8,1.453,3.844a5.527,5.527,0,0,0,4.309,1.69l6.352-6.178S369.044,222.839,366.023,217.784Z" transform="translate(-346.421 -174.961)"/></g></g></svg>