<?xml version="1.0" encoding="utf-8"?>
<!-- Generator: Adobe Illustrator 25.2.3, SVG Export Plug-In . SVG Version: 6.00 Build 0)  -->
<svg version="1.1" id="Layer_1" xmlns="http://www.w3.org/2000/svg" xmlns:xlink="http://www.w3.org/1999/xlink" x="0px" y="0px"
	 viewBox="0 0 40 25" style="enable-background:new 0 0 40 25;" xml:space="preserve">
<style type="text/css">
	.st0{fill:#CA0027;}
	.st1{fill:#AFAFAF;}
	.st2{fill:#FFFFFF;}
	.st3{fill:#7C7C7C;}
</style>
<g>
	<path class="st3" d="M34,22.7h-7.5c-0.7,0-1.2-0.5-1.2-1.2c0-0.7,0.5-1.2,1.2-1.2c0,0,0,0,0,0H27c0.8,0,1.5-0.7,1.5-1.5
		c0-0.8-0.7-1.5-1.5-1.5l0,0h-4.5v0.6H27c0.5,0,0.9,0.4,0.9,0.9c0,0.5-0.4,0.9-0.9,0.9l0,0h-0.5c-1,0-1.8,0.8-1.9,1.8
		c0,1,0.8,1.8,1.8,1.9c0,0,0,0,0,0H34c0.2,0,0.3-0.1,0.3-0.3C34.4,22.8,34.2,22.7,34,22.7z"/>
	<path class="st3" d="M18.8,15.8v1.8H22v-1.8C20.9,16.1,19.8,16.1,18.8,15.8L18.8,15.8z"/>
	<path class="st3" d="M21,3.1V3c0-0.4-0.3-0.6-0.6-0.6c-0.4,0-0.6,0.3-0.6,0.6v0.2c0.2,0,0.4,0,0.6,0C20.6,3.1,20.8,3.1,21,3.1z"/>
	<path class="st3" d="M13.9,9.6c0-2.5,1.4-4.7,3.6-5.8h-6.1c-3.1,0-5.6,2.5-5.6,5.7c0,3.1,2.5,5.6,5.6,5.6H17
		C15.1,13.9,13.9,11.8,13.9,9.6L13.9,9.6z M11.8,12.2c-0.4,0-0.6-0.3-0.6-0.6c0-0.4,0.3-0.6,0.6-0.6c0.4,0,0.6,0.3,0.6,0.6l0,0
		C12.4,11.9,12.1,12.2,11.8,12.2L11.8,12.2z M11.8,10c-0.4,0-0.6-0.3-0.6-0.6c0-0.4,0.3-0.6,0.6-0.6c0.4,0,0.6,0.3,0.6,0.6l0,0
		C12.4,9.8,12.1,10,11.8,10L11.8,10z M11.8,7.9c-0.4,0-0.6-0.3-0.6-0.6c0-0.4,0.3-0.6,0.6-0.6c0.4,0,0.6,0.3,0.6,0.6l0,0
		C12.4,7.6,12.1,7.9,11.8,7.9L11.8,7.9z"/>
	<path class="st3" d="M26.2,9.6c0-3.2-2.6-5.8-5.8-5.8c-3.2,0-5.8,2.6-5.8,5.8s2.6,5.8,5.8,5.8c0.6,0,1.2-0.1,1.8-0.3
		C24.6,14.3,26.2,12.1,26.2,9.6L26.2,9.6z M19.3,12.1c-0.1,0.2-0.3,0.2-0.4,0.1c-0.1,0-0.2-0.1-0.2-0.1c-0.1-0.1-0.2-0.3-0.1-0.4
		s0.3-0.2,0.4-0.1c0.1,0,0.1,0.1,0.2,0.1C19.3,11.8,19.4,12,19.3,12.1C19.3,12.1,19.3,12.1,19.3,12.1L19.3,12.1z M20.4,12.7
		c-0.1,0-0.3,0-0.4,0c-0.2,0-0.3-0.2-0.3-0.4S19.9,12,20,12c0,0,0,0,0,0c0.1,0,0.2,0,0.3,0c1.4,0,2.5-1.1,2.5-2.5
		c0-1.4-1.1-2.5-2.5-2.5c-1.4,0-2.5,1.1-2.5,2.5c0,0.4,0.1,0.8,0.3,1.1c0.1,0.2,0,0.4-0.1,0.4c-0.2,0.1-0.4,0-0.4-0.1
		c-0.8-1.5-0.2-3.4,1.3-4.2s3.4-0.2,4.2,1.3c0.8,1.5,0.2,3.4-1.3,4.2C21.4,12.5,20.9,12.7,20.4,12.7L20.4,12.7z M20.7,8.4
		c-0.2-0.1-0.2-0.3-0.1-0.4c0.1-0.2,0.3-0.2,0.4-0.1l0,0c0.7,0.4,1.1,1.2,1,2c0,0.2-0.2,0.3-0.3,0.3c0,0,0,0-0.1,0
		c-0.2,0-0.3-0.2-0.3-0.4c0,0,0,0,0,0C21.4,9.2,21.2,8.6,20.7,8.4L20.7,8.4z"/>
	<path class="st3" d="M34.9,9.4c0-3.1-2.5-5.6-5.6-5.6h-6.1c3.2,1.6,4.5,5.4,3,8.6c-0.5,1.1-1.4,2-2.4,2.7h5.6
		C32.4,15,34.9,12.5,34.9,9.4L34.9,9.4z M28.9,6.6c0.4,0,0.6,0.3,0.6,0.6s-0.3,0.6-0.6,0.6c-0.4,0-0.6-0.3-0.6-0.6
		C28.3,6.9,28.6,6.6,28.9,6.6z M28.9,8.8c0.4,0,0.6,0.3,0.6,0.6S29.3,10,28.9,10c-0.4,0-0.6-0.3-0.6-0.6C28.3,9,28.6,8.8,28.9,8.8z
		 M28.3,11.6c0-0.4,0.3-0.6,0.6-0.6c0.4,0,0.6,0.3,0.6,0.6s-0.3,0.6-0.6,0.6C28.6,12.2,28.3,11.9,28.3,11.6z"/>
	<path class="st3" d="M23.6,19.9H22v-1.7h-3.2v1.7h-1.6c-0.2,0-0.3,0.1-0.3,0.3c0,0.2,0.1,0.3,0.3,0.3h6.4c0.2,0,0.3-0.1,0.3-0.3
		C23.9,20.1,23.8,19.9,23.6,19.9z"/>
</g>
</svg>
