<svg xmlns="http://www.w3.org/2000/svg" width="34.436" height="24.842" viewBox="0 0 34.436 24.842"><defs><style>.a{fill:#4e4b4b;}</style></defs><g transform="translate(-18.2 -84.4)"><path class="a" d="M52.2,108.373H43.788a1.274,1.274,0,1,1,0-2.549h.565a1.774,1.774,0,0,0,0-3.548H38V100.3h7.443a7.139,7.139,0,1,0,0-14.278H36.909v-.1a1.52,1.52,0,1,0-3.041,0v.1H25.339a7.139,7.139,0,1,0,0,14.278h7.45v4.619H31.5a1.613,1.613,0,0,0-1.607,1.607v.854a.436.436,0,0,0,.434.434H40.464a.436.436,0,0,0,.434-.434v-.854a1.613,1.613,0,0,0-1.607-1.607H38v-1.774h6.35a.905.905,0,1,1,0,1.81h-.565a2.143,2.143,0,1,0,0,4.286H52.2a.434.434,0,0,0,0-.869ZM37.431,99.46a6.446,6.446,0,1,1,4.409-6.118A6.435,6.435,0,0,1,37.431,99.46Zm-3.772,3.693h3.475v1.774H33.658Zm0-.869v-1.839a7.3,7.3,0,0,0,3.475,0v1.832H33.658Zm18.05-9.116a6.277,6.277,0,0,1-6.27,6.27h-6a7.316,7.316,0,0,0-.594-12.54h6.6A6.273,6.273,0,0,1,51.709,93.168Zm-16.972-7.24a.652.652,0,0,1,1.3,0v.1h-1.3Zm-15.668,7.24a6.277,6.277,0,0,1,6.27-6.27h6.6a7.316,7.316,0,0,0-.594,12.54h-6.01a6.282,6.282,0,0,1-6.27-6.27ZM39.291,105.8a.742.742,0,0,1,.739.739v.42H30.762v-.42a.742.742,0,0,1,.739-.739Z" transform="translate(0 0)"/><path class="a" d="M112.2,228.5a.8.8,0,1,0,.8.8A.794.794,0,0,0,112.2,228.5Zm0,.869a.072.072,0,1,1,.072-.072A.073.073,0,0,1,112.2,229.369Z" transform="translate(-86.452 -133.666)"/><path class="a" d="M112.2,194.5a.8.8,0,1,0,.8.8A.794.794,0,0,0,112.2,194.5Zm0,.869a.072.072,0,1,1,.072-.072A.073.073,0,0,1,112.2,195.369Z" transform="translate(-86.452 -102.128)"/><path class="a" d="M112.2,160.5a.8.8,0,1,0,.8.8A.794.794,0,0,0,112.2,160.5Zm0,.869a.072.072,0,1,1,.072-.072A.073.073,0,0,1,112.2,161.369Z" transform="translate(-86.452 -70.59)"/><path class="a" d="M378.6,230.093a.8.8,0,1,0-.8-.8A.794.794,0,0,0,378.6,230.093Zm0-.869a.072.072,0,1,1-.072.072A.073.073,0,0,1,378.6,229.224Z" transform="translate(-333.563 -133.666)"/><path class="a" d="M378.6,196.093a.8.8,0,1,0-.8-.8A.794.794,0,0,0,378.6,196.093Zm0-.869a.072.072,0,1,1-.072.072A.073.073,0,0,1,378.6,195.224Z" transform="translate(-333.563 -102.128)"/><path class="a" d="M378.6,162.093a.8.8,0,1,0-.8-.8A.794.794,0,0,0,378.6,162.093Zm0-.869a.072.072,0,1,1-.072.072A.073.073,0,0,1,378.6,161.224Z" transform="translate(-333.563 -70.59)"/><path class="a" d="M226,237.628c-.065-.036-.13-.08-.2-.123a.432.432,0,1,0-.492.71c.087.058.174.116.261.167a.464.464,0,0,0,.217.058.432.432,0,0,0,.21-.811Z" transform="translate(-191.945 -141.948)"/><path class="a" d="M210.062,158.7a3.569,3.569,0,0,0-3.562,3.562,3.464,3.464,0,0,0,.159,1.057,3.537,3.537,0,0,0,.246.594.434.434,0,1,0,.767-.405,3.463,3.463,0,0,1-.188-.449,2.738,2.738,0,0,1-.123-.8,2.7,2.7,0,1,1,2.693,2.693,2.8,2.8,0,0,1-.348-.022.434.434,0,0,0-.109.862,3.25,3.25,0,0,0,.463.029,3.5,3.5,0,0,0,1.187-.2,3.559,3.559,0,0,0-1.187-6.915Z" transform="translate(-174.666 -68.92)"/><path class="a" d="M259.012,182.152a.246.246,0,0,0,.072.007.435.435,0,0,0,.427-.362,2.184,2.184,0,0,0-1.108-2.281.433.433,0,1,0-.413.76,1.313,1.313,0,0,1,.666,1.376A.425.425,0,0,0,259.012,182.152Z" transform="translate(-222.218 -88.181)"/></g></svg>