<svg xmlns="http://www.w3.org/2000/svg" width="76.568" height="54.966" viewBox="0 0 76.568 54.966">
  <g id="Layer_1-2" transform="translate(-0.002)">
    <g id="Group_1005" data-name="Group 1005" transform="translate(0.002)">
      <path id="Path_982" data-name="Path 982" d="M54.988,28.9c.674-.758,1.389-1.459,2.007-2.259,1.235-1.614,2.428-3.27,3.62-4.911a8.935,8.935,0,0,0,.814-1.235,1.456,1.456,0,0,0-.6-2.175c-1.038-.435-1.081-1.066-.954-1.979.323-2.512.533-5.038.94-7.535a8.413,8.413,0,0,1,1.137-2.835,1.626,1.626,0,0,1,1.4-.519c.323.056.674.7.758,1.137.239,1.319.407,2.652.519,3.985.168,2.273.253,4.561.421,6.848a9.787,9.787,0,0,1-.884,4.771c-1.6,3.522-3.213,7.03-4.827,10.552a8.456,8.456,0,0,1-3.326,3.719c-3.466,2.147-6.89,4.35-10.384,6.441-2.47,1.473-3.971,3.382-3.677,6.413.084.786,0,1.586.014,2.386.028.73-.239,1.081-1.024,1.066q-5.515-.042-11.03,0c-.772,0-1.024-.253-1.052-1.038-.07-2.273-.239-4.561-.337-6.834-.154-3.578,1.4-6.525,3.4-9.332,3.256-4.617,7.844-6.722,13.345-7a5.492,5.492,0,0,0,4.027-1.936c.9-1,1.74-2.049,2.6-3.073a15.426,15.426,0,0,1,5.529-4.434,4.759,4.759,0,0,1,1.993-.463c1.431.028,1.908.926,1.095,2.063-1.852,2.582-3.775,5.108-5.669,7.648a1.415,1.415,0,0,0-.126.253c.1.1.21.182.309.281Z" transform="translate(11.495 2.193)" fill="#324b74"/>
      <path id="Path_983" data-name="Path 983" d="M10.327,28.659c-1.866-2.568-3.747-5.122-5.557-7.732-.295-.435-.589-1.291-.379-1.572a2.433,2.433,0,0,1,1.656-.7,4,4,0,0,1,1.7.463,15.441,15.441,0,0,1,5.318,4.224c.393.449.758.926,1.109,1.4,1.7,2.259,3.606,4.112,6.75,3.929a8.015,8.015,0,0,1,2.049.337c7.283,1.4,11.184,6.315,13.3,12.98a9.467,9.467,0,0,1,.267,3.087c-.056,2.175-.239,4.364-.309,6.539-.028.8-.225,1.151-1.095,1.137-3.634-.042-7.255-.042-10.889,0-.828,0-1.179-.267-1.137-1.109.042-.94-.056-1.894.014-2.835.2-2.61-1.137-4.336-3.2-5.613-3.171-1.965-6.315-3.943-9.528-5.823a12.508,12.508,0,0,1-5.417-6.118c-1.137-2.694-2.4-5.332-3.62-8A12.553,12.553,0,0,1,.055,16.633C.364,13.419.6,10.206.9,6.992c.07-.688.168-1.628,1-1.572A2.809,2.809,0,0,1,3.606,6.613a4.836,4.836,0,0,1,.674,2.1c.365,2.708.631,5.417.968,8.139a1.06,1.06,0,0,1-.631,1.291c-1.4.744-1.572,1.684-.575,3.045.926,1.291,1.951,2.512,2.9,3.789.449.589.772,1.277,1.235,1.852.6.73,1.291,1.389,1.951,2.091l.2-.239Z" transform="translate(-0.002 2.185)" fill="#324b74"/>
      <path id="Path_984" data-name="Path 984" d="M45.357,20.683c.14,1.417.253,2.849.435,4.266.1.73,0,1.235-.814,1.445a11.209,11.209,0,0,0-5.024,2.792c-.66.631-.954.351-1.305-.295a8.531,8.531,0,0,0-3.62-3.424c-.926-.491-1.642.112-2.371.112s-1.445-.6-2.371-.112A8,8,0,0,0,26.75,28.78c-.519,1.01-.856.786-1.628.267a31.821,31.821,0,0,0-4.364-2.484c-.7-.323-1-.645-.982-1.4a25.649,25.649,0,0,0-.267-4.827c-.295,1.375-.645,2.75-.842,4.14-.154,1.052-.519,1.487-1.628,1.137a7.8,7.8,0,0,0-2.063-.309c-.814-.042-1.123-.239-.954-1.165.716-3.971,1.516-7.914,4.1-11.2A16.077,16.077,0,0,1,23.2,8.868c.73-.393,1.375-.547,1.922.281.421.631.884.561,1.277,0a1.254,1.254,0,0,1,1.936-.295c1.5,1.024,3.031,2.049,4.448,3.185.533.421.772.519,1.333.084.982-.758,2.035-1.4,3.073-2.091a1.139,1.139,0,0,1,1.8.267c.407.589.856.631,1.277.028.561-.814,1.207-.631,1.951-.281,4.294,2.035,6.778,5.529,8.013,10.005.365,1.333.617,2.708.912,4.055.154.674.056,1.137-.828,1.179-1.081.056-2.456.716-3.129.267s-.631-1.951-.912-2.989c-.182-.66-.379-1.305-.575-1.965l-.351.084ZM32.6,24.584a3.84,3.84,0,0,0,3.845-3.747,3.8,3.8,0,1,0-7.592-.1A3.84,3.84,0,0,0,32.6,24.584Z" transform="translate(5.635 3.439)" fill="#324b74"/>
      <path id="Path_985" data-name="Path 985" d="M24,0a5.817,5.817,0,1,1-.056,11.633A5.931,5.931,0,0,1,18.19,5.781,5.89,5.89,0,0,1,24,0Z" transform="translate(7.333)" fill="#324b74"/>
      <path id="Path_986" data-name="Path 986" d="M39.474,6.689A5.627,5.627,0,1,1,28.22,6.8a5.627,5.627,0,1,1,11.254-.1Z" transform="translate(11.377 0.44)" fill="#324b74"/>
    </g>
  </g>
</svg>
